M48
; DRILL file {KiCad 7.0.9} date Sat Sep 28 05:22:21 2024
; FORMAT={-:-/ absolute / metric / decimal}
; #@! TF.CreationDate,2024-09-28T05:22:21+08:00
; #@! TF.GenerationSoftware,Kicad,Pcbnew,7.0.9
; #@! TF.FileFunction,Plated,1,4,PTH
FMAT,2
METRIC
; #@! TA.AperFunction,Plated,PTH,ViaDrill
T1C0.300
%
G90
G05
T1
X-6.0Y0.7
X-6.0Y-0.8
X-6.0Y-2.3
X-6.0Y-3.7
X-5.2Y3.8
X-5.181Y2.835
X-4.2Y-6.0
X-4.0Y11.9
X-4.0Y5.6
X-4.0Y-11.5
X-3.2Y-0.5
X-3.2Y-5.9
X-2.9Y3.2
X-2.8Y10.0
X-2.8Y6.6
X-2.3Y0.8
X-2.1Y5.9
X-1.7Y-9.4
X-1.578Y4.745
X-1.5Y-10.8
X-0.5Y-6.5
X-0.3Y11.0
X-0.3Y10.2
X0.6Y-10.6
X1.3Y5.4
X1.8Y11.2
X1.8Y7.9
X1.8Y-3.7
X2.7Y4.8
X2.7Y2.6
X2.8Y-2.5
X2.9Y-7.0
X3.8Y11.1
X3.8Y-6.1
X3.8Y-7.0
X4.5Y2.3
X4.5Y-4.7
X5.2Y6.7
X5.57Y2.43
X5.6Y0.325
X5.6Y-0.325
X6.0Y-1.175
X6.0Y-1.825
X6.03Y1.97
X9.17Y3.53
X9.63Y3.07
X10.37Y2.33
X10.6Y4.325
X10.6Y3.675
X10.83Y1.87
X11.6Y6.1
X11.7Y-1.4
X11.9Y7.4
X12.0Y9.0
X12.0Y1.8
X12.0Y-9.0
X13.0Y8.0
X13.0Y-8.0
X13.646Y6.2
T0
M30
