%TF.GenerationSoftware,KiCad,Pcbnew,7.0.9*%
%TF.CreationDate,2024-09-28T05:56:50+08:00*%
%TF.ProjectId,cameraadapt,63616d65-7261-4616-9461-70742e6b6963,rev?*%
%TF.SameCoordinates,Original*%
%TF.FileFunction,Paste,Top*%
%TF.FilePolarity,Positive*%
%FSLAX46Y46*%
G04 Gerber Fmt 4.6, Leading zero omitted, Abs format (unit mm)*
G04 Created by KiCad (PCBNEW 7.0.9) date 2024-09-28 05:56:50*
%MOMM*%
%LPD*%
G01*
G04 APERTURE LIST*
G04 Aperture macros list*
%AMRoundRect*
0 Rectangle with rounded corners*
0 $1 Rounding radius*
0 $2 $3 $4 $5 $6 $7 $8 $9 X,Y pos of 4 corners*
0 Add a 4 corners polygon primitive as box body*
4,1,4,$2,$3,$4,$5,$6,$7,$8,$9,$2,$3,0*
0 Add four circle primitives for the rounded corners*
1,1,$1+$1,$2,$3*
1,1,$1+$1,$4,$5*
1,1,$1+$1,$6,$7*
1,1,$1+$1,$8,$9*
0 Add four rect primitives between the rounded corners*
20,1,$1+$1,$2,$3,$4,$5,0*
20,1,$1+$1,$4,$5,$6,$7,0*
20,1,$1+$1,$6,$7,$8,$9,0*
20,1,$1+$1,$8,$9,$2,$3,0*%
G04 Aperture macros list end*
%ADD10RoundRect,0.135000X0.135000X0.185000X-0.135000X0.185000X-0.135000X-0.185000X0.135000X-0.185000X0*%
%ADD11R,1.300000X0.300000*%
%ADD12R,2.200000X1.800000*%
%ADD13R,0.800000X0.900000*%
%ADD14RoundRect,0.015000X0.275000X-0.135000X0.275000X0.135000X-0.275000X0.135000X-0.275000X-0.135000X0*%
%ADD15RoundRect,0.140000X-0.140000X-0.170000X0.140000X-0.170000X0.140000X0.170000X-0.140000X0.170000X0*%
%ADD16RoundRect,0.140000X-0.170000X0.140000X-0.170000X-0.140000X0.170000X-0.140000X0.170000X0.140000X0*%
%ADD17RoundRect,0.135000X-0.185000X0.135000X-0.185000X-0.135000X0.185000X-0.135000X0.185000X0.135000X0*%
%ADD18RoundRect,0.135000X0.185000X-0.135000X0.185000X0.135000X-0.185000X0.135000X-0.185000X-0.135000X0*%
%ADD19RoundRect,0.250000X-0.375000X-0.850000X0.375000X-0.850000X0.375000X0.850000X-0.375000X0.850000X0*%
%ADD20RoundRect,0.150000X0.512500X0.150000X-0.512500X0.150000X-0.512500X-0.150000X0.512500X-0.150000X0*%
%ADD21R,0.700000X0.340000*%
%ADD22RoundRect,0.225000X0.250000X-0.225000X0.250000X0.225000X-0.250000X0.225000X-0.250000X-0.225000X0*%
%ADD23RoundRect,0.250000X0.250000X0.475000X-0.250000X0.475000X-0.250000X-0.475000X0.250000X-0.475000X0*%
%ADD24RoundRect,0.150000X-0.512500X-0.150000X0.512500X-0.150000X0.512500X0.150000X-0.512500X0.150000X0*%
%ADD25RoundRect,0.218750X0.256250X-0.218750X0.256250X0.218750X-0.256250X0.218750X-0.256250X-0.218750X0*%
%ADD26RoundRect,0.135000X-0.135000X-0.185000X0.135000X-0.185000X0.135000X0.185000X-0.135000X0.185000X0*%
%ADD27RoundRect,0.218750X-0.256250X0.218750X-0.256250X-0.218750X0.256250X-0.218750X0.256250X0.218750X0*%
G04 APERTURE END LIST*
D10*
%TO.C,R13*%
X-1590000Y-100000D03*
X-2610000Y-100000D03*
%TD*%
D11*
%TO.C,J5*%
X-4200001Y5250000D03*
X-4200001Y4750000D03*
X-4200001Y4250000D03*
X-4200001Y3750000D03*
X-4200001Y3250000D03*
X-4200001Y2750000D03*
X-4200001Y2250000D03*
X-4200001Y1750000D03*
X-4200001Y1250000D03*
X-4200001Y750000D03*
X-4200001Y250000D03*
X-4200001Y-250000D03*
X-4200001Y-750000D03*
X-4200001Y-1250000D03*
X-4200001Y-1750000D03*
X-4200001Y-2250000D03*
X-4200001Y-2750000D03*
X-4200001Y-3250000D03*
X-4200001Y-3750000D03*
X-4200001Y-4250000D03*
X-4200001Y-4750000D03*
X-4200001Y-5250000D03*
D12*
X-7450001Y7150000D03*
X-7450001Y-7150000D03*
%TD*%
D13*
%TO.C,X1*%
X-1350000Y2600000D03*
X-1350000Y1200000D03*
X-250000Y1200000D03*
X-250000Y2600000D03*
%TD*%
D14*
%TO.C,L4*%
X-2855000Y-1775000D03*
X-1545000Y-1775000D03*
X-1545000Y-1225000D03*
X-2855000Y-1225000D03*
%TD*%
D15*
%TO.C,C6*%
X2220000Y11500000D03*
X3180000Y11500000D03*
%TD*%
D16*
%TO.C,C4*%
X-2800000Y11580000D03*
X-2800000Y10620000D03*
%TD*%
D14*
%TO.C,L3*%
X-2855000Y-3275000D03*
X-1545000Y-3275000D03*
X-1545000Y-2725000D03*
X-2855000Y-2725000D03*
%TD*%
D17*
%TO.C,R7*%
X400000Y4810000D03*
X400000Y3790000D03*
%TD*%
D18*
%TO.C,R4*%
X3300000Y9590000D03*
X3300000Y10610000D03*
%TD*%
D17*
%TO.C,R3*%
X2200000Y10610000D03*
X2200000Y9590000D03*
%TD*%
D16*
%TO.C,C3*%
X-2500000Y2380000D03*
X-2500000Y1420000D03*
%TD*%
D19*
%TO.C,L6*%
X1225000Y-8100000D03*
X3375000Y-8100000D03*
%TD*%
D20*
%TO.C,U1*%
X-562500Y-10850000D03*
X-562500Y-9900000D03*
X-562500Y-8950000D03*
X-2837500Y-8950000D03*
X-2837500Y-9900000D03*
X-2837500Y-10850000D03*
%TD*%
D16*
%TO.C,C5*%
X-2800000Y8180000D03*
X-2800000Y7220000D03*
%TD*%
D17*
%TO.C,R5*%
X2200000Y7510000D03*
X2200000Y6490000D03*
%TD*%
D21*
%TO.C,Q1*%
X-750000Y3800000D03*
X-750000Y4300000D03*
X-750000Y4800000D03*
X-2250000Y4800000D03*
X-2250000Y4300000D03*
X-2250000Y3800000D03*
%TD*%
D10*
%TO.C,R1*%
X3700000Y-10000000D03*
X2680000Y-10000000D03*
%TD*%
D22*
%TO.C,C1*%
X-1200000Y-5925000D03*
X-1200000Y-7475000D03*
%TD*%
D11*
%TO.C,J1*%
X12800000Y7250000D03*
X12800000Y6750000D03*
X12800000Y6250000D03*
X12800000Y5750000D03*
X12800000Y5250000D03*
X12800000Y4750000D03*
X12800000Y4250000D03*
X12800000Y3750000D03*
X12800000Y3250000D03*
X12800000Y2750000D03*
X12800000Y2250000D03*
X12800000Y1750000D03*
X12800000Y1250000D03*
X12800000Y750000D03*
X12800000Y250000D03*
X12800000Y-250000D03*
X12800000Y-750000D03*
X12800000Y-1250000D03*
X12800000Y-1750000D03*
X12800000Y-2250000D03*
X12800000Y-2750000D03*
X12800000Y-3250000D03*
X12800000Y-3750000D03*
X12800000Y-4250000D03*
X12800000Y-4750000D03*
X12800000Y-5250000D03*
X12800000Y-5750000D03*
X12800000Y-6250000D03*
X12800000Y-6750000D03*
X12800000Y-7250000D03*
D12*
X9550000Y9150000D03*
X9550000Y-9150000D03*
%TD*%
D23*
%TO.C,C2*%
X2250000Y-5700000D03*
X350000Y-5700000D03*
%TD*%
D24*
%TO.C,U4*%
X-1437500Y8150000D03*
X-1437500Y7200000D03*
X-1437500Y6250000D03*
X837500Y6250000D03*
X837500Y8150000D03*
%TD*%
D15*
%TO.C,C7*%
X2220000Y8400000D03*
X3180000Y8400000D03*
%TD*%
D18*
%TO.C,R6*%
X3300000Y6490000D03*
X3300000Y7510000D03*
%TD*%
D10*
%TO.C,R2*%
X1810000Y-10000000D03*
X790000Y-10000000D03*
%TD*%
D14*
%TO.C,L2*%
X-2855000Y-4775000D03*
X-1545000Y-4775000D03*
X-1545000Y-4225000D03*
X-2855000Y-4225000D03*
%TD*%
D25*
%TO.C,L5*%
X-4000000Y6312500D03*
X-4000000Y7887500D03*
%TD*%
D26*
%TO.C,R8*%
X1280000Y4800000D03*
X2300000Y4800000D03*
%TD*%
D11*
%TO.C,J2*%
X3700000Y-5750000D03*
X3700000Y-5250000D03*
X3700000Y-4750000D03*
X3700000Y-4250000D03*
X3700000Y-3750000D03*
X3700000Y-3250000D03*
X3700000Y-2750000D03*
X3700000Y-2250000D03*
X3700000Y-1750000D03*
X3700000Y-1250000D03*
X3700000Y-750000D03*
X3700000Y-250000D03*
X3700000Y250000D03*
X3700000Y750000D03*
X3700000Y1250000D03*
X3700000Y1750000D03*
X3700000Y2250000D03*
X3700000Y2750000D03*
X3700000Y3250000D03*
X3700000Y3750000D03*
X3700000Y4250000D03*
X3700000Y4750000D03*
X3700000Y5250000D03*
X3700000Y5750000D03*
D12*
X6950000Y-7650000D03*
X6950000Y7650000D03*
%TD*%
D27*
%TO.C,L1*%
X-2700000Y-5912500D03*
X-2700000Y-7487500D03*
%TD*%
D24*
%TO.C,U3*%
X-1437500Y11550000D03*
X-1437500Y10600000D03*
X-1437500Y9650000D03*
X837500Y9650000D03*
X837500Y11550000D03*
%TD*%
M02*
