%TF.GenerationSoftware,KiCad,Pcbnew,7.0.9*%
%TF.CreationDate,2024-09-28T05:56:50+08:00*%
%TF.ProjectId,cameraadapt,63616d65-7261-4616-9461-70742e6b6963,rev?*%
%TF.SameCoordinates,Original*%
%TF.FileFunction,Copper,L4,Bot*%
%TF.FilePolarity,Positive*%
%FSLAX46Y46*%
G04 Gerber Fmt 4.6, Leading zero omitted, Abs format (unit mm)*
G04 Created by KiCad (PCBNEW 7.0.9) date 2024-09-28 05:56:50*
%MOMM*%
%LPD*%
G01*
G04 APERTURE LIST*
%TA.AperFunction,ViaPad*%
%ADD10C,0.450000*%
%TD*%
%TA.AperFunction,Conductor*%
%ADD11C,0.508000*%
%TD*%
G04 APERTURE END LIST*
D10*
%TO.N,/MD1_N*%
X5600000Y-325000D03*
%TO.N,/MD1_P*%
X5600000Y325000D03*
%TO.N,/MD1_N*%
X9629810Y3070190D03*
%TO.N,/MD1_P*%
X9170190Y3529810D03*
%TO.N,/MCLK_N*%
X6029810Y1970190D03*
%TO.N,/MCLK_P*%
X5570190Y2429810D03*
%TO.N,/MD0_N*%
X6000000Y-1825000D03*
%TO.N,/MD0_P*%
X6000000Y-1175000D03*
X10370190Y2329810D03*
%TO.N,/MD0_N*%
X10829810Y1870190D03*
%TO.N,/MCLK_N*%
X10600000Y3675000D03*
%TO.N,/MCLK_P*%
X10600000Y4325000D03*
%TO.N,GND*%
X-4000000Y11900000D03*
X-4000000Y-11500000D03*
X3800000Y11100000D03*
X-6000000Y-3700000D03*
X-6000000Y-2300000D03*
X-6000000Y-800000D03*
X-6000000Y700000D03*
X11700000Y-1400000D03*
X4500000Y-4700000D03*
X4500000Y2300000D03*
X-5200000Y3800000D03*
X-2900000Y3200000D03*
X-4200000Y-6000000D03*
X-3200000Y-500000D03*
X2800000Y-2500000D03*
X-500000Y-6500000D03*
X600000Y-10600000D03*
X-1700000Y-9400000D03*
X11600000Y6100000D03*
X12000000Y-9000000D03*
X13000000Y-8000000D03*
X13000000Y8000000D03*
X12000000Y9000000D03*
X-2800000Y6600000D03*
X-2800000Y10000000D03*
X-300000Y10200000D03*
X-300000Y11000000D03*
X-2300000Y800000D03*
%TO.N,/XSHUTDOWN*%
X2700000Y2600000D03*
X12000000Y1800000D03*
%TO.N,+1V2*%
X13646000Y6200000D03*
%TO.N,+2V8*%
X1800000Y11200000D03*
X11900000Y7400000D03*
X3800000Y-6100000D03*
%TO.N,+1V8*%
X5200000Y6700000D03*
X1800000Y-3700000D03*
X1800000Y7900000D03*
X1300000Y5400000D03*
%TO.N,+1V2*%
X2900000Y-7000000D03*
X3800000Y-7000000D03*
%TO.N,/SDA_1V8*%
X2700000Y4800000D03*
X-1577676Y4745500D03*
%TO.N,+3.3V*%
X-3200000Y-5900000D03*
X-4000000Y5600000D03*
%TO.N,/EN*%
X-1500000Y-10800000D03*
X-2100000Y5900000D03*
X-5181480Y2834815D03*
%TD*%
D11*
%TO.N,+1V2*%
X13646000Y2496000D02*
X13646000Y6200000D01*
X11796793Y646793D02*
X13646000Y2496000D01*
X4150000Y-7000000D02*
X11796793Y646793D01*
X2900000Y-7000000D02*
X4150000Y-7000000D01*
%TO.N,+2V8*%
X600000Y10000000D02*
X1800000Y11200000D01*
X600000Y-4100000D02*
X600000Y10000000D01*
X2600000Y-6100000D02*
X600000Y-4100000D01*
X3800000Y-6100000D02*
X2600000Y-6100000D01*
X1800000Y11200000D02*
X5600000Y7400000D01*
X5600000Y7400000D02*
X11900000Y7400000D01*
%TO.N,+1V8*%
X1800000Y7900000D02*
X1800000Y5400000D01*
X1800000Y5400000D02*
X1800000Y-3700000D01*
X1300000Y5400000D02*
X1800000Y5400000D01*
X4000000Y7900000D02*
X1800000Y7900000D01*
X5200000Y6700000D02*
X4000000Y7900000D01*
%TO.N,+3.3V*%
X-4000000Y-5100000D02*
X-4000000Y5600000D01*
X-3200000Y-5900000D02*
X-4000000Y-5100000D01*
%TD*%
%TA.AperFunction,Conductor*%
%TO.N,GND*%
G36*
X6497460Y12182014D02*
G01*
X6500355Y12181786D01*
X6941561Y12129606D01*
X6944429Y12129152D01*
X7380169Y12042547D01*
X7382993Y12041870D01*
X7810619Y11921364D01*
X7813381Y11920467D01*
X8230234Y11766810D01*
X8232918Y11765699D01*
X8636438Y11579836D01*
X8639027Y11578519D01*
X9026751Y11361582D01*
X9029221Y11360070D01*
X9399940Y11112606D01*
X9438458Y11084649D01*
X9438459Y11084648D01*
X12525244Y8844239D01*
X12747157Y8683173D01*
X12784902Y8655777D01*
X12786440Y8654598D01*
X13003947Y8478629D01*
X13006829Y8476035D01*
X13204074Y8278951D01*
X13206670Y8276070D01*
X13382208Y8059454D01*
X13384488Y8056317D01*
X13536424Y7822509D01*
X13538360Y7819158D01*
X13581890Y7733778D01*
X13665003Y7570758D01*
X13666581Y7567216D01*
X13766551Y7306930D01*
X13767750Y7303243D01*
X13839954Y7033925D01*
X13840760Y7030132D01*
X13882537Y6766511D01*
X13872883Y6716822D01*
X13833547Y6684963D01*
X13788602Y6683927D01*
X13751206Y6694907D01*
X13718538Y6704500D01*
X13718536Y6704500D01*
X13573464Y6704500D01*
X13573461Y6704500D01*
X13500986Y6683219D01*
X13434268Y6663629D01*
X13312225Y6585196D01*
X13312222Y6585192D01*
X13312221Y6585192D01*
X13217223Y6475559D01*
X13217223Y6475558D01*
X13156958Y6343596D01*
X13156957Y6343593D01*
X13156957Y6343592D01*
X13141500Y6236087D01*
X13141500Y2735623D01*
X13124187Y2688057D01*
X13119826Y2683297D01*
X12503096Y2066567D01*
X12457220Y2045175D01*
X12408325Y2058276D01*
X12394846Y2070431D01*
X12314589Y2163055D01*
X12199561Y2236978D01*
X12155829Y2249818D01*
X12068369Y2275500D01*
X12068367Y2275500D01*
X11931633Y2275500D01*
X11931631Y2275500D01*
X11800439Y2236978D01*
X11685411Y2163055D01*
X11595870Y2059718D01*
X11547050Y1952818D01*
X11539068Y1935339D01*
X11519610Y1800000D01*
X11539068Y1664660D01*
X11595871Y1540280D01*
X11685410Y1436946D01*
X11685416Y1436941D01*
X11722647Y1413014D01*
X11753302Y1372733D01*
X11750893Y1322172D01*
X11734965Y1298436D01*
X11465572Y1029043D01*
X4416425Y-6020103D01*
X4370549Y-6041495D01*
X4321654Y-6028394D01*
X4293097Y-5988626D01*
X4263629Y-5888269D01*
X4263629Y-5888268D01*
X4185196Y-5766225D01*
X4185192Y-5766222D01*
X4185192Y-5766221D01*
X4075559Y-5671223D01*
X4040924Y-5655406D01*
X3943596Y-5610958D01*
X3943591Y-5610957D01*
X3943592Y-5610957D01*
X3836087Y-5595500D01*
X3836083Y-5595500D01*
X2839623Y-5595500D01*
X2792057Y-5578187D01*
X2787297Y-5573826D01*
X1484024Y-4270553D01*
X1462632Y-4224677D01*
X1475733Y-4175782D01*
X1517197Y-4146748D01*
X1567624Y-4151160D01*
X1576348Y-4155968D01*
X1588268Y-4163629D01*
X1695576Y-4195137D01*
X1727460Y-4204499D01*
X1727462Y-4204500D01*
X1727464Y-4204500D01*
X1872538Y-4204500D01*
X1872539Y-4204499D01*
X2011732Y-4163629D01*
X2133775Y-4085196D01*
X2228777Y-3975558D01*
X2289042Y-3843596D01*
X2304500Y-3736083D01*
X2304500Y-325000D01*
X5119610Y-325000D01*
X5139068Y-460339D01*
X5139068Y-460340D01*
X5139069Y-460342D01*
X5195870Y-584718D01*
X5285411Y-688055D01*
X5400439Y-761978D01*
X5531631Y-800500D01*
X5534115Y-800500D01*
X5535736Y-801090D01*
X5536869Y-801253D01*
X5536834Y-801489D01*
X5581681Y-817813D01*
X5606991Y-861650D01*
X5598201Y-911500D01*
X5596369Y-914506D01*
X5595870Y-915281D01*
X5539068Y-1039660D01*
X5519610Y-1175000D01*
X5539068Y-1310339D01*
X5595870Y-1434718D01*
X5595871Y-1434719D01*
X5610447Y-1451542D01*
X5628511Y-1498828D01*
X5611953Y-1546663D01*
X5610447Y-1548458D01*
X5595871Y-1565280D01*
X5595870Y-1565281D01*
X5539068Y-1689660D01*
X5519610Y-1825000D01*
X5539068Y-1960339D01*
X5539068Y-1960340D01*
X5539069Y-1960342D01*
X5595870Y-2084718D01*
X5685411Y-2188055D01*
X5800439Y-2261978D01*
X5931631Y-2300500D01*
X5931633Y-2300500D01*
X6068368Y-2300500D01*
X6133964Y-2281239D01*
X6199561Y-2261978D01*
X6314589Y-2188055D01*
X6404130Y-2084718D01*
X6460931Y-1960342D01*
X6480390Y-1825000D01*
X6460931Y-1689658D01*
X6404130Y-1565282D01*
X6389551Y-1548457D01*
X6371487Y-1501175D01*
X6388042Y-1453340D01*
X6389505Y-1451595D01*
X6404130Y-1434718D01*
X6460931Y-1310342D01*
X6480390Y-1175000D01*
X6460931Y-1039658D01*
X6404130Y-915282D01*
X6314589Y-811945D01*
X6314585Y-811942D01*
X6236838Y-761978D01*
X6199561Y-738022D01*
X6199560Y-738021D01*
X6068369Y-699500D01*
X6068367Y-699500D01*
X6065885Y-699500D01*
X6064263Y-698909D01*
X6063131Y-698747D01*
X6063165Y-698510D01*
X6018319Y-682187D01*
X5993009Y-638350D01*
X6001799Y-588500D01*
X6003631Y-585494D01*
X6004126Y-584722D01*
X6004130Y-584718D01*
X6060931Y-460342D01*
X6080390Y-325000D01*
X6060931Y-189658D01*
X6004130Y-65282D01*
X5989551Y-48457D01*
X5971487Y-1175D01*
X5988042Y46660D01*
X5989505Y48404D01*
X6004130Y65282D01*
X6060931Y189658D01*
X6080390Y325000D01*
X6060931Y460342D01*
X6004130Y584718D01*
X5914589Y688055D01*
X5799561Y761978D01*
X5755829Y774818D01*
X5668369Y800500D01*
X5668367Y800500D01*
X5531633Y800500D01*
X5531631Y800500D01*
X5400439Y761978D01*
X5285411Y688055D01*
X5195870Y584718D01*
X5139069Y460342D01*
X5139068Y460339D01*
X5119610Y325000D01*
X5139068Y189660D01*
X5195870Y65281D01*
X5195871Y65280D01*
X5210447Y48458D01*
X5228511Y1172D01*
X5211953Y-46663D01*
X5210447Y-48458D01*
X5195871Y-65280D01*
X5195870Y-65281D01*
X5139068Y-189660D01*
X5119610Y-325000D01*
X2304500Y-325000D01*
X2304500Y2153422D01*
X2321813Y2200988D01*
X2365650Y2226298D01*
X2415500Y2217508D01*
X2418507Y2215675D01*
X2500437Y2163023D01*
X2500439Y2163021D01*
X2631631Y2124500D01*
X2631633Y2124500D01*
X2768369Y2124500D01*
X2899560Y2163021D01*
X2899561Y2163022D01*
X2998022Y2226298D01*
X3014585Y2236942D01*
X3014589Y2236945D01*
X3104130Y2340282D01*
X3145016Y2429810D01*
X5089800Y2429810D01*
X5109258Y2294470D01*
X5166061Y2170090D01*
X5223964Y2103265D01*
X5252711Y2070090D01*
X5255604Y2066752D01*
X5370627Y1992833D01*
X5370629Y1992831D01*
X5506902Y1952818D01*
X5506203Y1950439D01*
X5542559Y1930944D01*
X5560639Y1892155D01*
X5568878Y1834850D01*
X5625681Y1710470D01*
X5683584Y1643645D01*
X5712331Y1610470D01*
X5715224Y1607132D01*
X5830247Y1533213D01*
X5830249Y1533211D01*
X5961441Y1494690D01*
X5961443Y1494690D01*
X6098179Y1494690D01*
X6229370Y1533211D01*
X6229371Y1533212D01*
X6281617Y1566788D01*
X6344395Y1607132D01*
X6344399Y1607135D01*
X6433940Y1710472D01*
X6490741Y1834848D01*
X6510200Y1970190D01*
X6490741Y2105532D01*
X6433940Y2229908D01*
X6344399Y2333245D01*
X6229371Y2407168D01*
X6187948Y2419330D01*
X6093098Y2447182D01*
X6093799Y2449571D01*
X6057481Y2469008D01*
X6039360Y2507846D01*
X6031121Y2565149D01*
X6031121Y2565152D01*
X5974320Y2689528D01*
X5884779Y2792865D01*
X5769751Y2866788D01*
X5726019Y2879628D01*
X5638559Y2905310D01*
X5638557Y2905310D01*
X5501823Y2905310D01*
X5501821Y2905310D01*
X5380468Y2869677D01*
X5370629Y2866788D01*
X5255601Y2792865D01*
X5166060Y2689528D01*
X5116365Y2580712D01*
X5109258Y2565149D01*
X5089800Y2429810D01*
X3145016Y2429810D01*
X3160931Y2464658D01*
X3180390Y2600000D01*
X3160931Y2735342D01*
X3104130Y2859718D01*
X3014589Y2963055D01*
X2899561Y3036978D01*
X2840534Y3054310D01*
X2768369Y3075500D01*
X2768367Y3075500D01*
X2631633Y3075500D01*
X2631631Y3075500D01*
X2500439Y3036978D01*
X2418507Y2984324D01*
X2369132Y2973172D01*
X2324140Y2996368D01*
X2304584Y3043056D01*
X2304500Y3046577D01*
X2304500Y3529810D01*
X8689800Y3529810D01*
X8709258Y3394470D01*
X8766061Y3270090D01*
X8855604Y3166752D01*
X8970627Y3092833D01*
X8970629Y3092831D01*
X9106902Y3052818D01*
X9106203Y3050439D01*
X9142559Y3030944D01*
X9160639Y2992155D01*
X9168878Y2934850D01*
X9168879Y2934848D01*
X9203189Y2859719D01*
X9225681Y2810470D01*
X9315224Y2707132D01*
X9430247Y2633213D01*
X9430249Y2633211D01*
X9561441Y2594690D01*
X9561443Y2594690D01*
X9698179Y2594690D01*
X9829370Y2633211D01*
X9829373Y2633213D01*
X9839065Y2639442D01*
X9888440Y2650595D01*
X9933432Y2627400D01*
X9952989Y2580712D01*
X9946386Y2546450D01*
X9909258Y2465151D01*
X9889800Y2329810D01*
X9909258Y2194470D01*
X9966061Y2070090D01*
X10023964Y2003265D01*
X10033005Y1992832D01*
X10055604Y1966752D01*
X10170627Y1892833D01*
X10170629Y1892831D01*
X10306902Y1852818D01*
X10306203Y1850439D01*
X10342559Y1830944D01*
X10360639Y1792155D01*
X10368878Y1734850D01*
X10425681Y1610470D01*
X10483584Y1543645D01*
X10492625Y1533212D01*
X10515224Y1507132D01*
X10630247Y1433213D01*
X10630249Y1433211D01*
X10761441Y1394690D01*
X10761443Y1394690D01*
X10898179Y1394690D01*
X11029370Y1433211D01*
X11029371Y1433212D01*
X11125034Y1494690D01*
X11144395Y1507132D01*
X11144399Y1507135D01*
X11233940Y1610472D01*
X11290741Y1734848D01*
X11310200Y1870190D01*
X11290741Y2005532D01*
X11233940Y2129908D01*
X11144399Y2233245D01*
X11029371Y2307168D01*
X10987948Y2319330D01*
X10893098Y2347182D01*
X10893799Y2349571D01*
X10857481Y2369008D01*
X10839360Y2407846D01*
X10833919Y2445690D01*
X10831121Y2465152D01*
X10774320Y2589528D01*
X10684779Y2692865D01*
X10569751Y2766788D01*
X10526019Y2779628D01*
X10438559Y2805310D01*
X10438557Y2805310D01*
X10301823Y2805310D01*
X10301821Y2805310D01*
X10170629Y2766788D01*
X10170624Y2766785D01*
X10160935Y2760558D01*
X10111560Y2749404D01*
X10066568Y2772598D01*
X10047010Y2819286D01*
X10053613Y2853550D01*
X10056430Y2859718D01*
X10090741Y2934848D01*
X10110200Y3070190D01*
X10090741Y3205532D01*
X10033940Y3329908D01*
X9944399Y3433245D01*
X9829371Y3507168D01*
X9787948Y3519330D01*
X9693098Y3547182D01*
X9693799Y3549571D01*
X9657481Y3569008D01*
X9639360Y3607846D01*
X9631121Y3665149D01*
X9631121Y3665152D01*
X9626624Y3675000D01*
X10119610Y3675000D01*
X10139068Y3539660D01*
X10195871Y3415280D01*
X10285414Y3311942D01*
X10400437Y3238023D01*
X10400439Y3238021D01*
X10531631Y3199500D01*
X10531633Y3199500D01*
X10668369Y3199500D01*
X10799560Y3238021D01*
X10799561Y3238022D01*
X10912053Y3310315D01*
X10914585Y3311942D01*
X10914589Y3311945D01*
X11004130Y3415282D01*
X11060931Y3539658D01*
X11080390Y3675000D01*
X11060931Y3810342D01*
X11004130Y3934718D01*
X10989551Y3951542D01*
X10971487Y3998825D01*
X10988042Y4046660D01*
X10989505Y4048404D01*
X11004130Y4065282D01*
X11060931Y4189658D01*
X11080390Y4325000D01*
X11060931Y4460342D01*
X11004130Y4584718D01*
X10914589Y4688055D01*
X10799561Y4761978D01*
X10755829Y4774818D01*
X10668369Y4800500D01*
X10668367Y4800500D01*
X10531633Y4800500D01*
X10531631Y4800500D01*
X10400439Y4761978D01*
X10285411Y4688055D01*
X10195870Y4584718D01*
X10139069Y4460342D01*
X10139068Y4460339D01*
X10119610Y4325000D01*
X10139068Y4189660D01*
X10195870Y4065281D01*
X10195871Y4065280D01*
X10210447Y4048458D01*
X10228511Y4001172D01*
X10211953Y3953337D01*
X10210447Y3951542D01*
X10195871Y3934719D01*
X10195870Y3934718D01*
X10139068Y3810339D01*
X10119610Y3675000D01*
X9626624Y3675000D01*
X9574320Y3789528D01*
X9484779Y3892865D01*
X9369751Y3966788D01*
X9326019Y3979628D01*
X9238559Y4005310D01*
X9238557Y4005310D01*
X9101823Y4005310D01*
X9101821Y4005310D01*
X8970629Y3966788D01*
X8855601Y3892865D01*
X8766060Y3789528D01*
X8709259Y3665152D01*
X8709258Y3665149D01*
X8689800Y3529810D01*
X2304500Y3529810D01*
X2304500Y4353422D01*
X2321813Y4400988D01*
X2365650Y4426298D01*
X2415500Y4417508D01*
X2418507Y4415675D01*
X2500437Y4363023D01*
X2500439Y4363021D01*
X2631631Y4324500D01*
X2631633Y4324500D01*
X2768369Y4324500D01*
X2899560Y4363021D01*
X2899561Y4363022D01*
X2998022Y4426298D01*
X3014585Y4436942D01*
X3014589Y4436945D01*
X3104130Y4540282D01*
X3160931Y4664658D01*
X3180390Y4800000D01*
X3160931Y4935342D01*
X3104130Y5059718D01*
X3014589Y5163055D01*
X2899561Y5236978D01*
X2855829Y5249818D01*
X2768369Y5275500D01*
X2768367Y5275500D01*
X2631633Y5275500D01*
X2631631Y5275500D01*
X2500439Y5236978D01*
X2437248Y5196368D01*
X2418507Y5184324D01*
X2369132Y5173172D01*
X2324140Y5196368D01*
X2304584Y5243056D01*
X2304500Y5246577D01*
X2304500Y7321500D01*
X2321813Y7369066D01*
X2365650Y7394376D01*
X2378500Y7395500D01*
X3760377Y7395500D01*
X3807943Y7378187D01*
X3812703Y7373826D01*
X4868779Y6317749D01*
X4955733Y6252657D01*
X5091658Y6201959D01*
X5236353Y6191610D01*
X5236362Y6191611D01*
X5378118Y6222448D01*
X5378119Y6222448D01*
X5505439Y6291971D01*
X5505441Y6291972D01*
X5505444Y6291974D01*
X5608026Y6394556D01*
X5677552Y6521882D01*
X5708389Y6663640D01*
X5708389Y6663646D01*
X5697663Y6813621D01*
X5699686Y6813765D01*
X5705400Y6855920D01*
X5742851Y6889975D01*
X5770908Y6895500D01*
X11936087Y6895500D01*
X12043592Y6910957D01*
X12043593Y6910957D01*
X12043596Y6910958D01*
X12128600Y6949778D01*
X12175559Y6971223D01*
X12285192Y7066221D01*
X12285192Y7066222D01*
X12285196Y7066225D01*
X12363629Y7188268D01*
X12404499Y7327460D01*
X12404500Y7327461D01*
X12404500Y7472538D01*
X12404499Y7472539D01*
X12384307Y7541308D01*
X12363629Y7611732D01*
X12285196Y7733775D01*
X12175558Y7828777D01*
X12043596Y7889042D01*
X11936083Y7904500D01*
X11936077Y7904500D01*
X5839623Y7904500D01*
X5792057Y7921813D01*
X5787297Y7926174D01*
X3996295Y9717176D01*
X3269800Y10443671D01*
X5495709Y10443671D01*
X5525924Y10220618D01*
X5525926Y10220607D01*
X5595481Y10006539D01*
X5595486Y10006529D01*
X5702149Y9808315D01*
X5702150Y9808314D01*
X5842489Y9632336D01*
X6012002Y9484236D01*
X6012008Y9484231D01*
X6205236Y9368784D01*
X6415972Y9289694D01*
X6415971Y9289694D01*
X6415975Y9289693D01*
X6415976Y9289693D01*
X6637453Y9249500D01*
X6637456Y9249500D01*
X6806157Y9249500D01*
X6918177Y9259582D01*
X6974188Y9264623D01*
X7191170Y9324507D01*
X7393973Y9422171D01*
X7393975Y9422172D01*
X7576074Y9554474D01*
X7731633Y9717176D01*
X7855636Y9905034D01*
X7918734Y10052659D01*
X7944103Y10112012D01*
X7994191Y10331463D01*
X7999230Y10443670D01*
X8004290Y10556321D01*
X8004290Y10556330D01*
X7989091Y10668533D01*
X7974075Y10779387D01*
X7904517Y10993464D01*
X7797852Y11191681D01*
X7657508Y11367666D01*
X7487996Y11515765D01*
X7294764Y11631215D01*
X7084024Y11710307D01*
X6862547Y11750500D01*
X6693845Y11750500D01*
X6693843Y11750500D01*
X6668211Y11748192D01*
X6525812Y11735377D01*
X6308830Y11675493D01*
X6106027Y11577829D01*
X6106024Y11577827D01*
X5923925Y11445525D01*
X5768366Y11282823D01*
X5644363Y11094965D01*
X5555898Y10887990D01*
X5555896Y10887985D01*
X5505808Y10668533D01*
X5495709Y10443678D01*
X5495709Y10443671D01*
X3269800Y10443671D01*
X2131221Y11582250D01*
X2131219Y11582250D01*
X2127006Y11586464D01*
X2127000Y11586468D01*
X2105444Y11608026D01*
X2078084Y11622964D01*
X2069228Y11628656D01*
X2044267Y11647343D01*
X2015063Y11658234D01*
X2005460Y11662621D01*
X1978118Y11677552D01*
X1947651Y11684179D01*
X1937549Y11687145D01*
X1908342Y11698040D01*
X1877250Y11700263D01*
X1866804Y11701766D01*
X1836366Y11708388D01*
X1836365Y11708388D01*
X1836360Y11708389D01*
X1805270Y11706165D01*
X1794730Y11706165D01*
X1763640Y11708389D01*
X1733186Y11701763D01*
X1722748Y11700263D01*
X1691658Y11698040D01*
X1691655Y11698039D01*
X1691654Y11698039D01*
X1662460Y11687149D01*
X1652343Y11684177D01*
X1621882Y11677552D01*
X1594526Y11662614D01*
X1584928Y11658231D01*
X1555733Y11647342D01*
X1555732Y11647341D01*
X1530787Y11628668D01*
X1521905Y11622959D01*
X1494555Y11608026D01*
X1494554Y11608025D01*
X287241Y10400712D01*
X274923Y10390786D01*
X266225Y10385196D01*
X266222Y10385193D01*
X266221Y10385192D01*
X231392Y10344997D01*
X229592Y10343063D01*
X217748Y10331219D01*
X207711Y10317811D01*
X206053Y10315755D01*
X171222Y10275557D01*
X166926Y10266150D01*
X158857Y10252550D01*
X152656Y10244265D01*
X134066Y10194423D01*
X133055Y10191982D01*
X110958Y10143596D01*
X110956Y10143589D01*
X109484Y10133354D01*
X105573Y10118030D01*
X101960Y10108342D01*
X101959Y10108338D01*
X98164Y10055283D01*
X97882Y10052659D01*
X95500Y10036085D01*
X95500Y10019331D01*
X95406Y10016713D01*
X92578Y9977165D01*
X91611Y9963644D01*
X91611Y9963640D01*
X93809Y9953535D01*
X95500Y9937806D01*
X95500Y-4037806D01*
X93809Y-4053535D01*
X91611Y-4063636D01*
X91611Y-4063640D01*
X95406Y-4116713D01*
X95500Y-4119331D01*
X95500Y-4136085D01*
X97882Y-4152659D01*
X98164Y-4155283D01*
X101959Y-4208338D01*
X101960Y-4208342D01*
X105573Y-4218030D01*
X109484Y-4233354D01*
X110956Y-4243589D01*
X110958Y-4243596D01*
X133055Y-4291982D01*
X134066Y-4294423D01*
X152656Y-4344265D01*
X158857Y-4352550D01*
X166926Y-4366150D01*
X171222Y-4375557D01*
X206053Y-4415755D01*
X207711Y-4417811D01*
X217748Y-4431219D01*
X229592Y-4443063D01*
X231392Y-4444997D01*
X266221Y-4485192D01*
X266222Y-4485193D01*
X266225Y-4485196D01*
X274923Y-4490786D01*
X287241Y-4500712D01*
X2199287Y-6412758D01*
X2209211Y-6425073D01*
X2214804Y-6433775D01*
X2255014Y-6468617D01*
X2256935Y-6470406D01*
X2268779Y-6482250D01*
X2278883Y-6489813D01*
X2282180Y-6492282D01*
X2284236Y-6493938D01*
X2324442Y-6528777D01*
X2333847Y-6533072D01*
X2347453Y-6541145D01*
X2355733Y-6547343D01*
X2405578Y-6565934D01*
X2408007Y-6566940D01*
X2461219Y-6591241D01*
X2460155Y-6593569D01*
X2493178Y-6617889D01*
X2505107Y-6667083D01*
X2493817Y-6698880D01*
X2436371Y-6788266D01*
X2436370Y-6788270D01*
X2395500Y-6927460D01*
X2395500Y-7072539D01*
X2396961Y-7077513D01*
X2436371Y-7211732D01*
X2514804Y-7333775D01*
X2514806Y-7333777D01*
X2514807Y-7333778D01*
X2624440Y-7428776D01*
X2624441Y-7428776D01*
X2624442Y-7428777D01*
X2756404Y-7489042D01*
X2863917Y-7504500D01*
X4087806Y-7504500D01*
X4103535Y-7506191D01*
X4108772Y-7507330D01*
X4113640Y-7508389D01*
X4166713Y-7504593D01*
X4169333Y-7504500D01*
X4186079Y-7504500D01*
X4186083Y-7504500D01*
X4202692Y-7502111D01*
X4205266Y-7501835D01*
X4258342Y-7498040D01*
X4268030Y-7494425D01*
X4283356Y-7490513D01*
X4293596Y-7489042D01*
X4341979Y-7466946D01*
X4344421Y-7465934D01*
X4394264Y-7447344D01*
X4394263Y-7447344D01*
X4394267Y-7447343D01*
X4402547Y-7441144D01*
X4416153Y-7433071D01*
X4425558Y-7428777D01*
X4465773Y-7393929D01*
X4467800Y-7392295D01*
X4481221Y-7382250D01*
X4493061Y-7370409D01*
X4494970Y-7368629D01*
X4535196Y-7333775D01*
X4540786Y-7325074D01*
X4550707Y-7312762D01*
X12179043Y315572D01*
X13773174Y1909703D01*
X13819050Y1931095D01*
X13867945Y1917994D01*
X13896979Y1876530D01*
X13899500Y1857377D01*
X13899500Y-6469550D01*
X13899449Y-6471479D01*
X13887524Y-6698880D01*
X13884797Y-6750885D01*
X13884391Y-6754742D01*
X13840749Y-7030133D01*
X13839943Y-7033926D01*
X13767741Y-7303239D01*
X13766542Y-7306926D01*
X13666571Y-7567214D01*
X13664993Y-7570756D01*
X13538352Y-7819154D01*
X13536412Y-7822511D01*
X13384487Y-8056305D01*
X13382207Y-8059441D01*
X13206657Y-8276074D01*
X13204061Y-8278954D01*
X13006829Y-8476030D01*
X13003946Y-8478623D01*
X12786409Y-8654620D01*
X12784871Y-8655799D01*
X12747155Y-8683175D01*
X9441636Y-11082341D01*
X9441620Y-11082354D01*
X9438458Y-11084648D01*
X9438458Y-11084649D01*
X9399940Y-11112606D01*
X9029221Y-11360070D01*
X9026751Y-11361582D01*
X8639027Y-11578519D01*
X8636438Y-11579836D01*
X8232918Y-11765699D01*
X8230234Y-11766810D01*
X7813381Y-11920467D01*
X7810619Y-11921364D01*
X7382993Y-12041870D01*
X7380169Y-12042547D01*
X6944429Y-12129152D01*
X6941561Y-12129606D01*
X6500355Y-12181786D01*
X6497460Y-12182014D01*
X6052080Y-12199500D01*
X-6332282Y-12199500D01*
X-6334367Y-12199441D01*
X-6634813Y-12182494D01*
X-6638957Y-12182025D01*
X-6786746Y-12156804D01*
X-6934546Y-12131580D01*
X-6938602Y-12130651D01*
X-6942213Y-12129606D01*
X-7002063Y-12112284D01*
X-7226651Y-12047283D01*
X-7230585Y-12045900D01*
X-7507425Y-11930674D01*
X-7511179Y-11928857D01*
X-7773314Y-11783226D01*
X-7776839Y-11780998D01*
X-8020923Y-11606824D01*
X-8024176Y-11604214D01*
X-8247138Y-11403686D01*
X-8250077Y-11400727D01*
X-8449065Y-11176409D01*
X-8451652Y-11173138D01*
X-8624773Y-10926988D01*
X-8625931Y-10925237D01*
X-8627510Y-10922698D01*
X-8855473Y-10556330D01*
X-8004290Y-10556330D01*
X-7974075Y-10779387D01*
X-7904517Y-10993464D01*
X-7797852Y-11191681D01*
X-7657508Y-11367666D01*
X-7487996Y-11515765D01*
X-7294764Y-11631215D01*
X-7084024Y-11710307D01*
X-6862547Y-11750500D01*
X-6862544Y-11750500D01*
X-6693843Y-11750500D01*
X-6668211Y-11748192D01*
X-6525812Y-11735377D01*
X-6308830Y-11675493D01*
X-6106027Y-11577829D01*
X-6020600Y-11515763D01*
X-5923925Y-11445525D01*
X-5768366Y-11282823D01*
X-5644363Y-11094965D01*
X-5555898Y-10887990D01*
X-5555896Y-10887985D01*
X-5535814Y-10800000D01*
X-1980390Y-10800000D01*
X-1960931Y-10935342D01*
X-1904130Y-11059718D01*
X-1814589Y-11163055D01*
X-1699561Y-11236978D01*
X-1633964Y-11256239D01*
X-1568368Y-11275500D01*
X-1568367Y-11275500D01*
X-1431631Y-11275500D01*
X-1300439Y-11236978D01*
X-1185411Y-11163055D01*
X-1095870Y-11059718D01*
X-1039069Y-10935342D01*
X-1039068Y-10935340D01*
X-1039068Y-10935339D01*
X-1019610Y-10800000D01*
X-1039068Y-10664660D01*
X-1088542Y-10556328D01*
X5495709Y-10556328D01*
X5525924Y-10779381D01*
X5525926Y-10779392D01*
X5595481Y-10993460D01*
X5595486Y-10993470D01*
X5702149Y-11191684D01*
X5702150Y-11191685D01*
X5842489Y-11367663D01*
X5842491Y-11367664D01*
X5842492Y-11367666D01*
X6012002Y-11515763D01*
X6012008Y-11515768D01*
X6162378Y-11605609D01*
X6205236Y-11631215D01*
X6415976Y-11710307D01*
X6637453Y-11750500D01*
X6637456Y-11750500D01*
X6806157Y-11750500D01*
X6829972Y-11748356D01*
X6974188Y-11735377D01*
X7191170Y-11675493D01*
X7393973Y-11577829D01*
X7576078Y-11445522D01*
X7731632Y-11282825D01*
X7855635Y-11094968D01*
X7944103Y-10887988D01*
X7994191Y-10668537D01*
X7999230Y-10556330D01*
X8004290Y-10443678D01*
X8004290Y-10443670D01*
X8003379Y-10436942D01*
X7974075Y-10220613D01*
X7904517Y-10006536D01*
X7797852Y-9808319D01*
X7797850Y-9808315D01*
X7797849Y-9808314D01*
X7657510Y-9632336D01*
X7568390Y-9554474D01*
X7487996Y-9484235D01*
X7487995Y-9484234D01*
X7487991Y-9484231D01*
X7294763Y-9368784D01*
X7084027Y-9289694D01*
X7084028Y-9289694D01*
X7084025Y-9289693D01*
X7084024Y-9289693D01*
X6862547Y-9249500D01*
X6693845Y-9249500D01*
X6693843Y-9249500D01*
X6525812Y-9264623D01*
X6308829Y-9324507D01*
X6106024Y-9422172D01*
X5923925Y-9554474D01*
X5768366Y-9717176D01*
X5644363Y-9905034D01*
X5555898Y-10112009D01*
X5555896Y-10112014D01*
X5505808Y-10331466D01*
X5495709Y-10556321D01*
X5495709Y-10556328D01*
X-1088542Y-10556328D01*
X-1095871Y-10540280D01*
X-1185414Y-10436942D01*
X-1300437Y-10363023D01*
X-1300439Y-10363021D01*
X-1431631Y-10324500D01*
X-1431633Y-10324500D01*
X-1568367Y-10324500D01*
X-1568369Y-10324500D01*
X-1699560Y-10363021D01*
X-1699561Y-10363022D01*
X-1751807Y-10396598D01*
X-1814585Y-10436942D01*
X-1814589Y-10436945D01*
X-1904130Y-10540282D01*
X-1960931Y-10664658D01*
X-1980390Y-10800000D01*
X-5535814Y-10800000D01*
X-5505808Y-10668533D01*
X-5495709Y-10443678D01*
X-5495710Y-10443670D01*
X-5525924Y-10220618D01*
X-5525926Y-10220607D01*
X-5595481Y-10006539D01*
X-5595486Y-10006529D01*
X-5702149Y-9808315D01*
X-5702150Y-9808314D01*
X-5842489Y-9632336D01*
X-6012002Y-9484236D01*
X-6012008Y-9484231D01*
X-6205236Y-9368784D01*
X-6415972Y-9289694D01*
X-6415971Y-9289694D01*
X-6415975Y-9289693D01*
X-6415976Y-9289693D01*
X-6637453Y-9249500D01*
X-6806155Y-9249500D01*
X-6806157Y-9249500D01*
X-6918177Y-9259582D01*
X-6974188Y-9264623D01*
X-7090806Y-9296808D01*
X-7191170Y-9324507D01*
X-7393975Y-9422172D01*
X-7576074Y-9554474D01*
X-7576077Y-9554477D01*
X-7576078Y-9554478D01*
X-7731632Y-9717175D01*
X-7855635Y-9905032D01*
X-7944103Y-10112012D01*
X-7994191Y-10331463D01*
X-7994191Y-10331466D01*
X-8003569Y-10540282D01*
X-8004290Y-10556330D01*
X-8855473Y-10556330D01*
X-8865458Y-10540282D01*
X-8975753Y-10363021D01*
X-9639174Y-9296808D01*
X-9836176Y-8954180D01*
X-9837381Y-8951904D01*
X-10009496Y-8597626D01*
X-10010540Y-8595272D01*
X-10157615Y-8229874D01*
X-10158492Y-8227453D01*
X-10279809Y-7852708D01*
X-10280516Y-7850233D01*
X-10375489Y-7467963D01*
X-10376023Y-7465444D01*
X-10379204Y-7447343D01*
X-10444188Y-7077503D01*
X-10444544Y-7074963D01*
X-10485576Y-6683219D01*
X-10485755Y-6680650D01*
X-10499500Y-6285714D01*
X-10499500Y-5063640D01*
X-4508389Y-5063640D01*
X-4504593Y-5116713D01*
X-4504500Y-5119331D01*
X-4504500Y-5136083D01*
X-4502111Y-5152692D01*
X-4501835Y-5155266D01*
X-4498040Y-5208342D01*
X-4494427Y-5218026D01*
X-4490513Y-5233356D01*
X-4489042Y-5243596D01*
X-4489040Y-5243600D01*
X-4466946Y-5291979D01*
X-4465934Y-5294420D01*
X-4447343Y-5344267D01*
X-4441144Y-5352547D01*
X-4433071Y-5366153D01*
X-4428777Y-5375558D01*
X-4393929Y-5415773D01*
X-4392295Y-5417800D01*
X-4382250Y-5431221D01*
X-4370410Y-5443060D01*
X-4368629Y-5444970D01*
X-4333775Y-5485196D01*
X-4325074Y-5490786D01*
X-4312762Y-5500707D01*
X-3531221Y-6282250D01*
X-3444267Y-6347343D01*
X-3444265Y-6347343D01*
X-3444265Y-6347344D01*
X-3363276Y-6377551D01*
X-3308342Y-6398040D01*
X-3242568Y-6402744D01*
X-3163646Y-6408389D01*
X-3163643Y-6408388D01*
X-3163640Y-6408389D01*
X-3021882Y-6377552D01*
X-3021879Y-6377550D01*
X-3021877Y-6377550D01*
X-2894560Y-6308029D01*
X-2894558Y-6308028D01*
X-2894557Y-6308027D01*
X-2894555Y-6308026D01*
X-2791974Y-6205445D01*
X-2791972Y-6205442D01*
X-2791971Y-6205441D01*
X-2791970Y-6205439D01*
X-2722449Y-6078122D01*
X-2722448Y-6078118D01*
X-2691611Y-5936360D01*
X-2691610Y-5936353D01*
X-2701959Y-5791662D01*
X-2701960Y-5791654D01*
X-2752655Y-5655734D01*
X-2752656Y-5655733D01*
X-2817752Y-5568776D01*
X-3060203Y-5326326D01*
X-3081595Y-5280450D01*
X-3068494Y-5231555D01*
X-3027030Y-5202521D01*
X-3007877Y-5200000D01*
X-1000000Y-5200000D01*
X-1000000Y-800000D01*
X-3400000Y-800000D01*
X-3421500Y-800000D01*
X-3469066Y-782687D01*
X-3494376Y-738850D01*
X-3495500Y-726000D01*
X-3495500Y4745500D01*
X-2058066Y4745500D01*
X-2038607Y4610158D01*
X-1981806Y4485782D01*
X-1892265Y4382445D01*
X-1892261Y4382442D01*
X-1847104Y4353422D01*
X-1777237Y4308522D01*
X-1777236Y4308521D01*
X-1646045Y4270000D01*
X-1646043Y4270000D01*
X-1509307Y4270000D01*
X-1378115Y4308521D01*
X-1378113Y4308523D01*
X-1263090Y4382442D01*
X-1173547Y4485780D01*
X-1116744Y4610160D01*
X-1097286Y4745500D01*
X-1116744Y4880839D01*
X-1116745Y4880842D01*
X-1173546Y5005218D01*
X-1263087Y5108555D01*
X-1378115Y5182478D01*
X-1384402Y5184324D01*
X-1509307Y5221000D01*
X-1509309Y5221000D01*
X-1646043Y5221000D01*
X-1646045Y5221000D01*
X-1729932Y5196368D01*
X-1777237Y5182478D01*
X-1892265Y5108555D01*
X-1981806Y5005218D01*
X-2038607Y4880842D01*
X-2058066Y4745500D01*
X-3495500Y4745500D01*
X-3495500Y5636087D01*
X-3510957Y5743592D01*
X-3510957Y5743593D01*
X-3510958Y5743596D01*
X-3549778Y5828600D01*
X-3571223Y5875559D01*
X-3592401Y5900000D01*
X-2580390Y5900000D01*
X-2560931Y5764658D01*
X-2504130Y5640282D01*
X-2414589Y5536945D01*
X-2414585Y5536942D01*
X-2351807Y5496598D01*
X-2299561Y5463022D01*
X-2299560Y5463021D01*
X-2168369Y5424500D01*
X-2168367Y5424500D01*
X-2031631Y5424500D01*
X-1900439Y5463021D01*
X-1900437Y5463023D01*
X-1785414Y5536942D01*
X-1695871Y5640280D01*
X-1639068Y5764660D01*
X-1619610Y5900000D01*
X-1639068Y6035339D01*
X-1639069Y6035342D01*
X-1695870Y6159718D01*
X-1785411Y6263055D01*
X-1900439Y6336978D01*
X-1922978Y6343596D01*
X-2031631Y6375500D01*
X-2031633Y6375500D01*
X-2168367Y6375500D01*
X-2168369Y6375500D01*
X-2255829Y6349818D01*
X-2299561Y6336978D01*
X-2414589Y6263055D01*
X-2504130Y6159718D01*
X-2560931Y6035342D01*
X-2580390Y5900000D01*
X-3592401Y5900000D01*
X-3666221Y5985192D01*
X-3666222Y5985192D01*
X-3666225Y5985196D01*
X-3788268Y6063629D01*
X-3843946Y6079977D01*
X-3927461Y6104500D01*
X-3927464Y6104500D01*
X-4072536Y6104500D01*
X-4072539Y6104500D01*
X-4142134Y6084064D01*
X-4211732Y6063629D01*
X-4333775Y5985196D01*
X-4428777Y5875558D01*
X-4489042Y5743596D01*
X-4504500Y5636083D01*
X-4504500Y5636077D01*
X-4504500Y-5037806D01*
X-4506191Y-5053535D01*
X-4508389Y-5063640D01*
X-10499500Y-5063640D01*
X-10499500Y2834815D01*
X-5661870Y2834815D01*
X-5642411Y2699473D01*
X-5585610Y2575097D01*
X-5496069Y2471760D01*
X-5496065Y2471757D01*
X-5455503Y2445690D01*
X-5381041Y2397837D01*
X-5381040Y2397836D01*
X-5249849Y2359315D01*
X-5249847Y2359315D01*
X-5113111Y2359315D01*
X-4981919Y2397836D01*
X-4981917Y2397838D01*
X-4866894Y2471757D01*
X-4777351Y2575095D01*
X-4720548Y2699475D01*
X-4701090Y2834815D01*
X-4720548Y2970154D01*
X-4727019Y2984324D01*
X-4777350Y3094533D01*
X-4866891Y3197870D01*
X-4981919Y3271793D01*
X-5113111Y3310315D01*
X-5113113Y3310315D01*
X-5249847Y3310315D01*
X-5249849Y3310315D01*
X-5337309Y3284633D01*
X-5381041Y3271793D01*
X-5496069Y3197870D01*
X-5585610Y3094533D01*
X-5642411Y2970157D01*
X-5661870Y2834815D01*
X-10499500Y2834815D01*
X-10499500Y6285714D01*
X-10485755Y6680650D01*
X-10485576Y6683219D01*
X-10444544Y7074963D01*
X-10444187Y7077513D01*
X-10424726Y7188268D01*
X-10376020Y7465456D01*
X-10375489Y7467963D01*
X-10280516Y7850233D01*
X-10279809Y7852708D01*
X-10158492Y8227453D01*
X-10157615Y8229874D01*
X-10156043Y8233778D01*
X-10117806Y8328777D01*
X-10010540Y8595272D01*
X-10009496Y8597626D01*
X-9837381Y8951904D01*
X-9836177Y8954180D01*
X-9639182Y9296795D01*
X-9624184Y9320899D01*
X-9624182Y9320901D01*
X-8925571Y10443670D01*
X-8004290Y10443670D01*
X-7974075Y10220613D01*
X-7904517Y10006536D01*
X-7849895Y9905032D01*
X-7797850Y9808315D01*
X-7797849Y9808314D01*
X-7725168Y9717176D01*
X-7657508Y9632334D01*
X-7487997Y9484236D01*
X-7487991Y9484231D01*
X-7294763Y9368784D01*
X-7084027Y9289694D01*
X-7084028Y9289694D01*
X-7084025Y9289693D01*
X-7084024Y9289693D01*
X-6862547Y9249500D01*
X-6862544Y9249500D01*
X-6693843Y9249500D01*
X-6525812Y9264623D01*
X-6308829Y9324507D01*
X-6106024Y9422172D01*
X-5923925Y9554474D01*
X-5768366Y9717176D01*
X-5644363Y9905034D01*
X-5555898Y10112009D01*
X-5555896Y10112014D01*
X-5505808Y10331466D01*
X-5495709Y10556321D01*
X-5495710Y10556330D01*
X-5525924Y10779381D01*
X-5525926Y10779392D01*
X-5595481Y10993460D01*
X-5595486Y10993470D01*
X-5702149Y11191684D01*
X-5702150Y11191685D01*
X-5842489Y11367663D01*
X-5882125Y11402292D01*
X-6012004Y11515765D01*
X-6012005Y11515765D01*
X-6012008Y11515768D01*
X-6205236Y11631215D01*
X-6248204Y11647341D01*
X-6415976Y11710307D01*
X-6637453Y11750500D01*
X-6806155Y11750500D01*
X-6806157Y11750500D01*
X-6829972Y11748356D01*
X-6974188Y11735377D01*
X-7191170Y11675493D01*
X-7393973Y11577829D01*
X-7576078Y11445522D01*
X-7731632Y11282825D01*
X-7855635Y11094968D01*
X-7944103Y10887988D01*
X-7994191Y10668537D01*
X-7994191Y10668533D01*
X-8003754Y10455595D01*
X-8004290Y10443670D01*
X-8925571Y10443670D01*
X-8625923Y10925248D01*
X-8624773Y10926987D01*
X-8451652Y11173137D01*
X-8449065Y11176408D01*
X-8250076Y11400726D01*
X-8247137Y11403685D01*
X-8024175Y11604213D01*
X-8020922Y11606823D01*
X-7776839Y11780997D01*
X-7773313Y11783225D01*
X-7511181Y11928854D01*
X-7507427Y11930671D01*
X-7230581Y12045900D01*
X-7226647Y12047283D01*
X-6982010Y12118086D01*
X-6938599Y12130650D01*
X-6934546Y12131579D01*
X-6786746Y12156803D01*
X-6638957Y12182024D01*
X-6634813Y12182493D01*
X-6334353Y12199441D01*
X-6332268Y12199500D01*
X-6285739Y12199500D01*
X6004485Y12199500D01*
X6052080Y12199500D01*
X6497460Y12182014D01*
G37*
%TD.AperFunction*%
%TD*%
M02*
