%TF.GenerationSoftware,KiCad,Pcbnew,7.0.9*%
%TF.CreationDate,2024-09-28T05:56:50+08:00*%
%TF.ProjectId,cameraadapt,63616d65-7261-4616-9461-70742e6b6963,rev?*%
%TF.SameCoordinates,Original*%
%TF.FileFunction,Legend,Top*%
%TF.FilePolarity,Positive*%
%FSLAX46Y46*%
G04 Gerber Fmt 4.6, Leading zero omitted, Abs format (unit mm)*
G04 Created by KiCad (PCBNEW 7.0.9) date 2024-09-28 05:56:50*
%MOMM*%
%LPD*%
G01*
G04 APERTURE LIST*
G04 Aperture macros list*
%AMRoundRect*
0 Rectangle with rounded corners*
0 $1 Rounding radius*
0 $2 $3 $4 $5 $6 $7 $8 $9 X,Y pos of 4 corners*
0 Add a 4 corners polygon primitive as box body*
4,1,4,$2,$3,$4,$5,$6,$7,$8,$9,$2,$3,0*
0 Add four circle primitives for the rounded corners*
1,1,$1+$1,$2,$3*
1,1,$1+$1,$4,$5*
1,1,$1+$1,$6,$7*
1,1,$1+$1,$8,$9*
0 Add four rect primitives between the rounded corners*
20,1,$1+$1,$2,$3,$4,$5,0*
20,1,$1+$1,$4,$5,$6,$7,0*
20,1,$1+$1,$6,$7,$8,$9,0*
20,1,$1+$1,$8,$9,$2,$3,0*%
G04 Aperture macros list end*
%ADD10C,0.150000*%
%ADD11C,0.120000*%
%ADD12C,0.100000*%
%ADD13RoundRect,0.135000X0.135000X0.185000X-0.135000X0.185000X-0.135000X-0.185000X0.135000X-0.185000X0*%
%ADD14C,2.200000*%
%ADD15R,1.300000X0.300000*%
%ADD16R,2.200000X1.800000*%
%ADD17R,0.800000X0.900000*%
%ADD18RoundRect,0.015000X0.275000X-0.135000X0.275000X0.135000X-0.275000X0.135000X-0.275000X-0.135000X0*%
%ADD19RoundRect,0.140000X-0.140000X-0.170000X0.140000X-0.170000X0.140000X0.170000X-0.140000X0.170000X0*%
%ADD20RoundRect,0.140000X-0.170000X0.140000X-0.170000X-0.140000X0.170000X-0.140000X0.170000X0.140000X0*%
%ADD21RoundRect,0.135000X-0.185000X0.135000X-0.185000X-0.135000X0.185000X-0.135000X0.185000X0.135000X0*%
%ADD22RoundRect,0.135000X0.185000X-0.135000X0.185000X0.135000X-0.185000X0.135000X-0.185000X-0.135000X0*%
%ADD23RoundRect,0.250000X-0.375000X-0.850000X0.375000X-0.850000X0.375000X0.850000X-0.375000X0.850000X0*%
%ADD24RoundRect,0.150000X0.512500X0.150000X-0.512500X0.150000X-0.512500X-0.150000X0.512500X-0.150000X0*%
%ADD25R,0.700000X0.340000*%
%ADD26RoundRect,0.225000X0.250000X-0.225000X0.250000X0.225000X-0.250000X0.225000X-0.250000X-0.225000X0*%
%ADD27RoundRect,0.250000X0.250000X0.475000X-0.250000X0.475000X-0.250000X-0.475000X0.250000X-0.475000X0*%
%ADD28RoundRect,0.150000X-0.512500X-0.150000X0.512500X-0.150000X0.512500X0.150000X-0.512500X0.150000X0*%
%ADD29RoundRect,0.218750X0.256250X-0.218750X0.256250X0.218750X-0.256250X0.218750X-0.256250X-0.218750X0*%
%ADD30RoundRect,0.135000X-0.135000X-0.185000X0.135000X-0.185000X0.135000X0.185000X-0.135000X0.185000X0*%
%ADD31RoundRect,0.218750X-0.256250X0.218750X-0.256250X-0.218750X0.256250X-0.218750X0.256250X0.218750X0*%
G04 APERTURE END LIST*
D10*
X-2742857Y-1724819D02*
X-3076190Y-1248628D01*
X-3314285Y-1724819D02*
X-3314285Y-724819D01*
X-3314285Y-724819D02*
X-2933333Y-724819D01*
X-2933333Y-724819D02*
X-2838095Y-772438D01*
X-2838095Y-772438D02*
X-2790476Y-820057D01*
X-2790476Y-820057D02*
X-2742857Y-915295D01*
X-2742857Y-915295D02*
X-2742857Y-1058152D01*
X-2742857Y-1058152D02*
X-2790476Y-1153390D01*
X-2790476Y-1153390D02*
X-2838095Y-1201009D01*
X-2838095Y-1201009D02*
X-2933333Y-1248628D01*
X-2933333Y-1248628D02*
X-3314285Y-1248628D01*
X-1790476Y-1724819D02*
X-2361904Y-1724819D01*
X-2076190Y-1724819D02*
X-2076190Y-724819D01*
X-2076190Y-724819D02*
X-2171428Y-867676D01*
X-2171428Y-867676D02*
X-2266666Y-962914D01*
X-2266666Y-962914D02*
X-2361904Y-1010533D01*
X-1457142Y-724819D02*
X-838095Y-724819D01*
X-838095Y-724819D02*
X-1171428Y-1105771D01*
X-1171428Y-1105771D02*
X-1028571Y-1105771D01*
X-1028571Y-1105771D02*
X-933333Y-1153390D01*
X-933333Y-1153390D02*
X-885714Y-1201009D01*
X-885714Y-1201009D02*
X-838095Y-1296247D01*
X-838095Y-1296247D02*
X-838095Y-1534342D01*
X-838095Y-1534342D02*
X-885714Y-1629580D01*
X-885714Y-1629580D02*
X-933333Y-1677200D01*
X-933333Y-1677200D02*
X-1028571Y-1724819D01*
X-1028571Y-1724819D02*
X-1314285Y-1724819D01*
X-1314285Y-1724819D02*
X-1409523Y-1677200D01*
X-1409523Y-1677200D02*
X-1457142Y-1629580D01*
D11*
%TO.C,R13*%
X-1946359Y-480000D02*
X-2253641Y-480000D01*
X-1946359Y280000D02*
X-2253641Y280000D01*
%TO.C,J5*%
X-4750001Y7150000D02*
X-6090001Y7150000D01*
X-8810001Y7150000D02*
X-10550001Y7150000D01*
X-10550001Y7150000D02*
X-10550001Y-7150000D01*
X-4750001Y5660000D02*
X-4750001Y7150000D01*
X-4750001Y5660000D02*
X-3550001Y5660000D01*
X-4750001Y-5660000D02*
X-4750001Y-7150000D01*
X-4750001Y-7150000D02*
X-6090001Y-7150000D01*
X-10550001Y-7150000D02*
X-8810001Y-7150000D01*
%TO.C,X1*%
X350000Y3250000D02*
X-1950000Y3250000D01*
X-1950000Y3250000D02*
X-1950000Y550000D01*
D12*
%TO.C,L4*%
X-3300000Y-2130000D02*
X-1400000Y-2130000D01*
X-1400000Y-870000D02*
X-3000000Y-870000D01*
D11*
%TO.C,C6*%
X2592164Y11860000D02*
X2807836Y11860000D01*
X2592164Y11140000D02*
X2807836Y11140000D01*
%TO.C,C4*%
X-2440000Y11207836D02*
X-2440000Y10992164D01*
X-3160000Y11207836D02*
X-3160000Y10992164D01*
D12*
%TO.C,L3*%
X-3300000Y-3630000D02*
X-1400000Y-3630000D01*
X-1400000Y-2370000D02*
X-3000000Y-2370000D01*
D11*
%TO.C,R7*%
X780000Y4453641D02*
X780000Y4146359D01*
X20000Y4453641D02*
X20000Y4146359D01*
%TO.C,R4*%
X2920000Y9946359D02*
X2920000Y10253641D01*
X3680000Y9946359D02*
X3680000Y10253641D01*
%TO.C,R3*%
X2580000Y10253641D02*
X2580000Y9946359D01*
X1820000Y10253641D02*
X1820000Y9946359D01*
%TO.C,C3*%
X-2140000Y2007836D02*
X-2140000Y1792164D01*
X-2860000Y2007836D02*
X-2860000Y1792164D01*
%TO.C,L6*%
X2038748Y-6990000D02*
X2561252Y-6990000D01*
X2038748Y-9210000D02*
X2561252Y-9210000D01*
%TO.C,U1*%
X-1700000Y-11460000D02*
X100000Y-11460000D01*
X-1700000Y-11460000D02*
X-2500000Y-11460000D01*
X-1700000Y-8340000D02*
X-900000Y-8340000D01*
X-1700000Y-8340000D02*
X-2500000Y-8340000D01*
%TO.C,C5*%
X-2440000Y7807836D02*
X-2440000Y7592164D01*
X-3160000Y7807836D02*
X-3160000Y7592164D01*
%TO.C,R5*%
X2580000Y7153641D02*
X2580000Y6846359D01*
X1820000Y7153641D02*
X1820000Y6846359D01*
%TO.C,Q1*%
X-600000Y3400000D02*
X-2150000Y3400000D01*
X-2150000Y5200000D02*
X-850000Y5200000D01*
%TO.C,R1*%
X3343641Y-10380000D02*
X3036359Y-10380000D01*
X3343641Y-9620000D02*
X3036359Y-9620000D01*
%TO.C,C1*%
X-690000Y-6840580D02*
X-690000Y-6559420D01*
X-1710000Y-6840580D02*
X-1710000Y-6559420D01*
%TO.C,J1*%
X12250000Y9150000D02*
X10910000Y9150000D01*
X8190000Y9150000D02*
X6450000Y9150000D01*
X6450000Y9150000D02*
X6450000Y-9150000D01*
X12250000Y7660000D02*
X12250000Y9150000D01*
X12250000Y7660000D02*
X13450000Y7660000D01*
X12250000Y-7660000D02*
X12250000Y-9150000D01*
X12250000Y-9150000D02*
X10910000Y-9150000D01*
X6450000Y-9150000D02*
X8190000Y-9150000D01*
%TO.C,C2*%
X1561252Y-6435000D02*
X1038748Y-6435000D01*
X1561252Y-4965000D02*
X1038748Y-4965000D01*
%TO.C,U4*%
X-300000Y8760000D02*
X-2100000Y8760000D01*
X-300000Y8760000D02*
X500000Y8760000D01*
X-300000Y5640000D02*
X-1100000Y5640000D01*
X-300000Y5640000D02*
X500000Y5640000D01*
%TO.C,C7*%
X2592164Y8760000D02*
X2807836Y8760000D01*
X2592164Y8040000D02*
X2807836Y8040000D01*
%TO.C,R6*%
X2920000Y6846359D02*
X2920000Y7153641D01*
X3680000Y6846359D02*
X3680000Y7153641D01*
%TO.C,R2*%
X1453641Y-10380000D02*
X1146359Y-10380000D01*
X1453641Y-9620000D02*
X1146359Y-9620000D01*
D12*
%TO.C,L2*%
X-3300000Y-5130000D02*
X-1400000Y-5130000D01*
X-1400000Y-3870000D02*
X-3000000Y-3870000D01*
D11*
%TO.C,L5*%
X-4510000Y6937221D02*
X-4510000Y7262779D01*
X-3490000Y6937221D02*
X-3490000Y7262779D01*
%TO.C,R8*%
X1636359Y5180000D02*
X1943641Y5180000D01*
X1636359Y4420000D02*
X1943641Y4420000D01*
%TO.C,J2*%
X4250000Y-7650000D02*
X5590000Y-7650000D01*
X8310000Y-7650000D02*
X10050000Y-7650000D01*
X10050000Y-7650000D02*
X10050000Y7650000D01*
X4250000Y-6160000D02*
X4250000Y-7650000D01*
X4250000Y-6160000D02*
X3050000Y-6160000D01*
X4250000Y6160000D02*
X4250000Y7650000D01*
X4250000Y7650000D02*
X5590000Y7650000D01*
X10050000Y7650000D02*
X8310000Y7650000D01*
%TO.C,L1*%
X-2190000Y-6537221D02*
X-2190000Y-6862779D01*
X-3210000Y-6537221D02*
X-3210000Y-6862779D01*
%TO.C,U3*%
X-300000Y12160000D02*
X-2100000Y12160000D01*
X-300000Y12160000D02*
X500000Y12160000D01*
X-300000Y9040000D02*
X-1100000Y9040000D01*
X-300000Y9040000D02*
X500000Y9040000D01*
%TD*%
%LPC*%
D13*
%TO.C,R13*%
X-1590000Y-100000D03*
X-2610000Y-100000D03*
%TD*%
D14*
%TO.C,H4*%
X6750000Y10500000D03*
%TD*%
D15*
%TO.C,J5*%
X-4200001Y5250000D03*
X-4200001Y4750000D03*
X-4200001Y4250000D03*
X-4200001Y3750000D03*
X-4200001Y3250000D03*
X-4200001Y2750000D03*
X-4200001Y2250000D03*
X-4200001Y1750000D03*
X-4200001Y1250000D03*
X-4200001Y750000D03*
X-4200001Y250000D03*
X-4200001Y-250000D03*
X-4200001Y-750000D03*
X-4200001Y-1250000D03*
X-4200001Y-1750000D03*
X-4200001Y-2250000D03*
X-4200001Y-2750000D03*
X-4200001Y-3250000D03*
X-4200001Y-3750000D03*
X-4200001Y-4250000D03*
X-4200001Y-4750000D03*
X-4200001Y-5250000D03*
D16*
X-7450001Y7150000D03*
X-7450001Y-7150000D03*
%TD*%
D17*
%TO.C,X1*%
X-1350000Y2600000D03*
X-1350000Y1200000D03*
X-250000Y1200000D03*
X-250000Y2600000D03*
%TD*%
D18*
%TO.C,L4*%
X-2855000Y-1775000D03*
X-1545000Y-1775000D03*
X-1545000Y-1225000D03*
X-2855000Y-1225000D03*
%TD*%
D14*
%TO.C,H1*%
X-6750000Y10500000D03*
%TD*%
D19*
%TO.C,C6*%
X2220000Y11500000D03*
X3180000Y11500000D03*
%TD*%
D20*
%TO.C,C4*%
X-2800000Y11580000D03*
X-2800000Y10620000D03*
%TD*%
D18*
%TO.C,L3*%
X-2855000Y-3275000D03*
X-1545000Y-3275000D03*
X-1545000Y-2725000D03*
X-2855000Y-2725000D03*
%TD*%
D21*
%TO.C,R7*%
X400000Y4810000D03*
X400000Y3790000D03*
%TD*%
D22*
%TO.C,R4*%
X3300000Y9590000D03*
X3300000Y10610000D03*
%TD*%
D21*
%TO.C,R3*%
X2200000Y10610000D03*
X2200000Y9590000D03*
%TD*%
D20*
%TO.C,C3*%
X-2500000Y2380000D03*
X-2500000Y1420000D03*
%TD*%
D23*
%TO.C,L6*%
X1225000Y-8100000D03*
X3375000Y-8100000D03*
%TD*%
D24*
%TO.C,U1*%
X-562500Y-10850000D03*
X-562500Y-9900000D03*
X-562500Y-8950000D03*
X-2837500Y-8950000D03*
X-2837500Y-9900000D03*
X-2837500Y-10850000D03*
%TD*%
D20*
%TO.C,C5*%
X-2800000Y8180000D03*
X-2800000Y7220000D03*
%TD*%
D21*
%TO.C,R5*%
X2200000Y7510000D03*
X2200000Y6490000D03*
%TD*%
D25*
%TO.C,Q1*%
X-750000Y3800000D03*
X-750000Y4300000D03*
X-750000Y4800000D03*
X-2250000Y4800000D03*
X-2250000Y4300000D03*
X-2250000Y3800000D03*
%TD*%
D13*
%TO.C,R1*%
X3700000Y-10000000D03*
X2680000Y-10000000D03*
%TD*%
D26*
%TO.C,C1*%
X-1200000Y-5925000D03*
X-1200000Y-7475000D03*
%TD*%
D15*
%TO.C,J1*%
X12800000Y7250000D03*
X12800000Y6750000D03*
X12800000Y6250000D03*
X12800000Y5750000D03*
X12800000Y5250000D03*
X12800000Y4750000D03*
X12800000Y4250000D03*
X12800000Y3750000D03*
X12800000Y3250000D03*
X12800000Y2750000D03*
X12800000Y2250000D03*
X12800000Y1750000D03*
X12800000Y1250000D03*
X12800000Y750000D03*
X12800000Y250000D03*
X12800000Y-250000D03*
X12800000Y-750000D03*
X12800000Y-1250000D03*
X12800000Y-1750000D03*
X12800000Y-2250000D03*
X12800000Y-2750000D03*
X12800000Y-3250000D03*
X12800000Y-3750000D03*
X12800000Y-4250000D03*
X12800000Y-4750000D03*
X12800000Y-5250000D03*
X12800000Y-5750000D03*
X12800000Y-6250000D03*
X12800000Y-6750000D03*
X12800000Y-7250000D03*
D16*
X9550000Y9150000D03*
X9550000Y-9150000D03*
%TD*%
D27*
%TO.C,C2*%
X2250000Y-5700000D03*
X350000Y-5700000D03*
%TD*%
D28*
%TO.C,U4*%
X-1437500Y8150000D03*
X-1437500Y7200000D03*
X-1437500Y6250000D03*
X837500Y6250000D03*
X837500Y8150000D03*
%TD*%
D19*
%TO.C,C7*%
X2220000Y8400000D03*
X3180000Y8400000D03*
%TD*%
D14*
%TO.C,H2*%
X6750000Y-10500000D03*
%TD*%
D22*
%TO.C,R6*%
X3300000Y6490000D03*
X3300000Y7510000D03*
%TD*%
D13*
%TO.C,R2*%
X1810000Y-10000000D03*
X790000Y-10000000D03*
%TD*%
D18*
%TO.C,L2*%
X-2855000Y-4775000D03*
X-1545000Y-4775000D03*
X-1545000Y-4225000D03*
X-2855000Y-4225000D03*
%TD*%
D29*
%TO.C,L5*%
X-4000000Y6312500D03*
X-4000000Y7887500D03*
%TD*%
D30*
%TO.C,R8*%
X1280000Y4800000D03*
X2300000Y4800000D03*
%TD*%
D15*
%TO.C,J2*%
X3700000Y-5750000D03*
X3700000Y-5250000D03*
X3700000Y-4750000D03*
X3700000Y-4250000D03*
X3700000Y-3750000D03*
X3700000Y-3250000D03*
X3700000Y-2750000D03*
X3700000Y-2250000D03*
X3700000Y-1750000D03*
X3700000Y-1250000D03*
X3700000Y-750000D03*
X3700000Y-250000D03*
X3700000Y250000D03*
X3700000Y750000D03*
X3700000Y1250000D03*
X3700000Y1750000D03*
X3700000Y2250000D03*
X3700000Y2750000D03*
X3700000Y3250000D03*
X3700000Y3750000D03*
X3700000Y4250000D03*
X3700000Y4750000D03*
X3700000Y5250000D03*
X3700000Y5750000D03*
D16*
X6950000Y-7650000D03*
X6950000Y7650000D03*
%TD*%
D31*
%TO.C,L1*%
X-2700000Y-5912500D03*
X-2700000Y-7487500D03*
%TD*%
D14*
%TO.C,H3*%
X-6750000Y-10500000D03*
%TD*%
D28*
%TO.C,U3*%
X-1437500Y11550000D03*
X-1437500Y10600000D03*
X-1437500Y9650000D03*
X837500Y9650000D03*
X837500Y11550000D03*
%TD*%
%LPD*%
M02*
