%TF.GenerationSoftware,KiCad,Pcbnew,7.0.9*%
%TF.CreationDate,2024-09-28T05:22:22+08:00*%
%TF.ProjectId,cameraadapt,63616d65-7261-4616-9461-70742e6b6963,rev?*%
%TF.SameCoordinates,Original*%
%TF.FileFunction,Drillmap*%
%TF.FilePolarity,Positive*%
%FSLAX45Y45*%
G04 Gerber Fmt 4.5, Leading zero omitted, Abs format (unit mm)*
G04 Created by KiCad (PCBNEW 7.0.9) date 2024-09-28 05:22:22*
%MOMM*%
%LPD*%
G01*
G04 APERTURE LIST*
%ADD10C,0.100000*%
%ADD11C,0.200000*%
%ADD12C,0.220000*%
G04 APERTURE END LIST*
D10*
X-1080000Y-628571D02*
G75*
G03*
X-989434Y-945552I599999J0D01*
G01*
X-989434Y945552D02*
G75*
G03*
X-1080000Y628571I509433J-316981D01*
G01*
X957645Y1135580D02*
G75*
G03*
X605208Y1250000I-352437J-485580D01*
G01*
X605208Y-1250000D02*
G75*
G03*
X957645Y-1135580I0J600000D01*
G01*
X1420001Y647051D02*
G75*
G03*
X1296219Y889841I-300001J-1D01*
G01*
X1296218Y-889840D02*
G75*
G03*
X1420000Y-647051I-176218J242790D01*
G01*
X-888050Y-1108491D02*
G75*
G03*
X-633333Y-1250000I254717J158491D01*
G01*
X-633333Y1250000D02*
G75*
G03*
X-888050Y1108491I0J-300000D01*
G01*
X1420000Y647051D02*
X1420000Y-647051D01*
X-989434Y945552D02*
X-888050Y1108491D01*
X-1080000Y-628571D02*
X-1080000Y628571D01*
X957645Y-1135580D02*
X1296219Y-889841D01*
X605208Y-1250000D02*
X-633333Y-1250000D01*
X-633333Y1250000D02*
X605208Y1250000D01*
X-888050Y-1108491D02*
X-989434Y-945552D01*
X957645Y1135580D02*
X1296219Y889841D01*
D11*
D12*
X-785000Y1160000D02*
X-565000Y940000D01*
X-565000Y1160000D02*
X-785000Y940000D01*
X-785000Y-940000D02*
X-565000Y-1160000D01*
X-565000Y-940000D02*
X-785000Y-1160000D01*
X565000Y1160000D02*
X785000Y940000D01*
X785000Y1160000D02*
X565000Y940000D01*
X565000Y-940000D02*
X785000Y-1160000D01*
X785000Y-940000D02*
X565000Y-1160000D01*
D11*
X-824223Y-1566484D02*
X-824223Y-1366484D01*
X-824223Y-1366484D02*
X-776604Y-1366484D01*
X-776604Y-1366484D02*
X-748033Y-1376008D01*
X-748033Y-1376008D02*
X-728985Y-1395055D01*
X-728985Y-1395055D02*
X-719461Y-1414103D01*
X-719461Y-1414103D02*
X-709937Y-1452198D01*
X-709937Y-1452198D02*
X-709937Y-1480769D01*
X-709937Y-1480769D02*
X-719461Y-1518865D01*
X-719461Y-1518865D02*
X-728985Y-1537912D01*
X-728985Y-1537912D02*
X-748033Y-1556960D01*
X-748033Y-1556960D02*
X-776604Y-1566484D01*
X-776604Y-1566484D02*
X-824223Y-1566484D01*
X-624223Y-1566484D02*
X-624223Y-1433150D01*
X-624223Y-1471246D02*
X-614699Y-1452198D01*
X-614699Y-1452198D02*
X-605176Y-1442674D01*
X-605176Y-1442674D02*
X-586128Y-1433150D01*
X-586128Y-1433150D02*
X-567080Y-1433150D01*
X-500414Y-1566484D02*
X-500414Y-1433150D01*
X-500414Y-1366484D02*
X-509937Y-1376008D01*
X-509937Y-1376008D02*
X-500414Y-1385531D01*
X-500414Y-1385531D02*
X-490890Y-1376008D01*
X-490890Y-1376008D02*
X-500414Y-1366484D01*
X-500414Y-1366484D02*
X-500414Y-1385531D01*
X-376604Y-1566484D02*
X-395652Y-1556960D01*
X-395652Y-1556960D02*
X-405175Y-1537912D01*
X-405175Y-1537912D02*
X-405175Y-1366484D01*
X-271842Y-1566484D02*
X-290890Y-1556960D01*
X-290890Y-1556960D02*
X-300414Y-1537912D01*
X-300414Y-1537912D02*
X-300414Y-1366484D01*
X-43271Y-1566484D02*
X-43271Y-1366484D01*
X-43271Y-1366484D02*
X23396Y-1509341D01*
X23396Y-1509341D02*
X90062Y-1366484D01*
X90062Y-1366484D02*
X90062Y-1566484D01*
X271015Y-1566484D02*
X271015Y-1461722D01*
X271015Y-1461722D02*
X261491Y-1442674D01*
X261491Y-1442674D02*
X242443Y-1433150D01*
X242443Y-1433150D02*
X204348Y-1433150D01*
X204348Y-1433150D02*
X185301Y-1442674D01*
X271015Y-1556960D02*
X251967Y-1566484D01*
X251967Y-1566484D02*
X204348Y-1566484D01*
X204348Y-1566484D02*
X185301Y-1556960D01*
X185301Y-1556960D02*
X175777Y-1537912D01*
X175777Y-1537912D02*
X175777Y-1518865D01*
X175777Y-1518865D02*
X185301Y-1499817D01*
X185301Y-1499817D02*
X204348Y-1490293D01*
X204348Y-1490293D02*
X251967Y-1490293D01*
X251967Y-1490293D02*
X271015Y-1480769D01*
X366253Y-1433150D02*
X366253Y-1633150D01*
X366253Y-1442674D02*
X385301Y-1433150D01*
X385301Y-1433150D02*
X423396Y-1433150D01*
X423396Y-1433150D02*
X442443Y-1442674D01*
X442443Y-1442674D02*
X451967Y-1452198D01*
X451967Y-1452198D02*
X461491Y-1471246D01*
X461491Y-1471246D02*
X461491Y-1528388D01*
X461491Y-1528388D02*
X451967Y-1547436D01*
X451967Y-1547436D02*
X442443Y-1556960D01*
X442443Y-1556960D02*
X423396Y-1566484D01*
X423396Y-1566484D02*
X385301Y-1566484D01*
X385301Y-1566484D02*
X366253Y-1556960D01*
X547205Y-1547436D02*
X556729Y-1556960D01*
X556729Y-1556960D02*
X547205Y-1566484D01*
X547205Y-1566484D02*
X537682Y-1556960D01*
X537682Y-1556960D02*
X547205Y-1547436D01*
X547205Y-1547436D02*
X547205Y-1566484D01*
X547205Y-1442674D02*
X556729Y-1452198D01*
X556729Y-1452198D02*
X547205Y-1461722D01*
X547205Y-1461722D02*
X537682Y-1452198D01*
X537682Y-1452198D02*
X547205Y-1442674D01*
X547205Y-1442674D02*
X547205Y-1461722D01*
X-1285000Y-1795000D02*
X-1085000Y-1995000D01*
X-1085000Y-1795000D02*
X-1285000Y-1995000D01*
X-833747Y-1805531D02*
X-824223Y-1796008D01*
X-824223Y-1796008D02*
X-805175Y-1786484D01*
X-805175Y-1786484D02*
X-757556Y-1786484D01*
X-757556Y-1786484D02*
X-738509Y-1796008D01*
X-738509Y-1796008D02*
X-728985Y-1805531D01*
X-728985Y-1805531D02*
X-719461Y-1824579D01*
X-719461Y-1824579D02*
X-719461Y-1843627D01*
X-719461Y-1843627D02*
X-728985Y-1872198D01*
X-728985Y-1872198D02*
X-843271Y-1986484D01*
X-843271Y-1986484D02*
X-719461Y-1986484D01*
X-633747Y-1967436D02*
X-624223Y-1976960D01*
X-624223Y-1976960D02*
X-633747Y-1986484D01*
X-633747Y-1986484D02*
X-643271Y-1976960D01*
X-643271Y-1976960D02*
X-633747Y-1967436D01*
X-633747Y-1967436D02*
X-633747Y-1986484D01*
X-548033Y-1805531D02*
X-538509Y-1796008D01*
X-538509Y-1796008D02*
X-519461Y-1786484D01*
X-519461Y-1786484D02*
X-471842Y-1786484D01*
X-471842Y-1786484D02*
X-452794Y-1796008D01*
X-452794Y-1796008D02*
X-443271Y-1805531D01*
X-443271Y-1805531D02*
X-433747Y-1824579D01*
X-433747Y-1824579D02*
X-433747Y-1843627D01*
X-433747Y-1843627D02*
X-443271Y-1872198D01*
X-443271Y-1872198D02*
X-557556Y-1986484D01*
X-557556Y-1986484D02*
X-433747Y-1986484D01*
X-309937Y-1786484D02*
X-290890Y-1786484D01*
X-290890Y-1786484D02*
X-271842Y-1796008D01*
X-271842Y-1796008D02*
X-262318Y-1805531D01*
X-262318Y-1805531D02*
X-252794Y-1824579D01*
X-252794Y-1824579D02*
X-243271Y-1862674D01*
X-243271Y-1862674D02*
X-243271Y-1910293D01*
X-243271Y-1910293D02*
X-252794Y-1948388D01*
X-252794Y-1948388D02*
X-262318Y-1967436D01*
X-262318Y-1967436D02*
X-271842Y-1976960D01*
X-271842Y-1976960D02*
X-290890Y-1986484D01*
X-290890Y-1986484D02*
X-309937Y-1986484D01*
X-309937Y-1986484D02*
X-328985Y-1976960D01*
X-328985Y-1976960D02*
X-338509Y-1967436D01*
X-338509Y-1967436D02*
X-348033Y-1948388D01*
X-348033Y-1948388D02*
X-357556Y-1910293D01*
X-357556Y-1910293D02*
X-357556Y-1862674D01*
X-357556Y-1862674D02*
X-348033Y-1824579D01*
X-348033Y-1824579D02*
X-338509Y-1805531D01*
X-338509Y-1805531D02*
X-328985Y-1796008D01*
X-328985Y-1796008D02*
X-309937Y-1786484D01*
X-119461Y-1786484D02*
X-100413Y-1786484D01*
X-100413Y-1786484D02*
X-81366Y-1796008D01*
X-81366Y-1796008D02*
X-71842Y-1805531D01*
X-71842Y-1805531D02*
X-62318Y-1824579D01*
X-62318Y-1824579D02*
X-52794Y-1862674D01*
X-52794Y-1862674D02*
X-52794Y-1910293D01*
X-52794Y-1910293D02*
X-62318Y-1948388D01*
X-62318Y-1948388D02*
X-71842Y-1967436D01*
X-71842Y-1967436D02*
X-81366Y-1976960D01*
X-81366Y-1976960D02*
X-100413Y-1986484D01*
X-100413Y-1986484D02*
X-119461Y-1986484D01*
X-119461Y-1986484D02*
X-138509Y-1976960D01*
X-138509Y-1976960D02*
X-148033Y-1967436D01*
X-148033Y-1967436D02*
X-157556Y-1948388D01*
X-157556Y-1948388D02*
X-167080Y-1910293D01*
X-167080Y-1910293D02*
X-167080Y-1862674D01*
X-167080Y-1862674D02*
X-157556Y-1824579D01*
X-157556Y-1824579D02*
X-148033Y-1805531D01*
X-148033Y-1805531D02*
X-138509Y-1796008D01*
X-138509Y-1796008D02*
X-119461Y-1786484D01*
X32920Y-1986484D02*
X32920Y-1853150D01*
X32920Y-1872198D02*
X42444Y-1862674D01*
X42444Y-1862674D02*
X61491Y-1853150D01*
X61491Y-1853150D02*
X90063Y-1853150D01*
X90063Y-1853150D02*
X109110Y-1862674D01*
X109110Y-1862674D02*
X118634Y-1881722D01*
X118634Y-1881722D02*
X118634Y-1986484D01*
X118634Y-1881722D02*
X128158Y-1862674D01*
X128158Y-1862674D02*
X147205Y-1853150D01*
X147205Y-1853150D02*
X175777Y-1853150D01*
X175777Y-1853150D02*
X194824Y-1862674D01*
X194824Y-1862674D02*
X204348Y-1881722D01*
X204348Y-1881722D02*
X204348Y-1986484D01*
X299586Y-1986484D02*
X299586Y-1853150D01*
X299586Y-1872198D02*
X309110Y-1862674D01*
X309110Y-1862674D02*
X328158Y-1853150D01*
X328158Y-1853150D02*
X356729Y-1853150D01*
X356729Y-1853150D02*
X375777Y-1862674D01*
X375777Y-1862674D02*
X385301Y-1881722D01*
X385301Y-1881722D02*
X385301Y-1986484D01*
X385301Y-1881722D02*
X394824Y-1862674D01*
X394824Y-1862674D02*
X413872Y-1853150D01*
X413872Y-1853150D02*
X442443Y-1853150D01*
X442443Y-1853150D02*
X461491Y-1862674D01*
X461491Y-1862674D02*
X471015Y-1881722D01*
X471015Y-1881722D02*
X471015Y-1986484D01*
X861491Y-1776960D02*
X690063Y-2034103D01*
X1118634Y-1786484D02*
X1137682Y-1786484D01*
X1137682Y-1786484D02*
X1156729Y-1796008D01*
X1156729Y-1796008D02*
X1166253Y-1805531D01*
X1166253Y-1805531D02*
X1175777Y-1824579D01*
X1175777Y-1824579D02*
X1185301Y-1862674D01*
X1185301Y-1862674D02*
X1185301Y-1910293D01*
X1185301Y-1910293D02*
X1175777Y-1948388D01*
X1175777Y-1948388D02*
X1166253Y-1967436D01*
X1166253Y-1967436D02*
X1156729Y-1976960D01*
X1156729Y-1976960D02*
X1137682Y-1986484D01*
X1137682Y-1986484D02*
X1118634Y-1986484D01*
X1118634Y-1986484D02*
X1099587Y-1976960D01*
X1099587Y-1976960D02*
X1090063Y-1967436D01*
X1090063Y-1967436D02*
X1080539Y-1948388D01*
X1080539Y-1948388D02*
X1071015Y-1910293D01*
X1071015Y-1910293D02*
X1071015Y-1862674D01*
X1071015Y-1862674D02*
X1080539Y-1824579D01*
X1080539Y-1824579D02*
X1090063Y-1805531D01*
X1090063Y-1805531D02*
X1099587Y-1796008D01*
X1099587Y-1796008D02*
X1118634Y-1786484D01*
X1271015Y-1967436D02*
X1280539Y-1976960D01*
X1280539Y-1976960D02*
X1271015Y-1986484D01*
X1271015Y-1986484D02*
X1261491Y-1976960D01*
X1261491Y-1976960D02*
X1271015Y-1967436D01*
X1271015Y-1967436D02*
X1271015Y-1986484D01*
X1404348Y-1786484D02*
X1423396Y-1786484D01*
X1423396Y-1786484D02*
X1442444Y-1796008D01*
X1442444Y-1796008D02*
X1451967Y-1805531D01*
X1451967Y-1805531D02*
X1461491Y-1824579D01*
X1461491Y-1824579D02*
X1471015Y-1862674D01*
X1471015Y-1862674D02*
X1471015Y-1910293D01*
X1471015Y-1910293D02*
X1461491Y-1948388D01*
X1461491Y-1948388D02*
X1451967Y-1967436D01*
X1451967Y-1967436D02*
X1442444Y-1976960D01*
X1442444Y-1976960D02*
X1423396Y-1986484D01*
X1423396Y-1986484D02*
X1404348Y-1986484D01*
X1404348Y-1986484D02*
X1385301Y-1976960D01*
X1385301Y-1976960D02*
X1375777Y-1967436D01*
X1375777Y-1967436D02*
X1366253Y-1948388D01*
X1366253Y-1948388D02*
X1356729Y-1910293D01*
X1356729Y-1910293D02*
X1356729Y-1862674D01*
X1356729Y-1862674D02*
X1366253Y-1824579D01*
X1366253Y-1824579D02*
X1375777Y-1805531D01*
X1375777Y-1805531D02*
X1385301Y-1796008D01*
X1385301Y-1796008D02*
X1404348Y-1786484D01*
X1585301Y-1872198D02*
X1566253Y-1862674D01*
X1566253Y-1862674D02*
X1556729Y-1853150D01*
X1556729Y-1853150D02*
X1547206Y-1834103D01*
X1547206Y-1834103D02*
X1547206Y-1824579D01*
X1547206Y-1824579D02*
X1556729Y-1805531D01*
X1556729Y-1805531D02*
X1566253Y-1796008D01*
X1566253Y-1796008D02*
X1585301Y-1786484D01*
X1585301Y-1786484D02*
X1623396Y-1786484D01*
X1623396Y-1786484D02*
X1642444Y-1796008D01*
X1642444Y-1796008D02*
X1651967Y-1805531D01*
X1651967Y-1805531D02*
X1661491Y-1824579D01*
X1661491Y-1824579D02*
X1661491Y-1834103D01*
X1661491Y-1834103D02*
X1651967Y-1853150D01*
X1651967Y-1853150D02*
X1642444Y-1862674D01*
X1642444Y-1862674D02*
X1623396Y-1872198D01*
X1623396Y-1872198D02*
X1585301Y-1872198D01*
X1585301Y-1872198D02*
X1566253Y-1881722D01*
X1566253Y-1881722D02*
X1556729Y-1891246D01*
X1556729Y-1891246D02*
X1547206Y-1910293D01*
X1547206Y-1910293D02*
X1547206Y-1948388D01*
X1547206Y-1948388D02*
X1556729Y-1967436D01*
X1556729Y-1967436D02*
X1566253Y-1976960D01*
X1566253Y-1976960D02*
X1585301Y-1986484D01*
X1585301Y-1986484D02*
X1623396Y-1986484D01*
X1623396Y-1986484D02*
X1642444Y-1976960D01*
X1642444Y-1976960D02*
X1651967Y-1967436D01*
X1651967Y-1967436D02*
X1661491Y-1948388D01*
X1661491Y-1948388D02*
X1661491Y-1910293D01*
X1661491Y-1910293D02*
X1651967Y-1891246D01*
X1651967Y-1891246D02*
X1642444Y-1881722D01*
X1642444Y-1881722D02*
X1623396Y-1872198D01*
X1832920Y-1786484D02*
X1794825Y-1786484D01*
X1794825Y-1786484D02*
X1775777Y-1796008D01*
X1775777Y-1796008D02*
X1766253Y-1805531D01*
X1766253Y-1805531D02*
X1747206Y-1834103D01*
X1747206Y-1834103D02*
X1737682Y-1872198D01*
X1737682Y-1872198D02*
X1737682Y-1948388D01*
X1737682Y-1948388D02*
X1747206Y-1967436D01*
X1747206Y-1967436D02*
X1756729Y-1976960D01*
X1756729Y-1976960D02*
X1775777Y-1986484D01*
X1775777Y-1986484D02*
X1813872Y-1986484D01*
X1813872Y-1986484D02*
X1832920Y-1976960D01*
X1832920Y-1976960D02*
X1842444Y-1967436D01*
X1842444Y-1967436D02*
X1851967Y-1948388D01*
X1851967Y-1948388D02*
X1851967Y-1900769D01*
X1851967Y-1900769D02*
X1842444Y-1881722D01*
X1842444Y-1881722D02*
X1832920Y-1872198D01*
X1832920Y-1872198D02*
X1813872Y-1862674D01*
X1813872Y-1862674D02*
X1775777Y-1862674D01*
X1775777Y-1862674D02*
X1756729Y-1872198D01*
X1756729Y-1872198D02*
X1747206Y-1881722D01*
X1747206Y-1881722D02*
X1737682Y-1900769D01*
X2023396Y-1786484D02*
X1985301Y-1786484D01*
X1985301Y-1786484D02*
X1966253Y-1796008D01*
X1966253Y-1796008D02*
X1956729Y-1805531D01*
X1956729Y-1805531D02*
X1937682Y-1834103D01*
X1937682Y-1834103D02*
X1928158Y-1872198D01*
X1928158Y-1872198D02*
X1928158Y-1948388D01*
X1928158Y-1948388D02*
X1937682Y-1967436D01*
X1937682Y-1967436D02*
X1947206Y-1976960D01*
X1947206Y-1976960D02*
X1966253Y-1986484D01*
X1966253Y-1986484D02*
X2004348Y-1986484D01*
X2004348Y-1986484D02*
X2023396Y-1976960D01*
X2023396Y-1976960D02*
X2032920Y-1967436D01*
X2032920Y-1967436D02*
X2042444Y-1948388D01*
X2042444Y-1948388D02*
X2042444Y-1900769D01*
X2042444Y-1900769D02*
X2032920Y-1881722D01*
X2032920Y-1881722D02*
X2023396Y-1872198D01*
X2023396Y-1872198D02*
X2004348Y-1862674D01*
X2004348Y-1862674D02*
X1966253Y-1862674D01*
X1966253Y-1862674D02*
X1947206Y-1872198D01*
X1947206Y-1872198D02*
X1937682Y-1881722D01*
X1937682Y-1881722D02*
X1928158Y-1900769D01*
X2118634Y-1786484D02*
X2118634Y-1824579D01*
X2194825Y-1786484D02*
X2194825Y-1824579D01*
X2490063Y-2062674D02*
X2480539Y-2053150D01*
X2480539Y-2053150D02*
X2461491Y-2024579D01*
X2461491Y-2024579D02*
X2451968Y-2005531D01*
X2451968Y-2005531D02*
X2442444Y-1976960D01*
X2442444Y-1976960D02*
X2432920Y-1929341D01*
X2432920Y-1929341D02*
X2432920Y-1891246D01*
X2432920Y-1891246D02*
X2442444Y-1843627D01*
X2442444Y-1843627D02*
X2451968Y-1815055D01*
X2451968Y-1815055D02*
X2461491Y-1796008D01*
X2461491Y-1796008D02*
X2480539Y-1767436D01*
X2480539Y-1767436D02*
X2490063Y-1757912D01*
X2651968Y-1853150D02*
X2651968Y-1986484D01*
X2604349Y-1776960D02*
X2556730Y-1919817D01*
X2556730Y-1919817D02*
X2680539Y-1919817D01*
X2909110Y-1986484D02*
X2909110Y-1786484D01*
X2994825Y-1986484D02*
X2994825Y-1881722D01*
X2994825Y-1881722D02*
X2985301Y-1862674D01*
X2985301Y-1862674D02*
X2966253Y-1853150D01*
X2966253Y-1853150D02*
X2937682Y-1853150D01*
X2937682Y-1853150D02*
X2918634Y-1862674D01*
X2918634Y-1862674D02*
X2909110Y-1872198D01*
X3118634Y-1986484D02*
X3099587Y-1976960D01*
X3099587Y-1976960D02*
X3090063Y-1967436D01*
X3090063Y-1967436D02*
X3080539Y-1948388D01*
X3080539Y-1948388D02*
X3080539Y-1891246D01*
X3080539Y-1891246D02*
X3090063Y-1872198D01*
X3090063Y-1872198D02*
X3099587Y-1862674D01*
X3099587Y-1862674D02*
X3118634Y-1853150D01*
X3118634Y-1853150D02*
X3147206Y-1853150D01*
X3147206Y-1853150D02*
X3166253Y-1862674D01*
X3166253Y-1862674D02*
X3175777Y-1872198D01*
X3175777Y-1872198D02*
X3185301Y-1891246D01*
X3185301Y-1891246D02*
X3185301Y-1948388D01*
X3185301Y-1948388D02*
X3175777Y-1967436D01*
X3175777Y-1967436D02*
X3166253Y-1976960D01*
X3166253Y-1976960D02*
X3147206Y-1986484D01*
X3147206Y-1986484D02*
X3118634Y-1986484D01*
X3299587Y-1986484D02*
X3280539Y-1976960D01*
X3280539Y-1976960D02*
X3271015Y-1957912D01*
X3271015Y-1957912D02*
X3271015Y-1786484D01*
X3451968Y-1976960D02*
X3432920Y-1986484D01*
X3432920Y-1986484D02*
X3394825Y-1986484D01*
X3394825Y-1986484D02*
X3375777Y-1976960D01*
X3375777Y-1976960D02*
X3366253Y-1957912D01*
X3366253Y-1957912D02*
X3366253Y-1881722D01*
X3366253Y-1881722D02*
X3375777Y-1862674D01*
X3375777Y-1862674D02*
X3394825Y-1853150D01*
X3394825Y-1853150D02*
X3432920Y-1853150D01*
X3432920Y-1853150D02*
X3451968Y-1862674D01*
X3451968Y-1862674D02*
X3461491Y-1881722D01*
X3461491Y-1881722D02*
X3461491Y-1900769D01*
X3461491Y-1900769D02*
X3366253Y-1919817D01*
X3537682Y-1976960D02*
X3556730Y-1986484D01*
X3556730Y-1986484D02*
X3594825Y-1986484D01*
X3594825Y-1986484D02*
X3613872Y-1976960D01*
X3613872Y-1976960D02*
X3623396Y-1957912D01*
X3623396Y-1957912D02*
X3623396Y-1948388D01*
X3623396Y-1948388D02*
X3613872Y-1929341D01*
X3613872Y-1929341D02*
X3594825Y-1919817D01*
X3594825Y-1919817D02*
X3566253Y-1919817D01*
X3566253Y-1919817D02*
X3547206Y-1910293D01*
X3547206Y-1910293D02*
X3537682Y-1891246D01*
X3537682Y-1891246D02*
X3537682Y-1881722D01*
X3537682Y-1881722D02*
X3547206Y-1862674D01*
X3547206Y-1862674D02*
X3566253Y-1853150D01*
X3566253Y-1853150D02*
X3594825Y-1853150D01*
X3594825Y-1853150D02*
X3613872Y-1862674D01*
X3690063Y-2062674D02*
X3699587Y-2053150D01*
X3699587Y-2053150D02*
X3718634Y-2024579D01*
X3718634Y-2024579D02*
X3728158Y-2005531D01*
X3728158Y-2005531D02*
X3737682Y-1976960D01*
X3737682Y-1976960D02*
X3747206Y-1929341D01*
X3747206Y-1929341D02*
X3747206Y-1891246D01*
X3747206Y-1891246D02*
X3737682Y-1843627D01*
X3737682Y-1843627D02*
X3728158Y-1815055D01*
X3728158Y-1815055D02*
X3718634Y-1796008D01*
X3718634Y-1796008D02*
X3699587Y-1767436D01*
X3699587Y-1767436D02*
X3690063Y-1757912D01*
X4051968Y-2062674D02*
X4042444Y-2053150D01*
X4042444Y-2053150D02*
X4023396Y-2024579D01*
X4023396Y-2024579D02*
X4013872Y-2005531D01*
X4013872Y-2005531D02*
X4004349Y-1976960D01*
X4004349Y-1976960D02*
X3994825Y-1929341D01*
X3994825Y-1929341D02*
X3994825Y-1891246D01*
X3994825Y-1891246D02*
X4004349Y-1843627D01*
X4004349Y-1843627D02*
X4013872Y-1815055D01*
X4013872Y-1815055D02*
X4023396Y-1796008D01*
X4023396Y-1796008D02*
X4042444Y-1767436D01*
X4042444Y-1767436D02*
X4051968Y-1757912D01*
X4128158Y-1853150D02*
X4128158Y-1986484D01*
X4128158Y-1872198D02*
X4137682Y-1862674D01*
X4137682Y-1862674D02*
X4156730Y-1853150D01*
X4156730Y-1853150D02*
X4185301Y-1853150D01*
X4185301Y-1853150D02*
X4204349Y-1862674D01*
X4204349Y-1862674D02*
X4213873Y-1881722D01*
X4213873Y-1881722D02*
X4213873Y-1986484D01*
X4337682Y-1986484D02*
X4318634Y-1976960D01*
X4318634Y-1976960D02*
X4309111Y-1967436D01*
X4309111Y-1967436D02*
X4299587Y-1948388D01*
X4299587Y-1948388D02*
X4299587Y-1891246D01*
X4299587Y-1891246D02*
X4309111Y-1872198D01*
X4309111Y-1872198D02*
X4318634Y-1862674D01*
X4318634Y-1862674D02*
X4337682Y-1853150D01*
X4337682Y-1853150D02*
X4366254Y-1853150D01*
X4366254Y-1853150D02*
X4385301Y-1862674D01*
X4385301Y-1862674D02*
X4394825Y-1872198D01*
X4394825Y-1872198D02*
X4404349Y-1891246D01*
X4404349Y-1891246D02*
X4404349Y-1948388D01*
X4404349Y-1948388D02*
X4394825Y-1967436D01*
X4394825Y-1967436D02*
X4385301Y-1976960D01*
X4385301Y-1976960D02*
X4366254Y-1986484D01*
X4366254Y-1986484D02*
X4337682Y-1986484D01*
X4461492Y-1853150D02*
X4537682Y-1853150D01*
X4490063Y-1786484D02*
X4490063Y-1957912D01*
X4490063Y-1957912D02*
X4499587Y-1976960D01*
X4499587Y-1976960D02*
X4518634Y-1986484D01*
X4518634Y-1986484D02*
X4537682Y-1986484D01*
X4756730Y-1853150D02*
X4756730Y-2053150D01*
X4756730Y-1862674D02*
X4775777Y-1853150D01*
X4775777Y-1853150D02*
X4813873Y-1853150D01*
X4813873Y-1853150D02*
X4832920Y-1862674D01*
X4832920Y-1862674D02*
X4842444Y-1872198D01*
X4842444Y-1872198D02*
X4851968Y-1891246D01*
X4851968Y-1891246D02*
X4851968Y-1948388D01*
X4851968Y-1948388D02*
X4842444Y-1967436D01*
X4842444Y-1967436D02*
X4832920Y-1976960D01*
X4832920Y-1976960D02*
X4813873Y-1986484D01*
X4813873Y-1986484D02*
X4775777Y-1986484D01*
X4775777Y-1986484D02*
X4756730Y-1976960D01*
X4966254Y-1986484D02*
X4947206Y-1976960D01*
X4947206Y-1976960D02*
X4937682Y-1957912D01*
X4937682Y-1957912D02*
X4937682Y-1786484D01*
X5128158Y-1986484D02*
X5128158Y-1881722D01*
X5128158Y-1881722D02*
X5118635Y-1862674D01*
X5118635Y-1862674D02*
X5099587Y-1853150D01*
X5099587Y-1853150D02*
X5061492Y-1853150D01*
X5061492Y-1853150D02*
X5042444Y-1862674D01*
X5128158Y-1976960D02*
X5109111Y-1986484D01*
X5109111Y-1986484D02*
X5061492Y-1986484D01*
X5061492Y-1986484D02*
X5042444Y-1976960D01*
X5042444Y-1976960D02*
X5032920Y-1957912D01*
X5032920Y-1957912D02*
X5032920Y-1938865D01*
X5032920Y-1938865D02*
X5042444Y-1919817D01*
X5042444Y-1919817D02*
X5061492Y-1910293D01*
X5061492Y-1910293D02*
X5109111Y-1910293D01*
X5109111Y-1910293D02*
X5128158Y-1900769D01*
X5194825Y-1853150D02*
X5271015Y-1853150D01*
X5223396Y-1786484D02*
X5223396Y-1957912D01*
X5223396Y-1957912D02*
X5232920Y-1976960D01*
X5232920Y-1976960D02*
X5251968Y-1986484D01*
X5251968Y-1986484D02*
X5271015Y-1986484D01*
X5413873Y-1976960D02*
X5394825Y-1986484D01*
X5394825Y-1986484D02*
X5356730Y-1986484D01*
X5356730Y-1986484D02*
X5337682Y-1976960D01*
X5337682Y-1976960D02*
X5328158Y-1957912D01*
X5328158Y-1957912D02*
X5328158Y-1881722D01*
X5328158Y-1881722D02*
X5337682Y-1862674D01*
X5337682Y-1862674D02*
X5356730Y-1853150D01*
X5356730Y-1853150D02*
X5394825Y-1853150D01*
X5394825Y-1853150D02*
X5413873Y-1862674D01*
X5413873Y-1862674D02*
X5423396Y-1881722D01*
X5423396Y-1881722D02*
X5423396Y-1900769D01*
X5423396Y-1900769D02*
X5328158Y-1919817D01*
X5594825Y-1986484D02*
X5594825Y-1786484D01*
X5594825Y-1976960D02*
X5575777Y-1986484D01*
X5575777Y-1986484D02*
X5537682Y-1986484D01*
X5537682Y-1986484D02*
X5518635Y-1976960D01*
X5518635Y-1976960D02*
X5509111Y-1967436D01*
X5509111Y-1967436D02*
X5499587Y-1948388D01*
X5499587Y-1948388D02*
X5499587Y-1891246D01*
X5499587Y-1891246D02*
X5509111Y-1872198D01*
X5509111Y-1872198D02*
X5518635Y-1862674D01*
X5518635Y-1862674D02*
X5537682Y-1853150D01*
X5537682Y-1853150D02*
X5575777Y-1853150D01*
X5575777Y-1853150D02*
X5594825Y-1862674D01*
X5671015Y-2062674D02*
X5680539Y-2053150D01*
X5680539Y-2053150D02*
X5699587Y-2024579D01*
X5699587Y-2024579D02*
X5709111Y-2005531D01*
X5709111Y-2005531D02*
X5718634Y-1976960D01*
X5718634Y-1976960D02*
X5728158Y-1929341D01*
X5728158Y-1929341D02*
X5728158Y-1891246D01*
X5728158Y-1891246D02*
X5718634Y-1843627D01*
X5718634Y-1843627D02*
X5709111Y-1815055D01*
X5709111Y-1815055D02*
X5699587Y-1796008D01*
X5699587Y-1796008D02*
X5680539Y-1767436D01*
X5680539Y-1767436D02*
X5671015Y-1757912D01*
M02*
