%TF.GenerationSoftware,KiCad,Pcbnew,7.0.9*%
%TF.CreationDate,2024-09-28T05:56:50+08:00*%
%TF.ProjectId,cameraadapt,63616d65-7261-4616-9461-70742e6b6963,rev?*%
%TF.SameCoordinates,Original*%
%TF.FileFunction,Copper,L1,Top*%
%TF.FilePolarity,Positive*%
%FSLAX46Y46*%
G04 Gerber Fmt 4.6, Leading zero omitted, Abs format (unit mm)*
G04 Created by KiCad (PCBNEW 7.0.9) date 2024-09-28 05:56:50*
%MOMM*%
%LPD*%
G01*
G04 APERTURE LIST*
G04 Aperture macros list*
%AMRoundRect*
0 Rectangle with rounded corners*
0 $1 Rounding radius*
0 $2 $3 $4 $5 $6 $7 $8 $9 X,Y pos of 4 corners*
0 Add a 4 corners polygon primitive as box body*
4,1,4,$2,$3,$4,$5,$6,$7,$8,$9,$2,$3,0*
0 Add four circle primitives for the rounded corners*
1,1,$1+$1,$2,$3*
1,1,$1+$1,$4,$5*
1,1,$1+$1,$6,$7*
1,1,$1+$1,$8,$9*
0 Add four rect primitives between the rounded corners*
20,1,$1+$1,$2,$3,$4,$5,0*
20,1,$1+$1,$4,$5,$6,$7,0*
20,1,$1+$1,$6,$7,$8,$9,0*
20,1,$1+$1,$8,$9,$2,$3,0*%
G04 Aperture macros list end*
%TA.AperFunction,SMDPad,CuDef*%
%ADD10RoundRect,0.135000X0.135000X0.185000X-0.135000X0.185000X-0.135000X-0.185000X0.135000X-0.185000X0*%
%TD*%
%TA.AperFunction,SMDPad,CuDef*%
%ADD11R,1.300000X0.300000*%
%TD*%
%TA.AperFunction,SMDPad,CuDef*%
%ADD12R,2.200000X1.800000*%
%TD*%
%TA.AperFunction,SMDPad,CuDef*%
%ADD13R,0.800000X0.900000*%
%TD*%
%TA.AperFunction,SMDPad,CuDef*%
%ADD14RoundRect,0.015000X0.275000X-0.135000X0.275000X0.135000X-0.275000X0.135000X-0.275000X-0.135000X0*%
%TD*%
%TA.AperFunction,SMDPad,CuDef*%
%ADD15RoundRect,0.140000X-0.140000X-0.170000X0.140000X-0.170000X0.140000X0.170000X-0.140000X0.170000X0*%
%TD*%
%TA.AperFunction,SMDPad,CuDef*%
%ADD16RoundRect,0.140000X-0.170000X0.140000X-0.170000X-0.140000X0.170000X-0.140000X0.170000X0.140000X0*%
%TD*%
%TA.AperFunction,SMDPad,CuDef*%
%ADD17RoundRect,0.135000X-0.185000X0.135000X-0.185000X-0.135000X0.185000X-0.135000X0.185000X0.135000X0*%
%TD*%
%TA.AperFunction,SMDPad,CuDef*%
%ADD18RoundRect,0.135000X0.185000X-0.135000X0.185000X0.135000X-0.185000X0.135000X-0.185000X-0.135000X0*%
%TD*%
%TA.AperFunction,SMDPad,CuDef*%
%ADD19RoundRect,0.250000X-0.375000X-0.850000X0.375000X-0.850000X0.375000X0.850000X-0.375000X0.850000X0*%
%TD*%
%TA.AperFunction,SMDPad,CuDef*%
%ADD20RoundRect,0.150000X0.512500X0.150000X-0.512500X0.150000X-0.512500X-0.150000X0.512500X-0.150000X0*%
%TD*%
%TA.AperFunction,SMDPad,CuDef*%
%ADD21R,0.700000X0.340000*%
%TD*%
%TA.AperFunction,SMDPad,CuDef*%
%ADD22RoundRect,0.225000X0.250000X-0.225000X0.250000X0.225000X-0.250000X0.225000X-0.250000X-0.225000X0*%
%TD*%
%TA.AperFunction,SMDPad,CuDef*%
%ADD23RoundRect,0.250000X0.250000X0.475000X-0.250000X0.475000X-0.250000X-0.475000X0.250000X-0.475000X0*%
%TD*%
%TA.AperFunction,SMDPad,CuDef*%
%ADD24RoundRect,0.150000X-0.512500X-0.150000X0.512500X-0.150000X0.512500X0.150000X-0.512500X0.150000X0*%
%TD*%
%TA.AperFunction,SMDPad,CuDef*%
%ADD25RoundRect,0.218750X0.256250X-0.218750X0.256250X0.218750X-0.256250X0.218750X-0.256250X-0.218750X0*%
%TD*%
%TA.AperFunction,SMDPad,CuDef*%
%ADD26RoundRect,0.135000X-0.135000X-0.185000X0.135000X-0.185000X0.135000X0.185000X-0.135000X0.185000X0*%
%TD*%
%TA.AperFunction,SMDPad,CuDef*%
%ADD27RoundRect,0.218750X-0.256250X0.218750X-0.256250X-0.218750X0.256250X-0.218750X0.256250X0.218750X0*%
%TD*%
%TA.AperFunction,ViaPad*%
%ADD28C,0.450000*%
%TD*%
%TA.AperFunction,Conductor*%
%ADD29C,0.212000*%
%TD*%
%TA.AperFunction,Conductor*%
%ADD30C,0.203200*%
%TD*%
%TA.AperFunction,Conductor*%
%ADD31C,0.254000*%
%TD*%
%TA.AperFunction,Conductor*%
%ADD32C,0.250000*%
%TD*%
%TA.AperFunction,Conductor*%
%ADD33C,0.508000*%
%TD*%
%TA.AperFunction,Conductor*%
%ADD34C,0.381000*%
%TD*%
%TA.AperFunction,Conductor*%
%ADD35C,0.200000*%
%TD*%
G04 APERTURE END LIST*
D10*
%TO.P,R13,1*%
%TO.N,/XSHUTDOWN*%
X-1590000Y-100000D03*
%TO.P,R13,2*%
%TO.N,/EN*%
X-2610000Y-100000D03*
%TD*%
D11*
%TO.P,J5,1,Pin_1*%
%TO.N,+3.3V*%
X-4200001Y5250000D03*
%TO.P,J5,2,Pin_2*%
%TO.N,/SDA*%
X-4200001Y4750000D03*
%TO.P,J5,3,Pin_3*%
%TO.N,/SCL*%
X-4200001Y4250000D03*
%TO.P,J5,4,Pin_4*%
%TO.N,GND*%
X-4200001Y3750000D03*
%TO.P,J5,5,Pin_5*%
%TO.N,unconnected-(J5-Pin_5-Pad5)*%
X-4200001Y3250000D03*
%TO.P,J5,6,Pin_6*%
%TO.N,/EN*%
X-4200001Y2750000D03*
%TO.P,J5,7,Pin_7*%
%TO.N,GND*%
X-4200001Y2250000D03*
%TO.P,J5,8,Pin_8*%
%TO.N,unconnected-(J5-Pin_8-Pad8)*%
X-4200001Y1750000D03*
%TO.P,J5,9,Pin_9*%
%TO.N,unconnected-(J5-Pin_9-Pad9)*%
X-4200001Y1250000D03*
%TO.P,J5,10,Pin_10*%
%TO.N,GND*%
X-4200001Y750000D03*
%TO.P,J5,11,Pin_11*%
%TO.N,unconnected-(J5-Pin_11-Pad11)*%
X-4200001Y250000D03*
%TO.P,J5,12,Pin_12*%
%TO.N,unconnected-(J5-Pin_12-Pad12)*%
X-4200001Y-250000D03*
%TO.P,J5,13,Pin_13*%
%TO.N,GND*%
X-4200001Y-750000D03*
%TO.P,J5,14,Pin_14*%
%TO.N,/MCLK_P*%
X-4200001Y-1250000D03*
%TO.P,J5,15,Pin_15*%
%TO.N,/MCLK_N*%
X-4200001Y-1750000D03*
%TO.P,J5,16,Pin_16*%
%TO.N,GND*%
X-4200001Y-2250000D03*
%TO.P,J5,17,Pin_17*%
%TO.N,/MD1_P*%
X-4200001Y-2750000D03*
%TO.P,J5,18,Pin_18*%
%TO.N,/MD1_N*%
X-4200001Y-3250000D03*
%TO.P,J5,19,Pin_19*%
%TO.N,GND*%
X-4200001Y-3750000D03*
%TO.P,J5,20,Pin_20*%
%TO.N,/MD0_P*%
X-4200001Y-4250000D03*
%TO.P,J5,21,Pin_21*%
%TO.N,/MD0_N*%
X-4200001Y-4750000D03*
%TO.P,J5,22,Pin_22*%
%TO.N,GND*%
X-4200001Y-5250000D03*
D12*
%TO.P,J5,MP,MountPin*%
X-7450001Y7150000D03*
X-7450001Y-7150000D03*
%TD*%
D13*
%TO.P,X1,1,Tri-State*%
%TO.N,+1V8*%
X-1350000Y2600000D03*
%TO.P,X1,2,GND*%
%TO.N,GND*%
X-1350000Y1200000D03*
%TO.P,X1,3,OUT*%
%TO.N,/MCLK*%
X-250000Y1200000D03*
%TO.P,X1,4,VDD*%
%TO.N,+1V8*%
X-250000Y2600000D03*
%TD*%
D14*
%TO.P,L4,1,1*%
%TO.N,/MCLK_N*%
X-2855000Y-1775000D03*
%TO.P,L4,2,2*%
X-1545000Y-1775000D03*
%TO.P,L4,3,3*%
%TO.N,/MCLK_P*%
X-1545000Y-1225000D03*
%TO.P,L4,4,4*%
X-2855000Y-1225000D03*
%TD*%
D15*
%TO.P,C6,1*%
%TO.N,+2V8*%
X2220000Y11500000D03*
%TO.P,C6,2*%
%TO.N,GND*%
X3180000Y11500000D03*
%TD*%
D16*
%TO.P,C4,1*%
%TO.N,Net-(U3-VIN)*%
X-2800000Y11580000D03*
%TO.P,C4,2*%
%TO.N,GND*%
X-2800000Y10620000D03*
%TD*%
D14*
%TO.P,L3,1,1*%
%TO.N,/MD1_N*%
X-2855000Y-3275000D03*
%TO.P,L3,2,2*%
X-1545000Y-3275000D03*
%TO.P,L3,3,3*%
%TO.N,/MD1_P*%
X-1545000Y-2725000D03*
%TO.P,L3,4,4*%
X-2855000Y-2725000D03*
%TD*%
D17*
%TO.P,R7,1*%
%TO.N,+1V8*%
X400000Y4810000D03*
%TO.P,R7,2*%
%TO.N,/SCL_1V8*%
X400000Y3790000D03*
%TD*%
D18*
%TO.P,R4,1*%
%TO.N,Net-(U3-SENSE{slash}ADJ)*%
X3300000Y9590000D03*
%TO.P,R4,2*%
%TO.N,GND*%
X3300000Y10610000D03*
%TD*%
D17*
%TO.P,R3,1*%
%TO.N,+2V8*%
X2200000Y10610000D03*
%TO.P,R3,2*%
%TO.N,Net-(U3-SENSE{slash}ADJ)*%
X2200000Y9590000D03*
%TD*%
D16*
%TO.P,C3,1*%
%TO.N,+1V8*%
X-2500000Y2380000D03*
%TO.P,C3,2*%
%TO.N,GND*%
X-2500000Y1420000D03*
%TD*%
D19*
%TO.P,L6,1,1*%
%TO.N,Net-(U1-LX)*%
X1225000Y-8100000D03*
%TO.P,L6,2,2*%
%TO.N,+1V2*%
X3375000Y-8100000D03*
%TD*%
D20*
%TO.P,U1,1,EN*%
%TO.N,/EN*%
X-562500Y-10850000D03*
%TO.P,U1,2,GND*%
%TO.N,GND*%
X-562500Y-9900000D03*
%TO.P,U1,3,LX*%
%TO.N,Net-(U1-LX)*%
X-562500Y-8950000D03*
%TO.P,U1,4,VIN*%
%TO.N,Net-(U1-VIN)*%
X-2837500Y-8950000D03*
%TO.P,U1,5,PG*%
%TO.N,unconnected-(U1-PG-Pad5)*%
X-2837500Y-9900000D03*
%TO.P,U1,6,FB*%
%TO.N,Net-(U1-FB)*%
X-2837500Y-10850000D03*
%TD*%
D16*
%TO.P,C5,1*%
%TO.N,Net-(U3-VIN)*%
X-2800000Y8180000D03*
%TO.P,C5,2*%
%TO.N,GND*%
X-2800000Y7220000D03*
%TD*%
D17*
%TO.P,R5,1*%
%TO.N,+1V8*%
X2200000Y7510000D03*
%TO.P,R5,2*%
%TO.N,Net-(U4-SENSE{slash}ADJ)*%
X2200000Y6490000D03*
%TD*%
D21*
%TO.P,Q1,1,S1*%
%TO.N,/SCL_1V8*%
X-750000Y3800000D03*
%TO.P,Q1,2,G1*%
%TO.N,+1V8*%
X-750000Y4300000D03*
%TO.P,Q1,3,D2*%
%TO.N,/SDA*%
X-750000Y4800000D03*
%TO.P,Q1,4,S2*%
%TO.N,/SDA_1V8*%
X-2250000Y4800000D03*
%TO.P,Q1,5,G2*%
%TO.N,+1V8*%
X-2250000Y4300000D03*
%TO.P,Q1,6,D1*%
%TO.N,/SCL*%
X-2250000Y3800000D03*
%TD*%
D10*
%TO.P,R1,1*%
%TO.N,+1V2*%
X3700000Y-10000000D03*
%TO.P,R1,2*%
%TO.N,Net-(U1-FB)*%
X2680000Y-10000000D03*
%TD*%
D22*
%TO.P,C1,2*%
%TO.N,GND*%
X-1200000Y-5925000D03*
%TO.P,C1,1*%
%TO.N,Net-(U1-VIN)*%
X-1200000Y-7475000D03*
%TD*%
D11*
%TO.P,J1,1,Pin_1*%
%TO.N,+2V8*%
X12800000Y7250000D03*
%TO.P,J1,2,Pin_2*%
%TO.N,+1V8*%
X12800000Y6750000D03*
%TO.P,J1,3,Pin_3*%
%TO.N,+1V2*%
X12800000Y6250000D03*
%TO.P,J1,4,Pin_4*%
%TO.N,GND*%
X12800000Y5750000D03*
%TO.P,J1,5,Pin_5*%
%TO.N,/MD1_P*%
X12800000Y5250000D03*
%TO.P,J1,6,Pin_6*%
%TO.N,/MD1_N*%
X12800000Y4750000D03*
%TO.P,J1,7,Pin_7*%
%TO.N,/MCLK_P*%
X12800000Y4250000D03*
%TO.P,J1,8,Pin_8*%
%TO.N,/MCLK_N*%
X12800000Y3750000D03*
%TO.P,J1,9,Pin_9*%
%TO.N,/MD0_P*%
X12800000Y3250000D03*
%TO.P,J1,10,Pin_10*%
%TO.N,/MD0_N*%
X12800000Y2750000D03*
%TO.P,J1,11,Pin_11*%
%TO.N,GND*%
X12800000Y2250000D03*
%TO.P,J1,12,Pin_12*%
%TO.N,/XSHUTDOWN*%
X12800000Y1750000D03*
%TO.P,J1,13,Pin_13*%
%TO.N,unconnected-(J1-Pin_13-Pad13)*%
X12800000Y1250000D03*
%TO.P,J1,14,Pin_14*%
%TO.N,/SDA_1V8*%
X12800000Y750000D03*
%TO.P,J1,15,Pin_15*%
%TO.N,/SCL_1V8*%
X12800000Y250000D03*
%TO.P,J1,16,Pin_16*%
%TO.N,GND*%
X12800000Y-250000D03*
%TO.P,J1,17,Pin_17*%
%TO.N,/MCLK*%
X12800000Y-750000D03*
%TO.P,J1,18,Pin_18*%
%TO.N,GND*%
X12800000Y-1250000D03*
%TO.P,J1,19,Pin_19*%
%TO.N,unconnected-(J1-Pin_19-Pad19)*%
X12800000Y-1750000D03*
%TO.P,J1,20,Pin_20*%
%TO.N,unconnected-(J1-Pin_20-Pad20)*%
X12800000Y-2250000D03*
%TO.P,J1,21,Pin_21*%
%TO.N,unconnected-(J1-Pin_21-Pad21)*%
X12800000Y-2750000D03*
%TO.P,J1,22,Pin_22*%
%TO.N,unconnected-(J1-Pin_22-Pad22)*%
X12800000Y-3250000D03*
%TO.P,J1,23,Pin_23*%
%TO.N,unconnected-(J1-Pin_23-Pad23)*%
X12800000Y-3750000D03*
%TO.P,J1,24,Pin_24*%
%TO.N,unconnected-(J1-Pin_24-Pad24)*%
X12800000Y-4250000D03*
%TO.P,J1,25,Pin_25*%
%TO.N,unconnected-(J1-Pin_25-Pad25)*%
X12800000Y-4750000D03*
%TO.P,J1,26,Pin_26*%
%TO.N,unconnected-(J1-Pin_26-Pad26)*%
X12800000Y-5250000D03*
%TO.P,J1,27,Pin_27*%
%TO.N,unconnected-(J1-Pin_27-Pad27)*%
X12800000Y-5750000D03*
%TO.P,J1,28,Pin_28*%
%TO.N,unconnected-(J1-Pin_28-Pad28)*%
X12800000Y-6250000D03*
%TO.P,J1,29,Pin_29*%
%TO.N,unconnected-(J1-Pin_29-Pad29)*%
X12800000Y-6750000D03*
%TO.P,J1,30,Pin_30*%
%TO.N,unconnected-(J1-Pin_30-Pad30)*%
X12800000Y-7250000D03*
D12*
%TO.P,J1,MP,MountPin*%
%TO.N,GND*%
X9550000Y9150000D03*
X9550000Y-9150000D03*
%TD*%
D23*
%TO.P,C2,1*%
%TO.N,+1V2*%
X2250000Y-5700000D03*
%TO.P,C2,2*%
%TO.N,GND*%
X350000Y-5700000D03*
%TD*%
D24*
%TO.P,U4,1,VIN*%
%TO.N,Net-(U3-VIN)*%
X-1437500Y8150000D03*
%TO.P,U4,2,GND*%
%TO.N,GND*%
X-1437500Y7200000D03*
%TO.P,U4,3,EN*%
%TO.N,/EN*%
X-1437500Y6250000D03*
%TO.P,U4,4,SENSE/ADJ*%
%TO.N,Net-(U4-SENSE{slash}ADJ)*%
X837500Y6250000D03*
%TO.P,U4,5,VOUT*%
%TO.N,+1V8*%
X837500Y8150000D03*
%TD*%
D15*
%TO.P,C7,1*%
%TO.N,+1V8*%
X2220000Y8400000D03*
%TO.P,C7,2*%
%TO.N,GND*%
X3180000Y8400000D03*
%TD*%
D18*
%TO.P,R6,1*%
%TO.N,Net-(U4-SENSE{slash}ADJ)*%
X3300000Y6490000D03*
%TO.P,R6,2*%
%TO.N,GND*%
X3300000Y7510000D03*
%TD*%
D10*
%TO.P,R2,1*%
%TO.N,Net-(U1-FB)*%
X1810000Y-10000000D03*
%TO.P,R2,2*%
%TO.N,GND*%
X790000Y-10000000D03*
%TD*%
D14*
%TO.P,L2,1,1*%
%TO.N,/MD0_N*%
X-2855000Y-4775000D03*
%TO.P,L2,2,2*%
X-1545000Y-4775000D03*
%TO.P,L2,3,3*%
%TO.N,/MD0_P*%
X-1545000Y-4225000D03*
%TO.P,L2,4,4*%
X-2855000Y-4225000D03*
%TD*%
D25*
%TO.P,L5,1,1*%
%TO.N,+3.3V*%
X-4000000Y6312500D03*
%TO.P,L5,2,2*%
%TO.N,Net-(U3-VIN)*%
X-4000000Y7887500D03*
%TD*%
D26*
%TO.P,R8,1*%
%TO.N,+1V8*%
X1280000Y4800000D03*
%TO.P,R8,2*%
%TO.N,/SDA_1V8*%
X2300000Y4800000D03*
%TD*%
D11*
%TO.P,J2,1,Pin_1*%
%TO.N,+2V8*%
X3700000Y-5750000D03*
%TO.P,J2,2,Pin_2*%
%TO.N,+1V2*%
X3700000Y-5250000D03*
%TO.P,J2,3,Pin_3*%
%TO.N,GND*%
X3700000Y-4750000D03*
%TO.P,J2,4,Pin_4*%
%TO.N,+1V8*%
X3700000Y-4250000D03*
%TO.P,J2,5,Pin_5*%
%TO.N,GND*%
X3700000Y-3750000D03*
%TO.P,J2,6,Pin_6*%
%TO.N,/RESET*%
X3700000Y-3250000D03*
%TO.P,J2,7,Pin_7*%
%TO.N,GND*%
X3700000Y-2750000D03*
%TO.P,J2,8,Pin_8*%
X3700000Y-2250000D03*
%TO.P,J2,9,Pin_9*%
%TO.N,/MD0_N*%
X3700000Y-1750000D03*
%TO.P,J2,10,Pin_10*%
%TO.N,/MD0_P*%
X3700000Y-1250000D03*
%TO.P,J2,11,Pin_11*%
%TO.N,GND*%
X3700000Y-750000D03*
%TO.P,J2,12,Pin_12*%
%TO.N,/MD1_N*%
X3700000Y-250000D03*
%TO.P,J2,13,Pin_13*%
%TO.N,/MD1_P*%
X3700000Y250000D03*
%TO.P,J2,14,Pin_14*%
%TO.N,GND*%
X3700000Y750000D03*
%TO.P,J2,15,Pin_15*%
%TO.N,/MCLK_N*%
X3700000Y1250000D03*
%TO.P,J2,16,Pin_16*%
%TO.N,/MCLK_P*%
X3700000Y1750000D03*
%TO.P,J2,17,Pin_17*%
%TO.N,GND*%
X3700000Y2250000D03*
%TO.P,J2,18,Pin_18*%
%TO.N,/XSHUTDOWN*%
X3700000Y2750000D03*
%TO.P,J2,19,Pin_19*%
%TO.N,/MCLK*%
X3700000Y3250000D03*
%TO.P,J2,20,Pin_20*%
%TO.N,GND*%
X3700000Y3750000D03*
%TO.P,J2,21,Pin_21*%
%TO.N,/SCL_1V8*%
X3700000Y4250000D03*
%TO.P,J2,22,Pin_22*%
%TO.N,/SDA_1V8*%
X3700000Y4750000D03*
%TO.P,J2,23,Pin_23*%
%TO.N,/FSIN*%
X3700000Y5250000D03*
%TO.P,J2,24,Pin_24*%
%TO.N,/SID*%
X3700000Y5750000D03*
D12*
%TO.P,J2,MP,MountPin*%
%TO.N,GND*%
X6950000Y-7650000D03*
X6950000Y7650000D03*
%TD*%
D27*
%TO.P,L1,1,1*%
%TO.N,+3.3V*%
X-2700000Y-5912500D03*
%TO.P,L1,2,2*%
%TO.N,Net-(U1-VIN)*%
X-2700000Y-7487500D03*
%TD*%
D24*
%TO.P,U3,1,VIN*%
%TO.N,Net-(U3-VIN)*%
X-1437500Y11550000D03*
%TO.P,U3,2,GND*%
%TO.N,GND*%
X-1437500Y10600000D03*
%TO.P,U3,3,EN*%
%TO.N,/EN*%
X-1437500Y9650000D03*
%TO.P,U3,4,SENSE/ADJ*%
%TO.N,Net-(U3-SENSE{slash}ADJ)*%
X837500Y9650000D03*
%TO.P,U3,5,VOUT*%
%TO.N,+2V8*%
X837500Y11550000D03*
%TD*%
D28*
%TO.N,/MD1_N*%
X5600000Y-325000D03*
%TO.N,/MD1_P*%
X5600000Y325000D03*
%TO.N,/MD1_N*%
X9629810Y3070190D03*
%TO.N,/MD1_P*%
X9170190Y3529810D03*
%TO.N,/MCLK_N*%
X6029810Y1970190D03*
%TO.N,/MCLK_P*%
X5570190Y2429810D03*
%TO.N,/MD0_N*%
X6000000Y-1825000D03*
%TO.N,/MD0_P*%
X6000000Y-1175000D03*
X10370190Y2329810D03*
%TO.N,/MD0_N*%
X10829810Y1870190D03*
%TO.N,/MCLK_N*%
X10600000Y3675000D03*
%TO.N,/MCLK_P*%
X10600000Y4325000D03*
%TO.N,GND*%
X-4000000Y11900000D03*
X-4000000Y-11500000D03*
X3800000Y11100000D03*
X-6000000Y-3700000D03*
X-6000000Y-2300000D03*
X-6000000Y-800000D03*
X-6000000Y700000D03*
X11700000Y-1400000D03*
X4500000Y-4700000D03*
X4500000Y2300000D03*
X-5200000Y3800000D03*
X-2900000Y3200000D03*
X-4200000Y-6000000D03*
X-3200000Y-500000D03*
X2800000Y-2500000D03*
X-500000Y-6500000D03*
X600000Y-10600000D03*
X-1700000Y-9400000D03*
X11600000Y6100000D03*
X12000000Y-9000000D03*
X13000000Y-8000000D03*
X13000000Y8000000D03*
X12000000Y9000000D03*
X-2800000Y6600000D03*
X-2800000Y10000000D03*
X-300000Y10200000D03*
X-300000Y11000000D03*
X-2300000Y800000D03*
%TO.N,/XSHUTDOWN*%
X2700000Y2600000D03*
X12000000Y1800000D03*
%TO.N,+1V2*%
X13646000Y6200000D03*
%TO.N,+2V8*%
X1800000Y11200000D03*
X11900000Y7400000D03*
X3800000Y-6100000D03*
%TO.N,+1V8*%
X5200000Y6700000D03*
X1800000Y-3700000D03*
X1800000Y7900000D03*
X1300000Y5400000D03*
%TO.N,+1V2*%
X2900000Y-7000000D03*
X3800000Y-7000000D03*
%TO.N,/SDA_1V8*%
X2700000Y4800000D03*
X-1577676Y4745500D03*
%TO.N,+3.3V*%
X-3200000Y-5900000D03*
X-4000000Y5600000D03*
%TO.N,/EN*%
X-1500000Y-10800000D03*
X-2100000Y5900000D03*
X-5181480Y2834815D03*
%TD*%
D29*
%TO.N,/MD0_N*%
X3200000Y-1750000D02*
X3700000Y-1750000D01*
X3156000Y-1706000D02*
X3200000Y-1750000D01*
X2785328Y-1706000D02*
X3156000Y-1706000D01*
X-214672Y-4706000D02*
X2785328Y-1706000D01*
X-1040999Y-4706000D02*
X-214672Y-4706000D01*
X-1109999Y-4775000D02*
X-1040999Y-4706000D01*
X-1545000Y-4775000D02*
X-1109999Y-4775000D01*
%TO.N,/MD0_P*%
X3200000Y-1250000D02*
X3700000Y-1250000D01*
X3156000Y-1294000D02*
X3200000Y-1250000D01*
X2614672Y-1294000D02*
X3156000Y-1294000D01*
X-1545000Y-4225000D02*
X-1109999Y-4225000D01*
X-1040999Y-4294000D02*
X-385328Y-4294000D01*
X-385328Y-4294000D02*
X2614672Y-1294000D01*
X-1109999Y-4225000D02*
X-1040999Y-4294000D01*
%TO.N,/MD1_N*%
X3156000Y-206000D02*
X3200000Y-250000D01*
X2785328Y-206000D02*
X3156000Y-206000D01*
X-214672Y-3206000D02*
X2785328Y-206000D01*
X-1040999Y-3206000D02*
X-214672Y-3206000D01*
X-1109999Y-3275000D02*
X-1040999Y-3206000D01*
X-1545000Y-3275000D02*
X-1109999Y-3275000D01*
%TO.N,/MD1_P*%
X3200000Y250000D02*
X3700000Y250000D01*
X3156000Y206000D02*
X3200000Y250000D01*
X2614672Y206000D02*
X3156000Y206000D01*
X-1040999Y-2794000D02*
X-385328Y-2794000D01*
X-385328Y-2794000D02*
X2614672Y206000D01*
X-1545000Y-2725000D02*
X-1109999Y-2725000D01*
X-1109999Y-2725000D02*
X-1040999Y-2794000D01*
%TO.N,/MD1_N*%
X3200000Y-250000D02*
X3700000Y-250000D01*
%TO.N,/MCLK_N*%
X3156000Y1294000D02*
X3200000Y1250000D01*
X2785328Y1294000D02*
X3156000Y1294000D01*
X-214672Y-1706000D02*
X2785328Y1294000D01*
X-1040999Y-1706000D02*
X-214672Y-1706000D01*
X-1109999Y-1775000D02*
X-1040999Y-1706000D01*
X-1545000Y-1775000D02*
X-1109999Y-1775000D01*
%TO.N,/MCLK_P*%
X3200000Y1750000D02*
X3700000Y1750000D01*
X3156000Y1706000D02*
X3200000Y1750000D01*
X2614672Y1706000D02*
X3156000Y1706000D01*
X-385328Y-1294000D02*
X2614672Y1706000D01*
%TO.N,/MCLK_N*%
X3200000Y1250000D02*
X3700000Y1250000D01*
%TO.N,/MCLK_P*%
X-1545000Y-1225000D02*
X-1109999Y-1225000D01*
X-1109999Y-1225000D02*
X-1040999Y-1294000D01*
X-1040999Y-1294000D02*
X-385328Y-1294000D01*
%TO.N,/MD1_N*%
X4675001Y-250000D02*
X3700000Y-250000D01*
X4719001Y-206000D02*
X4675001Y-250000D01*
%TO.N,/MD1_P*%
X4719001Y206000D02*
X4675001Y250000D01*
X4675001Y250000D02*
X3700000Y250000D01*
%TO.N,/MD1_N*%
X5600000Y-325000D02*
X5481000Y-206000D01*
%TO.N,/MD1_P*%
X5481000Y206000D02*
X4719001Y206000D01*
%TO.N,/MD1_N*%
X5481000Y-206000D02*
X4719001Y-206000D01*
%TO.N,/MD1_P*%
X5600000Y325000D02*
X5481000Y206000D01*
%TO.N,/MD1_N*%
X9629810Y3238482D02*
X9629810Y3070190D01*
X9806000Y3414672D02*
X9629810Y3238482D01*
X9806000Y4714672D02*
X9806000Y3414672D01*
%TO.N,/MD1_P*%
X9394000Y4885328D02*
X9394000Y3585328D01*
X9338482Y3529810D02*
X9170190Y3529810D01*
X9394000Y3585328D02*
X9338482Y3529810D01*
X11824999Y5250000D02*
X11780999Y5206000D01*
X11780999Y5206000D02*
X11485328Y5206000D01*
X12800000Y5250000D02*
X11824999Y5250000D01*
X11485328Y5206000D02*
X11084852Y5606476D01*
X11084852Y5606476D02*
X10115148Y5606476D01*
X10115148Y5606476D02*
X9394000Y4885328D01*
%TO.N,/MD1_N*%
X10285804Y5194476D02*
X9806000Y4714672D01*
X11314672Y4794000D02*
X10914196Y5194476D01*
X11780999Y4794000D02*
X11314672Y4794000D01*
X12800000Y4750000D02*
X11824999Y4750000D01*
X10914196Y5194476D02*
X10285804Y5194476D01*
X11824999Y4750000D02*
X11780999Y4794000D01*
%TO.N,/MCLK_N*%
X5861518Y1970190D02*
X6029810Y1970190D01*
X5185328Y1294000D02*
X5861518Y1970190D01*
X4719001Y1294000D02*
X5185328Y1294000D01*
X4675001Y1250000D02*
X4719001Y1294000D01*
X3700000Y1250000D02*
X4675001Y1250000D01*
%TO.N,/MCLK_P*%
X5570190Y2261518D02*
X5570190Y2429810D01*
X4675001Y1750000D02*
X4719001Y1706000D01*
X5014672Y1706000D02*
X5570190Y2261518D01*
X3700000Y1750000D02*
X4675001Y1750000D01*
X4719001Y1706000D02*
X5014672Y1706000D01*
%TO.N,/MD0_N*%
X4675001Y-1750000D02*
X3700000Y-1750000D01*
X4719001Y-1706000D02*
X4675001Y-1750000D01*
X6000000Y-1825000D02*
X5881000Y-1706000D01*
%TO.N,/MD0_P*%
X4719001Y-1294000D02*
X4675001Y-1250000D01*
%TO.N,/MD0_N*%
X5881000Y-1706000D02*
X4719001Y-1706000D01*
%TO.N,/MD0_P*%
X5881000Y-1294000D02*
X4719001Y-1294000D01*
X4675001Y-1250000D02*
X3700000Y-1250000D01*
X6000000Y-1175000D02*
X5881000Y-1294000D01*
%TO.N,/MD0_N*%
X10829810Y2038482D02*
X10829810Y1870190D01*
X11585328Y2794000D02*
X10829810Y2038482D01*
X11780999Y2794000D02*
X11585328Y2794000D01*
X12800000Y2750000D02*
X11824999Y2750000D01*
%TO.N,/MD0_P*%
X10538482Y2329810D02*
X10370190Y2329810D01*
X11414672Y3206000D02*
X10538482Y2329810D01*
X12800000Y3250000D02*
X11824999Y3250000D01*
X11824999Y3250000D02*
X11780999Y3206000D01*
X11780999Y3206000D02*
X11414672Y3206000D01*
%TO.N,/MD0_N*%
X11824999Y2750000D02*
X11780999Y2794000D01*
%TO.N,/MCLK_N*%
X10719000Y3794000D02*
X10600000Y3675000D01*
X11780999Y3794000D02*
X10719000Y3794000D01*
X11824999Y3750000D02*
X11780999Y3794000D01*
X12800000Y3750000D02*
X11824999Y3750000D01*
%TO.N,/MCLK_P*%
X10719000Y4206000D02*
X10600000Y4325000D01*
X11780999Y4206000D02*
X10719000Y4206000D01*
X11824999Y4250000D02*
X11780999Y4206000D01*
X12800000Y4250000D02*
X11824999Y4250000D01*
D30*
%TO.N,GND*%
X1300000Y-4750000D02*
X350000Y-5700000D01*
X3700000Y-4750000D02*
X1300000Y-4750000D01*
X13798400Y5604800D02*
X13798400Y5100000D01*
X13653200Y5750000D02*
X13798400Y5604800D01*
X12800000Y5750000D02*
X13653200Y5750000D01*
D31*
%TO.N,+1V8*%
X-1350000Y2600000D02*
X-1500000Y2750000D01*
X-1500000Y2750000D02*
X-1500000Y4293500D01*
X-1764901Y4293500D02*
X-1500000Y4293500D01*
X-1500000Y4293500D02*
X-1390451Y4293500D01*
X-1390451Y4293500D02*
X-1383951Y4300000D01*
X-1771401Y4300000D02*
X-1764901Y4293500D01*
X-2250000Y4300000D02*
X-1771401Y4300000D01*
X-1383951Y4300000D02*
X-750000Y4300000D01*
X-2280000Y2600000D02*
X-2500000Y2380000D01*
X-250000Y2600000D02*
X-2280000Y2600000D01*
%TO.N,/SCL_1V8*%
X2750000Y4250000D02*
X3700000Y4250000D01*
X2300000Y3800000D02*
X2750000Y4250000D01*
X-750000Y3800000D02*
X2300000Y3800000D01*
%TO.N,/MCLK*%
X2350000Y3250000D02*
X3700000Y3250000D01*
X300000Y1200000D02*
X2350000Y3250000D01*
X-250000Y1200000D02*
X300000Y1200000D01*
%TO.N,/XSHUTDOWN*%
X2554000Y2600000D02*
X2700000Y2600000D01*
X-146000Y-100000D02*
X2554000Y2600000D01*
X-1590000Y-100000D02*
X-146000Y-100000D01*
%TO.N,/EN*%
X-3100000Y390000D02*
X-2610000Y-100000D01*
X-3100000Y2403999D02*
X-3100000Y390000D01*
X-3446001Y2750000D02*
X-3100000Y2403999D01*
X-4200001Y2750000D02*
X-3446001Y2750000D01*
%TO.N,/XSHUTDOWN*%
X2850000Y2750000D02*
X2700000Y2600000D01*
X3700000Y2750000D02*
X2850000Y2750000D01*
X12050000Y1750000D02*
X12000000Y1800000D01*
X12800000Y1750000D02*
X12050000Y1750000D01*
%TO.N,+1V2*%
X13596000Y6250000D02*
X13646000Y6200000D01*
X12800000Y6250000D02*
X13596000Y6250000D01*
D32*
%TO.N,+1V8*%
X2350000Y-4250000D02*
X1800000Y-3700000D01*
X3700000Y-4250000D02*
X2350000Y-4250000D01*
D31*
%TO.N,+2V8*%
X12050000Y7250000D02*
X11900000Y7400000D01*
D33*
X837500Y11550000D02*
X1260000Y11550000D01*
D31*
X12800000Y7250000D02*
X12050000Y7250000D01*
D33*
X1800000Y11200000D02*
X1800000Y11010000D01*
X2200000Y10610000D02*
X2200000Y11480000D01*
D31*
X3800000Y-6100000D02*
X3700000Y-6000000D01*
D33*
X837500Y11550000D02*
X2170000Y11550000D01*
X1260000Y11550000D02*
X1610000Y11200000D01*
D31*
X3700000Y-6000000D02*
X3700000Y-5750000D01*
D33*
X1800000Y11010000D02*
X2200000Y10610000D01*
X1610000Y11200000D02*
X1800000Y11200000D01*
X2200000Y11480000D02*
X2220000Y11500000D01*
X2170000Y11550000D02*
X2220000Y11500000D01*
%TO.N,+1V8*%
X1800000Y7900000D02*
X1810000Y7900000D01*
X1800000Y7910000D02*
X1800000Y7900000D01*
D31*
X-1250000Y2600000D02*
X-1377000Y2727000D01*
X5200000Y6700000D02*
X5600000Y6300000D01*
X1280000Y4800000D02*
X1280000Y5380000D01*
X400000Y4810000D02*
X710000Y4810000D01*
D33*
X1810000Y7900000D02*
X2200000Y7510000D01*
D31*
X710000Y4810000D02*
X1300000Y5400000D01*
X1280000Y4800000D02*
X424000Y4800000D01*
D33*
X837500Y8150000D02*
X1560000Y8150000D01*
D31*
X8277000Y6300000D02*
X8727000Y6750000D01*
X1280000Y5380000D02*
X1300000Y5400000D01*
D33*
X837500Y8150000D02*
X1970000Y8150000D01*
D31*
X8727000Y6750000D02*
X12800000Y6750000D01*
D33*
X2200000Y8380000D02*
X2220000Y8400000D01*
D31*
X424000Y4800000D02*
X-76000Y4300000D01*
D33*
X1560000Y8150000D02*
X1800000Y7910000D01*
X1970000Y8150000D02*
X2220000Y8400000D01*
D31*
X5600000Y6300000D02*
X8277000Y6300000D01*
X-76000Y4300000D02*
X-750000Y4300000D01*
D33*
X2200000Y7510000D02*
X2200000Y8380000D01*
%TO.N,+1V2*%
X2696000Y-7421000D02*
X2696000Y-5354000D01*
D31*
X2800000Y-5250000D02*
X3700000Y-5250000D01*
X2250000Y-5700000D02*
X2700000Y-5250000D01*
X2700000Y-5250000D02*
X2800000Y-5250000D01*
D34*
X3375000Y-9675000D02*
X3700000Y-10000000D01*
X3375000Y-8100000D02*
X3375000Y-9675000D01*
D33*
X3375000Y-8100000D02*
X2696000Y-7421000D01*
D35*
%TO.N,/MD1_P*%
X-3675000Y-2775000D02*
X-3340001Y-2775000D01*
X-3700000Y-2750000D02*
X-3675000Y-2775000D01*
X-4200000Y-2750000D02*
X-3700000Y-2750000D01*
X-3340001Y-2775000D02*
X-3290001Y-2725000D01*
X-3290001Y-2725000D02*
X-2855000Y-2725000D01*
%TO.N,/MD1_N*%
X-3675000Y-3225000D02*
X-3340001Y-3225000D01*
X-4200000Y-3250000D02*
X-3700000Y-3250000D01*
X-3290001Y-3275000D02*
X-2855000Y-3275000D01*
X-3340001Y-3225000D02*
X-3290001Y-3275000D01*
X-3700000Y-3250000D02*
X-3675000Y-3225000D01*
%TO.N,/MCLK_P*%
X-4200000Y-1250000D02*
X-3700000Y-1250000D01*
X-3340001Y-1275000D02*
X-3290001Y-1225000D01*
X-3700000Y-1250000D02*
X-3675000Y-1275000D01*
X-3290001Y-1225000D02*
X-2855000Y-1225000D01*
X-3675000Y-1275000D02*
X-3340001Y-1275000D01*
%TO.N,/MCLK_N*%
X-3675000Y-1725000D02*
X-3340001Y-1725000D01*
X-4200000Y-1750000D02*
X-3700000Y-1750000D01*
X-3290001Y-1775000D02*
X-2855000Y-1775000D01*
X-3700000Y-1750000D02*
X-3675000Y-1725000D01*
X-3340001Y-1725000D02*
X-3290001Y-1775000D01*
%TO.N,/MD0_P*%
X-3675000Y-4275000D02*
X-3340001Y-4275000D01*
X-3290001Y-4225000D02*
X-2855000Y-4225000D01*
X-3700000Y-4250000D02*
X-3675000Y-4275000D01*
X-4200000Y-4250000D02*
X-3700000Y-4250000D01*
X-3340001Y-4275000D02*
X-3290001Y-4225000D01*
%TO.N,/MD0_N*%
X-3675000Y-4725000D02*
X-3340001Y-4725000D01*
X-4200000Y-4750000D02*
X-3700000Y-4750000D01*
X-3340001Y-4725000D02*
X-3290001Y-4775000D01*
X-3290001Y-4775000D02*
X-2855000Y-4775000D01*
X-3700000Y-4750000D02*
X-3675000Y-4725000D01*
D31*
%TO.N,/SDA_1V8*%
X3700000Y4750000D02*
X2350000Y4750000D01*
X10550000Y750000D02*
X12800000Y750000D01*
X2350000Y4750000D02*
X2300000Y4800000D01*
X-1577676Y4745500D02*
X-1632176Y4800000D01*
X-1632176Y4800000D02*
X-2250000Y4800000D01*
X6550000Y4750000D02*
X10550000Y750000D01*
X3700000Y4750000D02*
X6550000Y4750000D01*
%TO.N,/SCL_1V8*%
X3700000Y4250000D02*
X6350000Y4250000D01*
X6350000Y4250000D02*
X10350000Y250000D01*
X10350000Y250000D02*
X12800000Y250000D01*
%TO.N,/MCLK*%
X9950000Y-750000D02*
X12800000Y-750000D01*
X5950000Y3250000D02*
X9950000Y-750000D01*
X3700000Y3250000D02*
X5950000Y3250000D01*
%TO.N,/SCL*%
X-2796001Y3800000D02*
X-2250000Y3800000D01*
X-3246001Y4250000D02*
X-2796001Y3800000D01*
X-4200001Y4250000D02*
X-3246001Y4250000D01*
%TO.N,/SDA*%
X-1250000Y5300000D02*
X-750000Y4800000D01*
X-3296001Y4750000D02*
X-2746001Y5300000D01*
X-2746001Y5300000D02*
X-1250000Y5300000D01*
X-4200001Y4750000D02*
X-3296001Y4750000D01*
D33*
%TO.N,+3.3V*%
X-3187500Y-5912500D02*
X-3200000Y-5900000D01*
X-4000000Y5600000D02*
X-4000000Y5554001D01*
X-4000000Y6312500D02*
X-4000000Y5600000D01*
X-2700000Y-5912500D02*
X-3187500Y-5912500D01*
X-4000000Y5554001D02*
X-4200001Y5354000D01*
D31*
%TO.N,/EN*%
X-1437500Y6250000D02*
X-1750000Y6250000D01*
X-1437500Y9650000D02*
X-400000Y8612500D01*
X-4200001Y2750000D02*
X-5096665Y2750000D01*
X-1450000Y-10850000D02*
X-1500000Y-10800000D01*
X-1750000Y6250000D02*
X-2100000Y5900000D01*
X-400000Y8612500D02*
X-400000Y6786052D01*
X-400000Y6786052D02*
X-936052Y6250000D01*
X-5096665Y2750000D02*
X-5181480Y2834815D01*
X-562500Y-10850000D02*
X-1450000Y-10850000D01*
X-936052Y6250000D02*
X-1437500Y6250000D01*
D34*
%TO.N,Net-(U3-SENSE{slash}ADJ)*%
X897500Y9590000D02*
X837500Y9650000D01*
X3300000Y9590000D02*
X897500Y9590000D01*
D33*
%TO.N,Net-(U1-VIN)*%
X-1362500Y-7475000D02*
X-2837500Y-8950000D01*
X-1200000Y-7475000D02*
X-1362500Y-7475000D01*
X-1212500Y-7487500D02*
X-1200000Y-7475000D01*
X-2700000Y-7487500D02*
X-2700000Y-8812500D01*
X-2700000Y-8812500D02*
X-2837500Y-8950000D01*
X-2700000Y-7487500D02*
X-1212500Y-7487500D01*
%TO.N,Net-(U3-VIN)*%
X-4000000Y7887500D02*
X-3737500Y8150000D01*
X-1467500Y8180000D02*
X-1437500Y8150000D01*
X-3737500Y8150000D02*
X-1437500Y8150000D01*
X-4000000Y7887500D02*
X-4000000Y10689999D01*
X-4000000Y10689999D02*
X-3139999Y11550000D01*
X-3139999Y11550000D02*
X-1437500Y11550000D01*
D34*
%TO.N,Net-(U1-FB)*%
X1810000Y-10390000D02*
X1810000Y-10000000D01*
X-2147000Y-11540500D02*
X659500Y-11540500D01*
X-2837500Y-10850000D02*
X-2147000Y-11540500D01*
X2200000Y-10000000D02*
X2680000Y-10000000D01*
X1810000Y-10390000D02*
X2200000Y-10000000D01*
X659500Y-11540500D02*
X1810000Y-10390000D01*
%TO.N,Net-(U4-SENSE{slash}ADJ)*%
X1077500Y6490000D02*
X837500Y6250000D01*
X3300000Y6490000D02*
X1077500Y6490000D01*
D33*
%TO.N,Net-(U1-LX)*%
X375000Y-8950000D02*
X1225000Y-8100000D01*
X-562500Y-8950000D02*
X375000Y-8950000D01*
%TD*%
%TA.AperFunction,Conductor*%
%TO.N,GND*%
G36*
X-3155032Y12182187D02*
G01*
X-3129722Y12138350D01*
X-3138512Y12088500D01*
X-3177289Y12055963D01*
X-3197313Y12051689D01*
X-3248341Y12048040D01*
X-3258029Y12044425D01*
X-3273355Y12040513D01*
X-3283595Y12039042D01*
X-3283599Y12039040D01*
X-3331978Y12016946D01*
X-3334419Y12015934D01*
X-3384266Y11997343D01*
X-3392546Y11991144D01*
X-3406152Y11983071D01*
X-3415557Y11978777D01*
X-3455772Y11943929D01*
X-3457799Y11942295D01*
X-3471220Y11932250D01*
X-3482105Y11921364D01*
X-3483059Y11920410D01*
X-3484969Y11918629D01*
X-3525195Y11883775D01*
X-3530785Y11875074D01*
X-3540706Y11862762D01*
X-4312762Y11090706D01*
X-4325074Y11080785D01*
X-4333775Y11075195D01*
X-4368629Y11034969D01*
X-4370409Y11033060D01*
X-4382250Y11021220D01*
X-4392295Y11007799D01*
X-4393929Y11005772D01*
X-4428777Y10965557D01*
X-4428777Y10965556D01*
X-4433070Y10956155D01*
X-4441144Y10942546D01*
X-4447343Y10934266D01*
X-4464603Y10887988D01*
X-4465934Y10884420D01*
X-4466946Y10881978D01*
X-4478573Y10856518D01*
X-4489042Y10833595D01*
X-4490513Y10823355D01*
X-4494425Y10808029D01*
X-4498040Y10798341D01*
X-4501835Y10745265D01*
X-4502111Y10742691D01*
X-4503298Y10734440D01*
X-4504499Y10726089D01*
X-4504500Y10726077D01*
X-4504500Y10709330D01*
X-4504593Y10706712D01*
X-4508389Y10653639D01*
X-4506191Y10643534D01*
X-4504500Y10627805D01*
X-4504500Y8543619D01*
X-4521813Y8496053D01*
X-4534151Y8484381D01*
X-4591472Y8441472D01*
X-4672336Y8333450D01*
X-4719491Y8207022D01*
X-4725500Y8151130D01*
X-4725500Y7623870D01*
X-4719491Y7567978D01*
X-4719489Y7567973D01*
X-4672337Y7441551D01*
X-4672336Y7441550D01*
X-4591472Y7333528D01*
X-4510607Y7272993D01*
X-4483449Y7252663D01*
X-4483448Y7252662D01*
X-4357026Y7205510D01*
X-4357023Y7205509D01*
X-4357022Y7205509D01*
X-4329076Y7202504D01*
X-4301131Y7199500D01*
X-4301130Y7199500D01*
X-3698869Y7199500D01*
X-3642978Y7205509D01*
X-3642973Y7205510D01*
X-3516551Y7252662D01*
X-3516550Y7252663D01*
X-3408528Y7333528D01*
X-3327663Y7441550D01*
X-3327662Y7441551D01*
X-3280510Y7567973D01*
X-3280509Y7567978D01*
X-3279280Y7579411D01*
X-3256982Y7624854D01*
X-3210690Y7645332D01*
X-3205704Y7645500D01*
X-2154196Y7645500D01*
X-2120601Y7637434D01*
X-2075304Y7614354D01*
X-2075303Y7614353D01*
X-1981519Y7599500D01*
X-893479Y7599500D01*
X-893480Y7599501D01*
X-863075Y7604316D01*
X-813386Y7594657D01*
X-781531Y7555318D01*
X-777500Y7531227D01*
X-777500Y6973068D01*
X-794813Y6925502D01*
X-799164Y6920752D01*
X-853444Y6866472D01*
X-897743Y6822173D01*
X-943619Y6800781D01*
X-950069Y6800499D01*
X-1981520Y6800499D01*
X-2046486Y6790210D01*
X-2075304Y6785646D01*
X-2188342Y6728050D01*
X-2278050Y6638342D01*
X-2335646Y6525304D01*
X-2350500Y6431519D01*
X-2350499Y6355187D01*
X-2350499Y6344650D01*
X-2367811Y6297083D01*
X-2384488Y6282398D01*
X-2414589Y6263055D01*
X-2414591Y6263052D01*
X-2414592Y6263052D01*
X-2414618Y6263021D01*
X-2504130Y6159718D01*
X-2560931Y6035342D01*
X-2580390Y5900000D01*
X-2574877Y5861658D01*
X-2560554Y5762031D01*
X-2570922Y5712485D01*
X-2610711Y5681195D01*
X-2633801Y5677500D01*
X-2699180Y5677500D01*
X-2714365Y5679075D01*
X-2730185Y5682392D01*
X-2767154Y5677784D01*
X-2771734Y5677500D01*
X-2777282Y5677500D01*
X-2800451Y5673633D01*
X-2855205Y5666809D01*
X-2855211Y5666805D01*
X-2861084Y5665058D01*
X-2861163Y5665324D01*
X-2864557Y5664237D01*
X-2864467Y5663975D01*
X-2870268Y5661983D01*
X-2870270Y5661983D01*
X-2918808Y5635715D01*
X-2968391Y5611476D01*
X-2968394Y5611472D01*
X-2973387Y5607909D01*
X-2973548Y5608134D01*
X-2976399Y5606009D01*
X-2976229Y5605790D01*
X-2981068Y5602021D01*
X-2981072Y5602020D01*
X-3018446Y5561420D01*
X-3177665Y5402201D01*
X-3223540Y5380810D01*
X-3272435Y5393911D01*
X-3301469Y5435375D01*
X-3302568Y5440091D01*
X-3314035Y5497740D01*
X-3369399Y5580600D01*
X-3369402Y5580603D01*
X-3428708Y5620229D01*
X-3458640Y5661050D01*
X-3455330Y5711560D01*
X-3431945Y5740997D01*
X-3408530Y5758525D01*
X-3327663Y5866550D01*
X-3327662Y5866551D01*
X-3280510Y5992973D01*
X-3280509Y5992978D01*
X-3274500Y6048869D01*
X-3274500Y6576130D01*
X-3280509Y6632021D01*
X-3280510Y6632026D01*
X-3327662Y6758448D01*
X-3327663Y6758449D01*
X-3354181Y6793873D01*
X-3408528Y6866472D01*
X-3516550Y6947336D01*
X-3516551Y6947337D01*
X-3642973Y6994489D01*
X-3642978Y6994491D01*
X-3694219Y7000000D01*
X-3698869Y7000500D01*
X-3698870Y7000500D01*
X-4301130Y7000500D01*
X-4301131Y7000500D01*
X-4305781Y7000000D01*
X-4357022Y6994491D01*
X-4441307Y6963054D01*
X-4483448Y6947337D01*
X-4483448Y6947336D01*
X-4483450Y6947336D01*
X-4591472Y6866472D01*
X-4672336Y6758450D01*
X-4672336Y6758449D01*
X-4672337Y6758448D01*
X-4686256Y6721130D01*
X-4719491Y6632022D01*
X-4725500Y6576130D01*
X-4725500Y6048870D01*
X-4719491Y5992978D01*
X-4719489Y5992973D01*
X-4672337Y5866551D01*
X-4672336Y5866550D01*
X-4599195Y5768845D01*
X-4584550Y5720393D01*
X-4604476Y5673861D01*
X-4649650Y5651023D01*
X-4658436Y5650500D01*
X-4874675Y5650500D01*
X-4947741Y5635966D01*
X-5030602Y5580601D01*
X-5085967Y5497740D01*
X-5100501Y5424674D01*
X-5100501Y5075326D01*
X-5091901Y5032090D01*
X-5088389Y5014437D01*
X-5088389Y4985564D01*
X-5100501Y4924674D01*
X-5100501Y4575326D01*
X-5089208Y4518551D01*
X-5088389Y4514437D01*
X-5088389Y4485564D01*
X-5100501Y4424674D01*
X-5100501Y4075326D01*
X-5085967Y4002260D01*
X-5064956Y3970815D01*
X-5030602Y3919399D01*
X-5030601Y3919398D01*
X-4949869Y3865456D01*
X-4947741Y3864034D01*
X-4874675Y3849500D01*
X-4874673Y3849500D01*
X-3525329Y3849500D01*
X-3525327Y3849500D01*
X-3452261Y3864034D01*
X-3452260Y3864034D01*
X-3445113Y3865456D01*
X-3444572Y3862738D01*
X-3406078Y3864405D01*
X-3376030Y3846164D01*
X-3096042Y3566175D01*
X-3086418Y3554323D01*
X-3077579Y3540793D01*
X-3077574Y3540788D01*
X-3070309Y3535134D01*
X-3048172Y3517904D01*
X-3044738Y3514871D01*
X-3040814Y3510947D01*
X-3021706Y3497303D01*
X-2978153Y3463405D01*
X-2972763Y3460489D01*
X-2972893Y3460248D01*
X-2969720Y3458615D01*
X-2969600Y3458862D01*
X-2964090Y3456168D01*
X-2911194Y3440420D01*
X-2858995Y3422500D01*
X-2858993Y3422500D01*
X-2858990Y3422499D01*
X-2852944Y3421490D01*
X-2852989Y3421219D01*
X-2849458Y3420704D01*
X-2849424Y3420978D01*
X-2843342Y3420219D01*
X-2843341Y3420219D01*
X-2843339Y3420219D01*
X-2788197Y3422500D01*
X-2218718Y3422500D01*
X-2203201Y3425089D01*
X-2125731Y3438017D01*
X-2065557Y3470581D01*
X-2030338Y3479500D01*
X-1951500Y3479500D01*
X-1903934Y3462187D01*
X-1878624Y3418350D01*
X-1877500Y3405500D01*
X-1877500Y3305635D01*
X-1894813Y3258069D01*
X-1910389Y3244105D01*
X-1930601Y3230601D01*
X-1985966Y3147740D01*
X-1997613Y3089187D01*
X-2000500Y3074672D01*
X-2000500Y3051500D01*
X-2017813Y3003934D01*
X-2061650Y2978624D01*
X-2074500Y2977500D01*
X-2233174Y2977500D01*
X-2248359Y2979075D01*
X-2250494Y2979522D01*
X-2264184Y2982393D01*
X-2301161Y2977783D01*
X-2305740Y2977500D01*
X-2311281Y2977500D01*
X-2334428Y2973637D01*
X-2389203Y2966810D01*
X-2389209Y2966806D01*
X-2395082Y2965059D01*
X-2395161Y2965325D01*
X-2398557Y2964237D01*
X-2398467Y2963975D01*
X-2404265Y2961983D01*
X-2404269Y2961983D01*
X-2452808Y2935714D01*
X-2489007Y2918018D01*
X-2521507Y2910499D01*
X-2700735Y2910499D01*
X-2713236Y2908518D01*
X-2792175Y2896017D01*
X-2902391Y2839859D01*
X-2902394Y2839855D01*
X-2907104Y2836435D01*
X-2908503Y2838361D01*
X-2945719Y2820993D01*
X-2994618Y2834078D01*
X-3004518Y2842383D01*
X-3145959Y2983824D01*
X-3155583Y2995675D01*
X-3156932Y2997740D01*
X-3164425Y3009209D01*
X-3193828Y3032094D01*
X-3197261Y3035126D01*
X-3201186Y3039051D01*
X-3220295Y3052696D01*
X-3268686Y3090360D01*
X-3267224Y3092238D01*
X-3294307Y3122746D01*
X-3299501Y3149982D01*
X-3299501Y3424672D01*
X-3302053Y3437500D01*
X-3314035Y3497740D01*
X-3335463Y3529810D01*
X-3369399Y3580600D01*
X-3369400Y3580601D01*
X-3382250Y3589187D01*
X-3452261Y3635966D01*
X-3525327Y3650500D01*
X-4874675Y3650500D01*
X-4947741Y3635966D01*
X-5030602Y3580601D01*
X-5085967Y3497740D01*
X-5098155Y3436467D01*
X-5100501Y3424672D01*
X-5100501Y3384315D01*
X-5117814Y3336749D01*
X-5161651Y3311439D01*
X-5174501Y3310315D01*
X-5249849Y3310315D01*
X-5310557Y3292489D01*
X-5381041Y3271793D01*
X-5496069Y3197870D01*
X-5585610Y3094533D01*
X-5642411Y2970157D01*
X-5661870Y2834815D01*
X-5642411Y2699473D01*
X-5585610Y2575097D01*
X-5496069Y2471760D01*
X-5496065Y2471757D01*
X-5455503Y2445690D01*
X-5381041Y2397837D01*
X-5381040Y2397836D01*
X-5249849Y2359315D01*
X-5249847Y2359315D01*
X-5113112Y2359315D01*
X-5096371Y2364231D01*
X-5078417Y2369502D01*
X-5057571Y2372500D01*
X-4982860Y2372500D01*
X-4955551Y2364231D01*
X-4954478Y2366824D01*
X-4947742Y2364034D01*
X-4924017Y2359315D01*
X-4874675Y2349500D01*
X-3610018Y2349500D01*
X-3562452Y2332187D01*
X-3557692Y2327825D01*
X-3506693Y2276825D01*
X-3485301Y2230949D01*
X-3498402Y2182055D01*
X-3539867Y2153021D01*
X-3559019Y2150500D01*
X-4874675Y2150500D01*
X-4947741Y2135966D01*
X-5030602Y2080601D01*
X-5085967Y1997740D01*
X-5100501Y1924674D01*
X-5100501Y1575326D01*
X-5092124Y1533211D01*
X-5088389Y1514437D01*
X-5088389Y1485564D01*
X-5100501Y1424674D01*
X-5100501Y1075326D01*
X-5085967Y1002260D01*
X-5034127Y924674D01*
X-5030602Y919399D01*
X-5030601Y919398D01*
X-4947741Y864034D01*
X-4874675Y849500D01*
X-4874673Y849500D01*
X-3551500Y849500D01*
X-3503934Y832187D01*
X-3478624Y788350D01*
X-3477500Y775500D01*
X-3477500Y724500D01*
X-3494813Y676934D01*
X-3538650Y651624D01*
X-3551500Y650500D01*
X-4874675Y650500D01*
X-4947741Y635966D01*
X-5030602Y580601D01*
X-5085967Y497740D01*
X-5100501Y424674D01*
X-5100501Y424672D01*
X-5100501Y75327D01*
X-5088389Y14437D01*
X-5088389Y-14435D01*
X-5100501Y-75326D01*
X-5100501Y-424674D01*
X-5085967Y-497740D01*
X-5030602Y-580601D01*
X-4947741Y-635966D01*
X-4874675Y-650500D01*
X-4874673Y-650500D01*
X-3525329Y-650500D01*
X-3525327Y-650500D01*
X-3452261Y-635966D01*
X-3369400Y-580601D01*
X-3363659Y-572010D01*
X-3314035Y-497740D01*
X-3313081Y-492946D01*
X-3299501Y-424674D01*
X-3299501Y-123016D01*
X-3282188Y-75450D01*
X-3238351Y-50140D01*
X-3188501Y-58930D01*
X-3173175Y-70690D01*
X-3152174Y-91691D01*
X-3130782Y-137567D01*
X-3130500Y-144017D01*
X-3130500Y-321582D01*
X-3119582Y-396518D01*
X-3063076Y-512102D01*
X-2972102Y-603076D01*
X-2899948Y-638350D01*
X-2856647Y-659519D01*
X-2821518Y-695964D01*
X-2818034Y-746463D01*
X-2847824Y-787387D01*
X-2889148Y-800000D01*
X-3400000Y-800000D01*
X-3409007Y-809007D01*
X-3417313Y-831826D01*
X-3461150Y-857136D01*
X-3488436Y-856838D01*
X-3507466Y-853052D01*
X-3525327Y-849500D01*
X-4874675Y-849500D01*
X-4947741Y-864034D01*
X-5024440Y-915282D01*
X-5030602Y-919399D01*
X-5085967Y-1002260D01*
X-5100501Y-1075326D01*
X-5100501Y-1075327D01*
X-5100501Y-1424672D01*
X-5088389Y-1485563D01*
X-5088389Y-1514435D01*
X-5100501Y-1575326D01*
X-5100501Y-1924674D01*
X-5085967Y-1997740D01*
X-5030602Y-2080601D01*
X-4947741Y-2135966D01*
X-4874675Y-2150500D01*
X-4874673Y-2150500D01*
X-3525330Y-2150500D01*
X-3525327Y-2150500D01*
X-3488434Y-2143161D01*
X-3438408Y-2150861D01*
X-3405032Y-2188917D01*
X-3400000Y-2215739D01*
X-3400000Y-2284260D01*
X-3417313Y-2331826D01*
X-3461150Y-2357136D01*
X-3488436Y-2356838D01*
X-3507466Y-2353052D01*
X-3525327Y-2349500D01*
X-4874675Y-2349500D01*
X-4947741Y-2364034D01*
X-5012244Y-2407133D01*
X-5030602Y-2419399D01*
X-5085967Y-2502260D01*
X-5088389Y-2514437D01*
X-5100501Y-2575327D01*
X-5100501Y-2924672D01*
X-5088389Y-2985563D01*
X-5088389Y-3014435D01*
X-5100501Y-3075326D01*
X-5100501Y-3424674D01*
X-5085967Y-3497740D01*
X-5030602Y-3580601D01*
X-4947741Y-3635966D01*
X-4874675Y-3650500D01*
X-4874673Y-3650500D01*
X-3525330Y-3650500D01*
X-3525327Y-3650500D01*
X-3488434Y-3643161D01*
X-3438408Y-3650861D01*
X-3405032Y-3688917D01*
X-3400000Y-3715739D01*
X-3400000Y-3784260D01*
X-3417313Y-3831826D01*
X-3461150Y-3857136D01*
X-3488436Y-3856838D01*
X-3508606Y-3852826D01*
X-3525327Y-3849500D01*
X-4874675Y-3849500D01*
X-4913319Y-3857187D01*
X-4947741Y-3864034D01*
X-5024307Y-3915193D01*
X-5030602Y-3919399D01*
X-5085967Y-4002260D01*
X-5100501Y-4075326D01*
X-5100501Y-4424674D01*
X-5088389Y-4485563D01*
X-5088389Y-4514435D01*
X-5100501Y-4575326D01*
X-5100501Y-4924674D01*
X-5085967Y-4997740D01*
X-5030602Y-5080601D01*
X-4947741Y-5135966D01*
X-4874675Y-5150500D01*
X-4874673Y-5150500D01*
X-3525330Y-5150500D01*
X-3525327Y-5150500D01*
X-3488434Y-5143161D01*
X-3438408Y-5150861D01*
X-3405032Y-5188917D01*
X-3403634Y-5196365D01*
X-3400000Y-5200000D01*
X-3302037Y-5200000D01*
X-3254471Y-5217313D01*
X-3229161Y-5261150D01*
X-3237951Y-5311000D01*
X-3257687Y-5333237D01*
X-3291472Y-5358528D01*
X-3291474Y-5358531D01*
X-3315234Y-5390270D01*
X-3357599Y-5417974D01*
X-3358743Y-5418233D01*
X-3378119Y-5422448D01*
X-3378120Y-5422448D01*
X-3505441Y-5491971D01*
X-3505442Y-5491972D01*
X-3505445Y-5491974D01*
X-3608026Y-5594555D01*
X-3608027Y-5594557D01*
X-3608028Y-5594558D01*
X-3608029Y-5594560D01*
X-3677550Y-5721877D01*
X-3677550Y-5721879D01*
X-3677552Y-5721882D01*
X-3708389Y-5863640D01*
X-3698040Y-6008342D01*
X-3698039Y-6008344D01*
X-3698039Y-6008345D01*
X-3663855Y-6099998D01*
X-3647343Y-6144267D01*
X-3583886Y-6229034D01*
X-3582399Y-6231175D01*
X-3572696Y-6246275D01*
X-3532485Y-6281116D01*
X-3530574Y-6282895D01*
X-3518721Y-6294750D01*
X-3505300Y-6304795D01*
X-3503273Y-6306429D01*
X-3463058Y-6341277D01*
X-3453653Y-6345571D01*
X-3440047Y-6353644D01*
X-3431767Y-6359843D01*
X-3386069Y-6376886D01*
X-3381916Y-6378436D01*
X-3379488Y-6379441D01*
X-3361921Y-6387463D01*
X-3333424Y-6410428D01*
X-3291472Y-6466472D01*
X-3183450Y-6547336D01*
X-3183448Y-6547336D01*
X-3183448Y-6547337D01*
X-3176308Y-6550000D01*
X-3057022Y-6594491D01*
X-3006076Y-6599968D01*
X-3001131Y-6600500D01*
X-3001130Y-6600500D01*
X-2398869Y-6600500D01*
X-2393443Y-6599916D01*
X-2342978Y-6594491D01*
X-2291594Y-6575326D01*
X-2216551Y-6547337D01*
X-2216550Y-6547336D01*
X-2196793Y-6532546D01*
X-2108528Y-6466472D01*
X-2027664Y-6358450D01*
X-2027663Y-6358449D01*
X-2027662Y-6358448D01*
X-1980510Y-6232026D01*
X-1980509Y-6232021D01*
X-1980420Y-6231198D01*
X-1974500Y-6176130D01*
X-1974500Y-5648870D01*
X-1980509Y-5592978D01*
X-1980510Y-5592973D01*
X-2027662Y-5466551D01*
X-2027663Y-5466550D01*
X-2108528Y-5358528D01*
X-2142311Y-5333238D01*
X-2170013Y-5290875D01*
X-2164004Y-5240614D01*
X-2127093Y-5205975D01*
X-2097963Y-5200000D01*
X-1000000Y-5200000D01*
X-1000000Y-5164921D01*
X-982687Y-5117355D01*
X-961219Y-5099840D01*
X-946806Y-5092040D01*
X-942842Y-5090102D01*
X-901760Y-5070019D01*
X-869260Y-5062500D01*
X-259316Y-5062500D01*
X-244132Y-5064075D01*
X-239821Y-5064978D01*
X-229608Y-5067120D01*
X-194821Y-5062783D01*
X-190244Y-5062500D01*
X-185139Y-5062500D01*
X-185134Y-5062500D01*
X-163252Y-5058848D01*
X-111543Y-5052403D01*
X-111541Y-5052402D01*
X-111538Y-5052402D01*
X-105664Y-5050653D01*
X-105566Y-5050979D01*
X-103008Y-5050160D01*
X-103119Y-5049838D01*
X-97316Y-5047846D01*
X-51479Y-5023040D01*
X-4654Y-5000149D01*
X339Y-4996584D01*
X537Y-4996861D01*
X2693Y-4995254D01*
X2483Y-4994984D01*
X7317Y-4991220D01*
X7322Y-4991218D01*
X42612Y-4952882D01*
X1212045Y-3783448D01*
X1257920Y-3762057D01*
X1306815Y-3775158D01*
X1335849Y-3816622D01*
X1337617Y-3825244D01*
X1339068Y-3835339D01*
X1339068Y-3835340D01*
X1339069Y-3835342D01*
X1395870Y-3959718D01*
X1485411Y-4063055D01*
X1600439Y-4136978D01*
X1691946Y-4163847D01*
X1731673Y-4175512D01*
X1763151Y-4194188D01*
X2051518Y-4482555D01*
X2061140Y-4494404D01*
X2065522Y-4501110D01*
X2069915Y-4507834D01*
X2069918Y-4507838D01*
X2099154Y-4530594D01*
X2102591Y-4533628D01*
X2106482Y-4537519D01*
X2125483Y-4551085D01*
X2168811Y-4584809D01*
X2168812Y-4584809D01*
X2169936Y-4585417D01*
X2170702Y-4586281D01*
X2173651Y-4588576D01*
X2173224Y-4589123D01*
X2203531Y-4623280D01*
X2204928Y-4673880D01*
X2173474Y-4713540D01*
X2134719Y-4724500D01*
X1952127Y-4724500D01*
X1892514Y-4730909D01*
X1757670Y-4781202D01*
X1757669Y-4781203D01*
X1642454Y-4867454D01*
X1556203Y-4982669D01*
X1556202Y-4982670D01*
X1505910Y-5117512D01*
X1505909Y-5117517D01*
X1499500Y-5177126D01*
X1499500Y-6222873D01*
X1505909Y-6282485D01*
X1556202Y-6417329D01*
X1556203Y-6417330D01*
X1561699Y-6424672D01*
X1642454Y-6532546D01*
X1725202Y-6594491D01*
X1761906Y-6621968D01*
X1760936Y-6623262D01*
X1789841Y-6656080D01*
X1791054Y-6706684D01*
X1759455Y-6746229D01*
X1712156Y-6755743D01*
X1712085Y-6756404D01*
X1709990Y-6756178D01*
X1709830Y-6756211D01*
X1709253Y-6756099D01*
X1647873Y-6749500D01*
X802126Y-6749500D01*
X742514Y-6755909D01*
X607670Y-6806202D01*
X607669Y-6806203D01*
X492454Y-6892454D01*
X406203Y-7007669D01*
X406202Y-7007670D01*
X355910Y-7142512D01*
X355909Y-7142517D01*
X349500Y-7202126D01*
X349500Y-8231376D01*
X332187Y-8278942D01*
X327826Y-8283702D01*
X194055Y-8417473D01*
X148179Y-8438865D01*
X108135Y-8431082D01*
X75302Y-8414353D01*
X75303Y-8414353D01*
X-18480Y-8399500D01*
X-1106519Y-8399500D01*
X-1200304Y-8414353D01*
X-1200306Y-8414354D01*
X-1313342Y-8471950D01*
X-1403050Y-8561658D01*
X-1460646Y-8674696D01*
X-1475500Y-8768481D01*
X-1475499Y-8951904D01*
X-1475499Y-9131519D01*
X-1465868Y-9192329D01*
X-1460646Y-9225304D01*
X-1403050Y-9338342D01*
X-1313342Y-9428050D01*
X-1200304Y-9485646D01*
X-1106519Y-9500500D01*
X-18482Y-9500499D01*
X-18480Y-9500499D01*
X75304Y-9485646D01*
X120601Y-9462566D01*
X154197Y-9454500D01*
X312806Y-9454500D01*
X328535Y-9456191D01*
X333772Y-9457330D01*
X338640Y-9458389D01*
X391713Y-9454593D01*
X394333Y-9454500D01*
X411079Y-9454500D01*
X411083Y-9454500D01*
X427692Y-9452111D01*
X430266Y-9451835D01*
X483342Y-9448040D01*
X493030Y-9444425D01*
X508356Y-9440513D01*
X518596Y-9439042D01*
X566997Y-9416937D01*
X569396Y-9415943D01*
X592366Y-9407375D01*
X642980Y-9406975D01*
X644082Y-9407377D01*
X691332Y-9425000D01*
X742517Y-9444091D01*
X802127Y-9450500D01*
X1315670Y-9450499D01*
X1363236Y-9467812D01*
X1388546Y-9511649D01*
X1379756Y-9561499D01*
X1367998Y-9576823D01*
X1356924Y-9587896D01*
X1300418Y-9703481D01*
X1289500Y-9778413D01*
X1289500Y-10221574D01*
X1289501Y-10221593D01*
X1292444Y-10241795D01*
X1282169Y-10291360D01*
X1271543Y-10304787D01*
X498506Y-11077826D01*
X452630Y-11099218D01*
X446180Y-11099500D01*
X424500Y-11099500D01*
X376934Y-11082187D01*
X351624Y-11038350D01*
X350500Y-11025500D01*
X350499Y-10668480D01*
X335646Y-10574695D01*
X335645Y-10574693D01*
X278049Y-10461657D01*
X188343Y-10371951D01*
X188342Y-10371950D01*
X75304Y-10314354D01*
X75302Y-10314353D01*
X75301Y-10314353D01*
X-18480Y-10299500D01*
X-1106519Y-10299500D01*
X-1200303Y-10314353D01*
X-1271295Y-10350525D01*
X-1321537Y-10356693D01*
X-1325738Y-10355593D01*
X-1431633Y-10324500D01*
X-1568367Y-10324500D01*
X-1568369Y-10324500D01*
X-1699560Y-10363021D01*
X-1699561Y-10363022D01*
X-1713453Y-10371950D01*
X-1814585Y-10436942D01*
X-1814589Y-10436945D01*
X-1865386Y-10495568D01*
X-1909619Y-10520178D01*
X-1959323Y-10510599D01*
X-1987245Y-10480705D01*
X-1996950Y-10461657D01*
X-2031282Y-10427326D01*
X-2052674Y-10381450D01*
X-2039573Y-10332555D01*
X-2031282Y-10322674D01*
X-1996951Y-10288343D01*
X-1991953Y-10278534D01*
X-1939354Y-10175304D01*
X-1939353Y-10175302D01*
X-1939353Y-10175301D01*
X-1924500Y-10081519D01*
X-1924500Y-9718480D01*
X-1939353Y-9624695D01*
X-1939354Y-9624693D01*
X-1996950Y-9511657D01*
X-2031282Y-9477326D01*
X-2052674Y-9431450D01*
X-2039573Y-9382555D01*
X-2031282Y-9372674D01*
X-1996951Y-9338343D01*
X-1996950Y-9338342D01*
X-1939354Y-9225304D01*
X-1939353Y-9225302D01*
X-1939353Y-9225301D01*
X-1924500Y-9131519D01*
X-1924500Y-8781123D01*
X-1907187Y-8733557D01*
X-1902826Y-8728797D01*
X-1371202Y-8197173D01*
X-1325326Y-8175781D01*
X-1318876Y-8175499D01*
X-904516Y-8175499D01*
X-847886Y-8169412D01*
X-719774Y-8121628D01*
X-610313Y-8039687D01*
X-530785Y-7933450D01*
X-528371Y-7930225D01*
X-480588Y-7802115D01*
X-480588Y-7802112D01*
X-474500Y-7745486D01*
X-474500Y-7204515D01*
X-474501Y-7204514D01*
X-480588Y-7147885D01*
X-528371Y-7019774D01*
X-610313Y-6910313D01*
X-719774Y-6828371D01*
X-719773Y-6828371D01*
X-847885Y-6780588D01*
X-904513Y-6774500D01*
X-1495484Y-6774500D01*
X-1495485Y-6774501D01*
X-1552114Y-6780588D01*
X-1680225Y-6828371D01*
X-1680226Y-6828372D01*
X-1789687Y-6910313D01*
X-1821901Y-6953346D01*
X-1864265Y-6981050D01*
X-1881141Y-6983000D01*
X-2034453Y-6983000D01*
X-2082019Y-6965687D01*
X-2093693Y-6953346D01*
X-2108526Y-6933530D01*
X-2108528Y-6933528D01*
X-2216550Y-6852663D01*
X-2216551Y-6852662D01*
X-2342973Y-6805510D01*
X-2342978Y-6805509D01*
X-2398869Y-6799500D01*
X-2398870Y-6799500D01*
X-3001130Y-6799500D01*
X-3001131Y-6799500D01*
X-3029076Y-6802504D01*
X-3057022Y-6805509D01*
X-3057023Y-6805509D01*
X-3057026Y-6805510D01*
X-3183448Y-6852662D01*
X-3183449Y-6852663D01*
X-3183450Y-6852664D01*
X-3291472Y-6933528D01*
X-3370406Y-7038972D01*
X-3372336Y-7041550D01*
X-3372337Y-7041551D01*
X-3409993Y-7142512D01*
X-3419491Y-7167978D01*
X-3425500Y-7223870D01*
X-3425500Y-7751130D01*
X-3419491Y-7807022D01*
X-3403374Y-7850233D01*
X-3373539Y-7930226D01*
X-3372336Y-7933450D01*
X-3291472Y-8041472D01*
X-3234153Y-8084379D01*
X-3206450Y-8126744D01*
X-3204500Y-8143619D01*
X-3204500Y-8325500D01*
X-3221813Y-8373066D01*
X-3265650Y-8398376D01*
X-3278499Y-8399500D01*
X-3381519Y-8399500D01*
X-3475304Y-8414353D01*
X-3475306Y-8414354D01*
X-3588342Y-8471950D01*
X-3678050Y-8561658D01*
X-3735646Y-8674696D01*
X-3750500Y-8768481D01*
X-3750499Y-8951904D01*
X-3750499Y-9131519D01*
X-3740868Y-9192329D01*
X-3735646Y-9225304D01*
X-3678050Y-9338342D01*
X-3656785Y-9359607D01*
X-3643718Y-9372674D01*
X-3622326Y-9418550D01*
X-3635427Y-9467445D01*
X-3643718Y-9477326D01*
X-3678050Y-9511658D01*
X-3735646Y-9624696D01*
X-3750500Y-9718481D01*
X-3750499Y-10081518D01*
X-3735646Y-10175304D01*
X-3678050Y-10288342D01*
X-3652039Y-10314353D01*
X-3643718Y-10322674D01*
X-3622326Y-10368550D01*
X-3635427Y-10417445D01*
X-3643718Y-10427326D01*
X-3678050Y-10461658D01*
X-3735646Y-10574696D01*
X-3750500Y-10668481D01*
X-3750499Y-10885741D01*
X-3750499Y-11031519D01*
X-3742450Y-11082341D01*
X-3735646Y-11125304D01*
X-3678050Y-11238342D01*
X-3588342Y-11328050D01*
X-3475304Y-11385646D01*
X-3381519Y-11400500D01*
X-2941318Y-11400499D01*
X-2893753Y-11417812D01*
X-2889004Y-11422162D01*
X-2679952Y-11631215D01*
X-2477811Y-11833356D01*
X-2475053Y-11836440D01*
X-2450344Y-11867427D01*
X-2402233Y-11900228D01*
X-2355393Y-11934798D01*
X-2355390Y-11934799D01*
X-2350491Y-11937389D01*
X-2350524Y-11937452D01*
X-2345529Y-11939974D01*
X-2345498Y-11939909D01*
X-2340511Y-11942310D01*
X-2340504Y-11942315D01*
X-2284863Y-11959477D01*
X-2229914Y-11978706D01*
X-2229908Y-11978706D01*
X-2224466Y-11979736D01*
X-2224479Y-11979806D01*
X-2218962Y-11980743D01*
X-2218952Y-11980673D01*
X-2213472Y-11981499D01*
X-2213470Y-11981500D01*
X-2155246Y-11981500D01*
X-2097072Y-11983677D01*
X-2097070Y-11983676D01*
X-2097067Y-11983677D01*
X-2097063Y-11983676D01*
X-2091559Y-11983056D01*
X-2091551Y-11983125D01*
X-2079200Y-11981500D01*
X632656Y-11981500D01*
X636802Y-11981733D01*
X676175Y-11986169D01*
X676175Y-11986168D01*
X676176Y-11986169D01*
X733386Y-11975344D01*
X790955Y-11966667D01*
X790956Y-11966666D01*
X790958Y-11966666D01*
X796256Y-11965032D01*
X796277Y-11965100D01*
X801580Y-11963355D01*
X801557Y-11963288D01*
X806794Y-11961455D01*
X806794Y-11961454D01*
X806798Y-11961454D01*
X858272Y-11934248D01*
X910730Y-11908987D01*
X910732Y-11908984D01*
X915311Y-11905864D01*
X915351Y-11905923D01*
X919913Y-11902685D01*
X919871Y-11902628D01*
X924330Y-11899336D01*
X924333Y-11899335D01*
X929747Y-11893921D01*
X965499Y-11858169D01*
X1008179Y-11818568D01*
X1008179Y-11818567D01*
X1008182Y-11818565D01*
X1008183Y-11818562D01*
X1011639Y-11814229D01*
X1011694Y-11814273D01*
X1019273Y-11804393D01*
X2102865Y-10720801D01*
X2105930Y-10718062D01*
X2136927Y-10693344D01*
X2147166Y-10678324D01*
X2155976Y-10667690D01*
X2282347Y-10541319D01*
X2328222Y-10519928D01*
X2367172Y-10527164D01*
X2433482Y-10559582D01*
X2508418Y-10570500D01*
X2508424Y-10570500D01*
X2851576Y-10570500D01*
X2851582Y-10570500D01*
X2926518Y-10559582D01*
X3042102Y-10503076D01*
X3133076Y-10412102D01*
X3133076Y-10412101D01*
X3137412Y-10407766D01*
X3139615Y-10409969D01*
X3171501Y-10388075D01*
X3221885Y-10392946D01*
X3241199Y-10409154D01*
X3242588Y-10407766D01*
X3246924Y-10412102D01*
X3337898Y-10503076D01*
X3453482Y-10559582D01*
X3528418Y-10570500D01*
X3528424Y-10570500D01*
X3871576Y-10570500D01*
X3871582Y-10570500D01*
X3946518Y-10559582D01*
X3953174Y-10556328D01*
X5495709Y-10556328D01*
X5525924Y-10779381D01*
X5525926Y-10779392D01*
X5595481Y-10993460D01*
X5595486Y-10993470D01*
X5702149Y-11191684D01*
X5702150Y-11191685D01*
X5842489Y-11367663D01*
X5842491Y-11367664D01*
X5842492Y-11367666D01*
X6012002Y-11515763D01*
X6012008Y-11515768D01*
X6162378Y-11605609D01*
X6205236Y-11631215D01*
X6415976Y-11710307D01*
X6637453Y-11750500D01*
X6637456Y-11750500D01*
X6806157Y-11750500D01*
X6829972Y-11748356D01*
X6974188Y-11735377D01*
X7191170Y-11675493D01*
X7393973Y-11577829D01*
X7576078Y-11445522D01*
X7731632Y-11282825D01*
X7855635Y-11094968D01*
X7944103Y-10887988D01*
X7994191Y-10668537D01*
X7998405Y-10574698D01*
X8004290Y-10443678D01*
X8004290Y-10443670D01*
X7999725Y-10409969D01*
X7974075Y-10220613D01*
X7904517Y-10006536D01*
X7797852Y-9808319D01*
X7797850Y-9808315D01*
X7797849Y-9808314D01*
X7657510Y-9632336D01*
X7648765Y-9624696D01*
X7487996Y-9484235D01*
X7487995Y-9484234D01*
X7487991Y-9484231D01*
X7294763Y-9368784D01*
X7084027Y-9289694D01*
X7084028Y-9289694D01*
X7084025Y-9289693D01*
X7084024Y-9289693D01*
X6862547Y-9249500D01*
X6693845Y-9249500D01*
X6693843Y-9249500D01*
X6525812Y-9264623D01*
X6308829Y-9324507D01*
X6106024Y-9422172D01*
X5923925Y-9554474D01*
X5768366Y-9717176D01*
X5644363Y-9905034D01*
X5555898Y-10112009D01*
X5555896Y-10112014D01*
X5505808Y-10331466D01*
X5495709Y-10556321D01*
X5495709Y-10556328D01*
X3953174Y-10556328D01*
X4062102Y-10503076D01*
X4153076Y-10412102D01*
X4209582Y-10296518D01*
X4220500Y-10221582D01*
X4220500Y-9778418D01*
X4209582Y-9703482D01*
X4153076Y-9587898D01*
X4062102Y-9496924D01*
X4062101Y-9496923D01*
X4045316Y-9488717D01*
X4010187Y-9452272D01*
X4006704Y-9401773D01*
X4033470Y-9362998D01*
X4107546Y-9307546D01*
X4193796Y-9192331D01*
X4244091Y-9057483D01*
X4250500Y-8997873D01*
X4250499Y-7202128D01*
X4248844Y-7186740D01*
X4255109Y-7148089D01*
X4260931Y-7135342D01*
X4280390Y-7000000D01*
X4260931Y-6864658D01*
X4204130Y-6740282D01*
X4114589Y-6636945D01*
X4114587Y-6636944D01*
X4114585Y-6636941D01*
X4114583Y-6636940D01*
X4076168Y-6612253D01*
X4045512Y-6571973D01*
X4047919Y-6521412D01*
X4076168Y-6487747D01*
X4114583Y-6463059D01*
X4114585Y-6463058D01*
X4114585Y-6463057D01*
X4114589Y-6463055D01*
X4204130Y-6359718D01*
X4260931Y-6235342D01*
X4280390Y-6100000D01*
X4278238Y-6085029D01*
X4288606Y-6035483D01*
X4328396Y-6004193D01*
X4351485Y-6000499D01*
X4359898Y-6000499D01*
X4389213Y-5994669D01*
X4389214Y-5994668D01*
X4389215Y-5994668D01*
X4422454Y-5972459D01*
X4422453Y-5972459D01*
X4422457Y-5972457D01*
X4444669Y-5939213D01*
X4450500Y-5909899D01*
X4450499Y-5590102D01*
X4444669Y-5560787D01*
X4431522Y-5541110D01*
X4419492Y-5491941D01*
X4431523Y-5458888D01*
X4444669Y-5439213D01*
X4450500Y-5409899D01*
X4450499Y-5090102D01*
X4444669Y-5060787D01*
X4444668Y-5060786D01*
X4444668Y-5060784D01*
X4422459Y-5027545D01*
X4422456Y-5027542D01*
X4389213Y-5005331D01*
X4389211Y-5005330D01*
X4371559Y-5001819D01*
X4359899Y-4999500D01*
X4359897Y-4999500D01*
X4018170Y-4999500D01*
X3972718Y-4983896D01*
X3882158Y-4913410D01*
X3882156Y-4913409D01*
X3882155Y-4913408D01*
X3762994Y-4872500D01*
X2888917Y-4872500D01*
X2844570Y-4857740D01*
X2742330Y-4781203D01*
X2742329Y-4781202D01*
X2709167Y-4768834D01*
X2670650Y-4735991D01*
X2662255Y-4686073D01*
X2687912Y-4642437D01*
X2735027Y-4625500D01*
X3731108Y-4625500D01*
X3731114Y-4625500D01*
X3823610Y-4610065D01*
X3933826Y-4550419D01*
X3957796Y-4524379D01*
X4002749Y-4501110D01*
X4012240Y-4500499D01*
X4359898Y-4500499D01*
X4389213Y-4494669D01*
X4389214Y-4494668D01*
X4389215Y-4494668D01*
X4422454Y-4472459D01*
X4422453Y-4472459D01*
X4422457Y-4472457D01*
X4444669Y-4439213D01*
X4450500Y-4409899D01*
X4450499Y-4090102D01*
X4444669Y-4060787D01*
X4444668Y-4060786D01*
X4444668Y-4060784D01*
X4422459Y-4027545D01*
X4422456Y-4027542D01*
X4389213Y-4005331D01*
X4389211Y-4005330D01*
X4371559Y-4001819D01*
X4359899Y-3999500D01*
X4359897Y-3999500D01*
X4014913Y-3999500D01*
X3969461Y-3983896D01*
X3881192Y-3915193D01*
X3881190Y-3915192D01*
X3881189Y-3915191D01*
X3762660Y-3874500D01*
X2536190Y-3874500D01*
X2488624Y-3857187D01*
X2483864Y-3852826D01*
X2289301Y-3658263D01*
X2268380Y-3616468D01*
X2262465Y-3575327D01*
X2260931Y-3564658D01*
X2204130Y-3440282D01*
X2177802Y-3409897D01*
X2949500Y-3409897D01*
X2955331Y-3439215D01*
X2977540Y-3472454D01*
X2977542Y-3472456D01*
X2977543Y-3472457D01*
X3010787Y-3494669D01*
X3040101Y-3500500D01*
X4359898Y-3500499D01*
X4389213Y-3494669D01*
X4389214Y-3494668D01*
X4389215Y-3494668D01*
X4422454Y-3472459D01*
X4422453Y-3472459D01*
X4422457Y-3472457D01*
X4444669Y-3439213D01*
X4450500Y-3409899D01*
X4450499Y-3090102D01*
X4444669Y-3060787D01*
X4444668Y-3060786D01*
X4444668Y-3060784D01*
X4422459Y-3027545D01*
X4422456Y-3027542D01*
X4389213Y-3005331D01*
X4389211Y-3005330D01*
X4371559Y-3001819D01*
X4359899Y-2999500D01*
X4359897Y-2999500D01*
X3040102Y-2999500D01*
X3010784Y-3005331D01*
X2977545Y-3027540D01*
X2977542Y-3027543D01*
X2955331Y-3060786D01*
X2955330Y-3060788D01*
X2949500Y-3090102D01*
X2949500Y-3409897D01*
X2177802Y-3409897D01*
X2114589Y-3336945D01*
X2114585Y-3336942D01*
X2051807Y-3296598D01*
X1999561Y-3263022D01*
X1999560Y-3263021D01*
X1999559Y-3263021D01*
X1912764Y-3237535D01*
X1872002Y-3207522D01*
X1860069Y-3158330D01*
X1881286Y-3114208D01*
X2911321Y-2084174D01*
X2957198Y-2062782D01*
X2963647Y-2062500D01*
X2999996Y-2062500D01*
X3024008Y-2066504D01*
X3024900Y-2066810D01*
X3035598Y-2072316D01*
X3035748Y-2072010D01*
X3041260Y-2074705D01*
X3091217Y-2089577D01*
X3140511Y-2106500D01*
X3146561Y-2107510D01*
X3146505Y-2107843D01*
X3149166Y-2108231D01*
X3149209Y-2107894D01*
X3155288Y-2108651D01*
X3155294Y-2108653D01*
X3207346Y-2106500D01*
X3640511Y-2106500D01*
X4630357Y-2106500D01*
X4645541Y-2108075D01*
X4650839Y-2109185D01*
X4660065Y-2111120D01*
X4694851Y-2106783D01*
X4699429Y-2106500D01*
X4704536Y-2106500D01*
X4704539Y-2106500D01*
X4726420Y-2102848D01*
X4778130Y-2096403D01*
X4778138Y-2096398D01*
X4784009Y-2094652D01*
X4784106Y-2094980D01*
X4786666Y-2094160D01*
X4786555Y-2093837D01*
X4792349Y-2091847D01*
X4792357Y-2091846D01*
X4830102Y-2071418D01*
X4865322Y-2062500D01*
X5542823Y-2062500D01*
X5590389Y-2079813D01*
X5598749Y-2088041D01*
X5685411Y-2188055D01*
X5685413Y-2188057D01*
X5742925Y-2225016D01*
X5800439Y-2261978D01*
X5931631Y-2300500D01*
X5931633Y-2300500D01*
X6068368Y-2300500D01*
X6133964Y-2281239D01*
X6199561Y-2261978D01*
X6314589Y-2188055D01*
X6404130Y-2084718D01*
X6460931Y-1960342D01*
X6480390Y-1825000D01*
X6460931Y-1689658D01*
X6404130Y-1565282D01*
X6389551Y-1548457D01*
X6371487Y-1501175D01*
X6388042Y-1453340D01*
X6389505Y-1451595D01*
X6404130Y-1434718D01*
X6460931Y-1310342D01*
X6480390Y-1175000D01*
X6460931Y-1039658D01*
X6404130Y-915282D01*
X6314589Y-811945D01*
X6314585Y-811942D01*
X6236838Y-761978D01*
X6199561Y-738022D01*
X6199560Y-738021D01*
X6068369Y-699500D01*
X6068367Y-699500D01*
X6065885Y-699500D01*
X6064263Y-698909D01*
X6063131Y-698747D01*
X6063165Y-698510D01*
X6018319Y-682187D01*
X5993009Y-638350D01*
X6001799Y-588500D01*
X6003631Y-585494D01*
X6004126Y-584722D01*
X6004130Y-584718D01*
X6060931Y-460342D01*
X6080390Y-325000D01*
X6060931Y-189658D01*
X6004130Y-65282D01*
X5989551Y-48457D01*
X5971487Y-1175D01*
X5988042Y46660D01*
X5989505Y48404D01*
X6004130Y65282D01*
X6060931Y189658D01*
X6080390Y325000D01*
X6060931Y460342D01*
X6004130Y584718D01*
X5914589Y688055D01*
X5799561Y761978D01*
X5753509Y775500D01*
X5668369Y800500D01*
X5668367Y800500D01*
X5531633Y800500D01*
X5531631Y800500D01*
X5400439Y761978D01*
X5343408Y725327D01*
X5285413Y688057D01*
X5285411Y688055D01*
X5198749Y588041D01*
X5154515Y563430D01*
X5142823Y562500D01*
X4875005Y562500D01*
X4851043Y566487D01*
X4850146Y566794D01*
X4839398Y572321D01*
X4839247Y572012D01*
X4833743Y574701D01*
X4833739Y574705D01*
X4783786Y589576D01*
X4734490Y606500D01*
X4734489Y606500D01*
X4728440Y607510D01*
X4728495Y607843D01*
X4725833Y608231D01*
X4725791Y607894D01*
X4719714Y608650D01*
X4719707Y608653D01*
X4667644Y606500D01*
X3244643Y606500D01*
X3229458Y608074D01*
X3214936Y611120D01*
X3180149Y606783D01*
X3175572Y606500D01*
X3170462Y606500D01*
X3148580Y602848D01*
X3096871Y596403D01*
X3096869Y596402D01*
X3096866Y596402D01*
X3090992Y594653D01*
X3090894Y594981D01*
X3088337Y594162D01*
X3088448Y593839D01*
X3082649Y591848D01*
X3082645Y591846D01*
X3082644Y591846D01*
X3044898Y571418D01*
X3009679Y562500D01*
X2736647Y562500D01*
X2689081Y579813D01*
X2663771Y623650D01*
X2672561Y673500D01*
X2684321Y688826D01*
X2911321Y915826D01*
X2957197Y937218D01*
X2963647Y937500D01*
X2999997Y937500D01*
X3024079Y933472D01*
X3024971Y933165D01*
X3035606Y927687D01*
X3035753Y927988D01*
X3041260Y925295D01*
X3091217Y910422D01*
X3140509Y893499D01*
X3146556Y892491D01*
X3146500Y892157D01*
X3149166Y891768D01*
X3149209Y892106D01*
X3155294Y891347D01*
X3207346Y893500D01*
X3640511Y893500D01*
X4630357Y893500D01*
X4645541Y891925D01*
X4660063Y888880D01*
X4660064Y888880D01*
X4660065Y888880D01*
X4694851Y893216D01*
X4699429Y893500D01*
X4704544Y893500D01*
X4726420Y897150D01*
X4778133Y903597D01*
X4784009Y905347D01*
X4784105Y905022D01*
X4786665Y905842D01*
X4786556Y906163D01*
X4792355Y908153D01*
X4792357Y908154D01*
X4830105Y928582D01*
X4865324Y937500D01*
X5140684Y937500D01*
X5155868Y935925D01*
X5170390Y932880D01*
X5170391Y932880D01*
X5170392Y932880D01*
X5205178Y937216D01*
X5209756Y937500D01*
X5214871Y937500D01*
X5236747Y941150D01*
X5288460Y947597D01*
X5294336Y949347D01*
X5294432Y949022D01*
X5296992Y949842D01*
X5296883Y950163D01*
X5302682Y952153D01*
X5302684Y952154D01*
X5325602Y964556D01*
X5348521Y976959D01*
X5395347Y999851D01*
X5400338Y1003415D01*
X5400534Y1003139D01*
X5402692Y1004748D01*
X5402484Y1005016D01*
X5407322Y1008781D01*
X5424236Y1027156D01*
X5442612Y1047117D01*
X5875312Y1479817D01*
X5921189Y1501209D01*
X5948484Y1498494D01*
X5961441Y1494690D01*
X5961443Y1494690D01*
X6098179Y1494690D01*
X6229370Y1533211D01*
X6229371Y1533212D01*
X6294904Y1575327D01*
X6344395Y1607132D01*
X6344399Y1607135D01*
X6433940Y1710472D01*
X6490741Y1834848D01*
X6510200Y1970190D01*
X6510200Y1975483D01*
X6512420Y1975483D01*
X6521003Y2016577D01*
X6560781Y2047882D01*
X6611375Y2046294D01*
X6636223Y2029911D01*
X9649956Y-983822D01*
X9659579Y-995672D01*
X9668421Y-1009205D01*
X9668424Y-1009209D01*
X9697827Y-1032094D01*
X9701260Y-1035126D01*
X9705185Y-1039051D01*
X9724294Y-1052696D01*
X9767843Y-1086591D01*
X9773234Y-1089508D01*
X9773102Y-1089751D01*
X9776276Y-1091385D01*
X9776398Y-1091137D01*
X9781908Y-1093830D01*
X9781911Y-1093832D01*
X9834806Y-1109579D01*
X9887006Y-1127500D01*
X9887008Y-1127500D01*
X9893056Y-1128510D01*
X9893010Y-1128780D01*
X9896542Y-1129295D01*
X9896577Y-1129022D01*
X9902653Y-1129779D01*
X9902660Y-1129781D01*
X9957804Y-1127500D01*
X12017141Y-1127500D01*
X12044449Y-1135768D01*
X12045523Y-1133176D01*
X12052258Y-1135965D01*
X12052260Y-1135966D01*
X12125326Y-1150500D01*
X12125328Y-1150500D01*
X13474672Y-1150500D01*
X13474674Y-1150500D01*
X13547740Y-1135966D01*
X13630601Y-1080601D01*
X13685966Y-997740D01*
X13700500Y-924674D01*
X13700500Y-575326D01*
X13685966Y-502260D01*
X13630601Y-419399D01*
X13560410Y-372500D01*
X13547740Y-364034D01*
X13474674Y-349500D01*
X12125326Y-349500D01*
X12096736Y-355187D01*
X12052258Y-364034D01*
X12045523Y-366824D01*
X12044449Y-364231D01*
X12017141Y-372500D01*
X10137018Y-372500D01*
X10089452Y-355187D01*
X10084692Y-350826D01*
X9126356Y607510D01*
X6250037Y3483827D01*
X6240417Y3495676D01*
X6239353Y3497304D01*
X6231576Y3509209D01*
X6202164Y3532099D01*
X6198748Y3535116D01*
X6194814Y3539052D01*
X6175705Y3552695D01*
X6165356Y3560750D01*
X6132161Y3586588D01*
X6132158Y3586589D01*
X6132155Y3586592D01*
X6132151Y3586593D01*
X6126764Y3589508D01*
X6126897Y3589754D01*
X6123722Y3591388D01*
X6123600Y3591138D01*
X6118089Y3593832D01*
X6065193Y3609579D01*
X6012994Y3627500D01*
X6012991Y3627500D01*
X6006944Y3628510D01*
X6006989Y3628780D01*
X6003457Y3629295D01*
X6003423Y3629022D01*
X5997347Y3629778D01*
X5997340Y3629781D01*
X5942196Y3627500D01*
X2840018Y3627500D01*
X2792452Y3644813D01*
X2767142Y3688650D01*
X2775932Y3738500D01*
X2787692Y3753826D01*
X2884692Y3850826D01*
X2930568Y3872218D01*
X2937018Y3872500D01*
X3637006Y3872500D01*
X6162983Y3872500D01*
X6210549Y3855187D01*
X6215308Y3850826D01*
X7193634Y2872500D01*
X10049956Y16177D01*
X10059577Y4330D01*
X10068421Y-9206D01*
X10068423Y-9207D01*
X10068424Y-9209D01*
X10068427Y-9211D01*
X10097820Y-32089D01*
X10101261Y-35127D01*
X10105185Y-39051D01*
X10124294Y-52696D01*
X10167843Y-86591D01*
X10173234Y-89508D01*
X10173102Y-89751D01*
X10176276Y-91385D01*
X10176398Y-91137D01*
X10181908Y-93830D01*
X10181911Y-93832D01*
X10234806Y-109579D01*
X10287006Y-127500D01*
X10287008Y-127500D01*
X10293056Y-128510D01*
X10293010Y-128780D01*
X10296542Y-129295D01*
X10296577Y-129022D01*
X10302653Y-129779D01*
X10302660Y-129781D01*
X10357804Y-127500D01*
X12017141Y-127500D01*
X12044449Y-135768D01*
X12045523Y-133176D01*
X12052258Y-135965D01*
X12052260Y-135966D01*
X12125326Y-150500D01*
X12125328Y-150500D01*
X13474672Y-150500D01*
X13474674Y-150500D01*
X13547740Y-135966D01*
X13630601Y-80601D01*
X13685966Y2260D01*
X13700500Y75326D01*
X13700500Y424674D01*
X13688388Y485564D01*
X13688388Y514437D01*
X13698134Y563430D01*
X13700500Y575326D01*
X13700500Y924674D01*
X13688388Y985564D01*
X13688388Y1014437D01*
X13700500Y1075327D01*
X13700500Y1424672D01*
X13698801Y1433211D01*
X13688388Y1485564D01*
X13688388Y1514437D01*
X13692123Y1533211D01*
X13700500Y1575326D01*
X13700500Y1924674D01*
X13685966Y1997740D01*
X13630601Y2080601D01*
X13547740Y2135966D01*
X13474674Y2150500D01*
X13474672Y2150500D01*
X12355854Y2150500D01*
X12315847Y2162247D01*
X12236488Y2213247D01*
X12205832Y2253527D01*
X12208241Y2304089D01*
X12242586Y2341274D01*
X12276495Y2349500D01*
X13474672Y2349500D01*
X13474674Y2349500D01*
X13547740Y2364034D01*
X13555924Y2369502D01*
X13630600Y2419398D01*
X13630601Y2419399D01*
X13661171Y2465151D01*
X13685966Y2502260D01*
X13700500Y2575326D01*
X13700500Y2924674D01*
X13688388Y2985564D01*
X13688388Y3014437D01*
X13692504Y3035126D01*
X13700500Y3075326D01*
X13700500Y3424674D01*
X13688388Y3485564D01*
X13688388Y3514437D01*
X13688475Y3514871D01*
X13700500Y3575326D01*
X13700500Y3924674D01*
X13688388Y3985564D01*
X13688388Y4014437D01*
X13700500Y4075327D01*
X13700500Y4424672D01*
X13688388Y4485563D01*
X13688388Y4514437D01*
X13689207Y4518551D01*
X13700500Y4575326D01*
X13700500Y4924674D01*
X13688388Y4985564D01*
X13688388Y5014437D01*
X13691900Y5032090D01*
X13700500Y5075326D01*
X13700500Y5424674D01*
X13685966Y5497740D01*
X13630601Y5580601D01*
X13629119Y5581591D01*
X13618075Y5588971D01*
X13588143Y5629791D01*
X13591452Y5680302D01*
X13626456Y5716868D01*
X13659186Y5724500D01*
X13714367Y5724500D01*
X13804652Y5751010D01*
X13855169Y5747799D01*
X13891804Y5712868D01*
X13899500Y5680007D01*
X13899500Y-6469550D01*
X13899449Y-6471479D01*
X13885353Y-6740280D01*
X13884797Y-6750885D01*
X13884391Y-6754742D01*
X13840749Y-7030135D01*
X13839942Y-7033931D01*
X13837320Y-7043706D01*
X13808277Y-7085164D01*
X13759380Y-7098254D01*
X13713508Y-7076851D01*
X13693269Y-7038976D01*
X13688387Y-7014430D01*
X13688388Y-6985563D01*
X13692342Y-6965687D01*
X13700500Y-6924674D01*
X13700500Y-6575326D01*
X13688388Y-6514435D01*
X13688388Y-6485563D01*
X13691573Y-6469550D01*
X13700500Y-6424674D01*
X13700500Y-6075326D01*
X13688388Y-6014435D01*
X13688388Y-5985563D01*
X13700500Y-5924672D01*
X13700500Y-5575327D01*
X13688388Y-5514436D01*
X13688388Y-5485562D01*
X13697608Y-5439214D01*
X13700500Y-5424674D01*
X13700500Y-5075326D01*
X13688388Y-5014435D01*
X13688388Y-4985563D01*
X13688720Y-4983896D01*
X13700500Y-4924674D01*
X13700500Y-4575326D01*
X13688388Y-4514435D01*
X13688388Y-4485563D01*
X13700500Y-4424674D01*
X13700500Y-4075326D01*
X13688388Y-4014435D01*
X13688388Y-3985563D01*
X13693529Y-3959718D01*
X13700500Y-3924674D01*
X13700500Y-3575326D01*
X13688388Y-3514435D01*
X13688388Y-3485563D01*
X13697395Y-3440282D01*
X13700500Y-3424674D01*
X13700500Y-3075326D01*
X13688388Y-3014435D01*
X13688388Y-2985563D01*
X13700500Y-2924672D01*
X13700500Y-2575327D01*
X13688388Y-2514437D01*
X13688388Y-2485563D01*
X13700500Y-2424674D01*
X13700500Y-2075326D01*
X13688388Y-2014435D01*
X13688388Y-1985563D01*
X13693405Y-1960342D01*
X13700500Y-1924674D01*
X13700500Y-1575326D01*
X13685966Y-1502260D01*
X13630601Y-1419399D01*
X13547740Y-1364034D01*
X13474674Y-1349500D01*
X12125326Y-1349500D01*
X12076615Y-1359189D01*
X12052259Y-1364034D01*
X11969399Y-1419398D01*
X11969398Y-1419399D01*
X11914034Y-1502259D01*
X11899500Y-1575327D01*
X11899500Y-1924673D01*
X11911611Y-1985564D01*
X11911611Y-2014436D01*
X11899500Y-2075326D01*
X11899500Y-2424673D01*
X11911611Y-2485564D01*
X11911611Y-2514436D01*
X11899500Y-2575326D01*
X11899500Y-2924673D01*
X11911611Y-2985564D01*
X11911611Y-3014436D01*
X11899500Y-3075326D01*
X11899500Y-3424673D01*
X11911611Y-3485564D01*
X11911611Y-3514436D01*
X11899500Y-3575326D01*
X11899500Y-3924673D01*
X11911611Y-3985564D01*
X11911611Y-4014436D01*
X11899500Y-4075326D01*
X11899500Y-4424673D01*
X11911611Y-4485564D01*
X11911611Y-4514436D01*
X11899500Y-4575326D01*
X11899500Y-4924673D01*
X11911611Y-4985564D01*
X11911611Y-5014436D01*
X11901132Y-5067120D01*
X11899500Y-5075326D01*
X11899500Y-5424674D01*
X11902392Y-5439214D01*
X11911612Y-5485562D01*
X11911612Y-5514436D01*
X11899500Y-5575327D01*
X11899500Y-5924673D01*
X11911611Y-5985564D01*
X11911611Y-6014436D01*
X11899500Y-6075326D01*
X11899500Y-6424673D01*
X11911611Y-6485564D01*
X11911611Y-6514436D01*
X11899500Y-6575326D01*
X11899500Y-6924673D01*
X11911611Y-6985564D01*
X11911611Y-7014436D01*
X11899572Y-7074963D01*
X11899500Y-7075326D01*
X11899500Y-7424674D01*
X11914034Y-7497740D01*
X11961663Y-7569024D01*
X11969399Y-7580601D01*
X12052260Y-7635966D01*
X12125326Y-7650500D01*
X12125328Y-7650500D01*
X13474670Y-7650500D01*
X13474674Y-7650500D01*
X13491547Y-7647143D01*
X13541574Y-7654842D01*
X13574951Y-7692899D01*
X13576057Y-7743505D01*
X13571909Y-7753332D01*
X13538352Y-7819153D01*
X13536412Y-7822511D01*
X13384487Y-8056305D01*
X13382207Y-8059441D01*
X13206657Y-8276074D01*
X13204061Y-8278954D01*
X13006829Y-8476030D01*
X13003946Y-8478623D01*
X12786409Y-8654620D01*
X12784871Y-8655799D01*
X12747155Y-8683175D01*
X9441636Y-11082341D01*
X9441620Y-11082354D01*
X9438458Y-11084648D01*
X9438458Y-11084649D01*
X9399940Y-11112606D01*
X9029221Y-11360070D01*
X9026751Y-11361582D01*
X8639027Y-11578519D01*
X8636438Y-11579836D01*
X8232918Y-11765699D01*
X8230234Y-11766810D01*
X7813381Y-11920467D01*
X7810619Y-11921364D01*
X7382993Y-12041870D01*
X7380169Y-12042547D01*
X6944429Y-12129152D01*
X6941561Y-12129606D01*
X6500355Y-12181786D01*
X6497460Y-12182014D01*
X6052080Y-12199500D01*
X-6332282Y-12199500D01*
X-6334367Y-12199441D01*
X-6634813Y-12182494D01*
X-6638957Y-12182025D01*
X-6786746Y-12156804D01*
X-6934546Y-12131580D01*
X-6938602Y-12130651D01*
X-6942213Y-12129606D01*
X-7002063Y-12112284D01*
X-7226651Y-12047283D01*
X-7230585Y-12045900D01*
X-7507425Y-11930674D01*
X-7511179Y-11928857D01*
X-7773314Y-11783226D01*
X-7776839Y-11780998D01*
X-8020923Y-11606824D01*
X-8024176Y-11604214D01*
X-8247138Y-11403686D01*
X-8250077Y-11400727D01*
X-8449065Y-11176409D01*
X-8451652Y-11173138D01*
X-8624773Y-10926988D01*
X-8625931Y-10925237D01*
X-8627510Y-10922698D01*
X-8754042Y-10719344D01*
X-8855473Y-10556330D01*
X-8004290Y-10556330D01*
X-7974075Y-10779387D01*
X-7904517Y-10993464D01*
X-7797852Y-11191681D01*
X-7657508Y-11367666D01*
X-7487996Y-11515765D01*
X-7294764Y-11631215D01*
X-7084024Y-11710307D01*
X-6862547Y-11750500D01*
X-6862544Y-11750500D01*
X-6693843Y-11750500D01*
X-6668211Y-11748192D01*
X-6525812Y-11735377D01*
X-6308830Y-11675493D01*
X-6106027Y-11577829D01*
X-6020600Y-11515763D01*
X-5923925Y-11445525D01*
X-5768366Y-11282823D01*
X-5644363Y-11094965D01*
X-5555898Y-10887990D01*
X-5555896Y-10887985D01*
X-5505808Y-10668533D01*
X-5495709Y-10443678D01*
X-5495710Y-10443670D01*
X-5525924Y-10220618D01*
X-5525926Y-10220607D01*
X-5595481Y-10006539D01*
X-5595486Y-10006529D01*
X-5702149Y-9808315D01*
X-5702150Y-9808314D01*
X-5842489Y-9632336D01*
X-6012002Y-9484236D01*
X-6012008Y-9484231D01*
X-6205236Y-9368784D01*
X-6415972Y-9289694D01*
X-6415971Y-9289694D01*
X-6415975Y-9289693D01*
X-6415976Y-9289693D01*
X-6637453Y-9249500D01*
X-6806155Y-9249500D01*
X-6806157Y-9249500D01*
X-6918177Y-9259582D01*
X-6974188Y-9264623D01*
X-7132283Y-9308255D01*
X-7191170Y-9324507D01*
X-7393975Y-9422172D01*
X-7576074Y-9554474D01*
X-7731633Y-9717176D01*
X-7732494Y-9718481D01*
X-7855635Y-9905032D01*
X-7944103Y-10112012D01*
X-7994191Y-10331463D01*
X-7994191Y-10331466D01*
X-8003569Y-10540282D01*
X-8004290Y-10556330D01*
X-8855473Y-10556330D01*
X-9614193Y-9336959D01*
X-9621941Y-9324507D01*
X-9639187Y-9296787D01*
X-9836177Y-8954180D01*
X-9837381Y-8951904D01*
X-10009496Y-8597626D01*
X-10010540Y-8595272D01*
X-10157615Y-8229874D01*
X-10158492Y-8227453D01*
X-10279809Y-7852708D01*
X-10280516Y-7850233D01*
X-10375489Y-7467963D01*
X-10376023Y-7465444D01*
X-10380667Y-7439016D01*
X-10444188Y-7077503D01*
X-10444544Y-7074963D01*
X-10485576Y-6683219D01*
X-10485755Y-6680650D01*
X-10499500Y-6285714D01*
X-10499500Y6285714D01*
X-10485755Y6680650D01*
X-10485576Y6683219D01*
X-10444544Y7074963D01*
X-10444187Y7077513D01*
X-10443715Y7080199D01*
X-10376020Y7465456D01*
X-10375489Y7467963D01*
X-10280516Y7850233D01*
X-10279809Y7852708D01*
X-10158492Y8227453D01*
X-10157615Y8229874D01*
X-10010540Y8595272D01*
X-10009496Y8597626D01*
X-9837381Y8951904D01*
X-9836177Y8954180D01*
X-9639182Y9296795D01*
X-9624184Y9320899D01*
X-9624182Y9320901D01*
X-8925571Y10443670D01*
X-8004290Y10443670D01*
X-7974075Y10220613D01*
X-7904517Y10006536D01*
X-7849895Y9905032D01*
X-7797850Y9808315D01*
X-7797849Y9808314D01*
X-7725168Y9717176D01*
X-7657508Y9632334D01*
X-7487997Y9484236D01*
X-7487991Y9484231D01*
X-7294763Y9368784D01*
X-7084027Y9289694D01*
X-7084028Y9289694D01*
X-7084025Y9289693D01*
X-7084024Y9289693D01*
X-6862547Y9249500D01*
X-6862544Y9249500D01*
X-6693843Y9249500D01*
X-6525812Y9264623D01*
X-6308829Y9324507D01*
X-6106024Y9422172D01*
X-5923925Y9554474D01*
X-5768366Y9717176D01*
X-5644363Y9905034D01*
X-5555898Y10112009D01*
X-5555896Y10112014D01*
X-5505808Y10331466D01*
X-5495709Y10556321D01*
X-5495710Y10556330D01*
X-5525924Y10779381D01*
X-5525926Y10779392D01*
X-5595481Y10993460D01*
X-5595486Y10993470D01*
X-5702149Y11191684D01*
X-5702150Y11191685D01*
X-5842489Y11367663D01*
X-5882125Y11402292D01*
X-6012004Y11515765D01*
X-6012005Y11515765D01*
X-6012008Y11515768D01*
X-6205236Y11631215D01*
X-6323212Y11675492D01*
X-6415976Y11710307D01*
X-6637453Y11750500D01*
X-6806155Y11750500D01*
X-6806157Y11750500D01*
X-6829972Y11748356D01*
X-6974188Y11735377D01*
X-7191170Y11675493D01*
X-7393973Y11577829D01*
X-7576078Y11445522D01*
X-7731632Y11282825D01*
X-7855635Y11094968D01*
X-7944103Y10887988D01*
X-7994191Y10668537D01*
X-8004290Y10443670D01*
X-8925571Y10443670D01*
X-8625923Y10925248D01*
X-8624773Y10926987D01*
X-8451652Y11173137D01*
X-8449065Y11176408D01*
X-8250076Y11400726D01*
X-8247137Y11403685D01*
X-8024175Y11604213D01*
X-8020922Y11606823D01*
X-7776839Y11780997D01*
X-7773313Y11783225D01*
X-7511181Y11928854D01*
X-7507427Y11930671D01*
X-7230581Y12045900D01*
X-7226647Y12047283D01*
X-6982010Y12118086D01*
X-6938599Y12130650D01*
X-6934546Y12131579D01*
X-6786746Y12156803D01*
X-6638957Y12182024D01*
X-6634813Y12182493D01*
X-6334353Y12199441D01*
X-6332268Y12199500D01*
X-6285739Y12199500D01*
X-3202598Y12199500D01*
X-3155032Y12182187D01*
G37*
%TD.AperFunction*%
%TA.AperFunction,Conductor*%
G36*
X3024008Y-566504D02*
G01*
X3024900Y-566810D01*
X3035598Y-572316D01*
X3035748Y-572010D01*
X3041260Y-574705D01*
X3091217Y-589577D01*
X3140511Y-606500D01*
X3146561Y-607510D01*
X3146505Y-607843D01*
X3149166Y-608231D01*
X3149209Y-607894D01*
X3155288Y-608651D01*
X3155294Y-608653D01*
X3207346Y-606500D01*
X3640511Y-606500D01*
X4630357Y-606500D01*
X4645541Y-608075D01*
X4650839Y-609185D01*
X4660065Y-611120D01*
X4694851Y-606783D01*
X4699429Y-606500D01*
X4704536Y-606500D01*
X4704539Y-606500D01*
X4726420Y-602848D01*
X4778130Y-596403D01*
X4778138Y-596398D01*
X4784009Y-594652D01*
X4784106Y-594980D01*
X4786666Y-594160D01*
X4786555Y-593837D01*
X4792349Y-591847D01*
X4792357Y-591846D01*
X4830102Y-571418D01*
X4865322Y-562500D01*
X5142823Y-562500D01*
X5190389Y-579813D01*
X5198749Y-588041D01*
X5285411Y-688055D01*
X5285413Y-688057D01*
X5342925Y-725016D01*
X5400439Y-761978D01*
X5504379Y-792498D01*
X5545140Y-822510D01*
X5557074Y-871702D01*
X5534596Y-917057D01*
X5488223Y-937351D01*
X5483530Y-937500D01*
X4875003Y-937500D01*
X4850969Y-933488D01*
X4850075Y-933181D01*
X4839395Y-927683D01*
X4839247Y-927988D01*
X4833740Y-925296D01*
X4833739Y-925295D01*
X4833736Y-925294D01*
X4833734Y-925293D01*
X4783786Y-910423D01*
X4734491Y-893499D01*
X4728445Y-892491D01*
X4728500Y-892157D01*
X4725833Y-891768D01*
X4725791Y-892106D01*
X4719708Y-891347D01*
X4719707Y-891347D01*
X4719705Y-891347D01*
X4667644Y-893500D01*
X3244643Y-893500D01*
X3229458Y-891925D01*
X3214936Y-888880D01*
X3180149Y-893216D01*
X3175572Y-893500D01*
X3170454Y-893500D01*
X3148580Y-897150D01*
X3096869Y-903597D01*
X3090993Y-905347D01*
X3090896Y-905022D01*
X3088334Y-905843D01*
X3088444Y-906163D01*
X3082645Y-908153D01*
X3082644Y-908154D01*
X3082642Y-908154D01*
X3082639Y-908156D01*
X3044896Y-928581D01*
X3009677Y-937500D01*
X2736646Y-937500D01*
X2689080Y-920187D01*
X2663770Y-876350D01*
X2672560Y-826500D01*
X2684320Y-811174D01*
X2749032Y-746463D01*
X2911321Y-584174D01*
X2957198Y-562782D01*
X2963647Y-562500D01*
X2999996Y-562500D01*
X3024008Y-566504D01*
G37*
%TD.AperFunction*%
%TA.AperFunction,Conductor*%
G36*
X-1946753Y1984516D02*
G01*
X-1936387Y1973920D01*
X-1935755Y1974553D01*
X-1930600Y1969398D01*
X-1890867Y1942850D01*
X-1847740Y1914034D01*
X-1774674Y1899500D01*
X-1774672Y1899500D01*
X-923008Y1899500D01*
X-875442Y1882187D01*
X-850132Y1838350D01*
X-858922Y1788500D01*
X-861478Y1784388D01*
X-885966Y1747740D01*
X-900500Y1674674D01*
X-900500Y725326D01*
X-885966Y652260D01*
X-847694Y594981D01*
X-830601Y569399D01*
X-830600Y569398D01*
X-826243Y566487D01*
X-747740Y514034D01*
X-674674Y499500D01*
X-259018Y499500D01*
X-211452Y482187D01*
X-186142Y438350D01*
X-194932Y388500D01*
X-206692Y373174D01*
X-280692Y299174D01*
X-326568Y277782D01*
X-333018Y277500D01*
X-1074128Y277500D01*
X-1121694Y294813D01*
X-1134355Y308503D01*
X-1136925Y312103D01*
X-1227897Y403075D01*
X-1227898Y403076D01*
X-1343482Y459582D01*
X-1418418Y470500D01*
X-1761582Y470500D01*
X-1836518Y459582D01*
X-1952102Y403076D01*
X-2030178Y325000D01*
X-2047412Y307766D01*
X-2049615Y309969D01*
X-2081501Y288075D01*
X-2131885Y292946D01*
X-2151199Y309154D01*
X-2152588Y307766D01*
X-2247897Y403075D01*
X-2247898Y403076D01*
X-2363482Y459582D01*
X-2438418Y470500D01*
X-2438424Y470500D01*
X-2615982Y470500D01*
X-2663548Y487813D01*
X-2668308Y492174D01*
X-2700826Y524692D01*
X-2722218Y570568D01*
X-2722500Y577018D01*
X-2722500Y1775500D01*
X-2705187Y1823066D01*
X-2661350Y1848376D01*
X-2648500Y1849500D01*
X-2299265Y1849500D01*
X-2207824Y1863983D01*
X-2207822Y1863983D01*
X-2097608Y1920141D01*
X-2097605Y1920143D01*
X-2041523Y1976225D01*
X-1995647Y1997617D01*
X-1946753Y1984516D01*
G37*
%TD.AperFunction*%
%TA.AperFunction,Conductor*%
G36*
X5210134Y2855187D02*
G01*
X5235444Y2811350D01*
X5226654Y2761500D01*
X5218493Y2750040D01*
X5166063Y2689532D01*
X5166061Y2689530D01*
X5166060Y2689528D01*
X5113906Y2575326D01*
X5109258Y2565149D01*
X5089800Y2429809D01*
X5102693Y2340124D01*
X5092325Y2290578D01*
X5081772Y2277268D01*
X4899957Y2095452D01*
X4854081Y2074060D01*
X4826522Y2076853D01*
X4783786Y2089576D01*
X4734490Y2106500D01*
X4734489Y2106500D01*
X4728440Y2107510D01*
X4728495Y2107843D01*
X4725833Y2108231D01*
X4725791Y2107894D01*
X4719714Y2108650D01*
X4719707Y2108653D01*
X4667644Y2106500D01*
X3244643Y2106500D01*
X3229458Y2108074D01*
X3214936Y2111120D01*
X3180149Y2106783D01*
X3175572Y2106500D01*
X3170462Y2106500D01*
X3148580Y2102848D01*
X3096871Y2096403D01*
X3096869Y2096402D01*
X3096866Y2096402D01*
X3090992Y2094653D01*
X3090894Y2094981D01*
X3088337Y2094162D01*
X3088448Y2093839D01*
X3082649Y2091848D01*
X3082645Y2091846D01*
X3082644Y2091846D01*
X3044898Y2071418D01*
X3009679Y2062500D01*
X2995168Y2062500D01*
X2947602Y2079813D01*
X2922292Y2123650D01*
X2931082Y2173500D01*
X2955161Y2198753D01*
X3014585Y2236942D01*
X3014588Y2236944D01*
X3014618Y2236978D01*
X3104130Y2340282D01*
X3107595Y2344281D01*
X3108988Y2343073D01*
X3143269Y2369162D01*
X3165242Y2372500D01*
X3731281Y2372500D01*
X3824269Y2388017D01*
X3882258Y2419399D01*
X3935067Y2447977D01*
X3935068Y2447978D01*
X3935071Y2447980D01*
X3960516Y2475620D01*
X4005466Y2498889D01*
X4014957Y2499500D01*
X4359897Y2499500D01*
X4389215Y2505331D01*
X4422454Y2527540D01*
X4422457Y2527543D01*
X4444668Y2560786D01*
X4444669Y2560787D01*
X4450500Y2590101D01*
X4450499Y2798500D01*
X4467811Y2846066D01*
X4511649Y2871376D01*
X4524499Y2872500D01*
X5162568Y2872500D01*
X5210134Y2855187D01*
G37*
%TD.AperFunction*%
%TA.AperFunction,Conductor*%
G36*
X6497460Y12182014D02*
G01*
X6500355Y12181786D01*
X6941561Y12129606D01*
X6944429Y12129152D01*
X7380169Y12042547D01*
X7382993Y12041870D01*
X7810619Y11921364D01*
X7813381Y11920467D01*
X8230234Y11766810D01*
X8232918Y11765699D01*
X8636438Y11579836D01*
X8639027Y11578519D01*
X9026751Y11361582D01*
X9029221Y11360070D01*
X9399940Y11112606D01*
X9438458Y11084649D01*
X9438459Y11084648D01*
X12729461Y8696017D01*
X12747157Y8683173D01*
X12784902Y8655777D01*
X12786440Y8654598D01*
X13003947Y8478629D01*
X13006829Y8476035D01*
X13204074Y8278951D01*
X13206670Y8276070D01*
X13382208Y8059454D01*
X13384488Y8056317D01*
X13536424Y7822509D01*
X13538364Y7819151D01*
X13571921Y7753330D01*
X13578102Y7703090D01*
X13550544Y7660631D01*
X13502140Y7645819D01*
X13491566Y7647139D01*
X13474674Y7650500D01*
X13474671Y7650500D01*
X12345912Y7650500D01*
X12298346Y7667813D01*
X12289986Y7676041D01*
X12266548Y7703090D01*
X12214589Y7763055D01*
X12099561Y7836978D01*
X12050148Y7851487D01*
X11968369Y7875500D01*
X11968367Y7875500D01*
X11831633Y7875500D01*
X11831631Y7875500D01*
X11745581Y7850233D01*
X11700439Y7836978D01*
X11585411Y7763055D01*
X11495870Y7659718D01*
X11453175Y7566229D01*
X11439068Y7535339D01*
X11419610Y7400000D01*
X11439068Y7264660D01*
X11441076Y7260263D01*
X11453874Y7232239D01*
X11457885Y7181781D01*
X11428524Y7140548D01*
X11386561Y7127500D01*
X8773826Y7127500D01*
X8758641Y7129075D01*
X8756904Y7129439D01*
X8742816Y7132393D01*
X8705839Y7127783D01*
X8701262Y7127500D01*
X8695719Y7127500D01*
X8672560Y7123635D01*
X8617796Y7116809D01*
X8617794Y7116808D01*
X8611919Y7115059D01*
X8611839Y7115325D01*
X8608444Y7114238D01*
X8608535Y7113976D01*
X8602733Y7111984D01*
X8554187Y7085712D01*
X8504611Y7061476D01*
X8499619Y7057912D01*
X8499458Y7058136D01*
X8496598Y7056003D01*
X8496768Y7055786D01*
X8491929Y7052020D01*
X8454544Y7011409D01*
X8142308Y6699174D01*
X8096431Y6677782D01*
X8089982Y6677500D01*
X5787018Y6677500D01*
X5739452Y6694813D01*
X5734693Y6699174D01*
X5688827Y6745039D01*
X5667905Y6786835D01*
X5665900Y6800781D01*
X5660931Y6835342D01*
X5604130Y6959718D01*
X5514589Y7063055D01*
X5399561Y7136978D01*
X5355829Y7149818D01*
X5268369Y7175500D01*
X5268367Y7175500D01*
X5131633Y7175500D01*
X5131631Y7175500D01*
X5012597Y7140548D01*
X5000439Y7136978D01*
X4885411Y7063055D01*
X4795870Y6959718D01*
X4749639Y6858487D01*
X4739068Y6835339D01*
X4719610Y6700000D01*
X4739068Y6564660D01*
X4739069Y6564658D01*
X4781498Y6471751D01*
X4795871Y6440280D01*
X4853774Y6373455D01*
X4869604Y6355187D01*
X4885414Y6336942D01*
X5000437Y6263023D01*
X5000439Y6263021D01*
X5127669Y6225663D01*
X5159146Y6206987D01*
X5299956Y6066176D01*
X5309576Y6054330D01*
X5318422Y6040792D01*
X5318425Y6040789D01*
X5347822Y6017908D01*
X5351255Y6014877D01*
X5355182Y6010951D01*
X5355188Y6010946D01*
X5357565Y6009249D01*
X5374294Y5997304D01*
X5387789Y5986801D01*
X5417844Y5963407D01*
X5423236Y5960490D01*
X5423106Y5960250D01*
X5426283Y5958615D01*
X5426403Y5958861D01*
X5431915Y5956166D01*
X5484796Y5940423D01*
X5537009Y5922498D01*
X5543051Y5921491D01*
X5543005Y5921220D01*
X5546539Y5920705D01*
X5546574Y5920979D01*
X5552660Y5920220D01*
X5607790Y5922500D01*
X8230174Y5922500D01*
X8245359Y5920925D01*
X8261183Y5917607D01*
X8261184Y5917607D01*
X8298161Y5922216D01*
X8302740Y5922500D01*
X8308286Y5922500D01*
X8331428Y5926362D01*
X8386203Y5933190D01*
X8392079Y5934940D01*
X8392157Y5934675D01*
X8395557Y5935765D01*
X8395468Y5936025D01*
X8401268Y5938016D01*
X8449808Y5964285D01*
X8499387Y5988522D01*
X8504378Y5992086D01*
X8504538Y5991861D01*
X8507399Y5993995D01*
X8507231Y5994212D01*
X8512067Y5997976D01*
X8524012Y6010951D01*
X8549455Y6038590D01*
X8861692Y6350826D01*
X8907569Y6372218D01*
X8914018Y6372500D01*
X11825500Y6372500D01*
X11873066Y6355187D01*
X11898376Y6311350D01*
X11899500Y6298500D01*
X11899500Y6075326D01*
X11904737Y6049000D01*
X11914034Y6002259D01*
X11969398Y5919399D01*
X11969399Y5919398D01*
X12052259Y5864034D01*
X12076615Y5859189D01*
X12125326Y5849500D01*
X13290146Y5849500D01*
X13330153Y5837753D01*
X13409512Y5786753D01*
X13440168Y5746473D01*
X13437759Y5695911D01*
X13403414Y5658726D01*
X13369505Y5650500D01*
X12125326Y5650500D01*
X12052260Y5635966D01*
X12026825Y5618971D01*
X11985713Y5606500D01*
X11869642Y5606500D01*
X11854457Y5608074D01*
X11839935Y5611120D01*
X11805148Y5606783D01*
X11800571Y5606500D01*
X11795461Y5606500D01*
X11773579Y5602848D01*
X11721870Y5596403D01*
X11721868Y5596402D01*
X11721865Y5596402D01*
X11715991Y5594653D01*
X11715893Y5594981D01*
X11713336Y5594162D01*
X11713447Y5593839D01*
X11707648Y5591848D01*
X11707644Y5591846D01*
X11707643Y5591846D01*
X11688693Y5581590D01*
X11638621Y5574178D01*
X11601149Y5594344D01*
X11368499Y5826994D01*
X11358877Y5838846D01*
X11350767Y5851260D01*
X11350764Y5851265D01*
X11323085Y5872807D01*
X11319669Y5875825D01*
X11316049Y5879446D01*
X11310638Y5883308D01*
X11297998Y5892334D01*
X11275430Y5909899D01*
X11256873Y5924343D01*
X11256870Y5924343D01*
X11256868Y5924346D01*
X11251479Y5927263D01*
X11251641Y5927562D01*
X11249247Y5928794D01*
X11249098Y5928488D01*
X11243594Y5931177D01*
X11243590Y5931181D01*
X11193637Y5946052D01*
X11144341Y5962976D01*
X11144340Y5962976D01*
X11138291Y5963986D01*
X11138346Y5964319D01*
X11135684Y5964707D01*
X11135642Y5964370D01*
X11129565Y5965126D01*
X11129558Y5965129D01*
X11077495Y5962976D01*
X10159792Y5962976D01*
X10144608Y5964551D01*
X10140297Y5965454D01*
X10130084Y5967596D01*
X10095297Y5963259D01*
X10090720Y5962976D01*
X10085610Y5962976D01*
X10063728Y5959324D01*
X10012019Y5952879D01*
X10012017Y5952878D01*
X10012014Y5952878D01*
X10006140Y5951129D01*
X10006042Y5951457D01*
X10003485Y5950638D01*
X10003596Y5950315D01*
X9997795Y5948323D01*
X9997793Y5948322D01*
X9997792Y5948322D01*
X9953489Y5924346D01*
X9951950Y5923513D01*
X9905129Y5900624D01*
X9900137Y5897060D01*
X9899939Y5897336D01*
X9897782Y5895727D01*
X9897991Y5895459D01*
X9893154Y5891694D01*
X9857863Y5853358D01*
X9512562Y5508057D01*
X9173484Y5168979D01*
X9161631Y5159354D01*
X9149210Y5151240D01*
X9138760Y5137813D01*
X9130734Y5127500D01*
X9127682Y5123579D01*
X9124644Y5120139D01*
X9121029Y5116524D01*
X9108142Y5098474D01*
X9076134Y5057351D01*
X9073215Y5051957D01*
X9072917Y5052118D01*
X9071684Y5049722D01*
X9071988Y5049574D01*
X9069293Y5044061D01*
X9054423Y4994113D01*
X9037499Y4944818D01*
X9036491Y4938772D01*
X9036156Y4938827D01*
X9035768Y4936163D01*
X9036106Y4936121D01*
X9035347Y4930033D01*
X9037500Y4877970D01*
X9037500Y4041818D01*
X9020187Y3994252D01*
X8984349Y3970816D01*
X8970629Y3966788D01*
X8855601Y3892865D01*
X8766060Y3789528D01*
X8709259Y3665152D01*
X8709258Y3665149D01*
X8689800Y3529810D01*
X8709258Y3394470D01*
X8709259Y3394468D01*
X8747149Y3311500D01*
X8765708Y3270863D01*
X8769719Y3220403D01*
X8740357Y3179170D01*
X8691361Y3166457D01*
X8646069Y3187796D01*
X7758538Y4075327D01*
X6850037Y4983827D01*
X6840417Y4995676D01*
X6840091Y4996173D01*
X6831576Y5009209D01*
X6802164Y5032099D01*
X6798748Y5035116D01*
X6794814Y5039052D01*
X6775705Y5052695D01*
X6763492Y5062201D01*
X6732161Y5086588D01*
X6732158Y5086589D01*
X6732155Y5086592D01*
X6732151Y5086593D01*
X6726764Y5089508D01*
X6726897Y5089754D01*
X6723722Y5091388D01*
X6723600Y5091138D01*
X6718089Y5093832D01*
X6665193Y5109579D01*
X6612994Y5127500D01*
X6612991Y5127500D01*
X6606944Y5128510D01*
X6606989Y5128780D01*
X6603457Y5129295D01*
X6603423Y5129022D01*
X6597347Y5129778D01*
X6597340Y5129781D01*
X6542196Y5127500D01*
X4524500Y5127500D01*
X4476934Y5144813D01*
X4451624Y5188650D01*
X4450500Y5201500D01*
X4450499Y5409897D01*
X4450499Y5409899D01*
X4444669Y5439213D01*
X4431522Y5458888D01*
X4419492Y5508057D01*
X4431522Y5541110D01*
X4443612Y5559205D01*
X4444669Y5560787D01*
X4450500Y5590101D01*
X4450499Y5909898D01*
X4444669Y5939213D01*
X4437035Y5950638D01*
X4422459Y5972454D01*
X4422457Y5972457D01*
X4389213Y5994669D01*
X4359899Y6000500D01*
X3854328Y6000499D01*
X3806763Y6017812D01*
X3781453Y6061649D01*
X3790243Y6111499D01*
X3802003Y6126825D01*
X3803075Y6127897D01*
X3803076Y6127898D01*
X3859582Y6243482D01*
X3870500Y6318418D01*
X3870500Y6661582D01*
X3859582Y6736518D01*
X3803076Y6852102D01*
X3712102Y6943076D01*
X3596518Y6999582D01*
X3521582Y7010500D01*
X3078418Y7010500D01*
X3003482Y6999582D01*
X2887898Y6943076D01*
X2887897Y6943075D01*
X2882390Y6940383D01*
X2881601Y6941995D01*
X2847278Y6931000D01*
X2664830Y6931000D01*
X2617264Y6948313D01*
X2591954Y6992150D01*
X2600744Y7042000D01*
X2612504Y7057326D01*
X2703075Y7147897D01*
X2703076Y7147898D01*
X2759582Y7263482D01*
X2770500Y7338418D01*
X2770500Y7681582D01*
X2759582Y7756518D01*
X2712018Y7853809D01*
X2704500Y7886309D01*
X2704500Y8028202D01*
X2712565Y8061797D01*
X2736017Y8107825D01*
X2742876Y8151130D01*
X2750500Y8199265D01*
X2750499Y8600734D01*
X2736017Y8692175D01*
X2679859Y8802391D01*
X2592391Y8889859D01*
X2485880Y8944129D01*
X2451362Y8981145D01*
X2448712Y9031695D01*
X2479175Y9072121D01*
X2491383Y9077836D01*
X2491355Y9077894D01*
X2496518Y9080418D01*
X2612102Y9136924D01*
X2617610Y9139617D01*
X2618398Y9138004D01*
X2652722Y9149000D01*
X2847278Y9149000D01*
X2881601Y9138004D01*
X2882390Y9139617D01*
X2887897Y9136924D01*
X2887898Y9136924D01*
X2926747Y9117931D01*
X3003481Y9080418D01*
X3078413Y9069500D01*
X3078418Y9069500D01*
X3521586Y9069500D01*
X3596518Y9080418D01*
X3712102Y9136924D01*
X3803075Y9227897D01*
X3803076Y9227898D01*
X3859582Y9343482D01*
X3870500Y9418418D01*
X3870500Y9761582D01*
X3859582Y9836518D01*
X3803076Y9952102D01*
X3712102Y10043076D01*
X3596518Y10099582D01*
X3521582Y10110500D01*
X3078418Y10110500D01*
X3003482Y10099582D01*
X2887898Y10043076D01*
X2887897Y10043075D01*
X2882390Y10040383D01*
X2881601Y10041995D01*
X2847278Y10031000D01*
X2664830Y10031000D01*
X2617264Y10048313D01*
X2591954Y10092150D01*
X2600744Y10142000D01*
X2612504Y10157326D01*
X2703075Y10247897D01*
X2703076Y10247898D01*
X2759582Y10363482D01*
X2770500Y10438418D01*
X2770500Y10443671D01*
X5495709Y10443671D01*
X5525924Y10220618D01*
X5525926Y10220607D01*
X5595481Y10006539D01*
X5595486Y10006529D01*
X5702149Y9808315D01*
X5702150Y9808314D01*
X5842489Y9632336D01*
X6012002Y9484236D01*
X6012008Y9484231D01*
X6205236Y9368784D01*
X6415972Y9289694D01*
X6415971Y9289694D01*
X6415975Y9289693D01*
X6415976Y9289693D01*
X6637453Y9249500D01*
X6637456Y9249500D01*
X6806157Y9249500D01*
X6918177Y9259582D01*
X6974188Y9264623D01*
X7191170Y9324507D01*
X7393973Y9422171D01*
X7393975Y9422172D01*
X7576074Y9554474D01*
X7731633Y9717176D01*
X7855636Y9905034D01*
X7899021Y10006539D01*
X7944103Y10112012D01*
X7994191Y10331463D01*
X7998994Y10438413D01*
X8004290Y10556321D01*
X8004290Y10556330D01*
X7997116Y10609288D01*
X7974075Y10779387D01*
X7904517Y10993464D01*
X7797852Y11191681D01*
X7657508Y11367666D01*
X7487996Y11515765D01*
X7294764Y11631215D01*
X7084024Y11710307D01*
X6862547Y11750500D01*
X6693845Y11750500D01*
X6693843Y11750500D01*
X6668211Y11748192D01*
X6525812Y11735377D01*
X6308830Y11675493D01*
X6106027Y11577829D01*
X6106024Y11577827D01*
X5923925Y11445525D01*
X5768366Y11282823D01*
X5644363Y11094965D01*
X5555898Y10887990D01*
X5555896Y10887985D01*
X5505808Y10668533D01*
X5495709Y10443678D01*
X5495709Y10443671D01*
X2770500Y10443671D01*
X2770500Y10781582D01*
X2759582Y10856518D01*
X2712018Y10953809D01*
X2704500Y10986309D01*
X2704500Y11128202D01*
X2712565Y11161797D01*
X2736017Y11207825D01*
X2746608Y11274695D01*
X2750500Y11299265D01*
X2750499Y11700734D01*
X2736017Y11792175D01*
X2679859Y11902391D01*
X2592391Y11989859D01*
X2482175Y12046017D01*
X2446371Y12051688D01*
X2441807Y12052411D01*
X2397534Y12076952D01*
X2379394Y12124209D01*
X2395874Y12172070D01*
X2439263Y12198140D01*
X2453383Y12199500D01*
X6004485Y12199500D01*
X6052080Y12199500D01*
X6497460Y12182014D01*
G37*
%TD.AperFunction*%
%TA.AperFunction,Conductor*%
G36*
X162481Y12182187D02*
G01*
X187791Y12138350D01*
X179001Y12088500D01*
X148511Y12059566D01*
X86658Y12028050D01*
X-3050Y11938342D01*
X-60646Y11825304D01*
X-75500Y11731519D01*
X-75499Y11515768D01*
X-75499Y11368480D01*
X-60646Y11274695D01*
X-60645Y11274693D01*
X-30770Y11216061D01*
X-3121Y11161797D01*
X-3049Y11161657D01*
X86656Y11071951D01*
X199698Y11014353D01*
X293480Y10999500D01*
X293481Y10999500D01*
X1066376Y10999500D01*
X1113942Y10982187D01*
X1118702Y10977826D01*
X1209288Y10887239D01*
X1219211Y10874926D01*
X1224802Y10866226D01*
X1224806Y10866222D01*
X1265002Y10831391D01*
X1266933Y10829594D01*
X1278776Y10817751D01*
X1278778Y10817750D01*
X1292184Y10807713D01*
X1294238Y10806058D01*
X1334440Y10771224D01*
X1334450Y10771217D01*
X1334599Y10771150D01*
X1334679Y10771070D01*
X1338894Y10768362D01*
X1338326Y10767479D01*
X1367753Y10738502D01*
X1368362Y10738894D01*
X1370095Y10736196D01*
X1370667Y10735634D01*
X1371150Y10734599D01*
X1371217Y10734450D01*
X1371224Y10734440D01*
X1406058Y10694238D01*
X1407713Y10692184D01*
X1417750Y10678778D01*
X1417751Y10678776D01*
X1429594Y10666933D01*
X1431391Y10665002D01*
X1466222Y10624806D01*
X1466226Y10624802D01*
X1474926Y10619211D01*
X1487239Y10609288D01*
X1607826Y10488702D01*
X1629218Y10442826D01*
X1629294Y10441087D01*
X1629307Y10441088D01*
X1629500Y10438413D01*
X1640418Y10363481D01*
X1696924Y10247897D01*
X1787496Y10157326D01*
X1808888Y10111450D01*
X1795787Y10062555D01*
X1754323Y10033521D01*
X1735170Y10031000D01*
X1716044Y10031000D01*
X1668478Y10048313D01*
X1663718Y10052674D01*
X1653837Y10062555D01*
X1588342Y10128050D01*
X1475304Y10185646D01*
X1381519Y10200500D01*
X293482Y10200499D01*
X293480Y10200499D01*
X199695Y10185646D01*
X199693Y10185645D01*
X144115Y10157326D01*
X86658Y10128050D01*
X-3050Y10038342D01*
X-60646Y9925304D01*
X-75500Y9831519D01*
X-75499Y9632336D01*
X-75499Y9468480D01*
X-60646Y9374695D01*
X-60645Y9374693D01*
X-44742Y9343482D01*
X-4561Y9264623D01*
X-3049Y9261657D01*
X86656Y9171951D01*
X199698Y9114353D01*
X293480Y9099500D01*
X293481Y9099500D01*
X1381520Y9099500D01*
X1381520Y9099501D01*
X1475304Y9114353D01*
X1475305Y9114354D01*
X1527470Y9140934D01*
X1561066Y9149000D01*
X1747278Y9149000D01*
X1781601Y9138004D01*
X1782390Y9139617D01*
X1903480Y9080418D01*
X1913834Y9078909D01*
X1920649Y9077916D01*
X1965221Y9053926D01*
X1983945Y9006897D01*
X1968059Y8958836D01*
X1943574Y8938756D01*
X1909855Y8921575D01*
X1847609Y8889859D01*
X1760141Y8802391D01*
X1705373Y8694903D01*
X1668354Y8660383D01*
X1639440Y8654500D01*
X1579346Y8654500D01*
X1576707Y8654594D01*
X1563684Y8655524D01*
X1544595Y8656889D01*
X1516277Y8664768D01*
X1475304Y8685646D01*
X1475305Y8685646D01*
X1462481Y8687676D01*
X1381519Y8700500D01*
X293482Y8700499D01*
X293480Y8700499D01*
X199695Y8685646D01*
X199693Y8685645D01*
X81469Y8625406D01*
X80518Y8627271D01*
X40239Y8615717D01*
X-6006Y8636300D01*
X-28038Y8680380D01*
X-33190Y8721703D01*
X-33190Y8721704D01*
X-34940Y8727581D01*
X-34675Y8727659D01*
X-35765Y8731062D01*
X-36027Y8730973D01*
X-38016Y8736768D01*
X-64279Y8785297D01*
X-84581Y8826825D01*
X-88523Y8834889D01*
X-88524Y8834890D01*
X-92087Y8839881D01*
X-91863Y8840040D01*
X-93999Y8842903D01*
X-94216Y8842735D01*
X-97977Y8847568D01*
X-138579Y8884945D01*
X-531370Y9277736D01*
X-552762Y9323612D01*
X-544979Y9363655D01*
X-539354Y9374694D01*
X-539353Y9374696D01*
X-524500Y9468480D01*
X-524500Y9831519D01*
X-539353Y9925304D01*
X-539354Y9925306D01*
X-596950Y10038342D01*
X-686656Y10128048D01*
X-686658Y10128050D01*
X-799696Y10185646D01*
X-893481Y10200500D01*
X-1981518Y10200499D01*
X-1981519Y10200499D01*
X-2075304Y10185646D01*
X-2188342Y10128050D01*
X-2278050Y10038342D01*
X-2335646Y9925304D01*
X-2350500Y9831519D01*
X-2350499Y9632336D01*
X-2350499Y9468480D01*
X-2335646Y9374695D01*
X-2335645Y9374693D01*
X-2319742Y9343482D01*
X-2278050Y9261658D01*
X-2188342Y9171950D01*
X-2075304Y9114354D01*
X-2075302Y9114353D01*
X-2075301Y9114353D01*
X-1981520Y9099500D01*
X-1981519Y9099500D01*
X-1451517Y9099500D01*
X-1403951Y9082187D01*
X-1399191Y9077826D01*
X-1148190Y8826825D01*
X-1126798Y8780949D01*
X-1139899Y8732054D01*
X-1181363Y8703020D01*
X-1200516Y8700499D01*
X-1981520Y8700499D01*
X-2075304Y8685646D01*
X-2109963Y8667986D01*
X-2120601Y8662566D01*
X-2154197Y8654500D01*
X-2408578Y8654500D01*
X-2442171Y8662564D01*
X-2507825Y8696017D01*
X-2599265Y8710500D01*
X-3000734Y8710499D01*
X-3092175Y8696017D01*
X-3157828Y8662564D01*
X-3191422Y8654500D01*
X-3421500Y8654500D01*
X-3469066Y8671813D01*
X-3494376Y8715650D01*
X-3495500Y8728500D01*
X-3495500Y10450376D01*
X-3478187Y10497942D01*
X-3473826Y10502702D01*
X-2952702Y11023826D01*
X-2906826Y11045218D01*
X-2900376Y11045500D01*
X-2154196Y11045500D01*
X-2120601Y11037434D01*
X-2075304Y11014354D01*
X-2075303Y11014353D01*
X-1981519Y10999500D01*
X-893479Y10999500D01*
X-893480Y10999501D01*
X-799695Y11014353D01*
X-799693Y11014354D01*
X-686657Y11071950D01*
X-596951Y11161656D01*
X-539353Y11274698D01*
X-524500Y11368480D01*
X-524500Y11731519D01*
X-539353Y11825304D01*
X-539354Y11825306D01*
X-596950Y11938342D01*
X-686656Y12028048D01*
X-686658Y12028050D01*
X-748512Y12059566D01*
X-783033Y12096586D01*
X-785683Y12147135D01*
X-755219Y12187562D01*
X-714916Y12199500D01*
X114915Y12199500D01*
X162481Y12182187D01*
G37*
%TD.AperFunction*%
%TD*%
M02*
