G04 #@! TF.GenerationSoftware,KiCad,Pcbnew,7.0.9*
G04 #@! TF.CreationDate,2024-09-23T21:54:56+08:00*
G04 #@! TF.ProjectId,thingy,7468696e-6779-42e6-9b69-6361645f7063,rev?*
G04 #@! TF.SameCoordinates,Original*
G04 #@! TF.FileFunction,Copper,L2,Bot*
G04 #@! TF.FilePolarity,Positive*
%FSLAX46Y46*%
G04 Gerber Fmt 4.6, Leading zero omitted, Abs format (unit mm)*
G04 Created by KiCad (PCBNEW 7.0.9) date 2024-09-23 21:54:56*
%MOMM*%
%LPD*%
G01*
G04 APERTURE LIST*
G04 #@! TA.AperFunction,ComponentPad*
%ADD10R,1.700000X1.700000*%
G04 #@! TD*
G04 #@! TA.AperFunction,ComponentPad*
%ADD11O,1.700000X1.700000*%
G04 #@! TD*
G04 #@! TA.AperFunction,ComponentPad*
%ADD12R,0.900000X4.000000*%
G04 #@! TD*
G04 #@! TA.AperFunction,Conductor*
%ADD13C,0.635000*%
G04 #@! TD*
G04 #@! TA.AperFunction,Conductor*
%ADD14C,0.381000*%
G04 #@! TD*
G04 APERTURE END LIST*
D10*
X139975000Y-15800000D03*
D11*
X139975000Y-13260000D03*
X139975000Y-10720000D03*
X139975000Y-8180000D03*
D10*
X89850000Y1275000D03*
D11*
X89850000Y-1265000D03*
X92390000Y1275000D03*
X92390000Y-1265000D03*
X94930000Y1275000D03*
X94930000Y-1265000D03*
X97470000Y1275000D03*
X97470000Y-1265000D03*
X100010000Y1275000D03*
X100010000Y-1265000D03*
X102550000Y1275000D03*
X102550000Y-1265000D03*
X105090000Y1275000D03*
X105090000Y-1265000D03*
X107630000Y-1265000D03*
X110170000Y1275000D03*
X110170000Y-1265000D03*
D12*
X103125000Y25025000D03*
X101875000Y25025000D03*
X100625000Y25025000D03*
X99375000Y25025000D03*
X98125000Y25025000D03*
X96875000Y25025000D03*
D13*
X101875000Y7030000D02*
X101875000Y25025000D01*
X110170000Y-1265000D02*
X101875000Y7030000D01*
X111700000Y-3100000D02*
X116780000Y-8180000D01*
X111700000Y-777500D02*
X111700000Y-3100000D01*
X110170000Y1275000D02*
X110170000Y752500D01*
X116780000Y-8180000D02*
X139975000Y-8180000D01*
X110170000Y752500D02*
X111700000Y-777500D01*
X110170000Y1275000D02*
X109625000Y1275000D01*
X103125000Y7775000D02*
X103125000Y25025000D01*
X109625000Y1275000D02*
X103125000Y7775000D01*
D14*
X118900000Y-15800000D02*
X139975000Y-15800000D01*
X105090000Y-1990000D02*
X118900000Y-15800000D01*
X105090000Y-1265000D02*
X105090000Y-1990000D01*
X106330500Y34500D02*
X106330500Y-1830500D01*
X105090000Y1275000D02*
X106330500Y34500D01*
X117760000Y-13260000D02*
X139975000Y-13260000D01*
X106330500Y-1830500D02*
X117760000Y-13260000D01*
D13*
X107630000Y-1265000D02*
X117085000Y-10720000D01*
X117085000Y-10720000D02*
X139975000Y-10720000D01*
D14*
X98710500Y34500D02*
X98710500Y2289500D01*
X98710500Y2289500D02*
X96875000Y4125000D01*
X100010000Y-1265000D02*
X98710500Y34500D01*
X96875000Y4125000D02*
X96875000Y25025000D01*
X100010000Y2590000D02*
X98125000Y4475000D01*
X100010000Y1275000D02*
X100010000Y2590000D01*
X98125000Y4475000D02*
X98125000Y25025000D01*
X103790500Y2009500D02*
X100625000Y5175000D01*
X102550000Y-1265000D02*
X103790500Y-24500D01*
X103790500Y-24500D02*
X103790500Y2009500D01*
X100625000Y5175000D02*
X100625000Y25025000D01*
X102550000Y1650000D02*
X99375000Y4825000D01*
X99375000Y4825000D02*
X99375000Y25025000D01*
X102550000Y1275000D02*
X102550000Y1650000D01*
M02*
