%TF.GenerationSoftware,KiCad,Pcbnew,7.0.9*%
%TF.CreationDate,2024-09-23T21:55:01+08:00*%
%TF.ProjectId,thingy,7468696e-6779-42e6-9b69-6361645f7063,rev?*%
%TF.SameCoordinates,Original*%
%TF.FileFunction,Drillmap*%
%TF.FilePolarity,Positive*%
%FSLAX45Y45*%
G04 Gerber Fmt 4.5, Leading zero omitted, Abs format (unit mm)*
G04 Created by KiCad (PCBNEW 7.0.9) date 2024-09-23 21:55:01*
%MOMM*%
%LPD*%
G01*
G04 APERTURE LIST*
%ADD10C,0.100000*%
%ADD11C,0.200000*%
G04 APERTURE END LIST*
D10*
X10527870Y-347866D02*
G75*
G03*
X10315736Y-260000I-212130J-212134D01*
G01*
X10435003Y1074264D02*
G75*
G03*
X10522868Y862132I299997J-4D01*
G01*
X11802130Y-1622134D02*
G75*
G03*
X12014264Y-1710000I212130J212134D01*
G01*
X11577130Y-592134D02*
G75*
G03*
X11789264Y-680000I212130J212134D01*
G01*
X8937866Y327870D02*
G75*
G03*
X8850000Y115736I212134J-212130D01*
G01*
X11244997Y15736D02*
G75*
G03*
X11157132Y227868I-299997J4D01*
G01*
X9477134Y867130D02*
G75*
G03*
X9565000Y1079264I-212134J212130D01*
G01*
X11245003Y-135736D02*
G75*
G03*
X11332868Y-347868I299997J-4D01*
G01*
X10315736Y-260000D02*
X8970000Y-260000D01*
X11245000Y15736D02*
X11245000Y-135736D01*
X11789264Y-680000D02*
X14005000Y-680000D01*
X9565000Y1079264D02*
X9565000Y2600000D01*
X9665000Y2700000D02*
G75*
G03*
X9565000Y2600000I0J-100000D01*
G01*
X14005000Y-1710000D02*
X12014264Y-1710000D01*
X14105000Y-780000D02*
G75*
G03*
X14005000Y-680000I-100000J0D01*
G01*
X11802132Y-1622132D02*
X10527868Y-347868D01*
X8850000Y-140000D02*
X8850000Y115736D01*
X10435000Y2600000D02*
X10435000Y1074264D01*
X10435000Y2600000D02*
G75*
G03*
X10335000Y2700000I-100000J0D01*
G01*
X14105000Y-780000D02*
X14105000Y-1610000D01*
X11332868Y-347868D02*
X11577132Y-592132D01*
X14005000Y-1710000D02*
G75*
G03*
X14105000Y-1610000I0J100000D01*
G01*
X8850000Y-140000D02*
G75*
G03*
X8970000Y-260000I120000J0D01*
G01*
X10522868Y862132D02*
X11157132Y227868D01*
X8937868Y327868D02*
X9477132Y867132D01*
X9665000Y2700000D02*
X10335000Y2700000D01*
D11*
X9105777Y-2026484D02*
X9105777Y-1826484D01*
X9105777Y-1826484D02*
X9153396Y-1826484D01*
X9153396Y-1826484D02*
X9181967Y-1836008D01*
X9181967Y-1836008D02*
X9201015Y-1855055D01*
X9201015Y-1855055D02*
X9210539Y-1874103D01*
X9210539Y-1874103D02*
X9220063Y-1912198D01*
X9220063Y-1912198D02*
X9220063Y-1940769D01*
X9220063Y-1940769D02*
X9210539Y-1978865D01*
X9210539Y-1978865D02*
X9201015Y-1997912D01*
X9201015Y-1997912D02*
X9181967Y-2016960D01*
X9181967Y-2016960D02*
X9153396Y-2026484D01*
X9153396Y-2026484D02*
X9105777Y-2026484D01*
X9305777Y-2026484D02*
X9305777Y-1893150D01*
X9305777Y-1931246D02*
X9315301Y-1912198D01*
X9315301Y-1912198D02*
X9324824Y-1902674D01*
X9324824Y-1902674D02*
X9343872Y-1893150D01*
X9343872Y-1893150D02*
X9362920Y-1893150D01*
X9429586Y-2026484D02*
X9429586Y-1893150D01*
X9429586Y-1826484D02*
X9420063Y-1836008D01*
X9420063Y-1836008D02*
X9429586Y-1845531D01*
X9429586Y-1845531D02*
X9439110Y-1836008D01*
X9439110Y-1836008D02*
X9429586Y-1826484D01*
X9429586Y-1826484D02*
X9429586Y-1845531D01*
X9553396Y-2026484D02*
X9534348Y-2016960D01*
X9534348Y-2016960D02*
X9524824Y-1997912D01*
X9524824Y-1997912D02*
X9524824Y-1826484D01*
X9658158Y-2026484D02*
X9639110Y-2016960D01*
X9639110Y-2016960D02*
X9629586Y-1997912D01*
X9629586Y-1997912D02*
X9629586Y-1826484D01*
X9886729Y-2026484D02*
X9886729Y-1826484D01*
X9886729Y-1826484D02*
X9953396Y-1969341D01*
X9953396Y-1969341D02*
X10020063Y-1826484D01*
X10020063Y-1826484D02*
X10020063Y-2026484D01*
X10201015Y-2026484D02*
X10201015Y-1921722D01*
X10201015Y-1921722D02*
X10191491Y-1902674D01*
X10191491Y-1902674D02*
X10172444Y-1893150D01*
X10172444Y-1893150D02*
X10134348Y-1893150D01*
X10134348Y-1893150D02*
X10115301Y-1902674D01*
X10201015Y-2016960D02*
X10181967Y-2026484D01*
X10181967Y-2026484D02*
X10134348Y-2026484D01*
X10134348Y-2026484D02*
X10115301Y-2016960D01*
X10115301Y-2016960D02*
X10105777Y-1997912D01*
X10105777Y-1997912D02*
X10105777Y-1978865D01*
X10105777Y-1978865D02*
X10115301Y-1959817D01*
X10115301Y-1959817D02*
X10134348Y-1950293D01*
X10134348Y-1950293D02*
X10181967Y-1950293D01*
X10181967Y-1950293D02*
X10201015Y-1940769D01*
X10296253Y-1893150D02*
X10296253Y-2093150D01*
X10296253Y-1902674D02*
X10315301Y-1893150D01*
X10315301Y-1893150D02*
X10353396Y-1893150D01*
X10353396Y-1893150D02*
X10372444Y-1902674D01*
X10372444Y-1902674D02*
X10381967Y-1912198D01*
X10381967Y-1912198D02*
X10391491Y-1931246D01*
X10391491Y-1931246D02*
X10391491Y-1988388D01*
X10391491Y-1988388D02*
X10381967Y-2007436D01*
X10381967Y-2007436D02*
X10372444Y-2016960D01*
X10372444Y-2016960D02*
X10353396Y-2026484D01*
X10353396Y-2026484D02*
X10315301Y-2026484D01*
X10315301Y-2026484D02*
X10296253Y-2016960D01*
X10477205Y-2007436D02*
X10486729Y-2016960D01*
X10486729Y-2016960D02*
X10477205Y-2026484D01*
X10477205Y-2026484D02*
X10467682Y-2016960D01*
X10467682Y-2016960D02*
X10477205Y-2007436D01*
X10477205Y-2007436D02*
X10477205Y-2026484D01*
X10477205Y-1902674D02*
X10486729Y-1912198D01*
X10486729Y-1912198D02*
X10477205Y-1921722D01*
X10477205Y-1921722D02*
X10467682Y-1912198D01*
X10467682Y-1912198D02*
X10477205Y-1902674D01*
X10477205Y-1902674D02*
X10477205Y-1921722D01*
M02*
