G04 #@! TF.GenerationSoftware,KiCad,Pcbnew,7.0.9*
G04 #@! TF.CreationDate,2024-09-23T21:54:56+08:00*
G04 #@! TF.ProjectId,thingy,7468696e-6779-42e6-9b69-6361645f7063,rev?*
G04 #@! TF.SameCoordinates,Original*
G04 #@! TF.FileFunction,Profile,NP*
%FSLAX46Y46*%
G04 Gerber Fmt 4.6, Leading zero omitted, Abs format (unit mm)*
G04 Created by KiCad (PCBNEW 7.0.9) date 2024-09-23 21:54:56*
%MOMM*%
%LPD*%
G01*
G04 APERTURE LIST*
G04 #@! TA.AperFunction,Profile*
%ADD10C,0.100000*%
G04 #@! TD*
G04 APERTURE END LIST*
D10*
X105278699Y-3478659D02*
G75*
G03*
X103157359Y-2600000I-2121299J-2121341D01*
G01*
X104350029Y10742641D02*
G75*
G03*
X105228680Y8621320I2999971J-41D01*
G01*
X118021300Y-16221340D02*
G75*
G03*
X120142641Y-17100000I2121300J2121340D01*
G01*
X115771301Y-5921341D02*
G75*
G03*
X117892641Y-6800000I2121299J2121341D01*
G01*
X89378660Y3278700D02*
G75*
G03*
X88500000Y1157359I2121340J-2121300D01*
G01*
X112449971Y157359D02*
G75*
G03*
X111571321Y2278679I-2999971J41D01*
G01*
X94771341Y8671301D02*
G75*
G03*
X95650000Y10792641I-2121341J2121299D01*
G01*
X112450029Y-1357359D02*
G75*
G03*
X113328680Y-3478680I2999971J-41D01*
G01*
X103157359Y-2600000D02*
X89700000Y-2600000D01*
X112450000Y157359D02*
X112450000Y-1357359D01*
X117892641Y-6800000D02*
X140050000Y-6800000D01*
X95650000Y10792641D02*
X95650000Y26000000D01*
X96650000Y27000000D02*
G75*
G03*
X95650000Y26000000I0J-1000000D01*
G01*
X140050000Y-17100000D02*
X120142641Y-17100000D01*
X141050000Y-7800000D02*
G75*
G03*
X140050000Y-6800000I-1000000J0D01*
G01*
X118021320Y-16221320D02*
X105278679Y-3478679D01*
X88500000Y-1400000D02*
X88500000Y1157359D01*
X104350000Y26000000D02*
X104350000Y10742641D01*
X104350000Y26000000D02*
G75*
G03*
X103350000Y27000000I-1000000J0D01*
G01*
X141050000Y-7800000D02*
X141050000Y-16100000D01*
X113328680Y-3478680D02*
X115771321Y-5921321D01*
X140050000Y-17100000D02*
G75*
G03*
X141050000Y-16100000I0J1000000D01*
G01*
X88500000Y-1400000D02*
G75*
G03*
X89700000Y-2600000I1200000J0D01*
G01*
X105228680Y8621320D02*
X111571321Y2278679D01*
X89378680Y3278680D02*
X94771321Y8671321D01*
X96650000Y27000000D02*
X103350000Y27000000D01*
M02*
