G04 #@! TF.GenerationSoftware,KiCad,Pcbnew,7.0.9*
G04 #@! TF.CreationDate,2024-09-23T21:54:56+08:00*
G04 #@! TF.ProjectId,thingy,7468696e-6779-42e6-9b69-6361645f7063,rev?*
G04 #@! TF.SameCoordinates,Original*
G04 #@! TF.FileFunction,Copper,L1,Top*
G04 #@! TF.FilePolarity,Positive*
%FSLAX46Y46*%
G04 Gerber Fmt 4.6, Leading zero omitted, Abs format (unit mm)*
G04 Created by KiCad (PCBNEW 7.0.9) date 2024-09-23 21:54:56*
%MOMM*%
%LPD*%
G01*
G04 APERTURE LIST*
G04 #@! TA.AperFunction,ComponentPad*
%ADD10R,1.700000X1.700000*%
G04 #@! TD*
G04 #@! TA.AperFunction,ComponentPad*
%ADD11O,1.700000X1.700000*%
G04 #@! TD*
G04 #@! TA.AperFunction,ComponentPad*
%ADD12R,0.900000X4.000000*%
G04 #@! TD*
G04 #@! TA.AperFunction,Conductor*
%ADD13C,0.381000*%
G04 #@! TD*
G04 #@! TA.AperFunction,Conductor*
%ADD14C,0.635000*%
G04 #@! TD*
G04 APERTURE END LIST*
D10*
X139975000Y-15800000D03*
D11*
X139975000Y-13260000D03*
X139975000Y-10720000D03*
X139975000Y-8180000D03*
D10*
X89850000Y1275000D03*
D11*
X89850000Y-1265000D03*
X92390000Y1275000D03*
X92390000Y-1265000D03*
X94930000Y1275000D03*
X94930000Y-1265000D03*
X97470000Y1275000D03*
X97470000Y-1265000D03*
X100010000Y1275000D03*
X100010000Y-1265000D03*
X102550000Y1275000D03*
X102550000Y-1265000D03*
X105090000Y1275000D03*
X105090000Y-1265000D03*
X107630000Y-1265000D03*
X110170000Y1275000D03*
X110170000Y-1265000D03*
D12*
X103125000Y25025000D03*
X101875000Y25025000D03*
X100625000Y25025000D03*
X99375000Y25025000D03*
X98125000Y25025000D03*
X96875000Y25025000D03*
D13*
X105115000Y1250000D02*
X106355500Y9500D01*
X105115000Y-2015000D02*
X118925000Y-15825000D01*
X99400000Y4800000D02*
X99400000Y25000000D01*
D14*
X101900000Y7005000D02*
X101900000Y25000000D01*
D13*
X117785000Y-13285000D02*
X140000000Y-13285000D01*
D14*
X117110000Y-10745000D02*
X140000000Y-10745000D01*
D13*
X118925000Y-15825000D02*
X140000000Y-15825000D01*
D14*
X110195000Y-1290000D02*
X101900000Y7005000D01*
X111725000Y-3125000D02*
X116805000Y-8205000D01*
X110195000Y1250000D02*
X110195000Y727500D01*
X110195000Y727500D02*
X111725000Y-802500D01*
X103150000Y7750000D02*
X103150000Y25000000D01*
D13*
X105115000Y-1290000D02*
X105115000Y-2015000D01*
X106355500Y-1855500D02*
X117785000Y-13285000D01*
D14*
X116805000Y-8205000D02*
X140000000Y-8205000D01*
X110195000Y1250000D02*
X109650000Y1250000D01*
D13*
X106355500Y9500D02*
X106355500Y-1855500D01*
D14*
X111725000Y-802500D02*
X111725000Y-3125000D01*
X109650000Y1250000D02*
X103150000Y7750000D01*
X107655000Y-1290000D02*
X117110000Y-10745000D01*
D13*
X100035000Y2565000D02*
X98150000Y4450000D01*
X100035000Y1250000D02*
X100035000Y2565000D01*
X102575000Y-1290000D02*
X103815500Y-49500D01*
X103815500Y-49500D02*
X103815500Y1984500D01*
X102575000Y1250000D02*
X102575000Y1625000D01*
X100650000Y5150000D02*
X100650000Y25000000D01*
X98735500Y9500D02*
X98735500Y2264500D01*
X98735500Y2264500D02*
X96900000Y4100000D01*
X98150000Y4450000D02*
X98150000Y25000000D01*
X96900000Y4100000D02*
X96900000Y25000000D01*
X102575000Y1625000D02*
X99400000Y4800000D01*
X103815500Y1984500D02*
X100650000Y5150000D01*
X100035000Y-1290000D02*
X98735500Y9500D01*
M02*
