G04 #@! TF.GenerationSoftware,KiCad,Pcbnew,7.0.9*
G04 #@! TF.CreationDate,2024-09-23T21:54:56+08:00*
G04 #@! TF.ProjectId,thingy,7468696e-6779-42e6-9b69-6361645f7063,rev?*
G04 #@! TF.SameCoordinates,Original*
G04 #@! TF.FileFunction,Legend,Bot*
G04 #@! TF.FilePolarity,Positive*
%FSLAX46Y46*%
G04 Gerber Fmt 4.6, Leading zero omitted, Abs format (unit mm)*
G04 Created by KiCad (PCBNEW 7.0.9) date 2024-09-23 21:54:56*
%MOMM*%
%LPD*%
G01*
G04 APERTURE LIST*
%ADD10C,0.300000*%
%ADD11C,0.120000*%
%ADD12R,1.700000X1.700000*%
%ADD13O,1.700000X1.700000*%
%ADD14R,0.900000X4.000000*%
G04 APERTURE END LIST*
D10*
X135974061Y-16244171D02*
X136831204Y-16244171D01*
X136402632Y-14744171D02*
X136402632Y-16244171D01*
X137974061Y-16244171D02*
X137688346Y-16244171D01*
X137688346Y-16244171D02*
X137545489Y-16172742D01*
X137545489Y-16172742D02*
X137474061Y-16101314D01*
X137474061Y-16101314D02*
X137331203Y-15887028D01*
X137331203Y-15887028D02*
X137259775Y-15601314D01*
X137259775Y-15601314D02*
X137259775Y-15029885D01*
X137259775Y-15029885D02*
X137331203Y-14887028D01*
X137331203Y-14887028D02*
X137402632Y-14815600D01*
X137402632Y-14815600D02*
X137545489Y-14744171D01*
X137545489Y-14744171D02*
X137831203Y-14744171D01*
X137831203Y-14744171D02*
X137974061Y-14815600D01*
X137974061Y-14815600D02*
X138045489Y-14887028D01*
X138045489Y-14887028D02*
X138116918Y-15029885D01*
X138116918Y-15029885D02*
X138116918Y-15387028D01*
X138116918Y-15387028D02*
X138045489Y-15529885D01*
X138045489Y-15529885D02*
X137974061Y-15601314D01*
X137974061Y-15601314D02*
X137831203Y-15672742D01*
X137831203Y-15672742D02*
X137545489Y-15672742D01*
X137545489Y-15672742D02*
X137402632Y-15601314D01*
X137402632Y-15601314D02*
X137331203Y-15529885D01*
X137331203Y-15529885D02*
X137259775Y-15387028D01*
X136688346Y-12329171D02*
X136188346Y-13043457D01*
X135831203Y-12329171D02*
X135831203Y-13829171D01*
X135831203Y-13829171D02*
X136402632Y-13829171D01*
X136402632Y-13829171D02*
X136545489Y-13757742D01*
X136545489Y-13757742D02*
X136616918Y-13686314D01*
X136616918Y-13686314D02*
X136688346Y-13543457D01*
X136688346Y-13543457D02*
X136688346Y-13329171D01*
X136688346Y-13329171D02*
X136616918Y-13186314D01*
X136616918Y-13186314D02*
X136545489Y-13114885D01*
X136545489Y-13114885D02*
X136402632Y-13043457D01*
X136402632Y-13043457D02*
X135831203Y-13043457D01*
X137974061Y-13829171D02*
X137688346Y-13829171D01*
X137688346Y-13829171D02*
X137545489Y-13757742D01*
X137545489Y-13757742D02*
X137474061Y-13686314D01*
X137474061Y-13686314D02*
X137331203Y-13472028D01*
X137331203Y-13472028D02*
X137259775Y-13186314D01*
X137259775Y-13186314D02*
X137259775Y-12614885D01*
X137259775Y-12614885D02*
X137331203Y-12472028D01*
X137331203Y-12472028D02*
X137402632Y-12400600D01*
X137402632Y-12400600D02*
X137545489Y-12329171D01*
X137545489Y-12329171D02*
X137831203Y-12329171D01*
X137831203Y-12329171D02*
X137974061Y-12400600D01*
X137974061Y-12400600D02*
X138045489Y-12472028D01*
X138045489Y-12472028D02*
X138116918Y-12614885D01*
X138116918Y-12614885D02*
X138116918Y-12972028D01*
X138116918Y-12972028D02*
X138045489Y-13114885D01*
X138045489Y-13114885D02*
X137974061Y-13186314D01*
X137974061Y-13186314D02*
X137831203Y-13257742D01*
X137831203Y-13257742D02*
X137545489Y-13257742D01*
X137545489Y-13257742D02*
X137402632Y-13186314D01*
X137402632Y-13186314D02*
X137331203Y-13114885D01*
X137331203Y-13114885D02*
X137259775Y-12972028D01*
X136759775Y-11414171D02*
X136045489Y-11414171D01*
X136045489Y-11414171D02*
X135974061Y-10699885D01*
X135974061Y-10699885D02*
X136045489Y-10771314D01*
X136045489Y-10771314D02*
X136188347Y-10842742D01*
X136188347Y-10842742D02*
X136545489Y-10842742D01*
X136545489Y-10842742D02*
X136688347Y-10771314D01*
X136688347Y-10771314D02*
X136759775Y-10699885D01*
X136759775Y-10699885D02*
X136831204Y-10557028D01*
X136831204Y-10557028D02*
X136831204Y-10199885D01*
X136831204Y-10199885D02*
X136759775Y-10057028D01*
X136759775Y-10057028D02*
X136688347Y-9985600D01*
X136688347Y-9985600D02*
X136545489Y-9914171D01*
X136545489Y-9914171D02*
X136188347Y-9914171D01*
X136188347Y-9914171D02*
X136045489Y-9985600D01*
X136045489Y-9985600D02*
X135974061Y-10057028D01*
X137259775Y-11414171D02*
X137759775Y-9914171D01*
X137759775Y-9914171D02*
X138259775Y-11414171D01*
X134974060Y-8927742D02*
X134831203Y-8999171D01*
X134831203Y-8999171D02*
X134616917Y-8999171D01*
X134616917Y-8999171D02*
X134402631Y-8927742D01*
X134402631Y-8927742D02*
X134259774Y-8784885D01*
X134259774Y-8784885D02*
X134188345Y-8642028D01*
X134188345Y-8642028D02*
X134116917Y-8356314D01*
X134116917Y-8356314D02*
X134116917Y-8142028D01*
X134116917Y-8142028D02*
X134188345Y-7856314D01*
X134188345Y-7856314D02*
X134259774Y-7713457D01*
X134259774Y-7713457D02*
X134402631Y-7570600D01*
X134402631Y-7570600D02*
X134616917Y-7499171D01*
X134616917Y-7499171D02*
X134759774Y-7499171D01*
X134759774Y-7499171D02*
X134974060Y-7570600D01*
X134974060Y-7570600D02*
X135045488Y-7642028D01*
X135045488Y-7642028D02*
X135045488Y-8142028D01*
X135045488Y-8142028D02*
X134759774Y-8142028D01*
X135688345Y-7499171D02*
X135688345Y-8999171D01*
X135688345Y-8999171D02*
X136545488Y-7499171D01*
X136545488Y-7499171D02*
X136545488Y-8999171D01*
X137259774Y-7499171D02*
X137259774Y-8999171D01*
X137259774Y-8999171D02*
X137616917Y-8999171D01*
X137616917Y-8999171D02*
X137831203Y-8927742D01*
X137831203Y-8927742D02*
X137974060Y-8784885D01*
X137974060Y-8784885D02*
X138045489Y-8642028D01*
X138045489Y-8642028D02*
X138116917Y-8356314D01*
X138116917Y-8356314D02*
X138116917Y-8142028D01*
X138116917Y-8142028D02*
X138045489Y-7856314D01*
X138045489Y-7856314D02*
X137974060Y-7713457D01*
X137974060Y-7713457D02*
X137831203Y-7570600D01*
X137831203Y-7570600D02*
X137616917Y-7499171D01*
X137616917Y-7499171D02*
X137259774Y-7499171D01*
D11*
X88520000Y2605000D02*
X88520000Y1275000D01*
X89850000Y2605000D02*
X88520000Y2605000D01*
X91120000Y2605000D02*
X111500000Y2605000D01*
X91120000Y2605000D02*
X91120000Y5000D01*
X111500000Y2605000D02*
X111500000Y-2595000D01*
X88520000Y5000D02*
X88520000Y-2595000D01*
X91120000Y5000D02*
X88520000Y5000D01*
X88520000Y-2595000D02*
X111500000Y-2595000D01*
%LPC*%
D12*
X139975000Y-15800000D03*
D13*
X139975000Y-13260000D03*
X139975000Y-10720000D03*
X139975000Y-8180000D03*
D12*
X89850000Y1275000D03*
D13*
X89850000Y-1265000D03*
X92390000Y1275000D03*
X92390000Y-1265000D03*
X94930000Y1275000D03*
X94930000Y-1265000D03*
X97470000Y1275000D03*
X97470000Y-1265000D03*
X100010000Y1275000D03*
X100010000Y-1265000D03*
X102550000Y1275000D03*
X102550000Y-1265000D03*
X105090000Y1275000D03*
X105090000Y-1265000D03*
X107630000Y-1265000D03*
X110170000Y1275000D03*
X110170000Y-1265000D03*
D14*
X103125000Y25025000D03*
X101875000Y25025000D03*
X100625000Y25025000D03*
X99375000Y25025000D03*
X98125000Y25025000D03*
X96875000Y25025000D03*
%LPD*%
M02*
