M48
; DRILL file {KiCad 7.0.9} date Mon Sep 23 21:54:59 2024
; FORMAT={-:-/ absolute / metric / decimal}
; #@! TF.CreationDate,2024-09-23T21:54:59+08:00
; #@! TF.GenerationSoftware,Kicad,Pcbnew,7.0.9
; #@! TF.FileFunction,Plated,1,2,PTH
FMAT,2
METRIC
; #@! TA.AperFunction,Plated,PTH,ComponentDrill
T1C0.200
; #@! TA.AperFunction,Plated,PTH,ComponentDrill
T2C1.000
%
G90
G05
T1
X96.875Y25.025
X98.125Y25.025
X99.375Y25.025
X100.625Y25.025
X101.875Y25.025
X103.125Y25.025
T2
X89.85Y1.275
X89.85Y-1.265
X92.39Y1.275
X92.39Y-1.265
X94.93Y1.275
X94.93Y-1.265
X97.47Y1.275
X97.47Y-1.265
X100.01Y1.275
X100.01Y-1.265
X102.55Y1.275
X102.55Y-1.265
X105.09Y1.275
X105.09Y-1.265
X107.63Y-1.265
X110.17Y1.275
X110.17Y-1.265
X139.975Y-8.18
X139.975Y-10.72
X139.975Y-13.26
X139.975Y-15.8
T0
M30
