M48
; DRILL file {KiCad 7.0.9} date Wed Dec 11 14:01:52 2024
; FORMAT={-:-/ absolute / metric / decimal}
; #@! TF.CreationDate,2024-12-11T14:01:52+08:00
; #@! TF.GenerationSoftware,Kicad,Pcbnew,7.0.9
; #@! TF.FileFunction,Plated,1,4,PTH
FMAT,2
METRIC
; #@! TA.AperFunction,Plated,PTH,ViaDrill
T1C0.300
; #@! TA.AperFunction,Plated,PTH,ComponentDrill
T2C0.800
; #@! TA.AperFunction,Plated,PTH,ComponentDrill
T3C1.000
; #@! TA.AperFunction,Plated,PTH,ComponentDrill
T4C4.600
%
G90
G05
T1
X-79.0Y6.0
X-79.0Y4.0
X-77.0Y6.0
X-77.0Y4.0
X-75.2Y1.0
X-75.0Y6.0
X-75.0Y4.0
X-74.9Y-0.2
X-73.0Y6.0
X-73.0Y4.0
X-71.0Y6.0
X-70.5Y4.3
X-69.5Y3.5
X-67.6Y2.5
X-67.0Y4.0
X-65.0Y6.0
X-65.0Y4.0
X-65.0Y-2.0
X-63.0Y6.0
X-63.0Y4.0
X-61.309Y0.009
X-61.3Y-2.8
X-61.0Y6.0
X-60.9Y3.9
X-60.2Y0.0
X-59.3Y-1.8
X-59.0Y0.0
X-58.3Y-2.9
X-58.152Y3.37
X-57.0Y6.0
X-55.0Y6.0
X-55.0Y0.0
X-53.0Y-2.0
X-51.0Y6.0
X-51.0Y0.0
X-49.0Y-2.0
X-47.0Y6.0
X-43.0Y6.0
X-41.0Y4.0
X-39.0Y6.0
X-39.0Y2.0
X-34.5Y6.0
X-34.5Y2.0
X-30.5Y6.0
X-29.3Y-8.8
X-28.0Y-3.7
X-27.7Y-6.3
X-26.796Y-8.273
X-26.5Y6.0
X-26.5Y2.0
X-26.0Y-3.7
X-25.5Y-6.7
X-25.0Y-9.5
X-24.8Y-7.4
X-24.6Y-4.4
X-24.5Y4.0
X-22.5Y10.0
X-22.5Y6.0
X-22.5Y2.0
X-22.5Y-4.0
X-22.5Y-6.0
X-22.5Y-10.0
X-20.5Y12.0
X-20.5Y8.0
X-20.5Y-12.0
X-18.5Y16.0
X-18.5Y14.0
X-18.5Y10.0
X-18.5Y-14.0
X-18.5Y-16.0
X-16.5Y12.0
X-16.5Y-12.0
X-12.5Y14.0
X-12.5Y-12.0
X-12.5Y-16.0
X-12.0Y8.0
X-10.5Y16.0
X-10.5Y-14.0
X-10.5Y-18.0
X-10.0Y10.0
X-8.5Y18.0
X-8.5Y-12.0
X-8.5Y-16.0
X-8.5Y-18.0
X-8.0Y8.0
X-6.5Y20.0
X-6.5Y16.0
X-6.5Y-14.0
X-6.5Y-16.0
X-6.3Y23.0
X-6.3Y-23.0
X-5.925Y24.4
X-5.925Y21.6
X-5.925Y-21.6
X-5.925Y-24.4
X-4.9Y25.425
X-4.9Y20.575
X-4.9Y-20.575
X-4.9Y-25.425
X-4.5Y18.0
X-4.5Y-12.0
X-4.5Y-14.0
X-4.0Y8.0
X-3.5Y25.8
X-3.5Y20.2
X-3.5Y-20.2
X-3.5Y-25.8
X-2.5Y11.0
X-2.5Y-12.0
X-2.1Y25.425
X-2.1Y20.575
X-2.1Y-20.575
X-2.1Y-25.425
X-1.075Y24.4
X-1.075Y21.6
X-1.075Y-21.6
X-1.075Y-24.4
X-0.7Y23.0
X-0.7Y-23.0
X0.7Y23.0
X0.7Y-23.0
X1.075Y24.4
X1.075Y21.6
X1.075Y-21.6
X1.075Y-24.4
X2.1Y25.425
X2.1Y20.575
X2.1Y-20.575
X2.1Y-25.425
X2.3Y10.0
X3.5Y25.8
X3.5Y20.2
X3.5Y-20.2
X3.5Y-25.8
X4.9Y25.425
X4.9Y20.575
X4.9Y-20.575
X4.9Y-25.425
X5.1Y14.7
X5.9Y14.7
X5.925Y24.4
X5.925Y21.6
X5.925Y-21.6
X5.925Y-24.4
X6.3Y23.0
X6.3Y-23.0
X20.2Y3.5
X20.2Y-3.5
X20.575Y4.9
X20.575Y2.1
X20.575Y-2.1
X20.575Y-4.9
X21.6Y5.925
X21.6Y1.075
X21.6Y-1.075
X21.6Y-5.925
X23.0Y6.3
X23.0Y0.7
X23.0Y-0.7
X23.0Y-6.3
X24.4Y5.925
X24.4Y1.075
X24.4Y-1.075
X24.4Y-5.925
X25.425Y4.9
X25.425Y2.1
X25.425Y-2.1
X25.425Y-4.9
X25.8Y3.5
X25.8Y-3.5
X28.8Y3.5
X28.8Y-3.5
X29.175Y4.9
X29.175Y2.1
X29.175Y-2.1
X29.175Y-4.9
X30.2Y5.925
X30.2Y1.075
X30.2Y-1.075
X30.2Y-5.925
X31.6Y6.3
X31.6Y0.7
X31.6Y-0.7
X31.6Y-6.3
X33.0Y5.925
X33.0Y1.075
X33.0Y-1.075
X33.0Y-5.925
X34.025Y4.9
X34.025Y2.1
X34.025Y-2.1
X34.025Y-4.9
X34.4Y3.5
X34.4Y-3.5
T2
X-18.4Y6.1
X-16.8Y6.1
X-15.2Y6.1
X-13.6Y6.1
X-3.175Y14.547
X-1.905Y17.087
X-0.635Y14.547
X0.635Y17.087
X1.905Y14.547
X3.175Y17.087
X21.762Y-13.868
X25.298Y-10.332
T3
X-80.31Y-4.65
X-80.31Y-7.19
X-77.77Y-4.65
X-77.77Y-7.19
X-76.62Y-9.7
X-75.23Y-4.65
X-75.23Y-7.19
X-74.08Y-9.7
X-72.69Y-4.65
X-72.69Y-7.19
X-71.54Y-9.7
X-70.15Y-4.65
X-70.15Y-7.19
X-69.0Y-9.7
X-67.61Y-4.65
X-67.61Y-7.19
X-66.46Y-9.7
X-65.07Y-4.65
X-65.07Y-7.19
X-63.92Y-9.7
X-62.53Y-4.65
X-62.53Y-7.19
X-61.38Y-9.7
X-59.99Y-4.65
X-59.99Y-7.19
X-57.45Y-4.65
X-57.45Y-7.19
X-54.91Y-4.65
X-54.91Y-7.19
X-52.37Y-4.65
X-52.37Y-7.19
X-49.83Y-4.65
X-49.83Y-7.19
X-47.29Y-4.65
X-47.29Y-7.19
X-44.75Y-4.65
X-44.75Y-7.19
X-42.21Y-4.65
X-42.21Y-7.19
X-39.67Y-4.65
X-39.67Y-7.19
X-37.13Y-4.65
X-37.13Y-7.19
X-34.59Y-4.65
X-34.59Y-7.19
X-32.05Y-4.65
X-32.05Y-7.19
T4
X-3.475Y23.0
X-3.475Y-23.0
X3.475Y23.0
X3.475Y-23.0
X22.9Y3.475
X22.9Y-3.475
X31.5Y3.475
X31.5Y-3.475
T0
M30
