%TF.GenerationSoftware,KiCad,Pcbnew,7.0.9*%
%TF.CreationDate,2024-12-11T14:01:53+08:00*%
%TF.ProjectId,thingy,7468696e-6779-42e6-9b69-6361645f7063,rev?*%
%TF.SameCoordinates,Original*%
%TF.FileFunction,Drillmap*%
%TF.FilePolarity,Positive*%
%FSLAX45Y45*%
G04 Gerber Fmt 4.5, Leading zero omitted, Abs format (unit mm)*
G04 Created by KiCad (PCBNEW 7.0.9) date 2024-12-11 14:01:53*
%MOMM*%
%LPD*%
G01*
G04 APERTURE LIST*
%ADD10C,0.100000*%
%ADD11C,0.200000*%
%ADD12C,0.220000*%
%ADD13C,0.430000*%
G04 APERTURE END LIST*
D10*
X-1964917Y1647205D02*
X-2347002Y972937D01*
X-8160000Y-700000D02*
G75*
G03*
X-7910000Y-950000I250000J0D01*
G01*
X-7757868Y-1060711D02*
X-7839289Y-979289D01*
X-7757868Y-1060711D02*
G75*
G03*
X-7687157Y-1090000I70710J70710D01*
G01*
X-7839289Y-979289D02*
G75*
G03*
X-7910000Y-950000I-70710J-70710D01*
G01*
X-350000Y2700000D02*
G75*
G03*
X-750000Y2300000I0J-400000D01*
G01*
X-750000Y-2250000D02*
G75*
G03*
X-1150000Y-1850000I-400000J0D01*
G01*
X750000Y-2250000D02*
X750000Y-2300000D01*
X-1160000Y-700000D02*
G75*
G03*
X-1060000Y-600000I0J100000D01*
G01*
X-1160000Y-700000D02*
X-2030000Y-700000D01*
X2832843Y867157D02*
X1967157Y1732843D01*
X-8160000Y500000D02*
X-8160000Y500000D01*
X-8260000Y400000D02*
G75*
G03*
X-8160000Y500000I0J100000D01*
G01*
X1967157Y-1732843D02*
X2832843Y-867157D01*
X3150000Y-750000D02*
G75*
G03*
X3550000Y-350000I0J400000D01*
G01*
X-1616908Y1850000D02*
G75*
G03*
X-1964917Y1647205I0J-400000D01*
G01*
X-1960000Y510000D02*
X-1110000Y510000D01*
X-6059289Y-1060711D02*
X-5977868Y-979289D01*
X-750000Y2300000D02*
X-750000Y2250000D01*
X-1964917Y-1647205D02*
G75*
G03*
X-1616908Y-1850000I348009J197205D01*
G01*
X3115685Y-749997D02*
G75*
G03*
X2832843Y-867157I5J-400003D01*
G01*
X-2072707Y-1456987D02*
G75*
G03*
X-2942729Y-950000I-870022J-493013D01*
G01*
X3150000Y750000D02*
X3115685Y750000D01*
X-1150000Y-1850000D02*
X-1616908Y-1850000D01*
X-2460000Y750000D02*
G75*
G03*
X-2360000Y850000I0J100000D01*
G01*
X1684315Y1850000D02*
X1150000Y1850000D01*
X-6130000Y-1090000D02*
G75*
G03*
X-6059289Y-1060711I0J99999D01*
G01*
X350000Y-2700000D02*
G75*
G03*
X750000Y-2300000I0J400000D01*
G01*
X-2072707Y-1456987D02*
X-1964917Y-1647205D01*
X1150000Y-1850000D02*
G75*
G03*
X750000Y-2250000I0J-400000D01*
G01*
X-8160000Y-500000D02*
X-8160000Y-700000D01*
X750000Y2250000D02*
X750000Y2300000D01*
X-7687157Y-1090000D02*
X-6130000Y-1090000D01*
X-5907157Y-950000D02*
X-2942729Y-950000D01*
X-8460000Y-400000D02*
X-8260000Y-400000D01*
X350000Y2700000D02*
X-350000Y2700000D01*
X-750000Y-2300000D02*
X-750000Y-2250000D01*
X-2080000Y700000D02*
X-2060000Y700000D01*
X-8260000Y400000D02*
X-8460000Y400000D01*
X750000Y2300000D02*
G75*
G03*
X350000Y2700000I-400000J0D01*
G01*
X800000Y0D02*
G75*
G03*
X800000Y0I-800000J0D01*
G01*
X3550000Y350000D02*
G75*
G03*
X3150000Y750000I-400000J0D01*
G01*
X-2347002Y972937D02*
G75*
G03*
X-2360000Y923636I87001J-49301D01*
G01*
X-2080000Y700000D02*
G75*
G03*
X-2130000Y650000I0J-50000D01*
G01*
X350000Y-2700000D02*
X-350000Y-2700000D01*
X750000Y2250000D02*
G75*
G03*
X1150000Y1850000I400000J0D01*
G01*
X-1060000Y460000D02*
G75*
G03*
X-1110000Y510000I-50000J0D01*
G01*
X3115685Y-750000D02*
X3150000Y-750000D01*
X-2010000Y650000D02*
X-2010000Y560000D01*
X-8560000Y-300000D02*
G75*
G03*
X-8460000Y-400000I100000J0D01*
G01*
X-2010000Y560000D02*
G75*
G03*
X-1960000Y510000I50000J0D01*
G01*
X-7910000Y750000D02*
X-2460000Y750000D01*
X-2360000Y850000D02*
X-2360000Y923636D01*
X-2130000Y-600000D02*
G75*
G03*
X-2030000Y-700000I100000J0D01*
G01*
X-1060000Y460000D02*
X-1060000Y-600000D01*
X1684315Y-1850000D02*
X1150000Y-1850000D01*
X-8560000Y300000D02*
X-8560000Y-300000D01*
X-5907157Y-950000D02*
G75*
G03*
X-5977868Y-979289I0J-99999D01*
G01*
X-1150000Y1850000D02*
X-1616908Y1850000D01*
X-1150000Y1850000D02*
G75*
G03*
X-750000Y2250000I0J400000D01*
G01*
X-2130000Y-600000D02*
X-2130000Y650000D01*
X2832845Y867160D02*
G75*
G03*
X3115685Y750000I282845J282840D01*
G01*
X1684315Y-1850000D02*
G75*
G03*
X1967157Y-1732843I-1J400001D01*
G01*
X-8460000Y400000D02*
G75*
G03*
X-8560000Y300000I0J-100000D01*
G01*
X-7910000Y750000D02*
G75*
G03*
X-8160000Y500000I0J-250000D01*
G01*
X1967157Y1732843D02*
G75*
G03*
X1684315Y1850000I-282843J-282843D01*
G01*
X-8160000Y-500000D02*
G75*
G03*
X-8260000Y-400000I-100000J0D01*
G01*
X-750000Y-2300000D02*
G75*
G03*
X-350000Y-2700000I400000J0D01*
G01*
X3550000Y-350000D02*
X3550000Y350000D01*
X-2010000Y650000D02*
G75*
G03*
X-2060000Y700000I-50000J0D01*
G01*
D11*
D12*
X-785000Y1160000D02*
X-565000Y940000D01*
X-565000Y1160000D02*
X-785000Y940000D01*
X-785000Y-940000D02*
X-565000Y-1160000D01*
X-565000Y-940000D02*
X-785000Y-1160000D01*
X565000Y1160000D02*
X785000Y940000D01*
X785000Y1160000D02*
X565000Y940000D01*
X565000Y-940000D02*
X785000Y-1160000D01*
X785000Y-940000D02*
X565000Y-1160000D01*
D13*
X-1310000Y1525000D02*
G75*
G03*
X-1310000Y1525000I-215000J0D01*
G01*
X-1310000Y-1525000D02*
G75*
G03*
X-1310000Y-1525000I-215000J0D01*
G01*
X1740000Y1525000D02*
G75*
G03*
X1740000Y1525000I-215000J0D01*
G01*
X1740000Y-1525000D02*
G75*
G03*
X1740000Y-1525000I-215000J0D01*
G01*
D11*
X-8304223Y-3016484D02*
X-8304223Y-2816484D01*
X-8304223Y-2816484D02*
X-8256604Y-2816484D01*
X-8256604Y-2816484D02*
X-8228033Y-2826008D01*
X-8228033Y-2826008D02*
X-8208985Y-2845055D01*
X-8208985Y-2845055D02*
X-8199461Y-2864103D01*
X-8199461Y-2864103D02*
X-8189937Y-2902198D01*
X-8189937Y-2902198D02*
X-8189937Y-2930769D01*
X-8189937Y-2930769D02*
X-8199461Y-2968865D01*
X-8199461Y-2968865D02*
X-8208985Y-2987912D01*
X-8208985Y-2987912D02*
X-8228033Y-3006960D01*
X-8228033Y-3006960D02*
X-8256604Y-3016484D01*
X-8256604Y-3016484D02*
X-8304223Y-3016484D01*
X-8104223Y-3016484D02*
X-8104223Y-2883150D01*
X-8104223Y-2921246D02*
X-8094699Y-2902198D01*
X-8094699Y-2902198D02*
X-8085175Y-2892674D01*
X-8085175Y-2892674D02*
X-8066128Y-2883150D01*
X-8066128Y-2883150D02*
X-8047080Y-2883150D01*
X-7980414Y-3016484D02*
X-7980414Y-2883150D01*
X-7980414Y-2816484D02*
X-7989937Y-2826008D01*
X-7989937Y-2826008D02*
X-7980414Y-2835531D01*
X-7980414Y-2835531D02*
X-7970890Y-2826008D01*
X-7970890Y-2826008D02*
X-7980414Y-2816484D01*
X-7980414Y-2816484D02*
X-7980414Y-2835531D01*
X-7856604Y-3016484D02*
X-7875652Y-3006960D01*
X-7875652Y-3006960D02*
X-7885175Y-2987912D01*
X-7885175Y-2987912D02*
X-7885175Y-2816484D01*
X-7751842Y-3016484D02*
X-7770890Y-3006960D01*
X-7770890Y-3006960D02*
X-7780414Y-2987912D01*
X-7780414Y-2987912D02*
X-7780414Y-2816484D01*
X-7523271Y-3016484D02*
X-7523271Y-2816484D01*
X-7523271Y-2816484D02*
X-7456604Y-2959341D01*
X-7456604Y-2959341D02*
X-7389937Y-2816484D01*
X-7389937Y-2816484D02*
X-7389937Y-3016484D01*
X-7208985Y-3016484D02*
X-7208985Y-2911722D01*
X-7208985Y-2911722D02*
X-7218509Y-2892674D01*
X-7218509Y-2892674D02*
X-7237556Y-2883150D01*
X-7237556Y-2883150D02*
X-7275652Y-2883150D01*
X-7275652Y-2883150D02*
X-7294699Y-2892674D01*
X-7208985Y-3006960D02*
X-7228033Y-3016484D01*
X-7228033Y-3016484D02*
X-7275652Y-3016484D01*
X-7275652Y-3016484D02*
X-7294699Y-3006960D01*
X-7294699Y-3006960D02*
X-7304223Y-2987912D01*
X-7304223Y-2987912D02*
X-7304223Y-2968865D01*
X-7304223Y-2968865D02*
X-7294699Y-2949817D01*
X-7294699Y-2949817D02*
X-7275652Y-2940293D01*
X-7275652Y-2940293D02*
X-7228033Y-2940293D01*
X-7228033Y-2940293D02*
X-7208985Y-2930769D01*
X-7113747Y-2883150D02*
X-7113747Y-3083150D01*
X-7113747Y-2892674D02*
X-7094699Y-2883150D01*
X-7094699Y-2883150D02*
X-7056604Y-2883150D01*
X-7056604Y-2883150D02*
X-7037556Y-2892674D01*
X-7037556Y-2892674D02*
X-7028033Y-2902198D01*
X-7028033Y-2902198D02*
X-7018509Y-2921246D01*
X-7018509Y-2921246D02*
X-7018509Y-2978388D01*
X-7018509Y-2978388D02*
X-7028033Y-2997436D01*
X-7028033Y-2997436D02*
X-7037556Y-3006960D01*
X-7037556Y-3006960D02*
X-7056604Y-3016484D01*
X-7056604Y-3016484D02*
X-7094699Y-3016484D01*
X-7094699Y-3016484D02*
X-7113747Y-3006960D01*
X-6932794Y-2997436D02*
X-6923271Y-3006960D01*
X-6923271Y-3006960D02*
X-6932794Y-3016484D01*
X-6932794Y-3016484D02*
X-6942318Y-3006960D01*
X-6942318Y-3006960D02*
X-6932794Y-2997436D01*
X-6932794Y-2997436D02*
X-6932794Y-3016484D01*
X-6932794Y-2892674D02*
X-6923271Y-2902198D01*
X-6923271Y-2902198D02*
X-6932794Y-2911722D01*
X-6932794Y-2911722D02*
X-6942318Y-2902198D01*
X-6942318Y-2902198D02*
X-6932794Y-2892674D01*
X-6932794Y-2892674D02*
X-6932794Y-2911722D01*
X-8765000Y-3245000D02*
X-8565000Y-3445000D01*
X-8565000Y-3245000D02*
X-8765000Y-3445000D01*
X-8313747Y-3255531D02*
X-8304223Y-3246008D01*
X-8304223Y-3246008D02*
X-8285175Y-3236484D01*
X-8285175Y-3236484D02*
X-8237556Y-3236484D01*
X-8237556Y-3236484D02*
X-8218509Y-3246008D01*
X-8218509Y-3246008D02*
X-8208985Y-3255531D01*
X-8208985Y-3255531D02*
X-8199461Y-3274579D01*
X-8199461Y-3274579D02*
X-8199461Y-3293627D01*
X-8199461Y-3293627D02*
X-8208985Y-3322198D01*
X-8208985Y-3322198D02*
X-8323271Y-3436484D01*
X-8323271Y-3436484D02*
X-8199461Y-3436484D01*
X-8113747Y-3417436D02*
X-8104223Y-3426960D01*
X-8104223Y-3426960D02*
X-8113747Y-3436484D01*
X-8113747Y-3436484D02*
X-8123271Y-3426960D01*
X-8123271Y-3426960D02*
X-8113747Y-3417436D01*
X-8113747Y-3417436D02*
X-8113747Y-3436484D01*
X-8028033Y-3255531D02*
X-8018509Y-3246008D01*
X-8018509Y-3246008D02*
X-7999461Y-3236484D01*
X-7999461Y-3236484D02*
X-7951842Y-3236484D01*
X-7951842Y-3236484D02*
X-7932794Y-3246008D01*
X-7932794Y-3246008D02*
X-7923271Y-3255531D01*
X-7923271Y-3255531D02*
X-7913747Y-3274579D01*
X-7913747Y-3274579D02*
X-7913747Y-3293627D01*
X-7913747Y-3293627D02*
X-7923271Y-3322198D01*
X-7923271Y-3322198D02*
X-8037556Y-3436484D01*
X-8037556Y-3436484D02*
X-7913747Y-3436484D01*
X-7789937Y-3236484D02*
X-7770890Y-3236484D01*
X-7770890Y-3236484D02*
X-7751842Y-3246008D01*
X-7751842Y-3246008D02*
X-7742318Y-3255531D01*
X-7742318Y-3255531D02*
X-7732794Y-3274579D01*
X-7732794Y-3274579D02*
X-7723271Y-3312674D01*
X-7723271Y-3312674D02*
X-7723271Y-3360293D01*
X-7723271Y-3360293D02*
X-7732794Y-3398388D01*
X-7732794Y-3398388D02*
X-7742318Y-3417436D01*
X-7742318Y-3417436D02*
X-7751842Y-3426960D01*
X-7751842Y-3426960D02*
X-7770890Y-3436484D01*
X-7770890Y-3436484D02*
X-7789937Y-3436484D01*
X-7789937Y-3436484D02*
X-7808985Y-3426960D01*
X-7808985Y-3426960D02*
X-7818509Y-3417436D01*
X-7818509Y-3417436D02*
X-7828033Y-3398388D01*
X-7828033Y-3398388D02*
X-7837556Y-3360293D01*
X-7837556Y-3360293D02*
X-7837556Y-3312674D01*
X-7837556Y-3312674D02*
X-7828033Y-3274579D01*
X-7828033Y-3274579D02*
X-7818509Y-3255531D01*
X-7818509Y-3255531D02*
X-7808985Y-3246008D01*
X-7808985Y-3246008D02*
X-7789937Y-3236484D01*
X-7599461Y-3236484D02*
X-7580413Y-3236484D01*
X-7580413Y-3236484D02*
X-7561366Y-3246008D01*
X-7561366Y-3246008D02*
X-7551842Y-3255531D01*
X-7551842Y-3255531D02*
X-7542318Y-3274579D01*
X-7542318Y-3274579D02*
X-7532794Y-3312674D01*
X-7532794Y-3312674D02*
X-7532794Y-3360293D01*
X-7532794Y-3360293D02*
X-7542318Y-3398388D01*
X-7542318Y-3398388D02*
X-7551842Y-3417436D01*
X-7551842Y-3417436D02*
X-7561366Y-3426960D01*
X-7561366Y-3426960D02*
X-7580413Y-3436484D01*
X-7580413Y-3436484D02*
X-7599461Y-3436484D01*
X-7599461Y-3436484D02*
X-7618509Y-3426960D01*
X-7618509Y-3426960D02*
X-7628033Y-3417436D01*
X-7628033Y-3417436D02*
X-7637556Y-3398388D01*
X-7637556Y-3398388D02*
X-7647080Y-3360293D01*
X-7647080Y-3360293D02*
X-7647080Y-3312674D01*
X-7647080Y-3312674D02*
X-7637556Y-3274579D01*
X-7637556Y-3274579D02*
X-7628033Y-3255531D01*
X-7628033Y-3255531D02*
X-7618509Y-3246008D01*
X-7618509Y-3246008D02*
X-7599461Y-3236484D01*
X-7447080Y-3436484D02*
X-7447080Y-3303150D01*
X-7447080Y-3322198D02*
X-7437556Y-3312674D01*
X-7437556Y-3312674D02*
X-7418509Y-3303150D01*
X-7418509Y-3303150D02*
X-7389937Y-3303150D01*
X-7389937Y-3303150D02*
X-7370890Y-3312674D01*
X-7370890Y-3312674D02*
X-7361366Y-3331722D01*
X-7361366Y-3331722D02*
X-7361366Y-3436484D01*
X-7361366Y-3331722D02*
X-7351842Y-3312674D01*
X-7351842Y-3312674D02*
X-7332794Y-3303150D01*
X-7332794Y-3303150D02*
X-7304223Y-3303150D01*
X-7304223Y-3303150D02*
X-7285175Y-3312674D01*
X-7285175Y-3312674D02*
X-7275652Y-3331722D01*
X-7275652Y-3331722D02*
X-7275652Y-3436484D01*
X-7180413Y-3436484D02*
X-7180413Y-3303150D01*
X-7180413Y-3322198D02*
X-7170890Y-3312674D01*
X-7170890Y-3312674D02*
X-7151842Y-3303150D01*
X-7151842Y-3303150D02*
X-7123271Y-3303150D01*
X-7123271Y-3303150D02*
X-7104223Y-3312674D01*
X-7104223Y-3312674D02*
X-7094699Y-3331722D01*
X-7094699Y-3331722D02*
X-7094699Y-3436484D01*
X-7094699Y-3331722D02*
X-7085175Y-3312674D01*
X-7085175Y-3312674D02*
X-7066128Y-3303150D01*
X-7066128Y-3303150D02*
X-7037556Y-3303150D01*
X-7037556Y-3303150D02*
X-7018509Y-3312674D01*
X-7018509Y-3312674D02*
X-7008985Y-3331722D01*
X-7008985Y-3331722D02*
X-7008985Y-3436484D01*
X-6618509Y-3226960D02*
X-6789937Y-3484103D01*
X-6361366Y-3236484D02*
X-6342318Y-3236484D01*
X-6342318Y-3236484D02*
X-6323270Y-3246008D01*
X-6323270Y-3246008D02*
X-6313747Y-3255531D01*
X-6313747Y-3255531D02*
X-6304223Y-3274579D01*
X-6304223Y-3274579D02*
X-6294699Y-3312674D01*
X-6294699Y-3312674D02*
X-6294699Y-3360293D01*
X-6294699Y-3360293D02*
X-6304223Y-3398388D01*
X-6304223Y-3398388D02*
X-6313747Y-3417436D01*
X-6313747Y-3417436D02*
X-6323270Y-3426960D01*
X-6323270Y-3426960D02*
X-6342318Y-3436484D01*
X-6342318Y-3436484D02*
X-6361366Y-3436484D01*
X-6361366Y-3436484D02*
X-6380413Y-3426960D01*
X-6380413Y-3426960D02*
X-6389937Y-3417436D01*
X-6389937Y-3417436D02*
X-6399461Y-3398388D01*
X-6399461Y-3398388D02*
X-6408985Y-3360293D01*
X-6408985Y-3360293D02*
X-6408985Y-3312674D01*
X-6408985Y-3312674D02*
X-6399461Y-3274579D01*
X-6399461Y-3274579D02*
X-6389937Y-3255531D01*
X-6389937Y-3255531D02*
X-6380413Y-3246008D01*
X-6380413Y-3246008D02*
X-6361366Y-3236484D01*
X-6208985Y-3417436D02*
X-6199461Y-3426960D01*
X-6199461Y-3426960D02*
X-6208985Y-3436484D01*
X-6208985Y-3436484D02*
X-6218509Y-3426960D01*
X-6218509Y-3426960D02*
X-6208985Y-3417436D01*
X-6208985Y-3417436D02*
X-6208985Y-3436484D01*
X-6075651Y-3236484D02*
X-6056604Y-3236484D01*
X-6056604Y-3236484D02*
X-6037556Y-3246008D01*
X-6037556Y-3246008D02*
X-6028032Y-3255531D01*
X-6028032Y-3255531D02*
X-6018509Y-3274579D01*
X-6018509Y-3274579D02*
X-6008985Y-3312674D01*
X-6008985Y-3312674D02*
X-6008985Y-3360293D01*
X-6008985Y-3360293D02*
X-6018509Y-3398388D01*
X-6018509Y-3398388D02*
X-6028032Y-3417436D01*
X-6028032Y-3417436D02*
X-6037556Y-3426960D01*
X-6037556Y-3426960D02*
X-6056604Y-3436484D01*
X-6056604Y-3436484D02*
X-6075651Y-3436484D01*
X-6075651Y-3436484D02*
X-6094699Y-3426960D01*
X-6094699Y-3426960D02*
X-6104223Y-3417436D01*
X-6104223Y-3417436D02*
X-6113747Y-3398388D01*
X-6113747Y-3398388D02*
X-6123270Y-3360293D01*
X-6123270Y-3360293D02*
X-6123270Y-3312674D01*
X-6123270Y-3312674D02*
X-6113747Y-3274579D01*
X-6113747Y-3274579D02*
X-6104223Y-3255531D01*
X-6104223Y-3255531D02*
X-6094699Y-3246008D01*
X-6094699Y-3246008D02*
X-6075651Y-3236484D01*
X-5894699Y-3322198D02*
X-5913747Y-3312674D01*
X-5913747Y-3312674D02*
X-5923270Y-3303150D01*
X-5923270Y-3303150D02*
X-5932794Y-3284103D01*
X-5932794Y-3284103D02*
X-5932794Y-3274579D01*
X-5932794Y-3274579D02*
X-5923270Y-3255531D01*
X-5923270Y-3255531D02*
X-5913747Y-3246008D01*
X-5913747Y-3246008D02*
X-5894699Y-3236484D01*
X-5894699Y-3236484D02*
X-5856604Y-3236484D01*
X-5856604Y-3236484D02*
X-5837556Y-3246008D01*
X-5837556Y-3246008D02*
X-5828032Y-3255531D01*
X-5828032Y-3255531D02*
X-5818509Y-3274579D01*
X-5818509Y-3274579D02*
X-5818509Y-3284103D01*
X-5818509Y-3284103D02*
X-5828032Y-3303150D01*
X-5828032Y-3303150D02*
X-5837556Y-3312674D01*
X-5837556Y-3312674D02*
X-5856604Y-3322198D01*
X-5856604Y-3322198D02*
X-5894699Y-3322198D01*
X-5894699Y-3322198D02*
X-5913747Y-3331722D01*
X-5913747Y-3331722D02*
X-5923270Y-3341246D01*
X-5923270Y-3341246D02*
X-5932794Y-3360293D01*
X-5932794Y-3360293D02*
X-5932794Y-3398388D01*
X-5932794Y-3398388D02*
X-5923270Y-3417436D01*
X-5923270Y-3417436D02*
X-5913747Y-3426960D01*
X-5913747Y-3426960D02*
X-5894699Y-3436484D01*
X-5894699Y-3436484D02*
X-5856604Y-3436484D01*
X-5856604Y-3436484D02*
X-5837556Y-3426960D01*
X-5837556Y-3426960D02*
X-5828032Y-3417436D01*
X-5828032Y-3417436D02*
X-5818509Y-3398388D01*
X-5818509Y-3398388D02*
X-5818509Y-3360293D01*
X-5818509Y-3360293D02*
X-5828032Y-3341246D01*
X-5828032Y-3341246D02*
X-5837556Y-3331722D01*
X-5837556Y-3331722D02*
X-5856604Y-3322198D01*
X-5647080Y-3236484D02*
X-5685175Y-3236484D01*
X-5685175Y-3236484D02*
X-5704223Y-3246008D01*
X-5704223Y-3246008D02*
X-5713747Y-3255531D01*
X-5713747Y-3255531D02*
X-5732794Y-3284103D01*
X-5732794Y-3284103D02*
X-5742318Y-3322198D01*
X-5742318Y-3322198D02*
X-5742318Y-3398388D01*
X-5742318Y-3398388D02*
X-5732794Y-3417436D01*
X-5732794Y-3417436D02*
X-5723270Y-3426960D01*
X-5723270Y-3426960D02*
X-5704223Y-3436484D01*
X-5704223Y-3436484D02*
X-5666128Y-3436484D01*
X-5666128Y-3436484D02*
X-5647080Y-3426960D01*
X-5647080Y-3426960D02*
X-5637556Y-3417436D01*
X-5637556Y-3417436D02*
X-5628032Y-3398388D01*
X-5628032Y-3398388D02*
X-5628032Y-3350769D01*
X-5628032Y-3350769D02*
X-5637556Y-3331722D01*
X-5637556Y-3331722D02*
X-5647080Y-3322198D01*
X-5647080Y-3322198D02*
X-5666128Y-3312674D01*
X-5666128Y-3312674D02*
X-5704223Y-3312674D01*
X-5704223Y-3312674D02*
X-5723270Y-3322198D01*
X-5723270Y-3322198D02*
X-5732794Y-3331722D01*
X-5732794Y-3331722D02*
X-5742318Y-3350769D01*
X-5456604Y-3236484D02*
X-5494699Y-3236484D01*
X-5494699Y-3236484D02*
X-5513747Y-3246008D01*
X-5513747Y-3246008D02*
X-5523271Y-3255531D01*
X-5523271Y-3255531D02*
X-5542318Y-3284103D01*
X-5542318Y-3284103D02*
X-5551842Y-3322198D01*
X-5551842Y-3322198D02*
X-5551842Y-3398388D01*
X-5551842Y-3398388D02*
X-5542318Y-3417436D01*
X-5542318Y-3417436D02*
X-5532794Y-3426960D01*
X-5532794Y-3426960D02*
X-5513747Y-3436484D01*
X-5513747Y-3436484D02*
X-5475651Y-3436484D01*
X-5475651Y-3436484D02*
X-5456604Y-3426960D01*
X-5456604Y-3426960D02*
X-5447080Y-3417436D01*
X-5447080Y-3417436D02*
X-5437556Y-3398388D01*
X-5437556Y-3398388D02*
X-5437556Y-3350769D01*
X-5437556Y-3350769D02*
X-5447080Y-3331722D01*
X-5447080Y-3331722D02*
X-5456604Y-3322198D01*
X-5456604Y-3322198D02*
X-5475651Y-3312674D01*
X-5475651Y-3312674D02*
X-5513747Y-3312674D01*
X-5513747Y-3312674D02*
X-5532794Y-3322198D01*
X-5532794Y-3322198D02*
X-5542318Y-3331722D01*
X-5542318Y-3331722D02*
X-5551842Y-3350769D01*
X-5361366Y-3236484D02*
X-5361366Y-3274579D01*
X-5285175Y-3236484D02*
X-5285175Y-3274579D01*
X-4989937Y-3512674D02*
X-4999461Y-3503150D01*
X-4999461Y-3503150D02*
X-5018509Y-3474579D01*
X-5018509Y-3474579D02*
X-5028032Y-3455531D01*
X-5028032Y-3455531D02*
X-5037556Y-3426960D01*
X-5037556Y-3426960D02*
X-5047080Y-3379341D01*
X-5047080Y-3379341D02*
X-5047080Y-3341246D01*
X-5047080Y-3341246D02*
X-5037556Y-3293627D01*
X-5037556Y-3293627D02*
X-5028032Y-3265055D01*
X-5028032Y-3265055D02*
X-5018509Y-3246008D01*
X-5018509Y-3246008D02*
X-4999461Y-3217436D01*
X-4999461Y-3217436D02*
X-4989937Y-3207912D01*
X-4828032Y-3303150D02*
X-4828032Y-3436484D01*
X-4875651Y-3226960D02*
X-4923270Y-3369817D01*
X-4923270Y-3369817D02*
X-4799461Y-3369817D01*
X-4570889Y-3436484D02*
X-4570889Y-3236484D01*
X-4485175Y-3436484D02*
X-4485175Y-3331722D01*
X-4485175Y-3331722D02*
X-4494699Y-3312674D01*
X-4494699Y-3312674D02*
X-4513747Y-3303150D01*
X-4513747Y-3303150D02*
X-4542318Y-3303150D01*
X-4542318Y-3303150D02*
X-4561366Y-3312674D01*
X-4561366Y-3312674D02*
X-4570889Y-3322198D01*
X-4361366Y-3436484D02*
X-4380413Y-3426960D01*
X-4380413Y-3426960D02*
X-4389937Y-3417436D01*
X-4389937Y-3417436D02*
X-4399461Y-3398388D01*
X-4399461Y-3398388D02*
X-4399461Y-3341246D01*
X-4399461Y-3341246D02*
X-4389937Y-3322198D01*
X-4389937Y-3322198D02*
X-4380413Y-3312674D01*
X-4380413Y-3312674D02*
X-4361366Y-3303150D01*
X-4361366Y-3303150D02*
X-4332794Y-3303150D01*
X-4332794Y-3303150D02*
X-4313747Y-3312674D01*
X-4313747Y-3312674D02*
X-4304223Y-3322198D01*
X-4304223Y-3322198D02*
X-4294699Y-3341246D01*
X-4294699Y-3341246D02*
X-4294699Y-3398388D01*
X-4294699Y-3398388D02*
X-4304223Y-3417436D01*
X-4304223Y-3417436D02*
X-4313747Y-3426960D01*
X-4313747Y-3426960D02*
X-4332794Y-3436484D01*
X-4332794Y-3436484D02*
X-4361366Y-3436484D01*
X-4180413Y-3436484D02*
X-4199461Y-3426960D01*
X-4199461Y-3426960D02*
X-4208985Y-3407912D01*
X-4208985Y-3407912D02*
X-4208985Y-3236484D01*
X-4028032Y-3426960D02*
X-4047080Y-3436484D01*
X-4047080Y-3436484D02*
X-4085175Y-3436484D01*
X-4085175Y-3436484D02*
X-4104223Y-3426960D01*
X-4104223Y-3426960D02*
X-4113746Y-3407912D01*
X-4113746Y-3407912D02*
X-4113746Y-3331722D01*
X-4113746Y-3331722D02*
X-4104223Y-3312674D01*
X-4104223Y-3312674D02*
X-4085175Y-3303150D01*
X-4085175Y-3303150D02*
X-4047080Y-3303150D01*
X-4047080Y-3303150D02*
X-4028032Y-3312674D01*
X-4028032Y-3312674D02*
X-4018508Y-3331722D01*
X-4018508Y-3331722D02*
X-4018508Y-3350769D01*
X-4018508Y-3350769D02*
X-4113746Y-3369817D01*
X-3942318Y-3426960D02*
X-3923270Y-3436484D01*
X-3923270Y-3436484D02*
X-3885175Y-3436484D01*
X-3885175Y-3436484D02*
X-3866127Y-3426960D01*
X-3866127Y-3426960D02*
X-3856604Y-3407912D01*
X-3856604Y-3407912D02*
X-3856604Y-3398388D01*
X-3856604Y-3398388D02*
X-3866127Y-3379341D01*
X-3866127Y-3379341D02*
X-3885175Y-3369817D01*
X-3885175Y-3369817D02*
X-3913746Y-3369817D01*
X-3913746Y-3369817D02*
X-3932794Y-3360293D01*
X-3932794Y-3360293D02*
X-3942318Y-3341246D01*
X-3942318Y-3341246D02*
X-3942318Y-3331722D01*
X-3942318Y-3331722D02*
X-3932794Y-3312674D01*
X-3932794Y-3312674D02*
X-3913746Y-3303150D01*
X-3913746Y-3303150D02*
X-3885175Y-3303150D01*
X-3885175Y-3303150D02*
X-3866127Y-3312674D01*
X-3789937Y-3512674D02*
X-3780413Y-3503150D01*
X-3780413Y-3503150D02*
X-3761365Y-3474579D01*
X-3761365Y-3474579D02*
X-3751842Y-3455531D01*
X-3751842Y-3455531D02*
X-3742318Y-3426960D01*
X-3742318Y-3426960D02*
X-3732794Y-3379341D01*
X-3732794Y-3379341D02*
X-3732794Y-3341246D01*
X-3732794Y-3341246D02*
X-3742318Y-3293627D01*
X-3742318Y-3293627D02*
X-3751842Y-3265055D01*
X-3751842Y-3265055D02*
X-3761365Y-3246008D01*
X-3761365Y-3246008D02*
X-3780413Y-3217436D01*
X-3780413Y-3217436D02*
X-3789937Y-3207912D01*
X-3428032Y-3512674D02*
X-3437556Y-3503150D01*
X-3437556Y-3503150D02*
X-3456604Y-3474579D01*
X-3456604Y-3474579D02*
X-3466127Y-3455531D01*
X-3466127Y-3455531D02*
X-3475651Y-3426960D01*
X-3475651Y-3426960D02*
X-3485175Y-3379341D01*
X-3485175Y-3379341D02*
X-3485175Y-3341246D01*
X-3485175Y-3341246D02*
X-3475651Y-3293627D01*
X-3475651Y-3293627D02*
X-3466127Y-3265055D01*
X-3466127Y-3265055D02*
X-3456604Y-3246008D01*
X-3456604Y-3246008D02*
X-3437556Y-3217436D01*
X-3437556Y-3217436D02*
X-3428032Y-3207912D01*
X-3351842Y-3303150D02*
X-3351842Y-3436484D01*
X-3351842Y-3322198D02*
X-3342318Y-3312674D01*
X-3342318Y-3312674D02*
X-3323270Y-3303150D01*
X-3323270Y-3303150D02*
X-3294699Y-3303150D01*
X-3294699Y-3303150D02*
X-3275651Y-3312674D01*
X-3275651Y-3312674D02*
X-3266127Y-3331722D01*
X-3266127Y-3331722D02*
X-3266127Y-3436484D01*
X-3142318Y-3436484D02*
X-3161365Y-3426960D01*
X-3161365Y-3426960D02*
X-3170889Y-3417436D01*
X-3170889Y-3417436D02*
X-3180413Y-3398388D01*
X-3180413Y-3398388D02*
X-3180413Y-3341246D01*
X-3180413Y-3341246D02*
X-3170889Y-3322198D01*
X-3170889Y-3322198D02*
X-3161365Y-3312674D01*
X-3161365Y-3312674D02*
X-3142318Y-3303150D01*
X-3142318Y-3303150D02*
X-3113746Y-3303150D01*
X-3113746Y-3303150D02*
X-3094699Y-3312674D01*
X-3094699Y-3312674D02*
X-3085175Y-3322198D01*
X-3085175Y-3322198D02*
X-3075651Y-3341246D01*
X-3075651Y-3341246D02*
X-3075651Y-3398388D01*
X-3075651Y-3398388D02*
X-3085175Y-3417436D01*
X-3085175Y-3417436D02*
X-3094699Y-3426960D01*
X-3094699Y-3426960D02*
X-3113746Y-3436484D01*
X-3113746Y-3436484D02*
X-3142318Y-3436484D01*
X-3018508Y-3303150D02*
X-2942318Y-3303150D01*
X-2989937Y-3236484D02*
X-2989937Y-3407912D01*
X-2989937Y-3407912D02*
X-2980413Y-3426960D01*
X-2980413Y-3426960D02*
X-2961365Y-3436484D01*
X-2961365Y-3436484D02*
X-2942318Y-3436484D01*
X-2723270Y-3303150D02*
X-2723270Y-3503150D01*
X-2723270Y-3312674D02*
X-2704223Y-3303150D01*
X-2704223Y-3303150D02*
X-2666127Y-3303150D01*
X-2666127Y-3303150D02*
X-2647080Y-3312674D01*
X-2647080Y-3312674D02*
X-2637556Y-3322198D01*
X-2637556Y-3322198D02*
X-2628032Y-3341246D01*
X-2628032Y-3341246D02*
X-2628032Y-3398388D01*
X-2628032Y-3398388D02*
X-2637556Y-3417436D01*
X-2637556Y-3417436D02*
X-2647080Y-3426960D01*
X-2647080Y-3426960D02*
X-2666127Y-3436484D01*
X-2666127Y-3436484D02*
X-2704223Y-3436484D01*
X-2704223Y-3436484D02*
X-2723270Y-3426960D01*
X-2513746Y-3436484D02*
X-2532794Y-3426960D01*
X-2532794Y-3426960D02*
X-2542318Y-3407912D01*
X-2542318Y-3407912D02*
X-2542318Y-3236484D01*
X-2351842Y-3436484D02*
X-2351842Y-3331722D01*
X-2351842Y-3331722D02*
X-2361365Y-3312674D01*
X-2361365Y-3312674D02*
X-2380413Y-3303150D01*
X-2380413Y-3303150D02*
X-2418508Y-3303150D01*
X-2418508Y-3303150D02*
X-2437556Y-3312674D01*
X-2351842Y-3426960D02*
X-2370889Y-3436484D01*
X-2370889Y-3436484D02*
X-2418508Y-3436484D01*
X-2418508Y-3436484D02*
X-2437556Y-3426960D01*
X-2437556Y-3426960D02*
X-2447080Y-3407912D01*
X-2447080Y-3407912D02*
X-2447080Y-3388865D01*
X-2447080Y-3388865D02*
X-2437556Y-3369817D01*
X-2437556Y-3369817D02*
X-2418508Y-3360293D01*
X-2418508Y-3360293D02*
X-2370889Y-3360293D01*
X-2370889Y-3360293D02*
X-2351842Y-3350769D01*
X-2285175Y-3303150D02*
X-2208985Y-3303150D01*
X-2256604Y-3236484D02*
X-2256604Y-3407912D01*
X-2256604Y-3407912D02*
X-2247080Y-3426960D01*
X-2247080Y-3426960D02*
X-2228032Y-3436484D01*
X-2228032Y-3436484D02*
X-2208985Y-3436484D01*
X-2066127Y-3426960D02*
X-2085175Y-3436484D01*
X-2085175Y-3436484D02*
X-2123270Y-3436484D01*
X-2123270Y-3436484D02*
X-2142318Y-3426960D01*
X-2142318Y-3426960D02*
X-2151842Y-3407912D01*
X-2151842Y-3407912D02*
X-2151842Y-3331722D01*
X-2151842Y-3331722D02*
X-2142318Y-3312674D01*
X-2142318Y-3312674D02*
X-2123270Y-3303150D01*
X-2123270Y-3303150D02*
X-2085175Y-3303150D01*
X-2085175Y-3303150D02*
X-2066127Y-3312674D01*
X-2066127Y-3312674D02*
X-2056603Y-3331722D01*
X-2056603Y-3331722D02*
X-2056603Y-3350769D01*
X-2056603Y-3350769D02*
X-2151842Y-3369817D01*
X-1885175Y-3436484D02*
X-1885175Y-3236484D01*
X-1885175Y-3426960D02*
X-1904222Y-3436484D01*
X-1904222Y-3436484D02*
X-1942318Y-3436484D01*
X-1942318Y-3436484D02*
X-1961365Y-3426960D01*
X-1961365Y-3426960D02*
X-1970889Y-3417436D01*
X-1970889Y-3417436D02*
X-1980413Y-3398388D01*
X-1980413Y-3398388D02*
X-1980413Y-3341246D01*
X-1980413Y-3341246D02*
X-1970889Y-3322198D01*
X-1970889Y-3322198D02*
X-1961365Y-3312674D01*
X-1961365Y-3312674D02*
X-1942318Y-3303150D01*
X-1942318Y-3303150D02*
X-1904222Y-3303150D01*
X-1904222Y-3303150D02*
X-1885175Y-3312674D01*
X-1808984Y-3512674D02*
X-1799461Y-3503150D01*
X-1799461Y-3503150D02*
X-1780413Y-3474579D01*
X-1780413Y-3474579D02*
X-1770889Y-3455531D01*
X-1770889Y-3455531D02*
X-1761365Y-3426960D01*
X-1761365Y-3426960D02*
X-1751842Y-3379341D01*
X-1751842Y-3379341D02*
X-1751842Y-3341246D01*
X-1751842Y-3341246D02*
X-1761365Y-3293627D01*
X-1761365Y-3293627D02*
X-1770889Y-3265055D01*
X-1770889Y-3265055D02*
X-1780413Y-3246008D01*
X-1780413Y-3246008D02*
X-1799461Y-3217436D01*
X-1799461Y-3217436D02*
X-1808984Y-3207912D01*
X-8565000Y-3665000D02*
G75*
G03*
X-8565000Y-3665000I-100000J0D01*
G01*
X-8218509Y-3623150D02*
X-8218509Y-3756484D01*
X-8266128Y-3546960D02*
X-8313747Y-3689817D01*
X-8313747Y-3689817D02*
X-8189937Y-3689817D01*
X-8113747Y-3737436D02*
X-8104223Y-3746960D01*
X-8104223Y-3746960D02*
X-8113747Y-3756484D01*
X-8113747Y-3756484D02*
X-8123271Y-3746960D01*
X-8123271Y-3746960D02*
X-8113747Y-3737436D01*
X-8113747Y-3737436D02*
X-8113747Y-3756484D01*
X-8037556Y-3556484D02*
X-7913747Y-3556484D01*
X-7913747Y-3556484D02*
X-7980414Y-3632674D01*
X-7980414Y-3632674D02*
X-7951842Y-3632674D01*
X-7951842Y-3632674D02*
X-7932794Y-3642198D01*
X-7932794Y-3642198D02*
X-7923271Y-3651722D01*
X-7923271Y-3651722D02*
X-7913747Y-3670769D01*
X-7913747Y-3670769D02*
X-7913747Y-3718388D01*
X-7913747Y-3718388D02*
X-7923271Y-3737436D01*
X-7923271Y-3737436D02*
X-7932794Y-3746960D01*
X-7932794Y-3746960D02*
X-7951842Y-3756484D01*
X-7951842Y-3756484D02*
X-8008985Y-3756484D01*
X-8008985Y-3756484D02*
X-8028033Y-3746960D01*
X-8028033Y-3746960D02*
X-8037556Y-3737436D01*
X-7789937Y-3556484D02*
X-7770890Y-3556484D01*
X-7770890Y-3556484D02*
X-7751842Y-3566008D01*
X-7751842Y-3566008D02*
X-7742318Y-3575531D01*
X-7742318Y-3575531D02*
X-7732794Y-3594579D01*
X-7732794Y-3594579D02*
X-7723271Y-3632674D01*
X-7723271Y-3632674D02*
X-7723271Y-3680293D01*
X-7723271Y-3680293D02*
X-7732794Y-3718388D01*
X-7732794Y-3718388D02*
X-7742318Y-3737436D01*
X-7742318Y-3737436D02*
X-7751842Y-3746960D01*
X-7751842Y-3746960D02*
X-7770890Y-3756484D01*
X-7770890Y-3756484D02*
X-7789937Y-3756484D01*
X-7789937Y-3756484D02*
X-7808985Y-3746960D01*
X-7808985Y-3746960D02*
X-7818509Y-3737436D01*
X-7818509Y-3737436D02*
X-7828033Y-3718388D01*
X-7828033Y-3718388D02*
X-7837556Y-3680293D01*
X-7837556Y-3680293D02*
X-7837556Y-3632674D01*
X-7837556Y-3632674D02*
X-7828033Y-3594579D01*
X-7828033Y-3594579D02*
X-7818509Y-3575531D01*
X-7818509Y-3575531D02*
X-7808985Y-3566008D01*
X-7808985Y-3566008D02*
X-7789937Y-3556484D01*
X-7599461Y-3556484D02*
X-7580413Y-3556484D01*
X-7580413Y-3556484D02*
X-7561366Y-3566008D01*
X-7561366Y-3566008D02*
X-7551842Y-3575531D01*
X-7551842Y-3575531D02*
X-7542318Y-3594579D01*
X-7542318Y-3594579D02*
X-7532794Y-3632674D01*
X-7532794Y-3632674D02*
X-7532794Y-3680293D01*
X-7532794Y-3680293D02*
X-7542318Y-3718388D01*
X-7542318Y-3718388D02*
X-7551842Y-3737436D01*
X-7551842Y-3737436D02*
X-7561366Y-3746960D01*
X-7561366Y-3746960D02*
X-7580413Y-3756484D01*
X-7580413Y-3756484D02*
X-7599461Y-3756484D01*
X-7599461Y-3756484D02*
X-7618509Y-3746960D01*
X-7618509Y-3746960D02*
X-7628033Y-3737436D01*
X-7628033Y-3737436D02*
X-7637556Y-3718388D01*
X-7637556Y-3718388D02*
X-7647080Y-3680293D01*
X-7647080Y-3680293D02*
X-7647080Y-3632674D01*
X-7647080Y-3632674D02*
X-7637556Y-3594579D01*
X-7637556Y-3594579D02*
X-7628033Y-3575531D01*
X-7628033Y-3575531D02*
X-7618509Y-3566008D01*
X-7618509Y-3566008D02*
X-7599461Y-3556484D01*
X-7447080Y-3756484D02*
X-7447080Y-3623150D01*
X-7447080Y-3642198D02*
X-7437556Y-3632674D01*
X-7437556Y-3632674D02*
X-7418509Y-3623150D01*
X-7418509Y-3623150D02*
X-7389937Y-3623150D01*
X-7389937Y-3623150D02*
X-7370890Y-3632674D01*
X-7370890Y-3632674D02*
X-7361366Y-3651722D01*
X-7361366Y-3651722D02*
X-7361366Y-3756484D01*
X-7361366Y-3651722D02*
X-7351842Y-3632674D01*
X-7351842Y-3632674D02*
X-7332794Y-3623150D01*
X-7332794Y-3623150D02*
X-7304223Y-3623150D01*
X-7304223Y-3623150D02*
X-7285175Y-3632674D01*
X-7285175Y-3632674D02*
X-7275652Y-3651722D01*
X-7275652Y-3651722D02*
X-7275652Y-3756484D01*
X-7180413Y-3756484D02*
X-7180413Y-3623150D01*
X-7180413Y-3642198D02*
X-7170890Y-3632674D01*
X-7170890Y-3632674D02*
X-7151842Y-3623150D01*
X-7151842Y-3623150D02*
X-7123271Y-3623150D01*
X-7123271Y-3623150D02*
X-7104223Y-3632674D01*
X-7104223Y-3632674D02*
X-7094699Y-3651722D01*
X-7094699Y-3651722D02*
X-7094699Y-3756484D01*
X-7094699Y-3651722D02*
X-7085175Y-3632674D01*
X-7085175Y-3632674D02*
X-7066128Y-3623150D01*
X-7066128Y-3623150D02*
X-7037556Y-3623150D01*
X-7037556Y-3623150D02*
X-7018509Y-3632674D01*
X-7018509Y-3632674D02*
X-7008985Y-3651722D01*
X-7008985Y-3651722D02*
X-7008985Y-3756484D01*
X-6618509Y-3546960D02*
X-6789937Y-3804103D01*
X-6361366Y-3556484D02*
X-6342318Y-3556484D01*
X-6342318Y-3556484D02*
X-6323270Y-3566008D01*
X-6323270Y-3566008D02*
X-6313747Y-3575531D01*
X-6313747Y-3575531D02*
X-6304223Y-3594579D01*
X-6304223Y-3594579D02*
X-6294699Y-3632674D01*
X-6294699Y-3632674D02*
X-6294699Y-3680293D01*
X-6294699Y-3680293D02*
X-6304223Y-3718388D01*
X-6304223Y-3718388D02*
X-6313747Y-3737436D01*
X-6313747Y-3737436D02*
X-6323270Y-3746960D01*
X-6323270Y-3746960D02*
X-6342318Y-3756484D01*
X-6342318Y-3756484D02*
X-6361366Y-3756484D01*
X-6361366Y-3756484D02*
X-6380413Y-3746960D01*
X-6380413Y-3746960D02*
X-6389937Y-3737436D01*
X-6389937Y-3737436D02*
X-6399461Y-3718388D01*
X-6399461Y-3718388D02*
X-6408985Y-3680293D01*
X-6408985Y-3680293D02*
X-6408985Y-3632674D01*
X-6408985Y-3632674D02*
X-6399461Y-3594579D01*
X-6399461Y-3594579D02*
X-6389937Y-3575531D01*
X-6389937Y-3575531D02*
X-6380413Y-3566008D01*
X-6380413Y-3566008D02*
X-6361366Y-3556484D01*
X-6208985Y-3737436D02*
X-6199461Y-3746960D01*
X-6199461Y-3746960D02*
X-6208985Y-3756484D01*
X-6208985Y-3756484D02*
X-6218509Y-3746960D01*
X-6218509Y-3746960D02*
X-6208985Y-3737436D01*
X-6208985Y-3737436D02*
X-6208985Y-3756484D01*
X-6008985Y-3756484D02*
X-6123270Y-3756484D01*
X-6066128Y-3756484D02*
X-6066128Y-3556484D01*
X-6066128Y-3556484D02*
X-6085175Y-3585055D01*
X-6085175Y-3585055D02*
X-6104223Y-3604103D01*
X-6104223Y-3604103D02*
X-6123270Y-3613627D01*
X-5837556Y-3556484D02*
X-5875651Y-3556484D01*
X-5875651Y-3556484D02*
X-5894699Y-3566008D01*
X-5894699Y-3566008D02*
X-5904223Y-3575531D01*
X-5904223Y-3575531D02*
X-5923270Y-3604103D01*
X-5923270Y-3604103D02*
X-5932794Y-3642198D01*
X-5932794Y-3642198D02*
X-5932794Y-3718388D01*
X-5932794Y-3718388D02*
X-5923270Y-3737436D01*
X-5923270Y-3737436D02*
X-5913747Y-3746960D01*
X-5913747Y-3746960D02*
X-5894699Y-3756484D01*
X-5894699Y-3756484D02*
X-5856604Y-3756484D01*
X-5856604Y-3756484D02*
X-5837556Y-3746960D01*
X-5837556Y-3746960D02*
X-5828032Y-3737436D01*
X-5828032Y-3737436D02*
X-5818509Y-3718388D01*
X-5818509Y-3718388D02*
X-5818509Y-3670769D01*
X-5818509Y-3670769D02*
X-5828032Y-3651722D01*
X-5828032Y-3651722D02*
X-5837556Y-3642198D01*
X-5837556Y-3642198D02*
X-5856604Y-3632674D01*
X-5856604Y-3632674D02*
X-5894699Y-3632674D01*
X-5894699Y-3632674D02*
X-5913747Y-3642198D01*
X-5913747Y-3642198D02*
X-5923270Y-3651722D01*
X-5923270Y-3651722D02*
X-5932794Y-3670769D01*
X-5723270Y-3756484D02*
X-5685175Y-3756484D01*
X-5685175Y-3756484D02*
X-5666128Y-3746960D01*
X-5666128Y-3746960D02*
X-5656604Y-3737436D01*
X-5656604Y-3737436D02*
X-5637556Y-3708865D01*
X-5637556Y-3708865D02*
X-5628032Y-3670769D01*
X-5628032Y-3670769D02*
X-5628032Y-3594579D01*
X-5628032Y-3594579D02*
X-5637556Y-3575531D01*
X-5637556Y-3575531D02*
X-5647080Y-3566008D01*
X-5647080Y-3566008D02*
X-5666128Y-3556484D01*
X-5666128Y-3556484D02*
X-5704223Y-3556484D01*
X-5704223Y-3556484D02*
X-5723270Y-3566008D01*
X-5723270Y-3566008D02*
X-5732794Y-3575531D01*
X-5732794Y-3575531D02*
X-5742318Y-3594579D01*
X-5742318Y-3594579D02*
X-5742318Y-3642198D01*
X-5742318Y-3642198D02*
X-5732794Y-3661246D01*
X-5732794Y-3661246D02*
X-5723270Y-3670769D01*
X-5723270Y-3670769D02*
X-5704223Y-3680293D01*
X-5704223Y-3680293D02*
X-5666128Y-3680293D01*
X-5666128Y-3680293D02*
X-5647080Y-3670769D01*
X-5647080Y-3670769D02*
X-5637556Y-3661246D01*
X-5637556Y-3661246D02*
X-5628032Y-3642198D01*
X-5561366Y-3556484D02*
X-5437556Y-3556484D01*
X-5437556Y-3556484D02*
X-5504223Y-3632674D01*
X-5504223Y-3632674D02*
X-5475651Y-3632674D01*
X-5475651Y-3632674D02*
X-5456604Y-3642198D01*
X-5456604Y-3642198D02*
X-5447080Y-3651722D01*
X-5447080Y-3651722D02*
X-5437556Y-3670769D01*
X-5437556Y-3670769D02*
X-5437556Y-3718388D01*
X-5437556Y-3718388D02*
X-5447080Y-3737436D01*
X-5447080Y-3737436D02*
X-5456604Y-3746960D01*
X-5456604Y-3746960D02*
X-5475651Y-3756484D01*
X-5475651Y-3756484D02*
X-5532794Y-3756484D01*
X-5532794Y-3756484D02*
X-5551842Y-3746960D01*
X-5551842Y-3746960D02*
X-5561366Y-3737436D01*
X-5361366Y-3556484D02*
X-5361366Y-3594579D01*
X-5285175Y-3556484D02*
X-5285175Y-3594579D01*
X-4989937Y-3832674D02*
X-4999461Y-3823150D01*
X-4999461Y-3823150D02*
X-5018509Y-3794579D01*
X-5018509Y-3794579D02*
X-5028032Y-3775531D01*
X-5028032Y-3775531D02*
X-5037556Y-3746960D01*
X-5037556Y-3746960D02*
X-5047080Y-3699341D01*
X-5047080Y-3699341D02*
X-5047080Y-3661246D01*
X-5047080Y-3661246D02*
X-5037556Y-3613627D01*
X-5037556Y-3613627D02*
X-5028032Y-3585055D01*
X-5028032Y-3585055D02*
X-5018509Y-3566008D01*
X-5018509Y-3566008D02*
X-4999461Y-3537436D01*
X-4999461Y-3537436D02*
X-4989937Y-3527912D01*
X-4828032Y-3623150D02*
X-4828032Y-3756484D01*
X-4875651Y-3546960D02*
X-4923270Y-3689817D01*
X-4923270Y-3689817D02*
X-4799461Y-3689817D01*
X-4570889Y-3756484D02*
X-4570889Y-3556484D01*
X-4485175Y-3756484D02*
X-4485175Y-3651722D01*
X-4485175Y-3651722D02*
X-4494699Y-3632674D01*
X-4494699Y-3632674D02*
X-4513747Y-3623150D01*
X-4513747Y-3623150D02*
X-4542318Y-3623150D01*
X-4542318Y-3623150D02*
X-4561366Y-3632674D01*
X-4561366Y-3632674D02*
X-4570889Y-3642198D01*
X-4361366Y-3756484D02*
X-4380413Y-3746960D01*
X-4380413Y-3746960D02*
X-4389937Y-3737436D01*
X-4389937Y-3737436D02*
X-4399461Y-3718388D01*
X-4399461Y-3718388D02*
X-4399461Y-3661246D01*
X-4399461Y-3661246D02*
X-4389937Y-3642198D01*
X-4389937Y-3642198D02*
X-4380413Y-3632674D01*
X-4380413Y-3632674D02*
X-4361366Y-3623150D01*
X-4361366Y-3623150D02*
X-4332794Y-3623150D01*
X-4332794Y-3623150D02*
X-4313747Y-3632674D01*
X-4313747Y-3632674D02*
X-4304223Y-3642198D01*
X-4304223Y-3642198D02*
X-4294699Y-3661246D01*
X-4294699Y-3661246D02*
X-4294699Y-3718388D01*
X-4294699Y-3718388D02*
X-4304223Y-3737436D01*
X-4304223Y-3737436D02*
X-4313747Y-3746960D01*
X-4313747Y-3746960D02*
X-4332794Y-3756484D01*
X-4332794Y-3756484D02*
X-4361366Y-3756484D01*
X-4180413Y-3756484D02*
X-4199461Y-3746960D01*
X-4199461Y-3746960D02*
X-4208985Y-3727912D01*
X-4208985Y-3727912D02*
X-4208985Y-3556484D01*
X-4028032Y-3746960D02*
X-4047080Y-3756484D01*
X-4047080Y-3756484D02*
X-4085175Y-3756484D01*
X-4085175Y-3756484D02*
X-4104223Y-3746960D01*
X-4104223Y-3746960D02*
X-4113746Y-3727912D01*
X-4113746Y-3727912D02*
X-4113746Y-3651722D01*
X-4113746Y-3651722D02*
X-4104223Y-3632674D01*
X-4104223Y-3632674D02*
X-4085175Y-3623150D01*
X-4085175Y-3623150D02*
X-4047080Y-3623150D01*
X-4047080Y-3623150D02*
X-4028032Y-3632674D01*
X-4028032Y-3632674D02*
X-4018508Y-3651722D01*
X-4018508Y-3651722D02*
X-4018508Y-3670769D01*
X-4018508Y-3670769D02*
X-4113746Y-3689817D01*
X-3942318Y-3746960D02*
X-3923270Y-3756484D01*
X-3923270Y-3756484D02*
X-3885175Y-3756484D01*
X-3885175Y-3756484D02*
X-3866127Y-3746960D01*
X-3866127Y-3746960D02*
X-3856604Y-3727912D01*
X-3856604Y-3727912D02*
X-3856604Y-3718388D01*
X-3856604Y-3718388D02*
X-3866127Y-3699341D01*
X-3866127Y-3699341D02*
X-3885175Y-3689817D01*
X-3885175Y-3689817D02*
X-3913746Y-3689817D01*
X-3913746Y-3689817D02*
X-3932794Y-3680293D01*
X-3932794Y-3680293D02*
X-3942318Y-3661246D01*
X-3942318Y-3661246D02*
X-3942318Y-3651722D01*
X-3942318Y-3651722D02*
X-3932794Y-3632674D01*
X-3932794Y-3632674D02*
X-3913746Y-3623150D01*
X-3913746Y-3623150D02*
X-3885175Y-3623150D01*
X-3885175Y-3623150D02*
X-3866127Y-3632674D01*
X-3789937Y-3832674D02*
X-3780413Y-3823150D01*
X-3780413Y-3823150D02*
X-3761365Y-3794579D01*
X-3761365Y-3794579D02*
X-3751842Y-3775531D01*
X-3751842Y-3775531D02*
X-3742318Y-3746960D01*
X-3742318Y-3746960D02*
X-3732794Y-3699341D01*
X-3732794Y-3699341D02*
X-3732794Y-3661246D01*
X-3732794Y-3661246D02*
X-3742318Y-3613627D01*
X-3742318Y-3613627D02*
X-3751842Y-3585055D01*
X-3751842Y-3585055D02*
X-3761365Y-3566008D01*
X-3761365Y-3566008D02*
X-3780413Y-3537436D01*
X-3780413Y-3537436D02*
X-3789937Y-3527912D01*
X-3428032Y-3832674D02*
X-3437556Y-3823150D01*
X-3437556Y-3823150D02*
X-3456604Y-3794579D01*
X-3456604Y-3794579D02*
X-3466127Y-3775531D01*
X-3466127Y-3775531D02*
X-3475651Y-3746960D01*
X-3475651Y-3746960D02*
X-3485175Y-3699341D01*
X-3485175Y-3699341D02*
X-3485175Y-3661246D01*
X-3485175Y-3661246D02*
X-3475651Y-3613627D01*
X-3475651Y-3613627D02*
X-3466127Y-3585055D01*
X-3466127Y-3585055D02*
X-3456604Y-3566008D01*
X-3456604Y-3566008D02*
X-3437556Y-3537436D01*
X-3437556Y-3537436D02*
X-3428032Y-3527912D01*
X-3351842Y-3623150D02*
X-3351842Y-3756484D01*
X-3351842Y-3642198D02*
X-3342318Y-3632674D01*
X-3342318Y-3632674D02*
X-3323270Y-3623150D01*
X-3323270Y-3623150D02*
X-3294699Y-3623150D01*
X-3294699Y-3623150D02*
X-3275651Y-3632674D01*
X-3275651Y-3632674D02*
X-3266127Y-3651722D01*
X-3266127Y-3651722D02*
X-3266127Y-3756484D01*
X-3142318Y-3756484D02*
X-3161365Y-3746960D01*
X-3161365Y-3746960D02*
X-3170889Y-3737436D01*
X-3170889Y-3737436D02*
X-3180413Y-3718388D01*
X-3180413Y-3718388D02*
X-3180413Y-3661246D01*
X-3180413Y-3661246D02*
X-3170889Y-3642198D01*
X-3170889Y-3642198D02*
X-3161365Y-3632674D01*
X-3161365Y-3632674D02*
X-3142318Y-3623150D01*
X-3142318Y-3623150D02*
X-3113746Y-3623150D01*
X-3113746Y-3623150D02*
X-3094699Y-3632674D01*
X-3094699Y-3632674D02*
X-3085175Y-3642198D01*
X-3085175Y-3642198D02*
X-3075651Y-3661246D01*
X-3075651Y-3661246D02*
X-3075651Y-3718388D01*
X-3075651Y-3718388D02*
X-3085175Y-3737436D01*
X-3085175Y-3737436D02*
X-3094699Y-3746960D01*
X-3094699Y-3746960D02*
X-3113746Y-3756484D01*
X-3113746Y-3756484D02*
X-3142318Y-3756484D01*
X-3018508Y-3623150D02*
X-2942318Y-3623150D01*
X-2989937Y-3556484D02*
X-2989937Y-3727912D01*
X-2989937Y-3727912D02*
X-2980413Y-3746960D01*
X-2980413Y-3746960D02*
X-2961365Y-3756484D01*
X-2961365Y-3756484D02*
X-2942318Y-3756484D01*
X-2723270Y-3623150D02*
X-2723270Y-3823150D01*
X-2723270Y-3632674D02*
X-2704223Y-3623150D01*
X-2704223Y-3623150D02*
X-2666127Y-3623150D01*
X-2666127Y-3623150D02*
X-2647080Y-3632674D01*
X-2647080Y-3632674D02*
X-2637556Y-3642198D01*
X-2637556Y-3642198D02*
X-2628032Y-3661246D01*
X-2628032Y-3661246D02*
X-2628032Y-3718388D01*
X-2628032Y-3718388D02*
X-2637556Y-3737436D01*
X-2637556Y-3737436D02*
X-2647080Y-3746960D01*
X-2647080Y-3746960D02*
X-2666127Y-3756484D01*
X-2666127Y-3756484D02*
X-2704223Y-3756484D01*
X-2704223Y-3756484D02*
X-2723270Y-3746960D01*
X-2513746Y-3756484D02*
X-2532794Y-3746960D01*
X-2532794Y-3746960D02*
X-2542318Y-3727912D01*
X-2542318Y-3727912D02*
X-2542318Y-3556484D01*
X-2351842Y-3756484D02*
X-2351842Y-3651722D01*
X-2351842Y-3651722D02*
X-2361365Y-3632674D01*
X-2361365Y-3632674D02*
X-2380413Y-3623150D01*
X-2380413Y-3623150D02*
X-2418508Y-3623150D01*
X-2418508Y-3623150D02*
X-2437556Y-3632674D01*
X-2351842Y-3746960D02*
X-2370889Y-3756484D01*
X-2370889Y-3756484D02*
X-2418508Y-3756484D01*
X-2418508Y-3756484D02*
X-2437556Y-3746960D01*
X-2437556Y-3746960D02*
X-2447080Y-3727912D01*
X-2447080Y-3727912D02*
X-2447080Y-3708865D01*
X-2447080Y-3708865D02*
X-2437556Y-3689817D01*
X-2437556Y-3689817D02*
X-2418508Y-3680293D01*
X-2418508Y-3680293D02*
X-2370889Y-3680293D01*
X-2370889Y-3680293D02*
X-2351842Y-3670769D01*
X-2285175Y-3623150D02*
X-2208985Y-3623150D01*
X-2256604Y-3556484D02*
X-2256604Y-3727912D01*
X-2256604Y-3727912D02*
X-2247080Y-3746960D01*
X-2247080Y-3746960D02*
X-2228032Y-3756484D01*
X-2228032Y-3756484D02*
X-2208985Y-3756484D01*
X-2066127Y-3746960D02*
X-2085175Y-3756484D01*
X-2085175Y-3756484D02*
X-2123270Y-3756484D01*
X-2123270Y-3756484D02*
X-2142318Y-3746960D01*
X-2142318Y-3746960D02*
X-2151842Y-3727912D01*
X-2151842Y-3727912D02*
X-2151842Y-3651722D01*
X-2151842Y-3651722D02*
X-2142318Y-3632674D01*
X-2142318Y-3632674D02*
X-2123270Y-3623150D01*
X-2123270Y-3623150D02*
X-2085175Y-3623150D01*
X-2085175Y-3623150D02*
X-2066127Y-3632674D01*
X-2066127Y-3632674D02*
X-2056603Y-3651722D01*
X-2056603Y-3651722D02*
X-2056603Y-3670769D01*
X-2056603Y-3670769D02*
X-2151842Y-3689817D01*
X-1885175Y-3756484D02*
X-1885175Y-3556484D01*
X-1885175Y-3746960D02*
X-1904222Y-3756484D01*
X-1904222Y-3756484D02*
X-1942318Y-3756484D01*
X-1942318Y-3756484D02*
X-1961365Y-3746960D01*
X-1961365Y-3746960D02*
X-1970889Y-3737436D01*
X-1970889Y-3737436D02*
X-1980413Y-3718388D01*
X-1980413Y-3718388D02*
X-1980413Y-3661246D01*
X-1980413Y-3661246D02*
X-1970889Y-3642198D01*
X-1970889Y-3642198D02*
X-1961365Y-3632674D01*
X-1961365Y-3632674D02*
X-1942318Y-3623150D01*
X-1942318Y-3623150D02*
X-1904222Y-3623150D01*
X-1904222Y-3623150D02*
X-1885175Y-3632674D01*
X-1808984Y-3832674D02*
X-1799461Y-3823150D01*
X-1799461Y-3823150D02*
X-1780413Y-3794579D01*
X-1780413Y-3794579D02*
X-1770889Y-3775531D01*
X-1770889Y-3775531D02*
X-1761365Y-3746960D01*
X-1761365Y-3746960D02*
X-1751842Y-3699341D01*
X-1751842Y-3699341D02*
X-1751842Y-3661246D01*
X-1751842Y-3661246D02*
X-1761365Y-3613627D01*
X-1761365Y-3613627D02*
X-1770889Y-3585055D01*
X-1770889Y-3585055D02*
X-1780413Y-3566008D01*
X-1780413Y-3566008D02*
X-1799461Y-3537436D01*
X-1799461Y-3537436D02*
X-1808984Y-3527912D01*
M02*
