G04 #@! TF.GenerationSoftware,KiCad,Pcbnew,7.0.9*
G04 #@! TF.CreationDate,2024-09-28T03:36:10+08:00*
G04 #@! TF.ProjectId,thingy,7468696e-6779-42e6-9b69-6361645f7063,rev?*
G04 #@! TF.SameCoordinates,Original*
G04 #@! TF.FileFunction,Profile,NP*
%FSLAX46Y46*%
G04 Gerber Fmt 4.6, Leading zero omitted, Abs format (unit mm)*
G04 Created by KiCad (PCBNEW 7.0.9) date 2024-09-28 03:36:10*
%MOMM*%
%LPD*%
G01*
G04 APERTURE LIST*
G04 #@! TA.AperFunction,Profile*
%ADD10C,0.100000*%
G04 #@! TD*
G04 APERTURE END LIST*
D10*
X-20800000Y7000000D02*
G75*
G03*
X-21300000Y6500000I1J-500001D01*
G01*
X-20100000Y6500000D02*
G75*
G03*
X-20600000Y7000000I-500001J-1D01*
G01*
X-10600000Y4600000D02*
G75*
G03*
X-11100000Y5100000I-500001J-1D01*
G01*
X-20100000Y5600000D02*
G75*
G03*
X-19600000Y5100000I500001J1D01*
G01*
X-79100000Y7500000D02*
X-24600000Y7500000D01*
X7500000Y-22500000D02*
X7500000Y-23000000D01*
X-11600000Y-7000000D02*
X-20300001Y-7000000D01*
X-11600000Y-7000000D02*
G75*
G03*
X-10600000Y-6000000I-3J1000003D01*
G01*
X-7500000Y-22500000D02*
G75*
G03*
X-11500000Y-18500000I-4000000J0D01*
G01*
X-3500000Y27000000D02*
G75*
G03*
X-7500000Y23000000I0J-4000000D01*
G01*
X-19600000Y5100000D02*
X-11100000Y5100000D01*
X-7500000Y23000000D02*
X-7500000Y22500000D01*
X31156854Y-7499968D02*
G75*
G03*
X28328427Y-8671573I46J-4000032D01*
G01*
X31500000Y7500000D02*
X31156854Y7500000D01*
X28328427Y8671573D02*
X19671573Y17328427D01*
X19671573Y-17328427D02*
X28328427Y-8671573D01*
X31500000Y-7500000D02*
G75*
G03*
X35500000Y-3500000I0J4000000D01*
G01*
X11500000Y-18500000D02*
G75*
G03*
X7500000Y-22500000I0J-4000000D01*
G01*
X-7500000Y-23000000D02*
X-7500000Y-22500000D01*
X3500000Y-27000000D02*
G75*
G03*
X7500000Y-23000000I0J4000000D01*
G01*
X16843146Y18500000D02*
X11500000Y18500000D01*
X7500000Y22500000D02*
X7500000Y23000000D01*
X3500000Y27000000D02*
X-3500000Y27000000D01*
X-11500000Y-18500000D02*
X-16169083Y-18500000D01*
X7500000Y22500000D02*
G75*
G03*
X11500000Y18500000I4000000J0D01*
G01*
X7500000Y23000000D02*
G75*
G03*
X3500000Y27000000I-4000000J0D01*
G01*
X31156854Y-7500000D02*
X31500000Y-7500000D01*
X35500000Y3500000D02*
G75*
G03*
X31500000Y7500000I-4000000J0D01*
G01*
X8000000Y0D02*
G75*
G03*
X8000000Y0I-8000000J0D01*
G01*
X3500000Y-27000000D02*
X-3500000Y-27000000D01*
X-21300000Y-6000000D02*
G75*
G03*
X-20300001Y-7000000I999999J-1D01*
G01*
X-20100000Y6500000D02*
X-20100000Y5600000D01*
X-11500000Y18500000D02*
G75*
G03*
X-7500000Y22500000I0J4000000D01*
G01*
X-21300000Y-6000000D02*
X-21300000Y6500000D01*
X28328450Y8671596D02*
G75*
G03*
X31156854Y7500000I2828450J2828404D01*
G01*
X16843146Y-18500000D02*
X11500000Y-18500000D01*
X-11500000Y18500000D02*
X-16169083Y18500000D01*
X35500000Y-3500000D02*
X35500000Y3500000D01*
X19671575Y17328429D02*
G75*
G03*
X16843146Y18500000I-2828425J-2828429D01*
G01*
X16843146Y-18500001D02*
G75*
G03*
X19671573Y-17328427I-6J4000011D01*
G01*
X-7500000Y-23000000D02*
G75*
G03*
X-3500000Y-27000000I4000000J0D01*
G01*
X-46185786Y-9500001D02*
G75*
G03*
X-46892892Y-9792894I-1J-999998D01*
G01*
X-23470022Y9729373D02*
G75*
G03*
X-23600000Y9236360I870016J-493011D01*
G01*
X-48414214Y-10899999D02*
G75*
G03*
X-47707108Y-10607106I1J999998D01*
G01*
X-20800000Y7000000D02*
X-20600000Y7000000D01*
X-65507107Y-9792893D02*
G75*
G03*
X-66214214Y-9500000I-707104J-707101D01*
G01*
X-64692893Y-10607107D02*
G75*
G03*
X-63985786Y-10900000I707104J707101D01*
G01*
X-24600000Y7500000D02*
G75*
G03*
X-23600000Y8500000I1J999999D01*
G01*
X-10600000Y4600000D02*
X-10600000Y-6000000D01*
X-19649172Y-16472050D02*
G75*
G03*
X-16169083Y-18500000I3480087J1972047D01*
G01*
X-85600000Y3000000D02*
X-85600000Y-3000000D01*
X-84600000Y-4000000D02*
X-82600000Y-4000000D01*
X-82600000Y4000000D02*
X-84600000Y4000000D01*
X-81600000Y5000000D02*
X-81600000Y5000000D01*
X-16169083Y18499999D02*
G75*
G03*
X-19649171Y16472050I-2J-3999996D01*
G01*
X-81600000Y-5000000D02*
X-81600000Y-7000000D01*
X-23470022Y9729373D02*
X-19649172Y16472050D01*
X-20727071Y-14569875D02*
X-19649172Y-16472050D01*
X-81600000Y-5000000D02*
G75*
G03*
X-82600000Y-4000000I-999999J1D01*
G01*
X-46185786Y-9500000D02*
X-29427293Y-9500000D01*
X-64692893Y-10607107D02*
X-65507107Y-9792893D01*
X-79100000Y7500000D02*
G75*
G03*
X-81600000Y5000000I0J-2500000D01*
G01*
X-63985786Y-10900000D02*
X-48414214Y-10900000D01*
X-81600000Y-7000000D02*
G75*
G03*
X-79100000Y-9500000I2500000J0D01*
G01*
X-85600000Y-3000000D02*
G75*
G03*
X-84600000Y-4000000I999999J-1D01*
G01*
X-20727071Y-14569875D02*
G75*
G03*
X-29427293Y-9500000I-8700223J-4930127D01*
G01*
X-47707107Y-10607107D02*
X-46892893Y-9792893D01*
X-66214214Y-9500000D02*
X-79100000Y-9500000D01*
X-84600000Y4000000D02*
G75*
G03*
X-85600000Y3000000I-1J-999999D01*
G01*
X-82600000Y4000000D02*
G75*
G03*
X-81600000Y5000000I1J999999D01*
G01*
X-23600000Y8500000D02*
X-23600000Y9236360D01*
M02*
