G04 #@! TF.GenerationSoftware,KiCad,Pcbnew,7.0.9*
G04 #@! TF.CreationDate,2024-09-28T03:36:10+08:00*
G04 #@! TF.ProjectId,thingy,7468696e-6779-42e6-9b69-6361645f7063,rev?*
G04 #@! TF.SameCoordinates,Original*
G04 #@! TF.FileFunction,Soldermask,Bot*
G04 #@! TF.FilePolarity,Negative*
%FSLAX46Y46*%
G04 Gerber Fmt 4.6, Leading zero omitted, Abs format (unit mm)*
G04 Created by KiCad (PCBNEW 7.0.9) date 2024-09-28 03:36:10*
%MOMM*%
%LPD*%
G01*
G04 APERTURE LIST*
G04 Aperture macros list*
%AMRoundRect*
0 Rectangle with rounded corners*
0 $1 Rounding radius*
0 $2 $3 $4 $5 $6 $7 $8 $9 X,Y pos of 4 corners*
0 Add a 4 corners polygon primitive as box body*
4,1,4,$2,$3,$4,$5,$6,$7,$8,$9,$2,$3,0*
0 Add four circle primitives for the rounded corners*
1,1,$1+$1,$2,$3*
1,1,$1+$1,$4,$5*
1,1,$1+$1,$6,$7*
1,1,$1+$1,$8,$9*
0 Add four rect primitives between the rounded corners*
20,1,$1+$1,$2,$3,$4,$5,0*
20,1,$1+$1,$4,$5,$6,$7,0*
20,1,$1+$1,$6,$7,$8,$9,0*
20,1,$1+$1,$8,$9,$2,$3,0*%
%AMRotRect*
0 Rectangle, with rotation*
0 The origin of the aperture is its center*
0 $1 length*
0 $2 width*
0 $3 Rotation angle, in degrees counterclockwise*
0 Add horizontal line*
21,1,$1,$2,0,0,$3*%
G04 Aperture macros list end*
%ADD10RoundRect,0.200000X-0.200000X-0.275000X0.200000X-0.275000X0.200000X0.275000X-0.200000X0.275000X0*%
%ADD11RoundRect,0.250000X-1.272792X0.494975X0.494975X-1.272792X1.272792X-0.494975X-0.494975X1.272792X0*%
%ADD12C,6.500000*%
%ADD13C,4.300000*%
%ADD14RoundRect,0.125000X-0.125000X-0.125000X0.125000X-0.125000X0.125000X0.125000X-0.125000X0.125000X0*%
%ADD15RoundRect,0.062500X-0.127500X-0.062500X0.127500X-0.062500X0.127500X0.062500X-0.127500X0.062500X0*%
%ADD16R,0.450000X0.300000*%
%ADD17R,0.300000X0.450000*%
%ADD18C,2.200000*%
%ADD19RotRect,1.600000X1.600000X225.000000*%
%ADD20C,1.600000*%
%ADD21R,1.700000X1.700000*%
%ADD22O,1.700000X1.700000*%
%ADD23RoundRect,0.150000X0.256326X0.468458X-0.468458X-0.256326X-0.256326X-0.468458X0.468458X0.256326X0*%
%ADD24R,1.350000X1.350000*%
%ADD25O,1.350000X1.350000*%
%ADD26R,2.350000X3.500000*%
%ADD27RoundRect,0.250000X1.250000X0.550000X-1.250000X0.550000X-1.250000X-0.550000X1.250000X-0.550000X0*%
%ADD28RoundRect,0.135000X-0.035355X0.226274X-0.226274X0.035355X0.035355X-0.226274X0.226274X-0.035355X0*%
%ADD29RoundRect,0.135000X-0.135000X-0.185000X0.135000X-0.185000X0.135000X0.185000X-0.135000X0.185000X0*%
%ADD30RoundRect,0.135000X0.135000X0.185000X-0.135000X0.185000X-0.135000X-0.185000X0.135000X-0.185000X0*%
%ADD31R,0.700000X0.700000*%
%ADD32RoundRect,0.200000X-0.275000X0.200000X-0.275000X-0.200000X0.275000X-0.200000X0.275000X0.200000X0*%
%ADD33RoundRect,0.200000X0.200000X0.275000X-0.200000X0.275000X-0.200000X-0.275000X0.200000X-0.275000X0*%
%ADD34RoundRect,0.250000X0.250000X0.475000X-0.250000X0.475000X-0.250000X-0.475000X0.250000X-0.475000X0*%
%ADD35RoundRect,0.250000X-0.250000X-0.475000X0.250000X-0.475000X0.250000X0.475000X-0.250000X0.475000X0*%
%ADD36RoundRect,0.250000X-0.475000X0.250000X-0.475000X-0.250000X0.475000X-0.250000X0.475000X0.250000X0*%
%ADD37C,1.300000*%
%ADD38R,1.300000X1.300000*%
%ADD39RoundRect,0.150000X-0.150000X-0.625000X0.150000X-0.625000X0.150000X0.625000X-0.150000X0.625000X0*%
%ADD40RoundRect,0.250000X-0.350000X-0.650000X0.350000X-0.650000X0.350000X0.650000X-0.350000X0.650000X0*%
%ADD41C,1.700000*%
%ADD42RoundRect,0.140000X-0.170000X0.140000X-0.170000X-0.140000X0.170000X-0.140000X0.170000X0.140000X0*%
%ADD43RoundRect,0.140000X0.021213X-0.219203X0.219203X-0.021213X-0.021213X0.219203X-0.219203X0.021213X0*%
G04 APERTURE END LIST*
D10*
X2575000Y11000000D03*
X4225000Y11000000D03*
D11*
X-18800106Y-11772793D03*
X-21911376Y-8661523D03*
D12*
X22900000Y3475000D03*
X22900000Y-3475000D03*
D13*
X15250000Y15250000D03*
D12*
X31500000Y3475000D03*
X31500000Y-3475000D03*
D14*
X3900000Y14700000D03*
X3900000Y15500000D03*
X4700000Y15500000D03*
X5500000Y15500000D03*
X6300000Y15500000D03*
X7100000Y15500000D03*
X7100000Y14700000D03*
X7100000Y13900000D03*
X6300000Y13900000D03*
X5500000Y13900000D03*
X4700000Y13900000D03*
X3900000Y13900000D03*
D15*
X3760000Y14025000D03*
D13*
X-15250000Y15250000D03*
D16*
X1275000Y12450000D03*
X1275000Y11950000D03*
X1275000Y11450000D03*
X1275000Y10950000D03*
D17*
X750000Y10425000D03*
X250000Y10425000D03*
X-250000Y10425000D03*
X-750000Y10425000D03*
D16*
X-1275000Y10950000D03*
X-1275000Y11450000D03*
X-1275000Y11950000D03*
X-1275000Y12450000D03*
D17*
X-750000Y12975000D03*
X-250000Y12975000D03*
X250000Y12975000D03*
X750000Y12975000D03*
D18*
X-6750000Y10500000D03*
D19*
X25297727Y-10332233D03*
D20*
X21762193Y-13867767D03*
D21*
X-48600000Y5640000D03*
D22*
X-51140000Y5640000D03*
X-53680000Y5640000D03*
X-56220000Y5640000D03*
X-58760000Y5640000D03*
X-61300000Y5640000D03*
X-63840000Y5640000D03*
D23*
X-26652170Y-7165166D03*
X-25980419Y-7836917D03*
X-25308668Y-8508668D03*
X-23700000Y-6900000D03*
X-24371751Y-6228249D03*
X-25043502Y-5556498D03*
D24*
X-19200000Y6100000D03*
D25*
X-17200000Y6100000D03*
X-15200000Y6100000D03*
X-13200000Y6100000D03*
D26*
X-29800000Y-800000D03*
X-23750000Y-800000D03*
D27*
X-35800000Y3800000D03*
X-31400000Y3800000D03*
D28*
X-23839376Y-8839376D03*
X-24560624Y-9560624D03*
D29*
X-28610000Y-8700000D03*
X-27590000Y-8700000D03*
D30*
X3910000Y9700000D03*
X2890000Y9700000D03*
X-28090000Y-7500000D03*
X-29110000Y-7500000D03*
D31*
X-28285000Y-5150000D03*
X-28285000Y-6250000D03*
X-30115000Y-6250000D03*
X-30115000Y-5150000D03*
D32*
X-2500000Y11925000D03*
X-2500000Y10275000D03*
X-3900000Y11925000D03*
X-3900000Y10275000D03*
D33*
X1625000Y9200000D03*
X-25000Y9200000D03*
D10*
X2575000Y12500000D03*
X4225000Y12500000D03*
D34*
X-34250000Y-100000D03*
X-32350000Y-100000D03*
X-32350000Y-2100000D03*
X-34250000Y-2100000D03*
D35*
X-26950000Y3800000D03*
X-28850000Y3800000D03*
D36*
X-14200000Y-8750000D03*
X-14200000Y-10650000D03*
X-12200000Y-8750000D03*
X-12200000Y-10650000D03*
D12*
X-3475000Y23000000D03*
X3475000Y23000000D03*
D18*
X6750000Y-10500000D03*
X-6750000Y-10500000D03*
D13*
X-15250000Y-15250000D03*
D18*
X6750000Y10500000D03*
D13*
X15250000Y-15250000D03*
D12*
X3475000Y-23000000D03*
X-3475000Y-23000000D03*
D37*
X3175000Y17087500D03*
X1905000Y14547500D03*
X635000Y17087500D03*
X-635000Y14547500D03*
X-1905000Y17087500D03*
D38*
X-3175000Y14547500D03*
D39*
X-44400000Y2400000D03*
X-43400000Y2400000D03*
X-42400000Y2400000D03*
X-41400000Y2400000D03*
X-40400000Y2400000D03*
X-39400000Y2400000D03*
D40*
X-38100000Y6275000D03*
X-45700000Y6275000D03*
D41*
X-48600000Y-9600000D03*
D22*
X-51140000Y-9600000D03*
X-53680000Y-9600000D03*
X-56220000Y-9600000D03*
X-58760000Y-9600000D03*
X-61300000Y-9600000D03*
X-63840000Y-9600000D03*
D41*
X-32050000Y-7190000D03*
D22*
X-32050000Y-4650000D03*
X-34590000Y-7190000D03*
X-34590000Y-4650000D03*
X-37130000Y-7190000D03*
X-37130000Y-4650000D03*
X-39670000Y-7190000D03*
X-39670000Y-4650000D03*
X-42210000Y-7190000D03*
X-42210000Y-4650000D03*
X-44750000Y-7190000D03*
X-44750000Y-4650000D03*
X-47290000Y-7190000D03*
X-47290000Y-4650000D03*
X-49830000Y-7190000D03*
X-49830000Y-4650000D03*
X-52370000Y-7190000D03*
X-52370000Y-4650000D03*
X-54910000Y-7190000D03*
X-54910000Y-4650000D03*
X-57450000Y-7190000D03*
X-57450000Y-4650000D03*
X-59990000Y-7190000D03*
X-59990000Y-4650000D03*
X-62530000Y-7190000D03*
X-62530000Y-4650000D03*
X-65070000Y-7190000D03*
X-65070000Y-4650000D03*
X-67610000Y-7190000D03*
X-67610000Y-4650000D03*
X-70150000Y-7190000D03*
X-70150000Y-4650000D03*
X-72690000Y-7190000D03*
X-72690000Y-4650000D03*
X-75230000Y-7190000D03*
X-75230000Y-4650000D03*
X-77770000Y-7190000D03*
X-77770000Y-4650000D03*
X-80310000Y-7190000D03*
X-80310000Y-4650000D03*
D42*
X-30000000Y-8380000D03*
X-30000000Y-7420000D03*
X-15700000Y-9220000D03*
X-15700000Y-10180000D03*
D43*
X-26260589Y-5060589D03*
X-26939411Y-5739411D03*
D39*
X-39700000Y125000D03*
X-38700000Y125000D03*
X-37700000Y125000D03*
X-36700000Y125000D03*
D40*
X-41000000Y-2400000D03*
X-35400000Y-2400000D03*
M02*
