G04 #@! TF.GenerationSoftware,KiCad,Pcbnew,7.0.9*
G04 #@! TF.CreationDate,2024-12-11T14:01:49+08:00*
G04 #@! TF.ProjectId,thingy,7468696e-6779-42e6-9b69-6361645f7063,rev?*
G04 #@! TF.SameCoordinates,Original*
G04 #@! TF.FileFunction,Copper,L2,Inr*
G04 #@! TF.FilePolarity,Positive*
%FSLAX46Y46*%
G04 Gerber Fmt 4.6, Leading zero omitted, Abs format (unit mm)*
G04 Created by KiCad (PCBNEW 7.0.9) date 2024-12-11 14:01:49*
%MOMM*%
%LPD*%
G01*
G04 APERTURE LIST*
G04 Aperture macros list*
%AMRotRect*
0 Rectangle, with rotation*
0 The origin of the aperture is its center*
0 $1 length*
0 $2 width*
0 $3 Rotation angle, in degrees counterclockwise*
0 Add horizontal line*
21,1,$1,$2,0,0,$3*%
G04 Aperture macros list end*
G04 #@! TA.AperFunction,ComponentPad*
%ADD10R,1.350000X1.350000*%
G04 #@! TD*
G04 #@! TA.AperFunction,ComponentPad*
%ADD11O,1.350000X1.350000*%
G04 #@! TD*
G04 #@! TA.AperFunction,ComponentPad*
%ADD12R,1.300000X1.300000*%
G04 #@! TD*
G04 #@! TA.AperFunction,ComponentPad*
%ADD13C,1.300000*%
G04 #@! TD*
G04 #@! TA.AperFunction,ComponentPad*
%ADD14C,6.500000*%
G04 #@! TD*
G04 #@! TA.AperFunction,ComponentPad*
%ADD15C,1.700000*%
G04 #@! TD*
G04 #@! TA.AperFunction,ComponentPad*
%ADD16O,1.700000X1.700000*%
G04 #@! TD*
G04 #@! TA.AperFunction,ComponentPad*
%ADD17RotRect,1.600000X1.600000X225.000000*%
G04 #@! TD*
G04 #@! TA.AperFunction,ComponentPad*
%ADD18C,1.600000*%
G04 #@! TD*
G04 #@! TA.AperFunction,ComponentPad*
%ADD19R,1.700000X1.700000*%
G04 #@! TD*
G04 #@! TA.AperFunction,ViaPad*
%ADD20C,0.600000*%
G04 #@! TD*
G04 APERTURE END LIST*
D10*
X-18400000Y6100000D03*
D11*
X-16800000Y6100000D03*
X-15200000Y6100000D03*
X-13600000Y6100000D03*
D12*
X-3175000Y14547500D03*
D13*
X-1905000Y17087500D03*
X-635000Y14547500D03*
X635000Y17087500D03*
X1905000Y14547500D03*
X3175000Y17087500D03*
D14*
X-3475000Y23000000D03*
X3475000Y23000000D03*
X3475000Y-23000000D03*
X-3475000Y-23000000D03*
X22900000Y3475000D03*
X22900000Y-3475000D03*
D15*
X-32050000Y-7190000D03*
D16*
X-32050000Y-4650000D03*
X-34590000Y-7190000D03*
X-34590000Y-4650000D03*
X-37130000Y-7190000D03*
X-37130000Y-4650000D03*
X-39670000Y-7190000D03*
X-39670000Y-4650000D03*
X-42210000Y-7190000D03*
X-42210000Y-4650000D03*
X-44750000Y-7190000D03*
X-44750000Y-4650000D03*
X-47290000Y-7190000D03*
X-47290000Y-4650000D03*
X-49830000Y-7190000D03*
X-49830000Y-4650000D03*
X-52370000Y-7190000D03*
X-52370000Y-4650000D03*
X-54910000Y-7190000D03*
X-54910000Y-4650000D03*
X-57450000Y-7190000D03*
X-57450000Y-4650000D03*
X-59990000Y-7190000D03*
X-59990000Y-4650000D03*
X-62530000Y-7190000D03*
X-62530000Y-4650000D03*
X-65070000Y-7190000D03*
X-65070000Y-4650000D03*
X-67610000Y-7190000D03*
X-67610000Y-4650000D03*
X-70150000Y-7190000D03*
X-70150000Y-4650000D03*
X-72690000Y-7190000D03*
X-72690000Y-4650000D03*
X-75230000Y-7190000D03*
X-75230000Y-4650000D03*
X-77770000Y-7190000D03*
X-77770000Y-4650000D03*
X-80310000Y-7190000D03*
X-80310000Y-4650000D03*
D14*
X31500000Y3475000D03*
X31500000Y-3475000D03*
D17*
X25297727Y-10332233D03*
D18*
X21762193Y-13867767D03*
D19*
X-76620000Y-9700000D03*
D16*
X-74080000Y-9700000D03*
X-71540000Y-9700000D03*
X-69000000Y-9700000D03*
X-66460000Y-9700000D03*
X-63920000Y-9700000D03*
X-61380000Y-9700000D03*
D20*
X-70500000Y4300000D03*
X-69500000Y3500000D03*
X-65000000Y-2000000D03*
X-59000000Y0D03*
X-55000000Y0D03*
X-53000000Y-2000000D03*
X-49000000Y-2000000D03*
X-51000000Y0D03*
X-39000000Y2000000D03*
X-41000000Y4000000D03*
X-39000000Y6000000D03*
X-43000000Y6000000D03*
X-47000000Y6000000D03*
X-51000000Y6000000D03*
X-55000000Y6000000D03*
X-57000000Y6000000D03*
X-61000000Y6000000D03*
X-63000000Y4000000D03*
X-63000000Y6000000D03*
X-65000000Y6000000D03*
X-65000000Y4000000D03*
X-67000000Y4000000D03*
X-73000000Y6000000D03*
X-71000000Y6000000D03*
X-73000000Y4000000D03*
X-75000000Y4000000D03*
X-75000000Y6000000D03*
X-77000000Y6000000D03*
X-77000000Y4000000D03*
X-79000000Y4000000D03*
X-79000000Y6000000D03*
X-60900000Y3900000D03*
X-58152329Y3369819D03*
X-67600000Y2500000D03*
X-74900000Y-200000D03*
X-75200000Y1000000D03*
X-58300000Y-2900000D03*
X-61300000Y-2800000D03*
X-61308615Y8615D03*
X-60200000Y0D03*
X-59300000Y-1800000D03*
X-10000000Y10000000D03*
X-12000000Y8000000D03*
X-2500000Y11000000D03*
X-8000000Y8000000D03*
X5100000Y14700000D03*
X5900000Y14700000D03*
X-4000000Y8000000D03*
X2300000Y10000000D03*
X-24800000Y-7400000D03*
X-10500000Y-18000000D03*
X23000000Y6300000D03*
X4900000Y-20575129D03*
X-6500000Y-16000000D03*
X-8500000Y-12000000D03*
X-3500000Y25800000D03*
X34024871Y2100000D03*
X25800000Y3500000D03*
X-1075129Y21600000D03*
X21600000Y5924871D03*
X-26500000Y6000000D03*
X-12500000Y-12000000D03*
X28800000Y3500000D03*
X-22500000Y-6000000D03*
X-16500000Y-12000000D03*
X-8500000Y18000000D03*
X-2500000Y-12000000D03*
X31600000Y6300000D03*
X-10500000Y16000000D03*
X5924871Y-21600000D03*
X3500000Y-20200000D03*
X3500000Y-25800000D03*
X-5924871Y24400000D03*
X-10500000Y-14000000D03*
X21600000Y1075129D03*
X34024871Y4900000D03*
X-25500000Y-6700000D03*
X-6500000Y-14000000D03*
X2100000Y-25424871D03*
X-34500000Y2000000D03*
X1075129Y-24400000D03*
X20200000Y3500000D03*
X-26500000Y2000000D03*
X-22500000Y-4000000D03*
X31600000Y700000D03*
X1075129Y-21600000D03*
X-8500000Y-16000000D03*
X-5924871Y21600000D03*
X-20500000Y12000000D03*
X-16500000Y12000000D03*
X-4900000Y25424871D03*
X-22500000Y6000000D03*
X24400000Y1075129D03*
X-18500000Y14000000D03*
X29175129Y2100000D03*
X29175129Y4900000D03*
X-22500000Y10000000D03*
X-4900000Y20575129D03*
X-18500000Y16000000D03*
X-12500000Y14000000D03*
X23000000Y700000D03*
X-4500000Y-14000000D03*
X-27700000Y-6300000D03*
X6300000Y-23000000D03*
X34400000Y3500000D03*
X-2100000Y20575129D03*
X-700000Y23000000D03*
X-29300000Y-8800000D03*
X-20500000Y8000000D03*
X20575129Y2100000D03*
X-30500000Y6000000D03*
X20575129Y4900000D03*
X-8500000Y-18000000D03*
X-6500000Y20000000D03*
X5924871Y-24400000D03*
X-18500000Y10000000D03*
X-4500000Y18000000D03*
X2100000Y-20575129D03*
X-26000000Y-3700000D03*
X700000Y-23000000D03*
X25424871Y2100000D03*
X-18500000Y-16000000D03*
X30200000Y1075129D03*
X33000000Y5924871D03*
X-3500000Y20200000D03*
X-6500000Y16000000D03*
X-20500000Y-12000000D03*
X4900000Y-25424871D03*
X-12500000Y-16000000D03*
X-1075129Y24400000D03*
X30200000Y5924871D03*
X33000000Y1075129D03*
X-22500000Y-10000000D03*
X-2100000Y25424871D03*
X-28000000Y-3700000D03*
X-4500000Y-12000000D03*
X-22500000Y2000000D03*
X-6300000Y23000000D03*
X25424871Y4900000D03*
X-34500000Y6000000D03*
X-18500000Y-14000000D03*
X24400000Y5924871D03*
X-24600000Y-4400000D03*
X-24500000Y4000000D03*
X-3500000Y-20200000D03*
X34024871Y-2100000D03*
X-700000Y-23000000D03*
X20575129Y-4900000D03*
X31600000Y-700000D03*
X700000Y23000000D03*
X20200000Y-3500000D03*
X23000000Y-700000D03*
X-3500000Y-25800000D03*
X31600000Y-6300000D03*
X33000000Y-5924871D03*
X20575129Y-2100000D03*
X25424871Y-4900000D03*
X5924871Y24400000D03*
X21600000Y-5924871D03*
X24400000Y-1075129D03*
X-4900000Y-25424871D03*
X3500000Y20200000D03*
X30200000Y-5924871D03*
X1075129Y24400000D03*
X21600000Y-1075129D03*
X4900000Y20575129D03*
X-2100000Y-20575129D03*
X-5924871Y-24400000D03*
X29175129Y-2100000D03*
X-2100000Y-25424871D03*
X-4900000Y-20575129D03*
X23000000Y-6300000D03*
X34024871Y-4900000D03*
X25424871Y-2100000D03*
X30200000Y-1075129D03*
X-6300000Y-23000000D03*
X-1075129Y-24400000D03*
X3500000Y25800000D03*
X5924871Y21600000D03*
X-5924871Y-21600000D03*
X24400000Y-5924871D03*
X6300000Y23000000D03*
X2100000Y20575129D03*
X29175129Y-4900000D03*
X34400000Y-3500000D03*
X28800000Y-3500000D03*
X33000000Y-1075129D03*
X25800000Y-3500000D03*
X1075129Y21600000D03*
X4900000Y25424871D03*
X-1075129Y-21600000D03*
X2100000Y25424871D03*
X-25000000Y-9500000D03*
X-26795813Y-8273435D03*
G04 #@! TA.AperFunction,Conductor*
G36*
X3788818Y19299701D02*
G01*
X3968721Y19281982D01*
X3992562Y19277240D01*
X4156785Y19227424D01*
X4179243Y19218121D01*
X4330585Y19137227D01*
X4350797Y19123722D01*
X4490539Y19009038D01*
X4495050Y19004950D01*
X7404950Y16095050D01*
X7409038Y16090539D01*
X7523722Y15950797D01*
X7537227Y15930585D01*
X7618121Y15779243D01*
X7627424Y15756785D01*
X7677240Y15592562D01*
X7681982Y15568721D01*
X7699701Y15388818D01*
X7700000Y15382737D01*
X7700000Y14017262D01*
X7699701Y14011181D01*
X7681982Y13831278D01*
X7677240Y13807437D01*
X7627424Y13643214D01*
X7618121Y13620756D01*
X7537227Y13469414D01*
X7523722Y13449202D01*
X7409038Y13309460D01*
X7404959Y13304959D01*
X6598923Y12498923D01*
X5792897Y11692898D01*
X5792892Y11692892D01*
X5500000Y11400000D01*
X5500000Y11022927D01*
X5494692Y11003541D01*
X5476097Y10963663D01*
X5476096Y10963659D01*
X5476094Y10963655D01*
X5414938Y10735413D01*
X5414936Y10735403D01*
X5394341Y10500000D01*
X5394341Y10499999D01*
X5414936Y10264596D01*
X5414938Y10264586D01*
X5476094Y10036344D01*
X5476098Y10036334D01*
X5488383Y10009989D01*
X5500000Y9957586D01*
X5500000Y6489702D01*
X5480315Y6422663D01*
X5427511Y6376908D01*
X5358353Y6366964D01*
X5294797Y6395989D01*
X5261748Y6424806D01*
X5241397Y6442552D01*
X4889082Y6709719D01*
X4789527Y6785214D01*
X4499413Y6975500D01*
X4315330Y7096240D01*
X4315327Y7096241D01*
X4315322Y7096245D01*
X4006767Y7269737D01*
X3821000Y7374189D01*
X3308858Y7617754D01*
X3030752Y7727424D01*
X2781290Y7825799D01*
X2240754Y7997357D01*
X2137694Y8022472D01*
X1689780Y8131627D01*
X1689780Y8131626D01*
X1689772Y8131628D01*
X1342922Y8191431D01*
X1130919Y8227985D01*
X1130912Y8227985D01*
X1130911Y8227986D01*
X566777Y8285980D01*
X0Y8305342D01*
X-566777Y8285980D01*
X-1130911Y8227986D01*
X-1130912Y8227985D01*
X-1130919Y8227985D01*
X-1342922Y8191431D01*
X-1689772Y8131628D01*
X-1689780Y8131626D01*
X-1689780Y8131627D01*
X-2137694Y8022472D01*
X-2240754Y7997357D01*
X-2781290Y7825799D01*
X-3030752Y7727424D01*
X-3308858Y7617754D01*
X-3821000Y7374189D01*
X-4006767Y7269737D01*
X-4315322Y7096245D01*
X-4315327Y7096241D01*
X-4315330Y7096240D01*
X-4499413Y6975500D01*
X-4789527Y6785214D01*
X-4889082Y6709719D01*
X-5241397Y6442552D01*
X-5241397Y6442551D01*
X-5241401Y6442548D01*
X-5668837Y6069843D01*
X-6069843Y5668837D01*
X-6141637Y5586500D01*
X-6267193Y5442507D01*
X-6326088Y5404915D01*
X-6360653Y5400000D01*
X-11013033Y5400000D01*
X-11019113Y5400299D01*
X-11021155Y5400500D01*
X-11021157Y5400500D01*
X-11043827Y5400500D01*
X-14378143Y5400500D01*
X-14445182Y5420185D01*
X-14490937Y5472989D01*
X-14500881Y5542147D01*
X-14485530Y5586500D01*
X-14395786Y5741940D01*
X-14395783Y5741946D01*
X-14338916Y5916967D01*
X-14338915Y5916968D01*
X-14338915Y5916971D01*
X-14319678Y6100000D01*
X-14338915Y6283029D01*
X-14369418Y6376908D01*
X-14395783Y6458053D01*
X-14395786Y6458059D01*
X-14465522Y6578844D01*
X-14487805Y6617440D01*
X-14610950Y6754207D01*
X-14610951Y6754208D01*
X-14759834Y6862378D01*
X-14759835Y6862378D01*
X-14759839Y6862381D01*
X-14896953Y6923428D01*
X-14927961Y6937234D01*
X-14927966Y6937236D01*
X-15107981Y6975500D01*
X-15292019Y6975500D01*
X-15472034Y6937236D01*
X-15640161Y6862381D01*
X-15789050Y6754207D01*
X-15907851Y6622264D01*
X-15967336Y6585616D01*
X-16037193Y6586946D01*
X-16092148Y6622264D01*
X-16210950Y6754207D01*
X-16210951Y6754208D01*
X-16359834Y6862378D01*
X-16359835Y6862378D01*
X-16359839Y6862381D01*
X-16496953Y6923428D01*
X-16527961Y6937234D01*
X-16527966Y6937236D01*
X-16707981Y6975500D01*
X-16892019Y6975500D01*
X-17072034Y6937236D01*
X-17240161Y6862381D01*
X-17343640Y6787198D01*
X-17409443Y6763720D01*
X-17477497Y6779545D01*
X-17526192Y6829651D01*
X-17530671Y6842271D01*
X-17531458Y6841946D01*
X-17536132Y6853230D01*
X-17580447Y6919552D01*
X-17646769Y6963867D01*
X-17646770Y6963868D01*
X-17705247Y6975499D01*
X-17705249Y6975500D01*
X-17705252Y6975500D01*
X-18625137Y6975500D01*
X-18692176Y6995185D01*
X-18737931Y7047989D01*
X-18747875Y7117147D01*
X-18718850Y7180703D01*
X-18712818Y7187181D01*
X-18395050Y7504950D01*
X-18390539Y7509038D01*
X-18250797Y7623722D01*
X-18230585Y7637227D01*
X-18079243Y7718121D01*
X-18056785Y7727424D01*
X-17892562Y7777240D01*
X-17868721Y7781982D01*
X-17688818Y7799701D01*
X-17682737Y7800000D01*
X-17114217Y7800000D01*
X-17114214Y7800000D01*
X-16700000Y7800000D01*
X-16407112Y8092887D01*
X-16407101Y8092897D01*
X-13999999Y10500000D01*
X-8105659Y10500000D01*
X-8085063Y10264592D01*
X-8023903Y10036337D01*
X-7940529Y9857543D01*
X-7924035Y9822171D01*
X-7924034Y9822169D01*
X-7788494Y9628597D01*
X-7621402Y9461505D01*
X-7427830Y9325965D01*
X-7427828Y9325964D01*
X-7320746Y9276031D01*
X-7213663Y9226097D01*
X-7213659Y9226096D01*
X-7213655Y9226094D01*
X-6985413Y9164938D01*
X-6985403Y9164936D01*
X-6808966Y9149500D01*
X-6691034Y9149500D01*
X-6514596Y9164936D01*
X-6514586Y9164938D01*
X-6286344Y9226094D01*
X-6286335Y9226098D01*
X-6072171Y9325964D01*
X-6072169Y9325965D01*
X-5878597Y9461505D01*
X-5711506Y9628597D01*
X-5711501Y9628604D01*
X-5575967Y9822165D01*
X-5575965Y9822169D01*
X-5493041Y10000000D01*
X1794353Y10000000D01*
X1814834Y9857543D01*
X1874622Y9726628D01*
X1874623Y9726626D01*
X1968873Y9617856D01*
X2089950Y9540045D01*
X2089949Y9540045D01*
X2228036Y9499500D01*
X2228039Y9499500D01*
X2371963Y9499500D01*
X2510050Y9540045D01*
X2631126Y9617856D01*
X2631128Y9617857D01*
X2725377Y9726627D01*
X2785165Y9857543D01*
X2805647Y10000000D01*
X2785165Y10142457D01*
X2725377Y10273373D01*
X2631128Y10382143D01*
X2510053Y10459953D01*
X2371962Y10500499D01*
X2371962Y10500500D01*
X2371961Y10500500D01*
X2228039Y10500500D01*
X2228038Y10500500D01*
X2228036Y10500499D01*
X2226333Y10499999D01*
X2089949Y10459954D01*
X2089947Y10459953D01*
X1968872Y10382143D01*
X1874623Y10273373D01*
X1874622Y10273371D01*
X1814834Y10142456D01*
X1794353Y10000000D01*
X-5493041Y10000000D01*
X-5476098Y10036335D01*
X-5476094Y10036344D01*
X-5414938Y10264586D01*
X-5414936Y10264596D01*
X-5394341Y10499999D01*
X-5394341Y10500000D01*
X-5414936Y10735403D01*
X-5414938Y10735413D01*
X-5476094Y10963655D01*
X-5476096Y10963659D01*
X-5476097Y10963663D01*
X-5526031Y11070746D01*
X-5575964Y11177828D01*
X-5575965Y11177830D01*
X-5711505Y11371402D01*
X-5878597Y11538494D01*
X-6072169Y11674034D01*
X-6072171Y11674035D01*
X-6112623Y11692898D01*
X-6286337Y11773903D01*
X-6514592Y11835063D01*
X-6691034Y11850500D01*
X-6808966Y11850500D01*
X-6985408Y11835063D01*
X-7213663Y11773903D01*
X-7427829Y11674035D01*
X-7621401Y11538495D01*
X-7788495Y11371401D01*
X-7924035Y11177830D01*
X-8023903Y10963663D01*
X-8085063Y10735408D01*
X-8105659Y10500000D01*
X-13999999Y10500000D01*
X-10395050Y14104950D01*
X-10390539Y14109038D01*
X-10250797Y14223722D01*
X-10230585Y14237227D01*
X-10079243Y14318121D01*
X-10056785Y14327424D01*
X-9892562Y14377240D01*
X-9868721Y14381982D01*
X-9688818Y14399701D01*
X-9682737Y14400000D01*
X-5252578Y14400000D01*
X-5252573Y14400000D01*
X-4700000Y14400000D01*
X-4405942Y14867817D01*
X-4405935Y14867827D01*
X-4254483Y15108775D01*
X-4202141Y15155058D01*
X-4133085Y15165695D01*
X-4069242Y15137309D01*
X-4030879Y15078913D01*
X-4025500Y15042786D01*
X-4025500Y13877749D01*
X-4025499Y13877747D01*
X-4013868Y13819270D01*
X-4013867Y13819269D01*
X-3969552Y13752947D01*
X-3903230Y13708632D01*
X-3903229Y13708631D01*
X-3844752Y13697000D01*
X-3844748Y13697000D01*
X-2505247Y13697000D01*
X-2446770Y13708631D01*
X-2446769Y13708632D01*
X-2380447Y13752947D01*
X-2336132Y13819269D01*
X-2336131Y13819270D01*
X-2324500Y13877747D01*
X-2324500Y14547500D01*
X-1490185Y14547500D01*
X-1471497Y14369697D01*
X-1416250Y14199665D01*
X-1326859Y14044835D01*
X-1289224Y14003037D01*
X-1207235Y13911978D01*
X-1207232Y13911976D01*
X-1207230Y13911974D01*
X-1062593Y13806888D01*
X-899267Y13734171D01*
X-899265Y13734170D01*
X-779120Y13708633D01*
X-724391Y13697000D01*
X-724390Y13697000D01*
X-545610Y13697000D01*
X-545609Y13697000D01*
X-490880Y13708633D01*
X-370735Y13734170D01*
X-207405Y13806889D01*
X-62767Y13911976D01*
X-62764Y13911978D01*
X32032Y14017262D01*
X56859Y14044835D01*
X146250Y14199665D01*
X201497Y14369697D01*
X220185Y14547500D01*
X1049815Y14547500D01*
X1068503Y14369694D01*
X1068504Y14369692D01*
X1123747Y14199670D01*
X1123750Y14199664D01*
X1213140Y14044836D01*
X1332764Y13911978D01*
X1332767Y13911976D01*
X1477405Y13806889D01*
X1640735Y13734170D01*
X1640734Y13734170D01*
X1760889Y13708631D01*
X1815609Y13697000D01*
X1815610Y13697000D01*
X1994390Y13697000D01*
X1994391Y13697000D01*
X2059047Y13710743D01*
X2169264Y13734170D01*
X2169265Y13734170D01*
X2169267Y13734171D01*
X2332593Y13806888D01*
X2477230Y13911974D01*
X2477232Y13911976D01*
X2477235Y13911978D01*
X2559224Y14003037D01*
X2596859Y14044835D01*
X2686250Y14199665D01*
X2741497Y14369697D01*
X2760185Y14547500D01*
X2741497Y14725303D01*
X2686250Y14895335D01*
X2596859Y15050165D01*
X2477230Y15183026D01*
X2332593Y15288112D01*
X2169267Y15360829D01*
X1994391Y15398000D01*
X1815609Y15398000D01*
X1640733Y15360829D01*
X1640728Y15360827D01*
X1598559Y15342052D01*
X1477408Y15288112D01*
X1332770Y15183026D01*
X1213141Y15050165D01*
X1213140Y15050163D01*
X1123750Y14895335D01*
X1123747Y14895329D01*
X1068504Y14725307D01*
X1068503Y14725305D01*
X1049815Y14547500D01*
X220185Y14547500D01*
X201497Y14725303D01*
X146250Y14895335D01*
X56859Y15050165D01*
X-37587Y15155058D01*
X-62764Y15183021D01*
X-62767Y15183023D01*
X-62768Y15183024D01*
X-62770Y15183026D01*
X-207407Y15288112D01*
X-370733Y15360829D01*
X-545609Y15398000D01*
X-724391Y15398000D01*
X-899267Y15360829D01*
X-1062592Y15288112D01*
X-1207230Y15183026D01*
X-1326859Y15050165D01*
X-1416250Y14895335D01*
X-1471497Y14725303D01*
X-1490185Y14547500D01*
X-2324500Y14547500D01*
X-2324500Y15217252D01*
X-2336131Y15275729D01*
X-2336132Y15275730D01*
X-2380447Y15342052D01*
X-2446769Y15386367D01*
X-2446770Y15386368D01*
X-2505247Y15397999D01*
X-2505249Y15398000D01*
X-2505252Y15398000D01*
X-3844748Y15398000D01*
X-3848281Y15398000D01*
X-3915320Y15417685D01*
X-3961075Y15470489D01*
X-3971019Y15539647D01*
X-3953264Y15587989D01*
X-3950389Y15592562D01*
X-3600000Y16150000D01*
X-3122477Y16909694D01*
X-2986897Y17125390D01*
X-2934555Y17171673D01*
X-2865499Y17182310D01*
X-2801656Y17153924D01*
X-2763293Y17095528D01*
X-2758594Y17072371D01*
X-2741497Y16909697D01*
X-2686250Y16739665D01*
X-2596859Y16584835D01*
X-2550003Y16532796D01*
X-2477235Y16451978D01*
X-2477232Y16451976D01*
X-2477230Y16451974D01*
X-2332593Y16346888D01*
X-2169267Y16274171D01*
X-2169265Y16274170D01*
X-2041594Y16247033D01*
X-1994391Y16237000D01*
X-1994390Y16237000D01*
X-1815610Y16237000D01*
X-1815609Y16237000D01*
X-1768405Y16247033D01*
X-1640735Y16274170D01*
X-1559070Y16310529D01*
X-1477407Y16346888D01*
X-1477406Y16346888D01*
X-1477405Y16346889D01*
X-1332767Y16451976D01*
X-1332764Y16451978D01*
X-1213140Y16584836D01*
X-1123750Y16739664D01*
X-1123747Y16739670D01*
X-1068504Y16909692D01*
X-1068503Y16909694D01*
X-1049815Y17087500D01*
X-220185Y17087500D01*
X-201497Y16909697D01*
X-146250Y16739665D01*
X-56859Y16584835D01*
X-24207Y16548572D01*
X62764Y16451978D01*
X62767Y16451976D01*
X207405Y16346889D01*
X207406Y16346888D01*
X207407Y16346888D01*
X289070Y16310529D01*
X370735Y16274170D01*
X370734Y16274170D01*
X508439Y16244900D01*
X545609Y16237000D01*
X545610Y16237000D01*
X724390Y16237000D01*
X724391Y16237000D01*
X789047Y16250743D01*
X899264Y16274170D01*
X899265Y16274170D01*
X899267Y16274171D01*
X1062593Y16346888D01*
X1207230Y16451974D01*
X1207232Y16451976D01*
X1207235Y16451978D01*
X1280003Y16532796D01*
X1326859Y16584835D01*
X1416250Y16739665D01*
X1471497Y16909697D01*
X1490185Y17087500D01*
X1471497Y17265303D01*
X1416250Y17435335D01*
X1326859Y17590165D01*
X1207230Y17723026D01*
X1062593Y17828112D01*
X899267Y17900829D01*
X724391Y17938000D01*
X545609Y17938000D01*
X375918Y17901931D01*
X370733Y17900829D01*
X370728Y17900827D01*
X273511Y17857543D01*
X207408Y17828112D01*
X62770Y17723026D01*
X-56859Y17590165D01*
X-146250Y17435335D01*
X-201497Y17265303D01*
X-220185Y17087500D01*
X-1049815Y17087500D01*
X-1068503Y17265305D01*
X-1068504Y17265307D01*
X-1123747Y17435329D01*
X-1123750Y17435335D01*
X-1180079Y17532899D01*
X-1213141Y17590165D01*
X-1273439Y17657133D01*
X-1321603Y17710625D01*
X-1351833Y17773617D01*
X-1343207Y17842952D01*
X-1298466Y17896617D01*
X-1289029Y17900000D01*
X-1000000Y17900000D01*
X-707112Y18192887D01*
X-707101Y18192897D01*
X-165734Y18734265D01*
X104959Y19004959D01*
X109460Y19009038D01*
X249202Y19123722D01*
X269414Y19137227D01*
X420756Y19218121D01*
X443214Y19227424D01*
X607437Y19277240D01*
X631278Y19281982D01*
X811182Y19299701D01*
X817263Y19300000D01*
X3782737Y19300000D01*
X3788818Y19299701D01*
G37*
G04 #@! TD.AperFunction*
G04 #@! TA.AperFunction,Conductor*
G36*
X58435Y-24049932D02*
G01*
X92261Y-24096451D01*
X93187Y-24096096D01*
X227461Y-24445894D01*
X396388Y-24777431D01*
X396394Y-24777442D01*
X599050Y-25089503D01*
X634549Y-25133341D01*
X1533564Y-24234325D01*
X1646372Y-24403156D01*
X1845165Y-24629835D01*
X2071844Y-24828628D01*
X2240671Y-24941434D01*
X1341657Y-25840449D01*
X1385495Y-25875949D01*
X1385505Y-25875956D01*
X1697557Y-26078604D01*
X1697568Y-26078611D01*
X2029105Y-26247538D01*
X2376479Y-26380882D01*
X2376486Y-26380884D01*
X2735903Y-26477190D01*
X2735905Y-26477191D01*
X2897083Y-26502719D01*
X2951599Y-26530496D01*
X2979377Y-26585013D01*
X2969806Y-26645445D01*
X2926541Y-26688710D01*
X2881596Y-26699500D01*
X-2878398Y-26699500D01*
X-2936589Y-26680593D01*
X-2972553Y-26631093D01*
X-2972553Y-26569907D01*
X-2936589Y-26520407D01*
X-2893885Y-26502719D01*
X-2735800Y-26477681D01*
X-2735798Y-26477680D01*
X-2735796Y-26477680D01*
X-2376329Y-26381361D01*
X-2067124Y-26262668D01*
X-2028902Y-26247996D01*
X-1697317Y-26079045D01*
X-1697306Y-26079039D01*
X-1590670Y-26009788D01*
X-1385204Y-25876357D01*
X-1095991Y-25642157D01*
X-832843Y-25379009D01*
X-598643Y-25089796D01*
X-429038Y-24828628D01*
X-395960Y-24777693D01*
X-395954Y-24777682D01*
X-227003Y-24446097D01*
X-92710Y-24096251D01*
X-91813Y-24096595D01*
X-57947Y-24049959D01*
X240Y-24031038D01*
X58435Y-24049932D01*
G37*
G04 #@! TD.AperFunction*
G04 #@! TA.AperFunction,Conductor*
G36*
X7145445Y22649454D02*
G01*
X7188710Y22606189D01*
X7199500Y22561244D01*
X7199500Y22301171D01*
X7236190Y21905221D01*
X7236191Y21905212D01*
X7309256Y21514349D01*
X7418078Y21131880D01*
X7561731Y20761069D01*
X7738971Y20405122D01*
X7948305Y20067038D01*
X8187951Y19749696D01*
X8455832Y19455846D01*
X8455846Y19455832D01*
X8749696Y19187951D01*
X9067038Y18948305D01*
X9405122Y18738971D01*
X9761069Y18561731D01*
X10131880Y18418078D01*
X10514350Y18309256D01*
X10514349Y18309256D01*
X10905212Y18236191D01*
X10905221Y18236190D01*
X11301171Y18199500D01*
X11301176Y18199500D01*
X11443827Y18199500D01*
X16795552Y18199500D01*
X16843146Y18199500D01*
X17163421Y18185517D01*
X17167725Y18185140D01*
X17483416Y18143578D01*
X17487670Y18142828D01*
X17758786Y18082723D01*
X17798535Y18073911D01*
X17802702Y18072795D01*
X17838739Y18061432D01*
X18106387Y17977043D01*
X18110447Y17975566D01*
X18404626Y17853713D01*
X18408542Y17851888D01*
X18690979Y17704860D01*
X18694721Y17702700D01*
X18963270Y17531616D01*
X18966809Y17529138D01*
X19219423Y17335301D01*
X19222733Y17332524D01*
X19459042Y17115986D01*
X28136981Y8438048D01*
X28137492Y8437580D01*
X28248730Y8326342D01*
X28513587Y8104097D01*
X28536402Y8084953D01*
X28844010Y7869560D01*
X28844009Y7869560D01*
X29169223Y7681794D01*
X29299315Y7621130D01*
X29509563Y7523087D01*
X29660494Y7468150D01*
X29862440Y7394646D01*
X30225169Y7297449D01*
X30382324Y7269737D01*
X30594991Y7232236D01*
X30969087Y7199502D01*
X30969108Y7199501D01*
X31064447Y7199500D01*
X31122637Y7180591D01*
X31158600Y7131091D01*
X31158599Y7069905D01*
X31122634Y7020406D01*
X31079932Y7002719D01*
X30760905Y6952191D01*
X30760903Y6952190D01*
X30401486Y6855884D01*
X30401479Y6855882D01*
X30054105Y6722538D01*
X29722568Y6553611D01*
X29722557Y6553604D01*
X29410505Y6350956D01*
X29410495Y6350949D01*
X29366657Y6315449D01*
X30265671Y5416434D01*
X30096844Y5303628D01*
X29870165Y5104835D01*
X29671372Y4878156D01*
X29558563Y4709326D01*
X28659549Y5608341D01*
X28624050Y5564503D01*
X28421394Y5252442D01*
X28421388Y5252431D01*
X28252461Y4920894D01*
X28119117Y4573520D01*
X28119115Y4573513D01*
X28022809Y4214096D01*
X28022808Y4214094D01*
X27964603Y3846596D01*
X27964600Y3846568D01*
X27945128Y3475006D01*
X27945128Y3474993D01*
X27964600Y3103431D01*
X27964603Y3103403D01*
X28022808Y2735905D01*
X28022809Y2735903D01*
X28119115Y2376486D01*
X28119117Y2376479D01*
X28252461Y2029105D01*
X28421388Y1697569D01*
X28624049Y1385497D01*
X28659549Y1341657D01*
X29558564Y2240672D01*
X29671372Y2071844D01*
X29870165Y1845165D01*
X30096844Y1646372D01*
X30265672Y1533564D01*
X29366657Y634549D01*
X29410497Y599049D01*
X29722569Y396388D01*
X30054105Y227461D01*
X30403904Y93187D01*
X30403550Y92265D01*
X30450096Y58395D01*
X30468961Y190D01*
X30450011Y-57987D01*
X30403406Y-91817D01*
X30403749Y-92710D01*
X30053902Y-227003D01*
X29722319Y-395954D01*
X29722315Y-395956D01*
X29722314Y-395957D01*
X29444414Y-576427D01*
X29410201Y-598645D01*
X29120995Y-832839D01*
X28857839Y-1095995D01*
X28623645Y-1385201D01*
X28623643Y-1385204D01*
X28456073Y-1643241D01*
X28420954Y-1697319D01*
X28252003Y-2028902D01*
X28118640Y-2376324D01*
X28118638Y-2376331D01*
X28022319Y-2735798D01*
X28022318Y-2735800D01*
X27964105Y-3103350D01*
X27964102Y-3103378D01*
X27944627Y-3474993D01*
X27944627Y-3475006D01*
X27964102Y-3846621D01*
X27964105Y-3846649D01*
X28022318Y-4214199D01*
X28022319Y-4214201D01*
X28118638Y-4573668D01*
X28118640Y-4573675D01*
X28252003Y-4921097D01*
X28420954Y-5252682D01*
X28420960Y-5252693D01*
X28534688Y-5427818D01*
X28623643Y-5564796D01*
X28857843Y-5854009D01*
X29120991Y-6117157D01*
X29410204Y-6351357D01*
X29615670Y-6484788D01*
X29722306Y-6554039D01*
X29722311Y-6554041D01*
X29722313Y-6554043D01*
X30019211Y-6705320D01*
X30053902Y-6722996D01*
X30215993Y-6785217D01*
X30401329Y-6856361D01*
X30760796Y-6952680D01*
X30760798Y-6952680D01*
X30760800Y-6952681D01*
X31076536Y-7002688D01*
X31131052Y-7030465D01*
X31158830Y-7084982D01*
X31149259Y-7145414D01*
X31105994Y-7188679D01*
X31061050Y-7199469D01*
X30969378Y-7199469D01*
X30969086Y-7199470D01*
X30594986Y-7232204D01*
X30484324Y-7251717D01*
X30225172Y-7297416D01*
X30225167Y-7297417D01*
X30225163Y-7297418D01*
X30005454Y-7356291D01*
X29862430Y-7394616D01*
X29660482Y-7468121D01*
X29509551Y-7523058D01*
X29169208Y-7681765D01*
X28843992Y-7869533D01*
X28843993Y-7869533D01*
X28552854Y-8073394D01*
X28536378Y-8084931D01*
X28248708Y-8326319D01*
X28155661Y-8419366D01*
X28155661Y-8419367D01*
X26618081Y-9956945D01*
X26563564Y-9984722D01*
X26503132Y-9975151D01*
X26478074Y-9956945D01*
X26429097Y-9907969D01*
X24873463Y-11463603D01*
X24922439Y-11512580D01*
X24950216Y-11567097D01*
X24940644Y-11627529D01*
X24922439Y-11652587D01*
X22981390Y-13593637D01*
X22926873Y-13621414D01*
X22866441Y-13611843D01*
X22823176Y-13568578D01*
X22816167Y-13550733D01*
X22792775Y-13468517D01*
X22701866Y-13285946D01*
X22578957Y-13123188D01*
X22428234Y-12985786D01*
X22254830Y-12878419D01*
X22064649Y-12804743D01*
X22064648Y-12804742D01*
X22064646Y-12804742D01*
X21864169Y-12767267D01*
X21660217Y-12767267D01*
X21459739Y-12804742D01*
X21389825Y-12831826D01*
X21269556Y-12878419D01*
X21096152Y-12985786D01*
X20945429Y-13123188D01*
X20922093Y-13154090D01*
X20822521Y-13285944D01*
X20822516Y-13285953D01*
X20756574Y-13418384D01*
X20731611Y-13468517D01*
X20675796Y-13664684D01*
X20656978Y-13867767D01*
X20675796Y-14070850D01*
X20731611Y-14267017D01*
X20822520Y-14449588D01*
X20945429Y-14612346D01*
X21096152Y-14749748D01*
X21269556Y-14857115D01*
X21451044Y-14927423D01*
X21498475Y-14966075D01*
X21514129Y-15025224D01*
X21492026Y-15082277D01*
X21485285Y-15089742D01*
X19492741Y-17082287D01*
X19459085Y-17115942D01*
X19222731Y-17332522D01*
X19219421Y-17335299D01*
X18966812Y-17529131D01*
X18963273Y-17531609D01*
X18694714Y-17702700D01*
X18690972Y-17704861D01*
X18408541Y-17851885D01*
X18404625Y-17853711D01*
X18110446Y-17975565D01*
X18106386Y-17977042D01*
X17838738Y-18061431D01*
X17802701Y-18072794D01*
X17798540Y-18073909D01*
X17487664Y-18142828D01*
X17483414Y-18143578D01*
X17167725Y-18185140D01*
X17163421Y-18185517D01*
X16843169Y-18199500D01*
X11301171Y-18199500D01*
X10905221Y-18236190D01*
X10905212Y-18236191D01*
X10514349Y-18309256D01*
X10131880Y-18418078D01*
X9761069Y-18561731D01*
X9405122Y-18738971D01*
X9067038Y-18948305D01*
X8749696Y-19187951D01*
X8455846Y-19455832D01*
X8455832Y-19455846D01*
X8187951Y-19749696D01*
X7948305Y-20067038D01*
X7738971Y-20405122D01*
X7561731Y-20761069D01*
X7418078Y-21131880D01*
X7309256Y-21514349D01*
X7236191Y-21905212D01*
X7236190Y-21905221D01*
X7199500Y-22301171D01*
X7199500Y-22564441D01*
X7180593Y-22622632D01*
X7131093Y-22658596D01*
X7069907Y-22658596D01*
X7020407Y-22622632D01*
X7002719Y-22579928D01*
X6952191Y-22260905D01*
X6952190Y-22260903D01*
X6855884Y-21901486D01*
X6855882Y-21901479D01*
X6722538Y-21554105D01*
X6553611Y-21222568D01*
X6553604Y-21222557D01*
X6350956Y-20910505D01*
X6350949Y-20910495D01*
X6315449Y-20866657D01*
X5416434Y-21765671D01*
X5303628Y-21596844D01*
X5104835Y-21370165D01*
X4878156Y-21171372D01*
X4709325Y-21058564D01*
X5608341Y-20159549D01*
X5564503Y-20124050D01*
X5252442Y-19921394D01*
X5252431Y-19921388D01*
X4920894Y-19752461D01*
X4573520Y-19619117D01*
X4573513Y-19619115D01*
X4214096Y-19522809D01*
X4214094Y-19522808D01*
X3846596Y-19464603D01*
X3846568Y-19464600D01*
X3475006Y-19445128D01*
X3474994Y-19445128D01*
X3103431Y-19464600D01*
X3103403Y-19464603D01*
X2735905Y-19522808D01*
X2735903Y-19522809D01*
X2376486Y-19619115D01*
X2376479Y-19619117D01*
X2029105Y-19752461D01*
X1697569Y-19921388D01*
X1385497Y-20124049D01*
X1341657Y-20159549D01*
X2240672Y-21058564D01*
X2071844Y-21171372D01*
X1845165Y-21370165D01*
X1646372Y-21596844D01*
X1533564Y-21765672D01*
X634549Y-20866657D01*
X599049Y-20910497D01*
X396388Y-21222569D01*
X227461Y-21554105D01*
X93187Y-21903904D01*
X92265Y-21903550D01*
X58395Y-21950096D01*
X190Y-21968961D01*
X-57987Y-21950011D01*
X-91817Y-21903406D01*
X-92710Y-21903749D01*
X-227003Y-21553902D01*
X-395954Y-21222319D01*
X-454686Y-21131880D01*
X-598643Y-20910204D01*
X-630780Y-20870518D01*
X-832839Y-20620995D01*
X-1095995Y-20357839D01*
X-1385201Y-20123645D01*
X-1697306Y-19920960D01*
X-1697317Y-19920954D01*
X-2028902Y-19752003D01*
X-2376324Y-19618640D01*
X-2376331Y-19618638D01*
X-2735798Y-19522319D01*
X-2735800Y-19522318D01*
X-3103350Y-19464105D01*
X-3103378Y-19464102D01*
X-3474994Y-19444627D01*
X-3475006Y-19444627D01*
X-3846621Y-19464102D01*
X-3846649Y-19464105D01*
X-4214199Y-19522318D01*
X-4214201Y-19522319D01*
X-4573668Y-19618638D01*
X-4573675Y-19618640D01*
X-4921097Y-19752003D01*
X-5180268Y-19884058D01*
X-5252686Y-19920957D01*
X-5564796Y-20123643D01*
X-5854009Y-20357843D01*
X-6117157Y-20620991D01*
X-6351357Y-20910204D01*
X-6554043Y-21222314D01*
X-6722995Y-21553900D01*
X-6856361Y-21901329D01*
X-6952680Y-22260796D01*
X-6952680Y-22260798D01*
X-6952681Y-22260800D01*
X-7002719Y-22576731D01*
X-7030496Y-22631247D01*
X-7085013Y-22659025D01*
X-7145445Y-22649454D01*
X-7188710Y-22606189D01*
X-7199500Y-22561244D01*
X-7199500Y-22301171D01*
X-7236190Y-21905221D01*
X-7236191Y-21905212D01*
X-7309256Y-21514349D01*
X-7418078Y-21131880D01*
X-7561731Y-20761069D01*
X-7738971Y-20405122D01*
X-7948305Y-20067038D01*
X-8187951Y-19749696D01*
X-8455832Y-19455846D01*
X-8455846Y-19455832D01*
X-8749696Y-19187951D01*
X-9067038Y-18948305D01*
X-9405122Y-18738971D01*
X-9761069Y-18561731D01*
X-10131880Y-18418078D01*
X-10514350Y-18309256D01*
X-10514349Y-18309256D01*
X-10905212Y-18236191D01*
X-10905221Y-18236190D01*
X-11301171Y-18199500D01*
X-11301176Y-18199500D01*
X-11443827Y-18199500D01*
X-16167898Y-18199500D01*
X-16170268Y-18199443D01*
X-16266690Y-18194814D01*
X-16521059Y-18182604D01*
X-16525786Y-18182149D01*
X-16872188Y-18131956D01*
X-16876843Y-18131052D01*
X-17216828Y-18047914D01*
X-17221382Y-18046566D01*
X-17551850Y-17931241D01*
X-17556255Y-17929463D01*
X-17874149Y-17783018D01*
X-17878363Y-17780826D01*
X-18180777Y-17604601D01*
X-18184762Y-17602016D01*
X-18468901Y-17397636D01*
X-18472620Y-17394681D01*
X-18735873Y-17164030D01*
X-18739291Y-17160733D01*
X-18979243Y-16905922D01*
X-18982330Y-16902312D01*
X-19196772Y-16625689D01*
X-19199498Y-16621800D01*
X-19387082Y-16324923D01*
X-19388302Y-16322886D01*
X-20039960Y-15172902D01*
X-17654206Y-15172902D01*
X-17644327Y-15480978D01*
X-17595133Y-15785261D01*
X-17507431Y-16080756D01*
X-17382663Y-16362609D01*
X-17222877Y-16626193D01*
X-17030696Y-16867181D01*
X-16809276Y-17081614D01*
X-16562253Y-17265972D01*
X-16293682Y-17417228D01*
X-16007975Y-17532899D01*
X-15709821Y-17611084D01*
X-15404117Y-17650500D01*
X-15173031Y-17650500D01*
X-15173026Y-17650500D01*
X-14942399Y-17635693D01*
X-14942394Y-17635692D01*
X-14942393Y-17635692D01*
X-14639861Y-17576775D01*
X-14639853Y-17576772D01*
X-14639849Y-17576772D01*
X-14347317Y-17479644D01*
X-14156886Y-17387938D01*
X-14069614Y-17345911D01*
X-14069610Y-17345909D01*
X-13811283Y-17177756D01*
X-13811282Y-17177755D01*
X-13811280Y-17177754D01*
X-13576576Y-16977948D01*
X-13576573Y-16977945D01*
X-13369354Y-16749775D01*
X-13369347Y-16749765D01*
X-13193004Y-16496964D01*
X-13050436Y-16223689D01*
X-13050428Y-16223672D01*
X-12943985Y-15934431D01*
X-12943980Y-15934416D01*
X-12875390Y-15633904D01*
X-12860638Y-15480973D01*
X-12845794Y-15327098D01*
X-12850739Y-15172910D01*
X12845794Y-15172910D01*
X12855673Y-15480973D01*
X12855674Y-15480988D01*
X12904867Y-15785262D01*
X12904868Y-15785264D01*
X12992567Y-16080752D01*
X13117337Y-16362609D01*
X13277124Y-16626195D01*
X13277127Y-16626199D01*
X13469294Y-16867170D01*
X13469297Y-16867173D01*
X13469299Y-16867175D01*
X13469304Y-16867181D01*
X13690724Y-17081614D01*
X13937747Y-17265972D01*
X14206318Y-17417228D01*
X14492025Y-17532899D01*
X14790179Y-17611084D01*
X15095883Y-17650500D01*
X15326969Y-17650500D01*
X15326974Y-17650500D01*
X15557601Y-17635693D01*
X15573670Y-17632563D01*
X15860138Y-17576775D01*
X15860143Y-17576773D01*
X15860151Y-17576772D01*
X16152683Y-17479644D01*
X16430393Y-17345907D01*
X16688720Y-17177754D01*
X16923424Y-16977948D01*
X17130650Y-16749769D01*
X17306996Y-16496963D01*
X17449567Y-16223683D01*
X17556020Y-15934415D01*
X17624609Y-15633908D01*
X17654206Y-15327098D01*
X17644327Y-15019022D01*
X17595133Y-14714739D01*
X17507431Y-14419244D01*
X17382663Y-14137391D01*
X17222877Y-13873807D01*
X17222875Y-13873804D01*
X17222872Y-13873800D01*
X17030705Y-13632829D01*
X17030702Y-13632826D01*
X17030700Y-13632824D01*
X17030696Y-13632819D01*
X16809276Y-13418386D01*
X16631828Y-13285953D01*
X16562256Y-13234030D01*
X16562254Y-13234029D01*
X16562253Y-13234028D01*
X16293682Y-13082772D01*
X16007975Y-12967101D01*
X16007971Y-12967100D01*
X16007969Y-12967099D01*
X15866979Y-12930127D01*
X15709821Y-12888916D01*
X15709816Y-12888915D01*
X15709815Y-12888915D01*
X15404117Y-12849500D01*
X15173026Y-12849500D01*
X15068195Y-12856230D01*
X14942393Y-12864307D01*
X14639861Y-12923224D01*
X14639843Y-12923229D01*
X14347321Y-13020354D01*
X14069614Y-13154088D01*
X14069610Y-13154090D01*
X13811283Y-13322243D01*
X13811282Y-13322244D01*
X13576573Y-13522054D01*
X13369354Y-13750224D01*
X13369347Y-13750234D01*
X13193004Y-14003035D01*
X13050436Y-14276310D01*
X13050428Y-14276327D01*
X12943985Y-14565568D01*
X12943980Y-14565583D01*
X12875390Y-14866095D01*
X12865746Y-14966075D01*
X12845794Y-15172902D01*
X12845794Y-15172908D01*
X12845794Y-15172910D01*
X-12850739Y-15172910D01*
X-12850739Y-15172902D01*
X-12855673Y-15019026D01*
X-12855674Y-15019011D01*
X-12904867Y-14714737D01*
X-12904868Y-14714735D01*
X-12992567Y-14419247D01*
X-13117337Y-14137390D01*
X-13277124Y-13873804D01*
X-13277127Y-13873800D01*
X-13469294Y-13632829D01*
X-13469297Y-13632826D01*
X-13490964Y-13611843D01*
X-13690724Y-13418386D01*
X-13690723Y-13418386D01*
X-13690726Y-13418384D01*
X-13937743Y-13234030D01*
X-14079680Y-13154093D01*
X-14206318Y-13082772D01*
X-14492025Y-12967101D01*
X-14492025Y-12967100D01*
X-14492030Y-12967099D01*
X-14719681Y-12907402D01*
X-14790179Y-12888916D01*
X-14790181Y-12888915D01*
X-14790184Y-12888915D01*
X-15095883Y-12849500D01*
X-15326974Y-12849500D01*
X-15442287Y-12856903D01*
X-15557606Y-12864307D01*
X-15860138Y-12923224D01*
X-15860156Y-12923229D01*
X-16152678Y-13020354D01*
X-16152680Y-13020355D01*
X-16152683Y-13020356D01*
X-16225502Y-13055423D01*
X-16430385Y-13154088D01*
X-16430389Y-13154090D01*
X-16688716Y-13322243D01*
X-16688717Y-13322244D01*
X-16688720Y-13322246D01*
X-16923424Y-13522052D01*
X-16923426Y-13522054D01*
X-17130645Y-13750224D01*
X-17130649Y-13750230D01*
X-17130650Y-13750231D01*
X-17306996Y-14003037D01*
X-17449567Y-14276317D01*
X-17449569Y-14276323D01*
X-17449571Y-14276327D01*
X-17520523Y-14469128D01*
X-17556020Y-14565585D01*
X-17624609Y-14866092D01*
X-17654206Y-15172902D01*
X-20039960Y-15172902D01*
X-20438766Y-14469128D01*
X-20438770Y-14469121D01*
X-20465629Y-14421723D01*
X-20614511Y-14158961D01*
X-20614511Y-14158960D01*
X-20798970Y-13873807D01*
X-20942595Y-13651777D01*
X-21037736Y-13522052D01*
X-21299828Y-13164691D01*
X-21684981Y-12699380D01*
X-21684982Y-12699379D01*
X-22096740Y-12257431D01*
X-22096742Y-12257429D01*
X-22533682Y-11840368D01*
X-22994311Y-11449624D01*
X-23477044Y-11086537D01*
X-23477044Y-11086538D01*
X-23477049Y-11086534D01*
X-23819177Y-10859314D01*
X-23980223Y-10752357D01*
X-23980224Y-10752357D01*
X-23980227Y-10752355D01*
X-24413278Y-10500004D01*
X-8105659Y-10500004D01*
X-8096954Y-10599500D01*
X-8085063Y-10735408D01*
X-8023903Y-10963663D01*
X-7924035Y-11177829D01*
X-7788495Y-11371401D01*
X-7621401Y-11538495D01*
X-7427829Y-11674035D01*
X-7213663Y-11773903D01*
X-6985408Y-11835063D01*
X-6985401Y-11835063D01*
X-6985400Y-11835064D01*
X-6808972Y-11850500D01*
X-6808966Y-11850500D01*
X-6691028Y-11850500D01*
X-6514599Y-11835064D01*
X-6514596Y-11835063D01*
X-6514592Y-11835063D01*
X-6286337Y-11773903D01*
X-6286333Y-11773901D01*
X-6286332Y-11773901D01*
X-6072181Y-11674040D01*
X-6072173Y-11674036D01*
X-6072172Y-11674035D01*
X-6072171Y-11674035D01*
X-5878599Y-11538495D01*
X-5711505Y-11371401D01*
X-5575965Y-11177830D01*
X-5476097Y-10963663D01*
X-5414937Y-10735408D01*
X-5414936Y-10735407D01*
X-5414935Y-10735400D01*
X-5394341Y-10500004D01*
X5394341Y-10500004D01*
X5414935Y-10735400D01*
X5414936Y-10735407D01*
X5414937Y-10735408D01*
X5428476Y-10785935D01*
X5476098Y-10963667D01*
X5575959Y-11177818D01*
X5575963Y-11177826D01*
X5575964Y-11177828D01*
X5575965Y-11177829D01*
X5711505Y-11371401D01*
X5878599Y-11538495D01*
X6072171Y-11674035D01*
X6072172Y-11674035D01*
X6072173Y-11674036D01*
X6072181Y-11674040D01*
X6286333Y-11773901D01*
X6286337Y-11773903D01*
X6514592Y-11835063D01*
X6514596Y-11835063D01*
X6514599Y-11835064D01*
X6691028Y-11850500D01*
X6691034Y-11850500D01*
X6808972Y-11850500D01*
X6985400Y-11835064D01*
X6985401Y-11835063D01*
X6985408Y-11835063D01*
X7213663Y-11773903D01*
X7427829Y-11674035D01*
X7621401Y-11538495D01*
X7788495Y-11371401D01*
X7924035Y-11177830D01*
X8023903Y-10963663D01*
X8085063Y-10735408D01*
X8096954Y-10599500D01*
X8105659Y-10500004D01*
X8105659Y-10499995D01*
X8095888Y-10388315D01*
X23866355Y-10388315D01*
X23906871Y-10492895D01*
X23922553Y-10512693D01*
X23922556Y-10512697D01*
X24166355Y-10756496D01*
X24590619Y-10332233D01*
X24892741Y-10332233D01*
X24912562Y-10457381D01*
X24970086Y-10570278D01*
X25059682Y-10659874D01*
X25172579Y-10717398D01*
X25266246Y-10732233D01*
X25329208Y-10732233D01*
X25422875Y-10717398D01*
X25535772Y-10659874D01*
X25625368Y-10570278D01*
X25682892Y-10457381D01*
X25702713Y-10332233D01*
X25682892Y-10207085D01*
X25625368Y-10094188D01*
X25535772Y-10004592D01*
X25422875Y-9947068D01*
X25329208Y-9932233D01*
X25266246Y-9932233D01*
X25172579Y-9947068D01*
X25059682Y-10004592D01*
X24970086Y-10094188D01*
X24912562Y-10207085D01*
X24892741Y-10332233D01*
X24590619Y-10332233D01*
X24166355Y-9907969D01*
X23922554Y-10151771D01*
X23922551Y-10151774D01*
X23906872Y-10171570D01*
X23866355Y-10276150D01*
X23866355Y-10388315D01*
X8095888Y-10388315D01*
X8085064Y-10264599D01*
X8085063Y-10264596D01*
X8085063Y-10264592D01*
X8023903Y-10036337D01*
X8009467Y-10005379D01*
X7924040Y-9822181D01*
X7924036Y-9822173D01*
X7918271Y-9813940D01*
X7788495Y-9628599D01*
X7621401Y-9461505D01*
X7621397Y-9461502D01*
X7621396Y-9461501D01*
X7452502Y-9343241D01*
X7427829Y-9325965D01*
X7427828Y-9325964D01*
X7427826Y-9325963D01*
X7427818Y-9325959D01*
X7213666Y-9226098D01*
X7213667Y-9226098D01*
X7137578Y-9205710D01*
X7119485Y-9200862D01*
X24873464Y-9200862D01*
X25297727Y-9625125D01*
X25721989Y-9200862D01*
X25478181Y-8957054D01*
X25458389Y-8941378D01*
X25353809Y-8900861D01*
X25241644Y-8900861D01*
X25137064Y-8941377D01*
X25117269Y-8957056D01*
X24873464Y-9200862D01*
X7119485Y-9200862D01*
X6985408Y-9164937D01*
X6985407Y-9164936D01*
X6985400Y-9164935D01*
X6808972Y-9149500D01*
X6808966Y-9149500D01*
X6691034Y-9149500D01*
X6691028Y-9149500D01*
X6514599Y-9164935D01*
X6286332Y-9226098D01*
X6072181Y-9325959D01*
X6072173Y-9325963D01*
X5878603Y-9461501D01*
X5711501Y-9628603D01*
X5575964Y-9822171D01*
X5476097Y-10036337D01*
X5414935Y-10264599D01*
X5394341Y-10499995D01*
X5394341Y-10500004D01*
X-5394341Y-10500004D01*
X-5394341Y-10499995D01*
X-5414935Y-10264599D01*
X-5476098Y-10036332D01*
X-5575959Y-9822181D01*
X-5575963Y-9822173D01*
X-5711501Y-9628603D01*
X-5878603Y-9461501D01*
X-6072173Y-9325963D01*
X-6072181Y-9325959D01*
X-6286333Y-9226098D01*
X-6286332Y-9226098D01*
X-6514599Y-9164935D01*
X-6691028Y-9149500D01*
X-6691034Y-9149500D01*
X-6808966Y-9149500D01*
X-6808972Y-9149500D01*
X-6985400Y-9164935D01*
X-6985407Y-9164936D01*
X-6985408Y-9164937D01*
X-7137578Y-9205710D01*
X-7213667Y-9226098D01*
X-7427818Y-9325959D01*
X-7427826Y-9325963D01*
X-7427828Y-9325964D01*
X-7427829Y-9325965D01*
X-7452502Y-9343241D01*
X-7621396Y-9461501D01*
X-7621397Y-9461502D01*
X-7621401Y-9461505D01*
X-7788495Y-9628599D01*
X-7788497Y-9628602D01*
X-7788498Y-9628603D01*
X-7807008Y-9655038D01*
X-7924035Y-9822170D01*
X-8023903Y-10036337D01*
X-8085063Y-10264592D01*
X-8085063Y-10264596D01*
X-8085064Y-10264599D01*
X-8105659Y-10499995D01*
X-8105659Y-10500004D01*
X-24413278Y-10500004D01*
X-24502121Y-10448233D01*
X-24652249Y-10372162D01*
X-24858122Y-10267844D01*
X-24901484Y-10224676D01*
X-24911191Y-10164266D01*
X-24883535Y-10109687D01*
X-24848460Y-10089389D01*
X-24849232Y-10087527D01*
X-24697161Y-10024537D01*
X-24697160Y-10024537D01*
X-24571723Y-9928286D01*
X-24571722Y-9928285D01*
X-24571718Y-9928282D01*
X-24564125Y-9918387D01*
X-24475462Y-9802839D01*
X-24475462Y-9802838D01*
X-24414957Y-9656766D01*
X-24414955Y-9656758D01*
X-24394318Y-9500000D01*
X-24394318Y-9499999D01*
X-24414955Y-9343241D01*
X-24414957Y-9343233D01*
X-24475462Y-9197161D01*
X-24475462Y-9197160D01*
X-24571713Y-9071723D01*
X-24571723Y-9071713D01*
X-24697161Y-8975462D01*
X-24843233Y-8914957D01*
X-24843241Y-8914955D01*
X-24999999Y-8894318D01*
X-25000001Y-8894318D01*
X-25156758Y-8914955D01*
X-25156766Y-8914957D01*
X-25302838Y-8975462D01*
X-25302839Y-8975462D01*
X-25428276Y-9071713D01*
X-25428277Y-9071714D01*
X-25428282Y-9071718D01*
X-25428285Y-9071722D01*
X-25428286Y-9071723D01*
X-25524537Y-9197160D01*
X-25524537Y-9197161D01*
X-25577889Y-9325965D01*
X-25585044Y-9343238D01*
X-25605682Y-9500000D01*
X-25585044Y-9656762D01*
X-25534171Y-9779578D01*
X-25529371Y-9840573D01*
X-25561340Y-9892742D01*
X-25617868Y-9916157D01*
X-25659745Y-9910400D01*
X-26058616Y-9764010D01*
X-26161878Y-9726112D01*
X-26161882Y-9726110D01*
X-26161887Y-9726109D01*
X-26161886Y-9726109D01*
X-26740144Y-9551581D01*
X-27327656Y-9411228D01*
X-27327655Y-9411228D01*
X-27327658Y-9411227D01*
X-27327660Y-9411227D01*
X-27459975Y-9387713D01*
X-27922384Y-9305537D01*
X-28362084Y-9253745D01*
X-28522273Y-9234877D01*
X-28924273Y-9211283D01*
X-29125273Y-9199486D01*
X-29125274Y-9199486D01*
X-29427294Y-9199500D01*
X-59101829Y-9199500D01*
X-59101849Y-9199501D01*
X-59173926Y-9199501D01*
X-59376101Y-9231521D01*
X-59570790Y-9294780D01*
X-59753179Y-9387711D01*
X-59753181Y-9387712D01*
X-59753182Y-9387713D01*
X-59918789Y-9508034D01*
X-59918792Y-9508036D01*
X-59944324Y-9533569D01*
X-59944333Y-9533577D01*
X-59944334Y-9533577D01*
X-59951443Y-9540686D01*
X-59951445Y-9540687D01*
X-60065797Y-9655039D01*
X-60120312Y-9682815D01*
X-60180744Y-9673244D01*
X-60224009Y-9629979D01*
X-60234377Y-9594169D01*
X-60244244Y-9487688D01*
X-60302596Y-9282608D01*
X-60397630Y-9091752D01*
X-60397635Y-9091743D01*
X-60526125Y-8921597D01*
X-60526124Y-8921597D01*
X-60526128Y-8921593D01*
X-60526131Y-8921589D01*
X-60526135Y-8921586D01*
X-60683692Y-8777952D01*
X-60683699Y-8777946D01*
X-60864975Y-8665705D01*
X-60864980Y-8665702D01*
X-61063804Y-8588678D01*
X-61273390Y-8549500D01*
X-61486610Y-8549500D01*
X-61696195Y-8588678D01*
X-61696197Y-8588678D01*
X-61696198Y-8588679D01*
X-61785109Y-8623123D01*
X-61895019Y-8665702D01*
X-61895024Y-8665705D01*
X-62076300Y-8777946D01*
X-62076307Y-8777952D01*
X-62164638Y-8858477D01*
X-62233872Y-8921593D01*
X-62362366Y-9091745D01*
X-62457405Y-9282611D01*
X-62515756Y-9487690D01*
X-62535429Y-9700000D01*
X-62515756Y-9912310D01*
X-62457405Y-10117389D01*
X-62362366Y-10308255D01*
X-62262242Y-10440839D01*
X-62242263Y-10498670D01*
X-62260092Y-10557201D01*
X-62308918Y-10594073D01*
X-62341246Y-10599500D01*
X-62958754Y-10599500D01*
X-63016945Y-10580593D01*
X-63052909Y-10531093D01*
X-63052909Y-10469907D01*
X-63037758Y-10440839D01*
X-62937635Y-10308256D01*
X-62937630Y-10308247D01*
X-62842596Y-10117391D01*
X-62834628Y-10089389D01*
X-62790480Y-9934228D01*
X-62784244Y-9912311D01*
X-62764571Y-9700000D01*
X-62784244Y-9487688D01*
X-62842596Y-9282608D01*
X-62937630Y-9091752D01*
X-62937635Y-9091743D01*
X-63066125Y-8921597D01*
X-63066124Y-8921597D01*
X-63066128Y-8921593D01*
X-63066131Y-8921589D01*
X-63066135Y-8921586D01*
X-63223692Y-8777952D01*
X-63223699Y-8777946D01*
X-63404975Y-8665705D01*
X-63404980Y-8665702D01*
X-63603804Y-8588678D01*
X-63813390Y-8549500D01*
X-64026610Y-8549500D01*
X-64236195Y-8588678D01*
X-64236197Y-8588678D01*
X-64236198Y-8588679D01*
X-64325109Y-8623123D01*
X-64435019Y-8665702D01*
X-64435024Y-8665705D01*
X-64616300Y-8777946D01*
X-64616307Y-8777952D01*
X-64704638Y-8858477D01*
X-64773872Y-8921593D01*
X-64902366Y-9091745D01*
X-64997405Y-9282611D01*
X-65055756Y-9487690D01*
X-65075429Y-9700000D01*
X-65055756Y-9912310D01*
X-64997405Y-10117389D01*
X-64902366Y-10308255D01*
X-64802242Y-10440839D01*
X-64782263Y-10498670D01*
X-64800092Y-10557201D01*
X-64848918Y-10594073D01*
X-64881246Y-10599500D01*
X-65498754Y-10599500D01*
X-65556945Y-10580593D01*
X-65592909Y-10531093D01*
X-65592909Y-10469907D01*
X-65577758Y-10440839D01*
X-65477635Y-10308256D01*
X-65477630Y-10308247D01*
X-65382596Y-10117391D01*
X-65374628Y-10089389D01*
X-65330480Y-9934228D01*
X-65324244Y-9912311D01*
X-65304571Y-9700000D01*
X-65324244Y-9487688D01*
X-65382596Y-9282608D01*
X-65477630Y-9091752D01*
X-65477635Y-9091743D01*
X-65606125Y-8921597D01*
X-65606124Y-8921597D01*
X-65606128Y-8921593D01*
X-65606131Y-8921589D01*
X-65606135Y-8921586D01*
X-65763692Y-8777952D01*
X-65763699Y-8777946D01*
X-65944975Y-8665705D01*
X-65944980Y-8665702D01*
X-66143804Y-8588678D01*
X-66353390Y-8549500D01*
X-66566610Y-8549500D01*
X-66776195Y-8588678D01*
X-66776197Y-8588678D01*
X-66776198Y-8588679D01*
X-66865109Y-8623123D01*
X-66975019Y-8665702D01*
X-66975024Y-8665705D01*
X-67156300Y-8777946D01*
X-67156307Y-8777952D01*
X-67244638Y-8858477D01*
X-67313872Y-8921593D01*
X-67442366Y-9091745D01*
X-67537405Y-9282611D01*
X-67595756Y-9487690D01*
X-67615429Y-9700000D01*
X-67595756Y-9912310D01*
X-67537405Y-10117389D01*
X-67442366Y-10308255D01*
X-67342242Y-10440839D01*
X-67322263Y-10498670D01*
X-67340092Y-10557201D01*
X-67388918Y-10594073D01*
X-67421246Y-10599500D01*
X-68038754Y-10599500D01*
X-68096945Y-10580593D01*
X-68132909Y-10531093D01*
X-68132909Y-10469907D01*
X-68117758Y-10440839D01*
X-68017635Y-10308256D01*
X-68017630Y-10308247D01*
X-67922596Y-10117391D01*
X-67914628Y-10089389D01*
X-67870480Y-9934228D01*
X-67864244Y-9912311D01*
X-67844571Y-9700000D01*
X-67864244Y-9487688D01*
X-67922596Y-9282608D01*
X-68017630Y-9091752D01*
X-68017635Y-9091743D01*
X-68146125Y-8921597D01*
X-68146124Y-8921597D01*
X-68146128Y-8921593D01*
X-68146131Y-8921589D01*
X-68146135Y-8921586D01*
X-68303692Y-8777952D01*
X-68303699Y-8777946D01*
X-68484975Y-8665705D01*
X-68484980Y-8665702D01*
X-68683804Y-8588678D01*
X-68893390Y-8549500D01*
X-69106610Y-8549500D01*
X-69316195Y-8588678D01*
X-69316197Y-8588678D01*
X-69316198Y-8588679D01*
X-69405109Y-8623123D01*
X-69515019Y-8665702D01*
X-69515024Y-8665705D01*
X-69696300Y-8777946D01*
X-69696307Y-8777952D01*
X-69784638Y-8858477D01*
X-69853872Y-8921593D01*
X-69982366Y-9091745D01*
X-70077405Y-9282611D01*
X-70135756Y-9487690D01*
X-70148230Y-9622317D01*
X-70172426Y-9678514D01*
X-70225033Y-9709758D01*
X-70285957Y-9704112D01*
X-70316812Y-9683186D01*
X-70367931Y-9632067D01*
X-70395708Y-9577550D01*
X-70396505Y-9571199D01*
X-70404244Y-9487689D01*
X-70462596Y-9282608D01*
X-70557630Y-9091752D01*
X-70557635Y-9091743D01*
X-70686125Y-8921597D01*
X-70686124Y-8921597D01*
X-70686128Y-8921593D01*
X-70686131Y-8921589D01*
X-70686135Y-8921586D01*
X-70843692Y-8777952D01*
X-70843699Y-8777946D01*
X-71024975Y-8665705D01*
X-71024980Y-8665702D01*
X-71223804Y-8588678D01*
X-71433390Y-8549500D01*
X-71646610Y-8549500D01*
X-71856195Y-8588678D01*
X-71856197Y-8588678D01*
X-71856198Y-8588679D01*
X-71945109Y-8623123D01*
X-72055019Y-8665702D01*
X-72055024Y-8665705D01*
X-72236300Y-8777946D01*
X-72236307Y-8777952D01*
X-72324638Y-8858477D01*
X-72393872Y-8921593D01*
X-72393875Y-8921597D01*
X-72393879Y-8921601D01*
X-72408813Y-8941378D01*
X-72420652Y-8957056D01*
X-72423374Y-8960660D01*
X-72473530Y-8995704D01*
X-72502378Y-9000000D01*
X-73118248Y-9000000D01*
X-73176439Y-8981093D01*
X-73197251Y-8960662D01*
X-73226501Y-8921928D01*
X-73383998Y-8778350D01*
X-73565206Y-8666151D01*
X-73579999Y-8660420D01*
X-73580000Y-8660420D01*
X-73580000Y-9000000D01*
X-74580000Y-9000000D01*
X-74580000Y-8660420D01*
X-74594793Y-8666151D01*
X-74776001Y-8778350D01*
X-74933498Y-8921928D01*
X-74962749Y-8960662D01*
X-75012905Y-8995704D01*
X-75041752Y-9000000D01*
X-75370501Y-9000000D01*
X-75428692Y-8981093D01*
X-75464656Y-8931593D01*
X-75469501Y-8901000D01*
X-75469501Y-8805136D01*
X-75472414Y-8780009D01*
X-75517794Y-8677235D01*
X-75597235Y-8597794D01*
X-75700011Y-8552414D01*
X-75725131Y-8549500D01*
X-77514860Y-8549500D01*
X-77514862Y-8549500D01*
X-77514864Y-8549501D01*
X-77517777Y-8549838D01*
X-77539990Y-8552414D01*
X-77594024Y-8576273D01*
X-77642765Y-8597794D01*
X-77722206Y-8677235D01*
X-77767585Y-8780009D01*
X-77767585Y-8780011D01*
X-77770499Y-8805130D01*
X-77770500Y-8805133D01*
X-77770500Y-8901000D01*
X-77789407Y-8959191D01*
X-77838907Y-8995155D01*
X-77869500Y-9000000D01*
X-79984393Y-9000000D01*
X-80025021Y-8991278D01*
X-80096318Y-8959191D01*
X-80119423Y-8948792D01*
X-80124721Y-8946012D01*
X-80346895Y-8811702D01*
X-80351818Y-8808303D01*
X-80556173Y-8648201D01*
X-80560651Y-8644234D01*
X-80744234Y-8460651D01*
X-80748201Y-8456173D01*
X-80820218Y-8364250D01*
X-80841222Y-8306783D01*
X-80824436Y-8247945D01*
X-80810000Y-8233385D01*
X-80810000Y-8229578D01*
X-79810000Y-8229578D01*
X-79795202Y-8223845D01*
X-79613995Y-8111647D01*
X-79456506Y-7968075D01*
X-79456496Y-7968064D01*
X-79328062Y-7797992D01*
X-79328057Y-7797983D01*
X-79274288Y-7690000D01*
X-79809999Y-7690000D01*
X-79810000Y-7690001D01*
X-79810000Y-8229578D01*
X-80810000Y-8229578D01*
X-80810000Y-7261889D01*
X-80769493Y-7399844D01*
X-80691761Y-7520798D01*
X-80583100Y-7614952D01*
X-80452315Y-7674680D01*
X-80345763Y-7690000D01*
X-80274237Y-7690000D01*
X-80167685Y-7674680D01*
X-80036900Y-7614952D01*
X-79928239Y-7520798D01*
X-79850507Y-7399844D01*
X-79810000Y-7261889D01*
X-79810000Y-7190000D01*
X-78925429Y-7190000D01*
X-78905756Y-7402310D01*
X-78847405Y-7607389D01*
X-78752366Y-7798255D01*
X-78623872Y-7968407D01*
X-78466302Y-8112052D01*
X-78285019Y-8224298D01*
X-78086198Y-8301321D01*
X-77876610Y-8340500D01*
X-77663390Y-8340500D01*
X-77453802Y-8301321D01*
X-77254981Y-8224298D01*
X-77105314Y-8131628D01*
X-77073699Y-8112053D01*
X-77073692Y-8112047D01*
X-76986734Y-8032773D01*
X-76916128Y-7968407D01*
X-76787634Y-7798255D01*
X-76692595Y-7607389D01*
X-76634244Y-7402310D01*
X-76624524Y-7297418D01*
X-76614571Y-7190000D01*
X-76385429Y-7190000D01*
X-76365756Y-7402310D01*
X-76307405Y-7607389D01*
X-76212366Y-7798255D01*
X-76083872Y-7968407D01*
X-75926302Y-8112052D01*
X-75745019Y-8224298D01*
X-75546198Y-8301321D01*
X-75336610Y-8340500D01*
X-75123390Y-8340500D01*
X-74913802Y-8301321D01*
X-74714981Y-8224298D01*
X-74565314Y-8131628D01*
X-74533699Y-8112053D01*
X-74533692Y-8112047D01*
X-74446734Y-8032773D01*
X-74376128Y-7968407D01*
X-74247634Y-7798255D01*
X-74152595Y-7607389D01*
X-74094244Y-7402310D01*
X-74084524Y-7297418D01*
X-74074571Y-7190000D01*
X-73845429Y-7190000D01*
X-73825756Y-7402310D01*
X-73767405Y-7607389D01*
X-73672366Y-7798255D01*
X-73543872Y-7968407D01*
X-73386302Y-8112052D01*
X-73205019Y-8224298D01*
X-73006198Y-8301321D01*
X-72796610Y-8340500D01*
X-72583390Y-8340500D01*
X-72373802Y-8301321D01*
X-72174981Y-8224298D01*
X-72025314Y-8131628D01*
X-71993699Y-8112053D01*
X-71993692Y-8112047D01*
X-71906734Y-8032773D01*
X-71836128Y-7968407D01*
X-71707634Y-7798255D01*
X-71612595Y-7607389D01*
X-71554244Y-7402310D01*
X-71544524Y-7297418D01*
X-71534571Y-7190000D01*
X-71305429Y-7190000D01*
X-71285756Y-7402310D01*
X-71227405Y-7607389D01*
X-71132366Y-7798255D01*
X-71003872Y-7968407D01*
X-70846302Y-8112052D01*
X-70665019Y-8224298D01*
X-70466198Y-8301321D01*
X-70256610Y-8340500D01*
X-70043390Y-8340500D01*
X-69833802Y-8301321D01*
X-69634981Y-8224298D01*
X-69485314Y-8131628D01*
X-69453699Y-8112053D01*
X-69453692Y-8112047D01*
X-69366734Y-8032773D01*
X-69296128Y-7968407D01*
X-69167634Y-7798255D01*
X-69072595Y-7607389D01*
X-69014244Y-7402310D01*
X-69004524Y-7297418D01*
X-68994571Y-7190000D01*
X-68765429Y-7190000D01*
X-68745756Y-7402310D01*
X-68687405Y-7607389D01*
X-68592366Y-7798255D01*
X-68463872Y-7968407D01*
X-68306302Y-8112052D01*
X-68125019Y-8224298D01*
X-67926198Y-8301321D01*
X-67716610Y-8340500D01*
X-67503390Y-8340500D01*
X-67293802Y-8301321D01*
X-67094981Y-8224298D01*
X-66945314Y-8131628D01*
X-66913699Y-8112053D01*
X-66913692Y-8112047D01*
X-66826734Y-8032773D01*
X-66756128Y-7968407D01*
X-66627634Y-7798255D01*
X-66532595Y-7607389D01*
X-66474244Y-7402310D01*
X-66464524Y-7297418D01*
X-66454571Y-7190000D01*
X-66225429Y-7190000D01*
X-66205756Y-7402310D01*
X-66147405Y-7607389D01*
X-66052366Y-7798255D01*
X-65923872Y-7968407D01*
X-65766302Y-8112052D01*
X-65585019Y-8224298D01*
X-65386198Y-8301321D01*
X-65176610Y-8340500D01*
X-64963390Y-8340500D01*
X-64753802Y-8301321D01*
X-64554981Y-8224298D01*
X-64405314Y-8131628D01*
X-64373699Y-8112053D01*
X-64373692Y-8112047D01*
X-64286734Y-8032773D01*
X-64216128Y-7968407D01*
X-64087634Y-7798255D01*
X-64033730Y-7690000D01*
X-63565712Y-7690000D01*
X-63511942Y-7797983D01*
X-63511937Y-7797992D01*
X-63383503Y-7968064D01*
X-63383493Y-7968075D01*
X-63226004Y-8111647D01*
X-63044797Y-8223845D01*
X-63030000Y-8229578D01*
X-62030000Y-8229578D01*
X-62015202Y-8223845D01*
X-61833995Y-8111647D01*
X-61676506Y-7968075D01*
X-61676496Y-7968064D01*
X-61548062Y-7797992D01*
X-61548057Y-7797983D01*
X-61494288Y-7690000D01*
X-62029999Y-7690000D01*
X-62030000Y-7690001D01*
X-62030000Y-8229578D01*
X-63030000Y-8229578D01*
X-63030000Y-7690001D01*
X-63030001Y-7690000D01*
X-63565712Y-7690000D01*
X-64033730Y-7690000D01*
X-63992595Y-7607389D01*
X-63934244Y-7402310D01*
X-63924524Y-7297418D01*
X-63921232Y-7261889D01*
X-63030000Y-7261889D01*
X-62989493Y-7399844D01*
X-62911761Y-7520798D01*
X-62803100Y-7614952D01*
X-62672315Y-7674680D01*
X-62565763Y-7690000D01*
X-62494237Y-7690000D01*
X-62387685Y-7674680D01*
X-62256900Y-7614952D01*
X-62148239Y-7520798D01*
X-62070507Y-7399844D01*
X-62030000Y-7261889D01*
X-62030000Y-7190000D01*
X-61145429Y-7190000D01*
X-61125756Y-7402310D01*
X-61067405Y-7607389D01*
X-60972366Y-7798255D01*
X-60843872Y-7968407D01*
X-60686302Y-8112052D01*
X-60505019Y-8224298D01*
X-60306198Y-8301321D01*
X-60096610Y-8340500D01*
X-59883390Y-8340500D01*
X-59673802Y-8301321D01*
X-59474981Y-8224298D01*
X-59325314Y-8131628D01*
X-59293699Y-8112053D01*
X-59293692Y-8112047D01*
X-59206734Y-8032773D01*
X-59136128Y-7968407D01*
X-59007634Y-7798255D01*
X-58912595Y-7607389D01*
X-58854244Y-7402310D01*
X-58844524Y-7297418D01*
X-58834571Y-7190000D01*
X-58605429Y-7190000D01*
X-58585756Y-7402310D01*
X-58527405Y-7607389D01*
X-58432366Y-7798255D01*
X-58303872Y-7968407D01*
X-58146302Y-8112052D01*
X-57965019Y-8224298D01*
X-57766198Y-8301321D01*
X-57556610Y-8340500D01*
X-57343390Y-8340500D01*
X-57133802Y-8301321D01*
X-56934981Y-8224298D01*
X-56785314Y-8131628D01*
X-56753699Y-8112053D01*
X-56753692Y-8112047D01*
X-56666734Y-8032773D01*
X-56596128Y-7968407D01*
X-56467634Y-7798255D01*
X-56372595Y-7607389D01*
X-56314244Y-7402310D01*
X-56304524Y-7297418D01*
X-56294571Y-7190000D01*
X-56065429Y-7190000D01*
X-56045756Y-7402310D01*
X-55987405Y-7607389D01*
X-55892366Y-7798255D01*
X-55763872Y-7968407D01*
X-55606302Y-8112052D01*
X-55425019Y-8224298D01*
X-55226198Y-8301321D01*
X-55016610Y-8340500D01*
X-54803390Y-8340500D01*
X-54593802Y-8301321D01*
X-54394981Y-8224298D01*
X-54245314Y-8131628D01*
X-54213699Y-8112053D01*
X-54213692Y-8112047D01*
X-54126734Y-8032773D01*
X-54056128Y-7968407D01*
X-53927634Y-7798255D01*
X-53832595Y-7607389D01*
X-53774244Y-7402310D01*
X-53764524Y-7297418D01*
X-53754571Y-7190000D01*
X-53525429Y-7190000D01*
X-53505756Y-7402310D01*
X-53447405Y-7607389D01*
X-53352366Y-7798255D01*
X-53223872Y-7968407D01*
X-53066302Y-8112052D01*
X-52885019Y-8224298D01*
X-52686198Y-8301321D01*
X-52476610Y-8340500D01*
X-52263390Y-8340500D01*
X-52053802Y-8301321D01*
X-51854981Y-8224298D01*
X-51705314Y-8131628D01*
X-51673699Y-8112053D01*
X-51673692Y-8112047D01*
X-51586734Y-8032773D01*
X-51516128Y-7968407D01*
X-51387634Y-7798255D01*
X-51292595Y-7607389D01*
X-51234244Y-7402310D01*
X-51224524Y-7297418D01*
X-51214571Y-7190000D01*
X-50985429Y-7190000D01*
X-50965756Y-7402310D01*
X-50907405Y-7607389D01*
X-50812366Y-7798255D01*
X-50683872Y-7968407D01*
X-50526302Y-8112052D01*
X-50345019Y-8224298D01*
X-50146198Y-8301321D01*
X-49936610Y-8340500D01*
X-49723390Y-8340500D01*
X-49513802Y-8301321D01*
X-49314981Y-8224298D01*
X-49165314Y-8131628D01*
X-49133699Y-8112053D01*
X-49133692Y-8112047D01*
X-49046734Y-8032773D01*
X-48976128Y-7968407D01*
X-48847634Y-7798255D01*
X-48752595Y-7607389D01*
X-48694244Y-7402310D01*
X-48684524Y-7297418D01*
X-48674571Y-7190000D01*
X-48445429Y-7190000D01*
X-48425756Y-7402310D01*
X-48367405Y-7607389D01*
X-48272366Y-7798255D01*
X-48143872Y-7968407D01*
X-47986302Y-8112052D01*
X-47805019Y-8224298D01*
X-47606198Y-8301321D01*
X-47396610Y-8340500D01*
X-47183390Y-8340500D01*
X-46973802Y-8301321D01*
X-46774981Y-8224298D01*
X-46625314Y-8131628D01*
X-46593699Y-8112053D01*
X-46593692Y-8112047D01*
X-46506734Y-8032773D01*
X-46436128Y-7968407D01*
X-46307634Y-7798255D01*
X-46212595Y-7607389D01*
X-46154244Y-7402310D01*
X-46144524Y-7297418D01*
X-46134571Y-7190000D01*
X-45905429Y-7190000D01*
X-45885756Y-7402310D01*
X-45827405Y-7607389D01*
X-45732366Y-7798255D01*
X-45603872Y-7968407D01*
X-45446302Y-8112052D01*
X-45265019Y-8224298D01*
X-45066198Y-8301321D01*
X-44856610Y-8340500D01*
X-44643390Y-8340500D01*
X-44433802Y-8301321D01*
X-44234981Y-8224298D01*
X-44085314Y-8131628D01*
X-44053699Y-8112053D01*
X-44053692Y-8112047D01*
X-43966734Y-8032773D01*
X-43896128Y-7968407D01*
X-43767634Y-7798255D01*
X-43713730Y-7690000D01*
X-43245712Y-7690000D01*
X-43191942Y-7797983D01*
X-43191937Y-7797992D01*
X-43063503Y-7968064D01*
X-43063493Y-7968075D01*
X-42906004Y-8111647D01*
X-42724797Y-8223845D01*
X-42710000Y-8229578D01*
X-41710000Y-8229578D01*
X-41695202Y-8223845D01*
X-41513995Y-8111647D01*
X-41356506Y-7968075D01*
X-41356496Y-7968064D01*
X-41228062Y-7797992D01*
X-41228057Y-7797983D01*
X-41174288Y-7690000D01*
X-41709999Y-7690000D01*
X-41710000Y-7690001D01*
X-41710000Y-8229578D01*
X-42710000Y-8229578D01*
X-42710000Y-7690001D01*
X-42710001Y-7690000D01*
X-43245712Y-7690000D01*
X-43713730Y-7690000D01*
X-43672595Y-7607389D01*
X-43614244Y-7402310D01*
X-43604524Y-7297418D01*
X-43601232Y-7261889D01*
X-42710000Y-7261889D01*
X-42669493Y-7399844D01*
X-42591761Y-7520798D01*
X-42483100Y-7614952D01*
X-42352315Y-7674680D01*
X-42245763Y-7690000D01*
X-42174237Y-7690000D01*
X-42067685Y-7674680D01*
X-41936900Y-7614952D01*
X-41828239Y-7520798D01*
X-41750507Y-7399844D01*
X-41710000Y-7261889D01*
X-41710000Y-7190000D01*
X-40825429Y-7190000D01*
X-40805756Y-7402310D01*
X-40747405Y-7607389D01*
X-40652366Y-7798255D01*
X-40523872Y-7968407D01*
X-40366302Y-8112052D01*
X-40185019Y-8224298D01*
X-39986198Y-8301321D01*
X-39776610Y-8340500D01*
X-39563390Y-8340500D01*
X-39353802Y-8301321D01*
X-39154981Y-8224298D01*
X-39005314Y-8131628D01*
X-38973699Y-8112053D01*
X-38973692Y-8112047D01*
X-38886734Y-8032773D01*
X-38816128Y-7968407D01*
X-38687634Y-7798255D01*
X-38592595Y-7607389D01*
X-38534244Y-7402310D01*
X-38524524Y-7297418D01*
X-38514571Y-7190000D01*
X-38285429Y-7190000D01*
X-38265756Y-7402310D01*
X-38207405Y-7607389D01*
X-38112366Y-7798255D01*
X-37983872Y-7968407D01*
X-37826302Y-8112052D01*
X-37645019Y-8224298D01*
X-37446198Y-8301321D01*
X-37236610Y-8340500D01*
X-37023390Y-8340500D01*
X-36813802Y-8301321D01*
X-36614981Y-8224298D01*
X-36465314Y-8131628D01*
X-36433699Y-8112053D01*
X-36433692Y-8112047D01*
X-36346734Y-8032773D01*
X-36276128Y-7968407D01*
X-36147634Y-7798255D01*
X-36052595Y-7607389D01*
X-35994244Y-7402310D01*
X-35984524Y-7297418D01*
X-35974571Y-7190000D01*
X-35745429Y-7190000D01*
X-35725756Y-7402310D01*
X-35667405Y-7607389D01*
X-35572366Y-7798255D01*
X-35443872Y-7968407D01*
X-35286302Y-8112052D01*
X-35105019Y-8224298D01*
X-34906198Y-8301321D01*
X-34696610Y-8340500D01*
X-34483390Y-8340500D01*
X-34273802Y-8301321D01*
X-34074981Y-8224298D01*
X-33925314Y-8131628D01*
X-33893699Y-8112053D01*
X-33893692Y-8112047D01*
X-33806734Y-8032773D01*
X-33736128Y-7968407D01*
X-33607634Y-7798255D01*
X-33512595Y-7607389D01*
X-33454244Y-7402310D01*
X-33444524Y-7297418D01*
X-33434571Y-7190000D01*
X-33205429Y-7190000D01*
X-33185756Y-7402310D01*
X-33127405Y-7607389D01*
X-33032366Y-7798255D01*
X-32903872Y-7968407D01*
X-32746302Y-8112052D01*
X-32565019Y-8224298D01*
X-32366198Y-8301321D01*
X-32156610Y-8340500D01*
X-31943390Y-8340500D01*
X-31733802Y-8301321D01*
X-31661819Y-8273435D01*
X-27401495Y-8273435D01*
X-27380857Y-8430197D01*
X-27320349Y-8576276D01*
X-27224095Y-8701717D01*
X-27098654Y-8797971D01*
X-26952575Y-8858479D01*
X-26827165Y-8874989D01*
X-26795814Y-8879117D01*
X-26795813Y-8879117D01*
X-26795812Y-8879117D01*
X-26756622Y-8873957D01*
X-26639051Y-8858479D01*
X-26639046Y-8858477D01*
X-26492974Y-8797972D01*
X-26492973Y-8797972D01*
X-26367536Y-8701721D01*
X-26367535Y-8701720D01*
X-26367531Y-8701717D01*
X-26339898Y-8665705D01*
X-26271275Y-8576274D01*
X-26271275Y-8576273D01*
X-26210770Y-8430201D01*
X-26210768Y-8430193D01*
X-26190131Y-8273435D01*
X-26190131Y-8273434D01*
X-26210768Y-8116676D01*
X-26210770Y-8116668D01*
X-26271275Y-7970596D01*
X-26271275Y-7970595D01*
X-26367526Y-7845158D01*
X-26367536Y-7845148D01*
X-26492974Y-7748897D01*
X-26639046Y-7688392D01*
X-26639054Y-7688390D01*
X-26795812Y-7667753D01*
X-26795814Y-7667753D01*
X-26952571Y-7688390D01*
X-26952579Y-7688392D01*
X-27098651Y-7748897D01*
X-27098652Y-7748897D01*
X-27224089Y-7845148D01*
X-27224090Y-7845149D01*
X-27224095Y-7845153D01*
X-27224098Y-7845157D01*
X-27224099Y-7845158D01*
X-27320350Y-7970595D01*
X-27320350Y-7970596D01*
X-27380857Y-8116673D01*
X-27401495Y-8273435D01*
X-31661819Y-8273435D01*
X-31534981Y-8224298D01*
X-31385314Y-8131628D01*
X-31353699Y-8112053D01*
X-31353692Y-8112047D01*
X-31266734Y-8032773D01*
X-31196128Y-7968407D01*
X-31067634Y-7798255D01*
X-30972595Y-7607389D01*
X-30914244Y-7402310D01*
X-30904524Y-7297418D01*
X-30894571Y-7190000D01*
X-30914244Y-6977688D01*
X-30972596Y-6772608D01*
X-31067630Y-6581752D01*
X-31067635Y-6581743D01*
X-31196125Y-6411597D01*
X-31196124Y-6411597D01*
X-31196128Y-6411593D01*
X-31196131Y-6411589D01*
X-31196135Y-6411586D01*
X-31353692Y-6267952D01*
X-31353699Y-6267946D01*
X-31534975Y-6155705D01*
X-31534980Y-6155702D01*
X-31733804Y-6078678D01*
X-31943390Y-6039500D01*
X-32156610Y-6039500D01*
X-32366195Y-6078678D01*
X-32366197Y-6078678D01*
X-32366198Y-6078679D01*
X-32462386Y-6115942D01*
X-32565019Y-6155702D01*
X-32565024Y-6155705D01*
X-32746300Y-6267946D01*
X-32746307Y-6267952D01*
X-32786435Y-6304534D01*
X-32903872Y-6411593D01*
X-33032366Y-6581745D01*
X-33127405Y-6772611D01*
X-33185756Y-6977690D01*
X-33205429Y-7190000D01*
X-33434571Y-7190000D01*
X-33454244Y-6977688D01*
X-33512596Y-6772608D01*
X-33607630Y-6581752D01*
X-33607635Y-6581743D01*
X-33736125Y-6411597D01*
X-33736124Y-6411597D01*
X-33736128Y-6411593D01*
X-33736131Y-6411589D01*
X-33736135Y-6411586D01*
X-33893692Y-6267952D01*
X-33893699Y-6267946D01*
X-34074975Y-6155705D01*
X-34074980Y-6155702D01*
X-34273804Y-6078678D01*
X-34483390Y-6039500D01*
X-34696610Y-6039500D01*
X-34906195Y-6078678D01*
X-34906197Y-6078678D01*
X-34906198Y-6078679D01*
X-35002386Y-6115942D01*
X-35105019Y-6155702D01*
X-35105024Y-6155705D01*
X-35286300Y-6267946D01*
X-35286307Y-6267952D01*
X-35326435Y-6304534D01*
X-35443872Y-6411593D01*
X-35572366Y-6581745D01*
X-35667405Y-6772611D01*
X-35725756Y-6977690D01*
X-35745429Y-7190000D01*
X-35974571Y-7190000D01*
X-35994244Y-6977688D01*
X-36052596Y-6772608D01*
X-36147630Y-6581752D01*
X-36147635Y-6581743D01*
X-36276125Y-6411597D01*
X-36276124Y-6411597D01*
X-36276128Y-6411593D01*
X-36276131Y-6411589D01*
X-36276135Y-6411586D01*
X-36433692Y-6267952D01*
X-36433699Y-6267946D01*
X-36614975Y-6155705D01*
X-36614980Y-6155702D01*
X-36813804Y-6078678D01*
X-37023390Y-6039500D01*
X-37236610Y-6039500D01*
X-37446195Y-6078678D01*
X-37446197Y-6078678D01*
X-37446198Y-6078679D01*
X-37542386Y-6115942D01*
X-37645019Y-6155702D01*
X-37645024Y-6155705D01*
X-37826300Y-6267946D01*
X-37826307Y-6267952D01*
X-37866435Y-6304534D01*
X-37983872Y-6411593D01*
X-38112366Y-6581745D01*
X-38207405Y-6772611D01*
X-38265756Y-6977690D01*
X-38285429Y-7190000D01*
X-38514571Y-7190000D01*
X-38534244Y-6977688D01*
X-38592596Y-6772608D01*
X-38687630Y-6581752D01*
X-38687635Y-6581743D01*
X-38816125Y-6411597D01*
X-38816124Y-6411597D01*
X-38816128Y-6411593D01*
X-38816131Y-6411589D01*
X-38816135Y-6411586D01*
X-38973692Y-6267952D01*
X-38973699Y-6267946D01*
X-39154975Y-6155705D01*
X-39154980Y-6155702D01*
X-39353804Y-6078678D01*
X-39563390Y-6039500D01*
X-39776610Y-6039500D01*
X-39986195Y-6078678D01*
X-39986197Y-6078678D01*
X-39986198Y-6078679D01*
X-40082386Y-6115942D01*
X-40185019Y-6155702D01*
X-40185024Y-6155705D01*
X-40366300Y-6267946D01*
X-40366307Y-6267952D01*
X-40406435Y-6304534D01*
X-40523872Y-6411593D01*
X-40652366Y-6581745D01*
X-40747405Y-6772611D01*
X-40805756Y-6977690D01*
X-40825429Y-7190000D01*
X-41710000Y-7190000D01*
X-41710000Y-7118111D01*
X-41750507Y-6980156D01*
X-41828239Y-6859202D01*
X-41936900Y-6765048D01*
X-42067685Y-6705320D01*
X-42174237Y-6690000D01*
X-42245763Y-6690000D01*
X-42352315Y-6705320D01*
X-42483100Y-6765048D01*
X-42591761Y-6859202D01*
X-42669493Y-6980156D01*
X-42710000Y-7118111D01*
X-42710000Y-7261889D01*
X-43601232Y-7261889D01*
X-43594571Y-7190000D01*
X-43614244Y-6977688D01*
X-43672596Y-6772608D01*
X-43713729Y-6690000D01*
X-43245711Y-6690000D01*
X-42710001Y-6690000D01*
X-42710000Y-6689999D01*
X-42710000Y-6150420D01*
X-41710000Y-6150420D01*
X-41710000Y-6689999D01*
X-41709999Y-6690000D01*
X-41174288Y-6690000D01*
X-41228057Y-6582016D01*
X-41228062Y-6582007D01*
X-41356496Y-6411935D01*
X-41356506Y-6411924D01*
X-41513995Y-6268352D01*
X-41695206Y-6156151D01*
X-41709999Y-6150420D01*
X-41710000Y-6150420D01*
X-42710000Y-6150420D01*
X-42724793Y-6156151D01*
X-42906004Y-6268352D01*
X-43063493Y-6411924D01*
X-43063503Y-6411935D01*
X-43191937Y-6582007D01*
X-43191942Y-6582016D01*
X-43245711Y-6690000D01*
X-43713729Y-6690000D01*
X-43767630Y-6581752D01*
X-43767635Y-6581743D01*
X-43896125Y-6411597D01*
X-43896124Y-6411597D01*
X-43896128Y-6411593D01*
X-43896131Y-6411589D01*
X-43896135Y-6411586D01*
X-44053692Y-6267952D01*
X-44053699Y-6267946D01*
X-44234975Y-6155705D01*
X-44234980Y-6155702D01*
X-44433804Y-6078678D01*
X-44643390Y-6039500D01*
X-44856610Y-6039500D01*
X-45066195Y-6078678D01*
X-45066197Y-6078678D01*
X-45066198Y-6078679D01*
X-45162386Y-6115942D01*
X-45265019Y-6155702D01*
X-45265024Y-6155705D01*
X-45446300Y-6267946D01*
X-45446307Y-6267952D01*
X-45486435Y-6304534D01*
X-45603872Y-6411593D01*
X-45732366Y-6581745D01*
X-45827405Y-6772611D01*
X-45885756Y-6977690D01*
X-45905429Y-7190000D01*
X-46134571Y-7190000D01*
X-46154244Y-6977688D01*
X-46212596Y-6772608D01*
X-46307630Y-6581752D01*
X-46307635Y-6581743D01*
X-46436125Y-6411597D01*
X-46436124Y-6411597D01*
X-46436128Y-6411593D01*
X-46436131Y-6411589D01*
X-46436135Y-6411586D01*
X-46593692Y-6267952D01*
X-46593699Y-6267946D01*
X-46774975Y-6155705D01*
X-46774980Y-6155702D01*
X-46973804Y-6078678D01*
X-47183390Y-6039500D01*
X-47396610Y-6039500D01*
X-47606195Y-6078678D01*
X-47606197Y-6078678D01*
X-47606198Y-6078679D01*
X-47702386Y-6115942D01*
X-47805019Y-6155702D01*
X-47805024Y-6155705D01*
X-47986300Y-6267946D01*
X-47986307Y-6267952D01*
X-48026435Y-6304534D01*
X-48143872Y-6411593D01*
X-48272366Y-6581745D01*
X-48367405Y-6772611D01*
X-48425756Y-6977690D01*
X-48445429Y-7190000D01*
X-48674571Y-7190000D01*
X-48694244Y-6977688D01*
X-48752596Y-6772608D01*
X-48847630Y-6581752D01*
X-48847635Y-6581743D01*
X-48976125Y-6411597D01*
X-48976124Y-6411597D01*
X-48976128Y-6411593D01*
X-48976131Y-6411589D01*
X-48976135Y-6411586D01*
X-49133692Y-6267952D01*
X-49133699Y-6267946D01*
X-49314975Y-6155705D01*
X-49314980Y-6155702D01*
X-49513804Y-6078678D01*
X-49723390Y-6039500D01*
X-49936610Y-6039500D01*
X-50146195Y-6078678D01*
X-50146197Y-6078678D01*
X-50146198Y-6078679D01*
X-50242386Y-6115942D01*
X-50345019Y-6155702D01*
X-50345024Y-6155705D01*
X-50526300Y-6267946D01*
X-50526307Y-6267952D01*
X-50566435Y-6304534D01*
X-50683872Y-6411593D01*
X-50812366Y-6581745D01*
X-50907405Y-6772611D01*
X-50965756Y-6977690D01*
X-50985429Y-7190000D01*
X-51214571Y-7190000D01*
X-51234244Y-6977688D01*
X-51292596Y-6772608D01*
X-51387630Y-6581752D01*
X-51387635Y-6581743D01*
X-51516125Y-6411597D01*
X-51516124Y-6411597D01*
X-51516128Y-6411593D01*
X-51516131Y-6411589D01*
X-51516135Y-6411586D01*
X-51673692Y-6267952D01*
X-51673699Y-6267946D01*
X-51854975Y-6155705D01*
X-51854980Y-6155702D01*
X-52053804Y-6078678D01*
X-52263390Y-6039500D01*
X-52476610Y-6039500D01*
X-52686195Y-6078678D01*
X-52686197Y-6078678D01*
X-52686198Y-6078679D01*
X-52782386Y-6115942D01*
X-52885019Y-6155702D01*
X-52885024Y-6155705D01*
X-53066300Y-6267946D01*
X-53066307Y-6267952D01*
X-53106435Y-6304534D01*
X-53223872Y-6411593D01*
X-53352366Y-6581745D01*
X-53447405Y-6772611D01*
X-53505756Y-6977690D01*
X-53525429Y-7190000D01*
X-53754571Y-7190000D01*
X-53774244Y-6977688D01*
X-53832596Y-6772608D01*
X-53927630Y-6581752D01*
X-53927635Y-6581743D01*
X-54056125Y-6411597D01*
X-54056124Y-6411597D01*
X-54056128Y-6411593D01*
X-54056131Y-6411589D01*
X-54056135Y-6411586D01*
X-54213692Y-6267952D01*
X-54213699Y-6267946D01*
X-54394975Y-6155705D01*
X-54394980Y-6155702D01*
X-54593804Y-6078678D01*
X-54803390Y-6039500D01*
X-55016610Y-6039500D01*
X-55226195Y-6078678D01*
X-55226197Y-6078678D01*
X-55226198Y-6078679D01*
X-55322386Y-6115942D01*
X-55425019Y-6155702D01*
X-55425024Y-6155705D01*
X-55606300Y-6267946D01*
X-55606307Y-6267952D01*
X-55646435Y-6304534D01*
X-55763872Y-6411593D01*
X-55892366Y-6581745D01*
X-55987405Y-6772611D01*
X-56045756Y-6977690D01*
X-56065429Y-7190000D01*
X-56294571Y-7190000D01*
X-56314244Y-6977688D01*
X-56372596Y-6772608D01*
X-56467630Y-6581752D01*
X-56467635Y-6581743D01*
X-56596125Y-6411597D01*
X-56596124Y-6411597D01*
X-56596128Y-6411593D01*
X-56596131Y-6411589D01*
X-56596135Y-6411586D01*
X-56753692Y-6267952D01*
X-56753699Y-6267946D01*
X-56934975Y-6155705D01*
X-56934980Y-6155702D01*
X-57133804Y-6078678D01*
X-57343390Y-6039500D01*
X-57556610Y-6039500D01*
X-57766195Y-6078678D01*
X-57766197Y-6078678D01*
X-57766198Y-6078679D01*
X-57862386Y-6115942D01*
X-57965019Y-6155702D01*
X-57965024Y-6155705D01*
X-58146300Y-6267946D01*
X-58146307Y-6267952D01*
X-58186435Y-6304534D01*
X-58303872Y-6411593D01*
X-58432366Y-6581745D01*
X-58527405Y-6772611D01*
X-58585756Y-6977690D01*
X-58605429Y-7190000D01*
X-58834571Y-7190000D01*
X-58854244Y-6977688D01*
X-58912596Y-6772608D01*
X-59007630Y-6581752D01*
X-59007635Y-6581743D01*
X-59136125Y-6411597D01*
X-59136124Y-6411597D01*
X-59136128Y-6411593D01*
X-59136131Y-6411589D01*
X-59136135Y-6411586D01*
X-59293692Y-6267952D01*
X-59293699Y-6267946D01*
X-59474975Y-6155705D01*
X-59474980Y-6155702D01*
X-59673804Y-6078678D01*
X-59883390Y-6039500D01*
X-60096610Y-6039500D01*
X-60306195Y-6078678D01*
X-60306197Y-6078678D01*
X-60306198Y-6078679D01*
X-60402386Y-6115942D01*
X-60505019Y-6155702D01*
X-60505024Y-6155705D01*
X-60686300Y-6267946D01*
X-60686307Y-6267952D01*
X-60726435Y-6304534D01*
X-60843872Y-6411593D01*
X-60972366Y-6581745D01*
X-61067405Y-6772611D01*
X-61125756Y-6977690D01*
X-61145429Y-7190000D01*
X-62030000Y-7190000D01*
X-62030000Y-7118111D01*
X-62070507Y-6980156D01*
X-62148239Y-6859202D01*
X-62256900Y-6765048D01*
X-62387685Y-6705320D01*
X-62494237Y-6690000D01*
X-62565763Y-6690000D01*
X-62672315Y-6705320D01*
X-62803100Y-6765048D01*
X-62911761Y-6859202D01*
X-62989493Y-6980156D01*
X-63030000Y-7118111D01*
X-63030000Y-7261889D01*
X-63921232Y-7261889D01*
X-63914571Y-7190000D01*
X-63934244Y-6977688D01*
X-63992596Y-6772608D01*
X-64033729Y-6690000D01*
X-63565711Y-6690000D01*
X-63030001Y-6690000D01*
X-63030000Y-6689999D01*
X-63030000Y-6150420D01*
X-62030000Y-6150420D01*
X-62030000Y-6689999D01*
X-62029999Y-6690000D01*
X-61494288Y-6690000D01*
X-61548057Y-6582016D01*
X-61548062Y-6582007D01*
X-61676496Y-6411935D01*
X-61676506Y-6411924D01*
X-61833995Y-6268352D01*
X-62015206Y-6156151D01*
X-62029999Y-6150420D01*
X-62030000Y-6150420D01*
X-63030000Y-6150420D01*
X-63044793Y-6156151D01*
X-63226004Y-6268352D01*
X-63383493Y-6411924D01*
X-63383503Y-6411935D01*
X-63511937Y-6582007D01*
X-63511942Y-6582016D01*
X-63565711Y-6690000D01*
X-64033729Y-6690000D01*
X-64087630Y-6581752D01*
X-64087635Y-6581743D01*
X-64216125Y-6411597D01*
X-64216124Y-6411597D01*
X-64216128Y-6411593D01*
X-64216131Y-6411589D01*
X-64216135Y-6411586D01*
X-64373692Y-6267952D01*
X-64373699Y-6267946D01*
X-64554975Y-6155705D01*
X-64554980Y-6155702D01*
X-64753804Y-6078678D01*
X-64963390Y-6039500D01*
X-65176610Y-6039500D01*
X-65386195Y-6078678D01*
X-65386197Y-6078678D01*
X-65386198Y-6078679D01*
X-65482386Y-6115942D01*
X-65585019Y-6155702D01*
X-65585024Y-6155705D01*
X-65766300Y-6267946D01*
X-65766307Y-6267952D01*
X-65806435Y-6304534D01*
X-65923872Y-6411593D01*
X-66052366Y-6581745D01*
X-66147405Y-6772611D01*
X-66205756Y-6977690D01*
X-66225429Y-7190000D01*
X-66454571Y-7190000D01*
X-66474244Y-6977688D01*
X-66532596Y-6772608D01*
X-66627630Y-6581752D01*
X-66627635Y-6581743D01*
X-66756125Y-6411597D01*
X-66756124Y-6411597D01*
X-66756128Y-6411593D01*
X-66756131Y-6411589D01*
X-66756135Y-6411586D01*
X-66913692Y-6267952D01*
X-66913699Y-6267946D01*
X-67094975Y-6155705D01*
X-67094980Y-6155702D01*
X-67293804Y-6078678D01*
X-67503390Y-6039500D01*
X-67716610Y-6039500D01*
X-67926195Y-6078678D01*
X-67926197Y-6078678D01*
X-67926198Y-6078679D01*
X-68022386Y-6115942D01*
X-68125019Y-6155702D01*
X-68125024Y-6155705D01*
X-68306300Y-6267946D01*
X-68306307Y-6267952D01*
X-68346435Y-6304534D01*
X-68463872Y-6411593D01*
X-68592366Y-6581745D01*
X-68687405Y-6772611D01*
X-68745756Y-6977690D01*
X-68765429Y-7190000D01*
X-68994571Y-7190000D01*
X-69014244Y-6977688D01*
X-69072596Y-6772608D01*
X-69167630Y-6581752D01*
X-69167635Y-6581743D01*
X-69296125Y-6411597D01*
X-69296124Y-6411597D01*
X-69296128Y-6411593D01*
X-69296131Y-6411589D01*
X-69296135Y-6411586D01*
X-69453692Y-6267952D01*
X-69453699Y-6267946D01*
X-69634975Y-6155705D01*
X-69634980Y-6155702D01*
X-69833804Y-6078678D01*
X-70043390Y-6039500D01*
X-70256610Y-6039500D01*
X-70466195Y-6078678D01*
X-70466197Y-6078678D01*
X-70466198Y-6078679D01*
X-70562386Y-6115942D01*
X-70665019Y-6155702D01*
X-70665024Y-6155705D01*
X-70846300Y-6267946D01*
X-70846307Y-6267952D01*
X-70886435Y-6304534D01*
X-71003872Y-6411593D01*
X-71132366Y-6581745D01*
X-71227405Y-6772611D01*
X-71285756Y-6977690D01*
X-71305429Y-7190000D01*
X-71534571Y-7190000D01*
X-71554244Y-6977688D01*
X-71612596Y-6772608D01*
X-71707630Y-6581752D01*
X-71707635Y-6581743D01*
X-71836125Y-6411597D01*
X-71836124Y-6411597D01*
X-71836128Y-6411593D01*
X-71836131Y-6411589D01*
X-71836135Y-6411586D01*
X-71993692Y-6267952D01*
X-71993699Y-6267946D01*
X-72174975Y-6155705D01*
X-72174980Y-6155702D01*
X-72373804Y-6078678D01*
X-72583390Y-6039500D01*
X-72796610Y-6039500D01*
X-73006195Y-6078678D01*
X-73006197Y-6078678D01*
X-73006198Y-6078679D01*
X-73102386Y-6115942D01*
X-73205019Y-6155702D01*
X-73205024Y-6155705D01*
X-73386300Y-6267946D01*
X-73386307Y-6267952D01*
X-73426435Y-6304534D01*
X-73543872Y-6411593D01*
X-73672366Y-6581745D01*
X-73767405Y-6772611D01*
X-73825756Y-6977690D01*
X-73845429Y-7190000D01*
X-74074571Y-7190000D01*
X-74094244Y-6977688D01*
X-74152596Y-6772608D01*
X-74247630Y-6581752D01*
X-74247635Y-6581743D01*
X-74376125Y-6411597D01*
X-74376124Y-6411597D01*
X-74376128Y-6411593D01*
X-74376131Y-6411589D01*
X-74376135Y-6411586D01*
X-74533692Y-6267952D01*
X-74533699Y-6267946D01*
X-74714975Y-6155705D01*
X-74714980Y-6155702D01*
X-74913804Y-6078678D01*
X-75123390Y-6039500D01*
X-75336610Y-6039500D01*
X-75546195Y-6078678D01*
X-75546197Y-6078678D01*
X-75546198Y-6078679D01*
X-75642386Y-6115942D01*
X-75745019Y-6155702D01*
X-75745024Y-6155705D01*
X-75926300Y-6267946D01*
X-75926307Y-6267952D01*
X-75966435Y-6304534D01*
X-76083872Y-6411593D01*
X-76212366Y-6581745D01*
X-76307405Y-6772611D01*
X-76365756Y-6977690D01*
X-76385429Y-7190000D01*
X-76614571Y-7190000D01*
X-76634244Y-6977688D01*
X-76692596Y-6772608D01*
X-76787630Y-6581752D01*
X-76787635Y-6581743D01*
X-76916125Y-6411597D01*
X-76916124Y-6411597D01*
X-76916128Y-6411593D01*
X-76916131Y-6411589D01*
X-76916135Y-6411586D01*
X-77073692Y-6267952D01*
X-77073699Y-6267946D01*
X-77254975Y-6155705D01*
X-77254980Y-6155702D01*
X-77453804Y-6078678D01*
X-77663390Y-6039500D01*
X-77876610Y-6039500D01*
X-78086195Y-6078678D01*
X-78086197Y-6078678D01*
X-78086198Y-6078679D01*
X-78182386Y-6115942D01*
X-78285019Y-6155702D01*
X-78285024Y-6155705D01*
X-78466300Y-6267946D01*
X-78466307Y-6267952D01*
X-78506435Y-6304534D01*
X-78623872Y-6411593D01*
X-78752366Y-6581745D01*
X-78847405Y-6772611D01*
X-78905756Y-6977690D01*
X-78925429Y-7190000D01*
X-79810000Y-7190000D01*
X-79810000Y-7118111D01*
X-79850507Y-6980156D01*
X-79928239Y-6859202D01*
X-80036900Y-6765048D01*
X-80167685Y-6705320D01*
X-80274237Y-6690000D01*
X-80345763Y-6690000D01*
X-80452315Y-6705320D01*
X-80583100Y-6765048D01*
X-80691761Y-6859202D01*
X-80769493Y-6980156D01*
X-80810000Y-7118111D01*
X-80810000Y-6150420D01*
X-79810000Y-6150420D01*
X-79810000Y-6689999D01*
X-79809999Y-6690000D01*
X-79274288Y-6690000D01*
X-79328057Y-6582016D01*
X-79328062Y-6582007D01*
X-79456496Y-6411935D01*
X-79456506Y-6411924D01*
X-79613995Y-6268352D01*
X-79795206Y-6156151D01*
X-79809999Y-6150420D01*
X-79810000Y-6150420D01*
X-80810000Y-6150420D01*
X-80824793Y-6156151D01*
X-81006001Y-6268350D01*
X-81133804Y-6384859D01*
X-81189545Y-6410089D01*
X-81249470Y-6397737D01*
X-81290691Y-6352521D01*
X-81299500Y-6311697D01*
X-81299500Y-5528979D01*
X-81280593Y-5470788D01*
X-81231093Y-5434824D01*
X-81169907Y-5434824D01*
X-81133803Y-5455818D01*
X-81006302Y-5572052D01*
X-80825019Y-5684298D01*
X-80626198Y-5761321D01*
X-80416610Y-5800500D01*
X-80203390Y-5800500D01*
X-79993802Y-5761321D01*
X-79794981Y-5684298D01*
X-79650563Y-5594878D01*
X-79613699Y-5572053D01*
X-79613692Y-5572047D01*
X-79526734Y-5492773D01*
X-79456128Y-5428407D01*
X-79327634Y-5258255D01*
X-79232595Y-5067389D01*
X-79190971Y-4921097D01*
X-79174244Y-4862311D01*
X-79154571Y-4650000D01*
X-78925429Y-4650000D01*
X-78905756Y-4862310D01*
X-78847405Y-5067389D01*
X-78752366Y-5258255D01*
X-78623872Y-5428407D01*
X-78466302Y-5572052D01*
X-78285019Y-5684298D01*
X-78086198Y-5761321D01*
X-77876610Y-5800500D01*
X-77663390Y-5800500D01*
X-77453802Y-5761321D01*
X-77254981Y-5684298D01*
X-77110563Y-5594878D01*
X-77073699Y-5572053D01*
X-77073692Y-5572047D01*
X-76986734Y-5492773D01*
X-76916128Y-5428407D01*
X-76787634Y-5258255D01*
X-76692595Y-5067389D01*
X-76650971Y-4921097D01*
X-76634244Y-4862311D01*
X-76614571Y-4650000D01*
X-76385429Y-4650000D01*
X-76365756Y-4862310D01*
X-76307405Y-5067389D01*
X-76212366Y-5258255D01*
X-76083872Y-5428407D01*
X-75926302Y-5572052D01*
X-75745019Y-5684298D01*
X-75546198Y-5761321D01*
X-75336610Y-5800500D01*
X-75123390Y-5800500D01*
X-74913802Y-5761321D01*
X-74714981Y-5684298D01*
X-74570563Y-5594878D01*
X-74533699Y-5572053D01*
X-74533692Y-5572047D01*
X-74446734Y-5492773D01*
X-74376128Y-5428407D01*
X-74247634Y-5258255D01*
X-74193730Y-5150000D01*
X-73725712Y-5150000D01*
X-73671942Y-5257983D01*
X-73671937Y-5257992D01*
X-73543503Y-5428064D01*
X-73543493Y-5428075D01*
X-73386004Y-5571647D01*
X-73204797Y-5683845D01*
X-73190000Y-5689578D01*
X-72190000Y-5689578D01*
X-72175202Y-5683845D01*
X-71993995Y-5571647D01*
X-71836506Y-5428075D01*
X-71836496Y-5428064D01*
X-71708062Y-5257992D01*
X-71708057Y-5257983D01*
X-71654288Y-5150000D01*
X-72189999Y-5150000D01*
X-72190000Y-5150001D01*
X-72190000Y-5689578D01*
X-73190000Y-5689578D01*
X-73190000Y-5150001D01*
X-73190001Y-5150000D01*
X-73725712Y-5150000D01*
X-74193730Y-5150000D01*
X-74152595Y-5067389D01*
X-74110971Y-4921097D01*
X-74094244Y-4862311D01*
X-74081232Y-4721889D01*
X-73190000Y-4721889D01*
X-73149493Y-4859844D01*
X-73071761Y-4980798D01*
X-72963100Y-5074952D01*
X-72832315Y-5134680D01*
X-72725763Y-5150000D01*
X-72654237Y-5150000D01*
X-72547685Y-5134680D01*
X-72416900Y-5074952D01*
X-72308239Y-4980798D01*
X-72230507Y-4859844D01*
X-72190000Y-4721889D01*
X-72190000Y-4650000D01*
X-71305429Y-4650000D01*
X-71285756Y-4862310D01*
X-71227405Y-5067389D01*
X-71132366Y-5258255D01*
X-71003872Y-5428407D01*
X-70846302Y-5572052D01*
X-70665019Y-5684298D01*
X-70466198Y-5761321D01*
X-70256610Y-5800500D01*
X-70043390Y-5800500D01*
X-69833802Y-5761321D01*
X-69634981Y-5684298D01*
X-69490563Y-5594878D01*
X-69453699Y-5572053D01*
X-69453692Y-5572047D01*
X-69366734Y-5492773D01*
X-69296128Y-5428407D01*
X-69167634Y-5258255D01*
X-69113730Y-5150000D01*
X-68645712Y-5150000D01*
X-68591942Y-5257983D01*
X-68591937Y-5257992D01*
X-68463503Y-5428064D01*
X-68463493Y-5428075D01*
X-68306004Y-5571647D01*
X-68124797Y-5683845D01*
X-68110000Y-5689578D01*
X-67110000Y-5689578D01*
X-67095202Y-5683845D01*
X-66913995Y-5571647D01*
X-66756506Y-5428075D01*
X-66756496Y-5428064D01*
X-66628062Y-5257992D01*
X-66628057Y-5257983D01*
X-66574288Y-5150000D01*
X-67109999Y-5150000D01*
X-67110000Y-5150001D01*
X-67110000Y-5689578D01*
X-68110000Y-5689578D01*
X-68110000Y-5150001D01*
X-68110001Y-5150000D01*
X-68645712Y-5150000D01*
X-69113730Y-5150000D01*
X-69072595Y-5067389D01*
X-69030971Y-4921097D01*
X-69014244Y-4862311D01*
X-69001232Y-4721889D01*
X-68110000Y-4721889D01*
X-68069493Y-4859844D01*
X-67991761Y-4980798D01*
X-67883100Y-5074952D01*
X-67752315Y-5134680D01*
X-67645763Y-5150000D01*
X-67574237Y-5150000D01*
X-67467685Y-5134680D01*
X-67336900Y-5074952D01*
X-67228239Y-4980798D01*
X-67150507Y-4859844D01*
X-67110000Y-4721889D01*
X-67110000Y-4650000D01*
X-66225429Y-4650000D01*
X-66205756Y-4862310D01*
X-66147405Y-5067389D01*
X-66052366Y-5258255D01*
X-65923872Y-5428407D01*
X-65766302Y-5572052D01*
X-65585019Y-5684298D01*
X-65386198Y-5761321D01*
X-65176610Y-5800500D01*
X-64963390Y-5800500D01*
X-64753802Y-5761321D01*
X-64554981Y-5684298D01*
X-64410563Y-5594878D01*
X-64373699Y-5572053D01*
X-64373692Y-5572047D01*
X-64286734Y-5492773D01*
X-64216128Y-5428407D01*
X-64087634Y-5258255D01*
X-63992595Y-5067389D01*
X-63950971Y-4921097D01*
X-63934244Y-4862311D01*
X-63914571Y-4650000D01*
X-63685429Y-4650000D01*
X-63665756Y-4862310D01*
X-63607405Y-5067389D01*
X-63512366Y-5258255D01*
X-63383872Y-5428407D01*
X-63226302Y-5572052D01*
X-63045019Y-5684298D01*
X-62846198Y-5761321D01*
X-62636610Y-5800500D01*
X-62423390Y-5800500D01*
X-62213802Y-5761321D01*
X-62014981Y-5684298D01*
X-61870563Y-5594878D01*
X-61833699Y-5572053D01*
X-61833692Y-5572047D01*
X-61746734Y-5492773D01*
X-61676128Y-5428407D01*
X-61547634Y-5258255D01*
X-61452595Y-5067389D01*
X-61410971Y-4921097D01*
X-61394244Y-4862311D01*
X-61374571Y-4650000D01*
X-61145429Y-4650000D01*
X-61125756Y-4862310D01*
X-61067405Y-5067389D01*
X-60972366Y-5258255D01*
X-60843872Y-5428407D01*
X-60686302Y-5572052D01*
X-60505019Y-5684298D01*
X-60306198Y-5761321D01*
X-60096610Y-5800500D01*
X-59883390Y-5800500D01*
X-59673802Y-5761321D01*
X-59474981Y-5684298D01*
X-59330563Y-5594878D01*
X-59293699Y-5572053D01*
X-59293692Y-5572047D01*
X-59206734Y-5492773D01*
X-59136128Y-5428407D01*
X-59007634Y-5258255D01*
X-58912595Y-5067389D01*
X-58870971Y-4921097D01*
X-58854244Y-4862311D01*
X-58834571Y-4650000D01*
X-58605429Y-4650000D01*
X-58585756Y-4862310D01*
X-58527405Y-5067389D01*
X-58432366Y-5258255D01*
X-58303872Y-5428407D01*
X-58146302Y-5572052D01*
X-57965019Y-5684298D01*
X-57766198Y-5761321D01*
X-57556610Y-5800500D01*
X-57343390Y-5800500D01*
X-57133802Y-5761321D01*
X-56934981Y-5684298D01*
X-56790563Y-5594878D01*
X-56753699Y-5572053D01*
X-56753692Y-5572047D01*
X-56666734Y-5492773D01*
X-56596128Y-5428407D01*
X-56467634Y-5258255D01*
X-56413730Y-5150000D01*
X-55945712Y-5150000D01*
X-55891942Y-5257983D01*
X-55891937Y-5257992D01*
X-55763503Y-5428064D01*
X-55763493Y-5428075D01*
X-55606004Y-5571647D01*
X-55424797Y-5683845D01*
X-55410000Y-5689578D01*
X-54410000Y-5689578D01*
X-54395202Y-5683845D01*
X-54213995Y-5571647D01*
X-54056506Y-5428075D01*
X-54056496Y-5428064D01*
X-53928062Y-5257992D01*
X-53928057Y-5257983D01*
X-53874288Y-5150000D01*
X-54409999Y-5150000D01*
X-54410000Y-5150001D01*
X-54410000Y-5689578D01*
X-55410000Y-5689578D01*
X-55410000Y-5150001D01*
X-55410001Y-5150000D01*
X-55945712Y-5150000D01*
X-56413730Y-5150000D01*
X-56372595Y-5067389D01*
X-56330971Y-4921097D01*
X-56314244Y-4862311D01*
X-56301232Y-4721889D01*
X-55410000Y-4721889D01*
X-55369493Y-4859844D01*
X-55291761Y-4980798D01*
X-55183100Y-5074952D01*
X-55052315Y-5134680D01*
X-54945763Y-5150000D01*
X-54874237Y-5150000D01*
X-54767685Y-5134680D01*
X-54636900Y-5074952D01*
X-54528239Y-4980798D01*
X-54450507Y-4859844D01*
X-54410000Y-4721889D01*
X-54410000Y-4650000D01*
X-53525429Y-4650000D01*
X-53505756Y-4862310D01*
X-53447405Y-5067389D01*
X-53352366Y-5258255D01*
X-53223872Y-5428407D01*
X-53066302Y-5572052D01*
X-52885019Y-5684298D01*
X-52686198Y-5761321D01*
X-52476610Y-5800500D01*
X-52263390Y-5800500D01*
X-52053802Y-5761321D01*
X-51854981Y-5684298D01*
X-51710563Y-5594878D01*
X-51673699Y-5572053D01*
X-51673692Y-5572047D01*
X-51586734Y-5492773D01*
X-51516128Y-5428407D01*
X-51387634Y-5258255D01*
X-51292595Y-5067389D01*
X-51250971Y-4921097D01*
X-51234244Y-4862311D01*
X-51214571Y-4650000D01*
X-50985429Y-4650000D01*
X-50965756Y-4862310D01*
X-50907405Y-5067389D01*
X-50812366Y-5258255D01*
X-50683872Y-5428407D01*
X-50526302Y-5572052D01*
X-50345019Y-5684298D01*
X-50146198Y-5761321D01*
X-49936610Y-5800500D01*
X-49723390Y-5800500D01*
X-49513802Y-5761321D01*
X-49314981Y-5684298D01*
X-49170563Y-5594878D01*
X-49133699Y-5572053D01*
X-49133692Y-5572047D01*
X-49046734Y-5492773D01*
X-48976128Y-5428407D01*
X-48847634Y-5258255D01*
X-48793730Y-5150000D01*
X-48325712Y-5150000D01*
X-48271942Y-5257983D01*
X-48271937Y-5257992D01*
X-48143503Y-5428064D01*
X-48143493Y-5428075D01*
X-47986004Y-5571647D01*
X-47804797Y-5683845D01*
X-47790000Y-5689578D01*
X-46790000Y-5689578D01*
X-46775202Y-5683845D01*
X-46593995Y-5571647D01*
X-46436506Y-5428075D01*
X-46436496Y-5428064D01*
X-46308062Y-5257992D01*
X-46308057Y-5257983D01*
X-46254288Y-5150000D01*
X-46789999Y-5150000D01*
X-46790000Y-5150001D01*
X-46790000Y-5689578D01*
X-47790000Y-5689578D01*
X-47790000Y-5150001D01*
X-47790001Y-5150000D01*
X-48325712Y-5150000D01*
X-48793730Y-5150000D01*
X-48752595Y-5067389D01*
X-48710971Y-4921097D01*
X-48694244Y-4862311D01*
X-48681232Y-4721889D01*
X-47790000Y-4721889D01*
X-47749493Y-4859844D01*
X-47671761Y-4980798D01*
X-47563100Y-5074952D01*
X-47432315Y-5134680D01*
X-47325763Y-5150000D01*
X-47254237Y-5150000D01*
X-47147685Y-5134680D01*
X-47016900Y-5074952D01*
X-46908239Y-4980798D01*
X-46830507Y-4859844D01*
X-46790000Y-4721889D01*
X-46790000Y-4650000D01*
X-45905429Y-4650000D01*
X-45885756Y-4862310D01*
X-45827405Y-5067389D01*
X-45732366Y-5258255D01*
X-45603872Y-5428407D01*
X-45446302Y-5572052D01*
X-45265019Y-5684298D01*
X-45066198Y-5761321D01*
X-44856610Y-5800500D01*
X-44643390Y-5800500D01*
X-44433802Y-5761321D01*
X-44234981Y-5684298D01*
X-44090563Y-5594878D01*
X-44053699Y-5572053D01*
X-44053692Y-5572047D01*
X-43966734Y-5492773D01*
X-43896128Y-5428407D01*
X-43767634Y-5258255D01*
X-43672595Y-5067389D01*
X-43630971Y-4921097D01*
X-43614244Y-4862311D01*
X-43594571Y-4650000D01*
X-43365429Y-4650000D01*
X-43345756Y-4862310D01*
X-43287405Y-5067389D01*
X-43192366Y-5258255D01*
X-43063872Y-5428407D01*
X-42906302Y-5572052D01*
X-42725019Y-5684298D01*
X-42526198Y-5761321D01*
X-42316610Y-5800500D01*
X-42103390Y-5800500D01*
X-41893802Y-5761321D01*
X-41694981Y-5684298D01*
X-41550563Y-5594878D01*
X-41513699Y-5572053D01*
X-41513692Y-5572047D01*
X-41426734Y-5492773D01*
X-41356128Y-5428407D01*
X-41227634Y-5258255D01*
X-41132595Y-5067389D01*
X-41090971Y-4921097D01*
X-41074244Y-4862311D01*
X-41054571Y-4650000D01*
X-40825429Y-4650000D01*
X-40805756Y-4862310D01*
X-40747405Y-5067389D01*
X-40652366Y-5258255D01*
X-40523872Y-5428407D01*
X-40366302Y-5572052D01*
X-40185019Y-5684298D01*
X-39986198Y-5761321D01*
X-39776610Y-5800500D01*
X-39563390Y-5800500D01*
X-39353802Y-5761321D01*
X-39154981Y-5684298D01*
X-39010563Y-5594878D01*
X-38973699Y-5572053D01*
X-38973692Y-5572047D01*
X-38886734Y-5492773D01*
X-38816128Y-5428407D01*
X-38687634Y-5258255D01*
X-38633730Y-5150000D01*
X-38165712Y-5150000D01*
X-38111942Y-5257983D01*
X-38111937Y-5257992D01*
X-37983503Y-5428064D01*
X-37983493Y-5428075D01*
X-37826004Y-5571647D01*
X-37644797Y-5683845D01*
X-37630000Y-5689578D01*
X-36630000Y-5689578D01*
X-36615202Y-5683845D01*
X-36433995Y-5571647D01*
X-36276506Y-5428075D01*
X-36276496Y-5428064D01*
X-36148062Y-5257992D01*
X-36148057Y-5257983D01*
X-36094288Y-5150000D01*
X-36629999Y-5150000D01*
X-36630000Y-5150001D01*
X-36630000Y-5689578D01*
X-37630000Y-5689578D01*
X-37630000Y-5150001D01*
X-37630001Y-5150000D01*
X-38165712Y-5150000D01*
X-38633730Y-5150000D01*
X-38592595Y-5067389D01*
X-38550971Y-4921097D01*
X-38534244Y-4862311D01*
X-38521232Y-4721889D01*
X-37630000Y-4721889D01*
X-37589493Y-4859844D01*
X-37511761Y-4980798D01*
X-37403100Y-5074952D01*
X-37272315Y-5134680D01*
X-37165763Y-5150000D01*
X-37094237Y-5150000D01*
X-36987685Y-5134680D01*
X-36856900Y-5074952D01*
X-36748239Y-4980798D01*
X-36670507Y-4859844D01*
X-36630000Y-4721889D01*
X-36630000Y-4650000D01*
X-35745429Y-4650000D01*
X-35725756Y-4862310D01*
X-35667405Y-5067389D01*
X-35572366Y-5258255D01*
X-35443872Y-5428407D01*
X-35286302Y-5572052D01*
X-35105019Y-5684298D01*
X-34906198Y-5761321D01*
X-34696610Y-5800500D01*
X-34483390Y-5800500D01*
X-34273802Y-5761321D01*
X-34074981Y-5684298D01*
X-33930563Y-5594878D01*
X-33893699Y-5572053D01*
X-33893692Y-5572047D01*
X-33806734Y-5492773D01*
X-33736128Y-5428407D01*
X-33607634Y-5258255D01*
X-33512595Y-5067389D01*
X-33470971Y-4921097D01*
X-33454244Y-4862311D01*
X-33434571Y-4650000D01*
X-33205429Y-4650000D01*
X-33185756Y-4862310D01*
X-33127405Y-5067389D01*
X-33032366Y-5258255D01*
X-32903872Y-5428407D01*
X-32746302Y-5572052D01*
X-32565019Y-5684298D01*
X-32366198Y-5761321D01*
X-32156610Y-5800500D01*
X-31943390Y-5800500D01*
X-31733802Y-5761321D01*
X-31534981Y-5684298D01*
X-31390563Y-5594878D01*
X-31353699Y-5572053D01*
X-31353692Y-5572047D01*
X-31266734Y-5492773D01*
X-31196128Y-5428407D01*
X-31067634Y-5258255D01*
X-30972595Y-5067389D01*
X-30930971Y-4921097D01*
X-30914244Y-4862311D01*
X-30894571Y-4650000D01*
X-30914244Y-4437688D01*
X-30972596Y-4232608D01*
X-31067630Y-4041752D01*
X-31067635Y-4041743D01*
X-31196125Y-3871597D01*
X-31196124Y-3871597D01*
X-31196128Y-3871593D01*
X-31196131Y-3871589D01*
X-31196135Y-3871586D01*
X-31353692Y-3727952D01*
X-31353699Y-3727946D01*
X-31534975Y-3615705D01*
X-31534980Y-3615702D01*
X-31733804Y-3538678D01*
X-31943390Y-3499500D01*
X-32156610Y-3499500D01*
X-32366195Y-3538678D01*
X-32366197Y-3538678D01*
X-32366198Y-3538679D01*
X-32498191Y-3589813D01*
X-32565019Y-3615702D01*
X-32565024Y-3615705D01*
X-32746300Y-3727946D01*
X-32746307Y-3727952D01*
X-32819612Y-3794779D01*
X-32903872Y-3871593D01*
X-33032366Y-4041745D01*
X-33127405Y-4232611D01*
X-33185756Y-4437690D01*
X-33205429Y-4650000D01*
X-33434571Y-4650000D01*
X-33454244Y-4437688D01*
X-33512596Y-4232608D01*
X-33607630Y-4041752D01*
X-33607635Y-4041743D01*
X-33736125Y-3871597D01*
X-33736124Y-3871597D01*
X-33736128Y-3871593D01*
X-33736131Y-3871589D01*
X-33736135Y-3871586D01*
X-33893692Y-3727952D01*
X-33893699Y-3727946D01*
X-34074975Y-3615705D01*
X-34074980Y-3615702D01*
X-34273804Y-3538678D01*
X-34483390Y-3499500D01*
X-34696610Y-3499500D01*
X-34906195Y-3538678D01*
X-34906197Y-3538678D01*
X-34906198Y-3538679D01*
X-35038191Y-3589813D01*
X-35105019Y-3615702D01*
X-35105024Y-3615705D01*
X-35286300Y-3727946D01*
X-35286307Y-3727952D01*
X-35359612Y-3794779D01*
X-35443872Y-3871593D01*
X-35572366Y-4041745D01*
X-35667405Y-4232611D01*
X-35725756Y-4437690D01*
X-35745429Y-4650000D01*
X-36630000Y-4650000D01*
X-36630000Y-4578111D01*
X-36670507Y-4440156D01*
X-36748239Y-4319202D01*
X-36856900Y-4225048D01*
X-36987685Y-4165320D01*
X-37094237Y-4150000D01*
X-37165763Y-4150000D01*
X-37272315Y-4165320D01*
X-37403100Y-4225048D01*
X-37511761Y-4319202D01*
X-37589493Y-4440156D01*
X-37630000Y-4578111D01*
X-37630000Y-4721889D01*
X-38521232Y-4721889D01*
X-38514571Y-4650000D01*
X-38534244Y-4437688D01*
X-38592596Y-4232608D01*
X-38633729Y-4150000D01*
X-38165711Y-4150000D01*
X-37630001Y-4150000D01*
X-37630000Y-4149999D01*
X-37630000Y-3610420D01*
X-36630000Y-3610420D01*
X-36630000Y-4149999D01*
X-36629999Y-4150000D01*
X-36094288Y-4150000D01*
X-36148057Y-4042016D01*
X-36148062Y-4042007D01*
X-36276496Y-3871935D01*
X-36276506Y-3871924D01*
X-36433995Y-3728352D01*
X-36615206Y-3616151D01*
X-36629999Y-3610420D01*
X-36630000Y-3610420D01*
X-37630000Y-3610420D01*
X-37644793Y-3616151D01*
X-37826004Y-3728352D01*
X-37983493Y-3871924D01*
X-37983503Y-3871935D01*
X-38111937Y-4042007D01*
X-38111942Y-4042016D01*
X-38165711Y-4150000D01*
X-38633729Y-4150000D01*
X-38687630Y-4041752D01*
X-38687635Y-4041743D01*
X-38816125Y-3871597D01*
X-38816124Y-3871597D01*
X-38816128Y-3871593D01*
X-38816131Y-3871589D01*
X-38816135Y-3871586D01*
X-38973692Y-3727952D01*
X-38973699Y-3727946D01*
X-39154975Y-3615705D01*
X-39154980Y-3615702D01*
X-39353804Y-3538678D01*
X-39563390Y-3499500D01*
X-39776610Y-3499500D01*
X-39986195Y-3538678D01*
X-39986197Y-3538678D01*
X-39986198Y-3538679D01*
X-40118191Y-3589813D01*
X-40185019Y-3615702D01*
X-40185024Y-3615705D01*
X-40366300Y-3727946D01*
X-40366307Y-3727952D01*
X-40439612Y-3794779D01*
X-40523872Y-3871593D01*
X-40652366Y-4041745D01*
X-40747405Y-4232611D01*
X-40805756Y-4437690D01*
X-40825429Y-4650000D01*
X-41054571Y-4650000D01*
X-41074244Y-4437688D01*
X-41132596Y-4232608D01*
X-41227630Y-4041752D01*
X-41227635Y-4041743D01*
X-41356125Y-3871597D01*
X-41356124Y-3871597D01*
X-41356128Y-3871593D01*
X-41356131Y-3871589D01*
X-41356135Y-3871586D01*
X-41513692Y-3727952D01*
X-41513699Y-3727946D01*
X-41694975Y-3615705D01*
X-41694980Y-3615702D01*
X-41893804Y-3538678D01*
X-42103390Y-3499500D01*
X-42316610Y-3499500D01*
X-42526195Y-3538678D01*
X-42526197Y-3538678D01*
X-42526198Y-3538679D01*
X-42658191Y-3589813D01*
X-42725019Y-3615702D01*
X-42725024Y-3615705D01*
X-42906300Y-3727946D01*
X-42906307Y-3727952D01*
X-42979612Y-3794779D01*
X-43063872Y-3871593D01*
X-43192366Y-4041745D01*
X-43287405Y-4232611D01*
X-43345756Y-4437690D01*
X-43365429Y-4650000D01*
X-43594571Y-4650000D01*
X-43614244Y-4437688D01*
X-43672596Y-4232608D01*
X-43767630Y-4041752D01*
X-43767635Y-4041743D01*
X-43896125Y-3871597D01*
X-43896124Y-3871597D01*
X-43896128Y-3871593D01*
X-43896131Y-3871589D01*
X-43896135Y-3871586D01*
X-44053692Y-3727952D01*
X-44053699Y-3727946D01*
X-44234975Y-3615705D01*
X-44234980Y-3615702D01*
X-44433804Y-3538678D01*
X-44643390Y-3499500D01*
X-44856610Y-3499500D01*
X-45066195Y-3538678D01*
X-45066197Y-3538678D01*
X-45066198Y-3538679D01*
X-45198191Y-3589813D01*
X-45265019Y-3615702D01*
X-45265024Y-3615705D01*
X-45446300Y-3727946D01*
X-45446307Y-3727952D01*
X-45519612Y-3794779D01*
X-45603872Y-3871593D01*
X-45732366Y-4041745D01*
X-45827405Y-4232611D01*
X-45885756Y-4437690D01*
X-45905429Y-4650000D01*
X-46790000Y-4650000D01*
X-46790000Y-4578111D01*
X-46830507Y-4440156D01*
X-46908239Y-4319202D01*
X-47016900Y-4225048D01*
X-47147685Y-4165320D01*
X-47254237Y-4150000D01*
X-47325763Y-4150000D01*
X-47432315Y-4165320D01*
X-47563100Y-4225048D01*
X-47671761Y-4319202D01*
X-47749493Y-4440156D01*
X-47790000Y-4578111D01*
X-47790000Y-4721889D01*
X-48681232Y-4721889D01*
X-48674571Y-4650000D01*
X-48694244Y-4437688D01*
X-48752596Y-4232608D01*
X-48793729Y-4150000D01*
X-48325711Y-4150000D01*
X-47790001Y-4150000D01*
X-47790000Y-4149999D01*
X-47790000Y-3610420D01*
X-46790000Y-3610420D01*
X-46790000Y-4149999D01*
X-46789999Y-4150000D01*
X-46254288Y-4150000D01*
X-46308057Y-4042016D01*
X-46308062Y-4042007D01*
X-46436496Y-3871935D01*
X-46436506Y-3871924D01*
X-46593995Y-3728352D01*
X-46775206Y-3616151D01*
X-46789999Y-3610420D01*
X-46790000Y-3610420D01*
X-47790000Y-3610420D01*
X-47804793Y-3616151D01*
X-47986004Y-3728352D01*
X-48143493Y-3871924D01*
X-48143503Y-3871935D01*
X-48271937Y-4042007D01*
X-48271942Y-4042016D01*
X-48325711Y-4150000D01*
X-48793729Y-4150000D01*
X-48847630Y-4041752D01*
X-48847635Y-4041743D01*
X-48976125Y-3871597D01*
X-48976124Y-3871597D01*
X-48976128Y-3871593D01*
X-48976131Y-3871589D01*
X-48976135Y-3871586D01*
X-49133692Y-3727952D01*
X-49133699Y-3727946D01*
X-49314975Y-3615705D01*
X-49314980Y-3615702D01*
X-49513804Y-3538678D01*
X-49723390Y-3499500D01*
X-49936610Y-3499500D01*
X-50146195Y-3538678D01*
X-50146197Y-3538678D01*
X-50146198Y-3538679D01*
X-50278191Y-3589813D01*
X-50345019Y-3615702D01*
X-50345024Y-3615705D01*
X-50526300Y-3727946D01*
X-50526307Y-3727952D01*
X-50599612Y-3794779D01*
X-50683872Y-3871593D01*
X-50812366Y-4041745D01*
X-50907405Y-4232611D01*
X-50965756Y-4437690D01*
X-50985429Y-4650000D01*
X-51214571Y-4650000D01*
X-51234244Y-4437688D01*
X-51292596Y-4232608D01*
X-51387630Y-4041752D01*
X-51387635Y-4041743D01*
X-51516125Y-3871597D01*
X-51516124Y-3871597D01*
X-51516128Y-3871593D01*
X-51516131Y-3871589D01*
X-51516135Y-3871586D01*
X-51673692Y-3727952D01*
X-51673699Y-3727946D01*
X-51854975Y-3615705D01*
X-51854980Y-3615702D01*
X-52053804Y-3538678D01*
X-52263390Y-3499500D01*
X-52476610Y-3499500D01*
X-52686195Y-3538678D01*
X-52686197Y-3538678D01*
X-52686198Y-3538679D01*
X-52818191Y-3589813D01*
X-52885019Y-3615702D01*
X-52885024Y-3615705D01*
X-53066300Y-3727946D01*
X-53066307Y-3727952D01*
X-53139612Y-3794779D01*
X-53223872Y-3871593D01*
X-53352366Y-4041745D01*
X-53447405Y-4232611D01*
X-53505756Y-4437690D01*
X-53525429Y-4650000D01*
X-54410000Y-4650000D01*
X-54410000Y-4578111D01*
X-54450507Y-4440156D01*
X-54528239Y-4319202D01*
X-54636900Y-4225048D01*
X-54767685Y-4165320D01*
X-54874237Y-4150000D01*
X-54945763Y-4150000D01*
X-55052315Y-4165320D01*
X-55183100Y-4225048D01*
X-55291761Y-4319202D01*
X-55369493Y-4440156D01*
X-55410000Y-4578111D01*
X-55410000Y-4721889D01*
X-56301232Y-4721889D01*
X-56294571Y-4650000D01*
X-56314244Y-4437688D01*
X-56372596Y-4232608D01*
X-56413729Y-4150000D01*
X-55945711Y-4150000D01*
X-55410001Y-4150000D01*
X-55410000Y-4149999D01*
X-55410000Y-3610420D01*
X-54410000Y-3610420D01*
X-54410000Y-4149999D01*
X-54409999Y-4150000D01*
X-53874288Y-4150000D01*
X-53928057Y-4042016D01*
X-53928062Y-4042007D01*
X-54056496Y-3871935D01*
X-54056506Y-3871924D01*
X-54213995Y-3728352D01*
X-54395206Y-3616151D01*
X-54409999Y-3610420D01*
X-54410000Y-3610420D01*
X-55410000Y-3610420D01*
X-55424793Y-3616151D01*
X-55606004Y-3728352D01*
X-55763493Y-3871924D01*
X-55763503Y-3871935D01*
X-55891937Y-4042007D01*
X-55891942Y-4042016D01*
X-55945711Y-4150000D01*
X-56413729Y-4150000D01*
X-56467630Y-4041752D01*
X-56467635Y-4041743D01*
X-56596125Y-3871597D01*
X-56596124Y-3871597D01*
X-56596128Y-3871593D01*
X-56596131Y-3871589D01*
X-56596135Y-3871586D01*
X-56753692Y-3727952D01*
X-56753699Y-3727946D01*
X-56934975Y-3615705D01*
X-56934980Y-3615702D01*
X-57133804Y-3538678D01*
X-57343390Y-3499500D01*
X-57556610Y-3499500D01*
X-57766195Y-3538678D01*
X-57766197Y-3538678D01*
X-57766198Y-3538679D01*
X-57889440Y-3586423D01*
X-57950531Y-3589813D01*
X-57966818Y-3579306D01*
X-57973886Y-3608744D01*
X-58006181Y-3641188D01*
X-58146300Y-3727946D01*
X-58146307Y-3727952D01*
X-58219612Y-3794779D01*
X-58303872Y-3871593D01*
X-58432366Y-4041745D01*
X-58527405Y-4232611D01*
X-58585756Y-4437690D01*
X-58605429Y-4650000D01*
X-58834571Y-4650000D01*
X-58854244Y-4437688D01*
X-58912596Y-4232608D01*
X-59007630Y-4041752D01*
X-59007635Y-4041743D01*
X-59136125Y-3871597D01*
X-59136124Y-3871597D01*
X-59136128Y-3871593D01*
X-59136131Y-3871589D01*
X-59136135Y-3871586D01*
X-59293692Y-3727952D01*
X-59293699Y-3727946D01*
X-59474975Y-3615705D01*
X-59474980Y-3615702D01*
X-59673804Y-3538678D01*
X-59883390Y-3499500D01*
X-60096610Y-3499500D01*
X-60306195Y-3538678D01*
X-60306197Y-3538678D01*
X-60306198Y-3538679D01*
X-60438191Y-3589813D01*
X-60505019Y-3615702D01*
X-60505024Y-3615705D01*
X-60686300Y-3727946D01*
X-60686307Y-3727952D01*
X-60759612Y-3794779D01*
X-60843872Y-3871593D01*
X-60972366Y-4041745D01*
X-61067405Y-4232611D01*
X-61125756Y-4437690D01*
X-61145429Y-4650000D01*
X-61374571Y-4650000D01*
X-61394244Y-4437688D01*
X-61452596Y-4232608D01*
X-61547630Y-4041752D01*
X-61547635Y-4041743D01*
X-61676125Y-3871597D01*
X-61676124Y-3871597D01*
X-61676128Y-3871593D01*
X-61676131Y-3871589D01*
X-61676135Y-3871586D01*
X-61833692Y-3727952D01*
X-61833699Y-3727946D01*
X-62014975Y-3615705D01*
X-62014980Y-3615702D01*
X-62213804Y-3538678D01*
X-62423390Y-3499500D01*
X-62636610Y-3499500D01*
X-62846195Y-3538678D01*
X-62846197Y-3538678D01*
X-62846198Y-3538679D01*
X-62978191Y-3589813D01*
X-63045019Y-3615702D01*
X-63045024Y-3615705D01*
X-63226300Y-3727946D01*
X-63226307Y-3727952D01*
X-63299612Y-3794779D01*
X-63383872Y-3871593D01*
X-63512366Y-4041745D01*
X-63607405Y-4232611D01*
X-63665756Y-4437690D01*
X-63685429Y-4650000D01*
X-63914571Y-4650000D01*
X-63934244Y-4437688D01*
X-63992596Y-4232608D01*
X-64087630Y-4041752D01*
X-64087635Y-4041743D01*
X-64216125Y-3871597D01*
X-64216124Y-3871597D01*
X-64216128Y-3871593D01*
X-64216131Y-3871589D01*
X-64216135Y-3871586D01*
X-64373692Y-3727952D01*
X-64373699Y-3727946D01*
X-64554975Y-3615705D01*
X-64554980Y-3615702D01*
X-64753804Y-3538678D01*
X-64963390Y-3499500D01*
X-65176610Y-3499500D01*
X-65386195Y-3538678D01*
X-65386197Y-3538678D01*
X-65386198Y-3538679D01*
X-65518191Y-3589813D01*
X-65585019Y-3615702D01*
X-65585024Y-3615705D01*
X-65766300Y-3727946D01*
X-65766307Y-3727952D01*
X-65839612Y-3794779D01*
X-65923872Y-3871593D01*
X-66052366Y-4041745D01*
X-66147405Y-4232611D01*
X-66205756Y-4437690D01*
X-66225429Y-4650000D01*
X-67110000Y-4650000D01*
X-67110000Y-4578111D01*
X-67150507Y-4440156D01*
X-67228239Y-4319202D01*
X-67336900Y-4225048D01*
X-67467685Y-4165320D01*
X-67574237Y-4150000D01*
X-67645763Y-4150000D01*
X-67752315Y-4165320D01*
X-67883100Y-4225048D01*
X-67991761Y-4319202D01*
X-68069493Y-4440156D01*
X-68110000Y-4578111D01*
X-68110000Y-4721889D01*
X-69001232Y-4721889D01*
X-68994571Y-4650000D01*
X-69014244Y-4437688D01*
X-69072596Y-4232608D01*
X-69113729Y-4150000D01*
X-68645711Y-4150000D01*
X-68110001Y-4150000D01*
X-68110000Y-4149999D01*
X-68110000Y-3610420D01*
X-67110000Y-3610420D01*
X-67110000Y-4149999D01*
X-67109999Y-4150000D01*
X-66574288Y-4150000D01*
X-66628057Y-4042016D01*
X-66628062Y-4042007D01*
X-66756496Y-3871935D01*
X-66756506Y-3871924D01*
X-66913995Y-3728352D01*
X-67095206Y-3616151D01*
X-67109999Y-3610420D01*
X-67110000Y-3610420D01*
X-68110000Y-3610420D01*
X-68124793Y-3616151D01*
X-68306004Y-3728352D01*
X-68463493Y-3871924D01*
X-68463503Y-3871935D01*
X-68591937Y-4042007D01*
X-68591942Y-4042016D01*
X-68645711Y-4150000D01*
X-69113729Y-4150000D01*
X-69167630Y-4041752D01*
X-69167635Y-4041743D01*
X-69296125Y-3871597D01*
X-69296124Y-3871597D01*
X-69296128Y-3871593D01*
X-69296131Y-3871589D01*
X-69296135Y-3871586D01*
X-69453692Y-3727952D01*
X-69453699Y-3727946D01*
X-69634975Y-3615705D01*
X-69634980Y-3615702D01*
X-69833804Y-3538678D01*
X-70043390Y-3499500D01*
X-70256610Y-3499500D01*
X-70466195Y-3538678D01*
X-70466197Y-3538678D01*
X-70466198Y-3538679D01*
X-70598191Y-3589813D01*
X-70665019Y-3615702D01*
X-70665024Y-3615705D01*
X-70846300Y-3727946D01*
X-70846307Y-3727952D01*
X-70919612Y-3794779D01*
X-71003872Y-3871593D01*
X-71132366Y-4041745D01*
X-71227405Y-4232611D01*
X-71285756Y-4437690D01*
X-71305429Y-4650000D01*
X-72190000Y-4650000D01*
X-72190000Y-4578111D01*
X-72230507Y-4440156D01*
X-72308239Y-4319202D01*
X-72416900Y-4225048D01*
X-72547685Y-4165320D01*
X-72654237Y-4150000D01*
X-72725763Y-4150000D01*
X-72832315Y-4165320D01*
X-72963100Y-4225048D01*
X-73071761Y-4319202D01*
X-73149493Y-4440156D01*
X-73190000Y-4578111D01*
X-73190000Y-4721889D01*
X-74081232Y-4721889D01*
X-74074571Y-4650000D01*
X-74094244Y-4437688D01*
X-74152596Y-4232608D01*
X-74193729Y-4150000D01*
X-73725711Y-4150000D01*
X-73190001Y-4150000D01*
X-73190000Y-4149999D01*
X-73190000Y-3610420D01*
X-72190000Y-3610420D01*
X-72190000Y-4149999D01*
X-72189999Y-4150000D01*
X-71654288Y-4150000D01*
X-71708057Y-4042016D01*
X-71708062Y-4042007D01*
X-71836496Y-3871935D01*
X-71836506Y-3871924D01*
X-71993995Y-3728352D01*
X-72175206Y-3616151D01*
X-72189999Y-3610420D01*
X-72190000Y-3610420D01*
X-73190000Y-3610420D01*
X-73204793Y-3616151D01*
X-73386004Y-3728352D01*
X-73543493Y-3871924D01*
X-73543503Y-3871935D01*
X-73671937Y-4042007D01*
X-73671942Y-4042016D01*
X-73725711Y-4150000D01*
X-74193729Y-4150000D01*
X-74247630Y-4041752D01*
X-74247635Y-4041743D01*
X-74376125Y-3871597D01*
X-74376124Y-3871597D01*
X-74376128Y-3871593D01*
X-74376131Y-3871589D01*
X-74376135Y-3871586D01*
X-74533692Y-3727952D01*
X-74533699Y-3727946D01*
X-74714975Y-3615705D01*
X-74714980Y-3615702D01*
X-74913804Y-3538678D01*
X-75123390Y-3499500D01*
X-75336610Y-3499500D01*
X-75546195Y-3538678D01*
X-75546197Y-3538678D01*
X-75546198Y-3538679D01*
X-75678191Y-3589813D01*
X-75745019Y-3615702D01*
X-75745024Y-3615705D01*
X-75926300Y-3727946D01*
X-75926307Y-3727952D01*
X-75999612Y-3794779D01*
X-76083872Y-3871593D01*
X-76212366Y-4041745D01*
X-76307405Y-4232611D01*
X-76365756Y-4437690D01*
X-76385429Y-4650000D01*
X-76614571Y-4650000D01*
X-76634244Y-4437688D01*
X-76692596Y-4232608D01*
X-76787630Y-4041752D01*
X-76787635Y-4041743D01*
X-76916125Y-3871597D01*
X-76916124Y-3871597D01*
X-76916128Y-3871593D01*
X-76916131Y-3871589D01*
X-76916135Y-3871586D01*
X-77073692Y-3727952D01*
X-77073699Y-3727946D01*
X-77254975Y-3615705D01*
X-77254980Y-3615702D01*
X-77453804Y-3538678D01*
X-77663390Y-3499500D01*
X-77876610Y-3499500D01*
X-78086195Y-3538678D01*
X-78086197Y-3538678D01*
X-78086198Y-3538679D01*
X-78218191Y-3589813D01*
X-78285019Y-3615702D01*
X-78285024Y-3615705D01*
X-78466300Y-3727946D01*
X-78466307Y-3727952D01*
X-78539612Y-3794779D01*
X-78623872Y-3871593D01*
X-78752366Y-4041745D01*
X-78847405Y-4232611D01*
X-78905756Y-4437690D01*
X-78925429Y-4650000D01*
X-79154571Y-4650000D01*
X-79174244Y-4437688D01*
X-79232596Y-4232608D01*
X-79327630Y-4041752D01*
X-79327635Y-4041743D01*
X-79456125Y-3871597D01*
X-79456124Y-3871597D01*
X-79456128Y-3871593D01*
X-79456131Y-3871589D01*
X-79456135Y-3871586D01*
X-79613692Y-3727952D01*
X-79613699Y-3727946D01*
X-79794975Y-3615705D01*
X-79794980Y-3615702D01*
X-79993804Y-3538678D01*
X-80203390Y-3499500D01*
X-80416610Y-3499500D01*
X-80626195Y-3538678D01*
X-80626197Y-3538678D01*
X-80626198Y-3538679D01*
X-80758191Y-3589813D01*
X-80825019Y-3615702D01*
X-80825024Y-3615705D01*
X-81006300Y-3727946D01*
X-81006307Y-3727952D01*
X-81079612Y-3794779D01*
X-81163872Y-3871593D01*
X-81292366Y-4041745D01*
X-81380777Y-4219300D01*
X-81423637Y-4262960D01*
X-81483978Y-4273090D01*
X-81538749Y-4245818D01*
X-81549488Y-4233361D01*
X-81608027Y-4152788D01*
X-81752786Y-4008029D01*
X-81918386Y-3887714D01*
X-81918390Y-3887712D01*
X-82100784Y-3794777D01*
X-82295468Y-3731522D01*
X-82497646Y-3699500D01*
X-82497649Y-3699500D01*
X-82543827Y-3699500D01*
X-84597570Y-3699500D01*
X-84602425Y-3699261D01*
X-84726763Y-3687014D01*
X-84745795Y-3683228D01*
X-84858356Y-3649084D01*
X-84876285Y-3641658D01*
X-84937863Y-3608744D01*
X-84980021Y-3586210D01*
X-84996157Y-3575428D01*
X-85087083Y-3500806D01*
X-85100806Y-3487083D01*
X-85175428Y-3396157D01*
X-85186210Y-3380021D01*
X-85241657Y-3276288D01*
X-85249084Y-3258356D01*
X-85283228Y-3145795D01*
X-85287014Y-3126762D01*
X-85299261Y-3002424D01*
X-85299500Y-2997569D01*
X-85299500Y-2800000D01*
X-61905682Y-2800000D01*
X-61885044Y-2956762D01*
X-61824536Y-3102841D01*
X-61728282Y-3228282D01*
X-61602841Y-3324536D01*
X-61456762Y-3385044D01*
X-61331352Y-3401554D01*
X-61300001Y-3405682D01*
X-61300000Y-3405682D01*
X-61299999Y-3405682D01*
X-61260809Y-3400522D01*
X-61143238Y-3385044D01*
X-61006212Y-3328286D01*
X-60997161Y-3324537D01*
X-60997160Y-3324537D01*
X-60871723Y-3228286D01*
X-60871722Y-3228285D01*
X-60871718Y-3228282D01*
X-60848856Y-3198488D01*
X-60775462Y-3102839D01*
X-60775462Y-3102838D01*
X-60714957Y-2956766D01*
X-60714955Y-2956758D01*
X-60707483Y-2900000D01*
X-58905682Y-2900000D01*
X-58885044Y-3056762D01*
X-58824536Y-3202841D01*
X-58728282Y-3328282D01*
X-58602841Y-3424536D01*
X-58456762Y-3485044D01*
X-58346957Y-3499500D01*
X-58300001Y-3505682D01*
X-58300000Y-3505682D01*
X-58299999Y-3505682D01*
X-58253043Y-3499500D01*
X-58143238Y-3485044D01*
X-58096182Y-3465552D01*
X-58035188Y-3460752D01*
X-58016759Y-3472044D01*
X-58008396Y-3440445D01*
X-57985469Y-3415566D01*
X-57871723Y-3328286D01*
X-57871722Y-3328285D01*
X-57871718Y-3328282D01*
X-57868844Y-3324537D01*
X-57775462Y-3202839D01*
X-57775462Y-3202838D01*
X-57714957Y-3056766D01*
X-57714955Y-3056758D01*
X-57694318Y-2900000D01*
X-57694318Y-2899999D01*
X-57714955Y-2743241D01*
X-57714957Y-2743233D01*
X-57775462Y-2597161D01*
X-57775462Y-2597160D01*
X-57871713Y-2471723D01*
X-57871723Y-2471713D01*
X-57997161Y-2375462D01*
X-58143233Y-2314957D01*
X-58143241Y-2314955D01*
X-58299999Y-2294318D01*
X-58300001Y-2294318D01*
X-58456758Y-2314955D01*
X-58456766Y-2314957D01*
X-58602838Y-2375462D01*
X-58602839Y-2375462D01*
X-58728276Y-2471713D01*
X-58728277Y-2471714D01*
X-58728282Y-2471718D01*
X-58728285Y-2471722D01*
X-58728286Y-2471723D01*
X-58824537Y-2597160D01*
X-58824537Y-2597161D01*
X-58885044Y-2743238D01*
X-58905682Y-2900000D01*
X-60707483Y-2900000D01*
X-60694318Y-2800000D01*
X-60694318Y-2799999D01*
X-60714955Y-2643241D01*
X-60714957Y-2643233D01*
X-60775462Y-2497161D01*
X-60775462Y-2497160D01*
X-60871713Y-2371723D01*
X-60871723Y-2371713D01*
X-60997161Y-2275462D01*
X-61143233Y-2214957D01*
X-61143241Y-2214955D01*
X-61299999Y-2194318D01*
X-61300001Y-2194318D01*
X-61456758Y-2214955D01*
X-61456766Y-2214957D01*
X-61602838Y-2275462D01*
X-61602839Y-2275462D01*
X-61728276Y-2371713D01*
X-61728277Y-2371714D01*
X-61728282Y-2371718D01*
X-61728285Y-2371722D01*
X-61728286Y-2371723D01*
X-61824537Y-2497160D01*
X-61824537Y-2497161D01*
X-61865958Y-2597160D01*
X-61885044Y-2643238D01*
X-61905682Y-2800000D01*
X-85299500Y-2800000D01*
X-85299500Y-1800000D01*
X-59905682Y-1800000D01*
X-59885044Y-1956762D01*
X-59824536Y-2102841D01*
X-59728282Y-2228282D01*
X-59602841Y-2324536D01*
X-59456762Y-2385044D01*
X-59331352Y-2401554D01*
X-59300001Y-2405682D01*
X-59300000Y-2405682D01*
X-59299999Y-2405682D01*
X-59260809Y-2400522D01*
X-59143238Y-2385044D01*
X-58997161Y-2324537D01*
X-58997160Y-2324537D01*
X-58871723Y-2228286D01*
X-58871722Y-2228285D01*
X-58871718Y-2228282D01*
X-58861493Y-2214957D01*
X-58775462Y-2102839D01*
X-58775462Y-2102838D01*
X-58714957Y-1956766D01*
X-58714955Y-1956758D01*
X-58694318Y-1800000D01*
X-58694318Y-1799999D01*
X-58714955Y-1643241D01*
X-58714957Y-1643233D01*
X-58775462Y-1497161D01*
X-58775462Y-1497160D01*
X-58871713Y-1371723D01*
X-58871723Y-1371713D01*
X-58997161Y-1275462D01*
X-59143233Y-1214957D01*
X-59143241Y-1214955D01*
X-59299999Y-1194318D01*
X-59300001Y-1194318D01*
X-59456758Y-1214955D01*
X-59456766Y-1214957D01*
X-59602838Y-1275462D01*
X-59602839Y-1275462D01*
X-59728276Y-1371713D01*
X-59728277Y-1371714D01*
X-59728282Y-1371718D01*
X-59728285Y-1371722D01*
X-59728286Y-1371723D01*
X-59824537Y-1497160D01*
X-59824537Y-1497161D01*
X-59885042Y-1643233D01*
X-59885044Y-1643238D01*
X-59905682Y-1800000D01*
X-85299500Y-1800000D01*
X-85299500Y1000000D01*
X-75805682Y1000000D01*
X-75785044Y843238D01*
X-75785042Y843233D01*
X-75724537Y697161D01*
X-75724537Y697160D01*
X-75638506Y585042D01*
X-75628282Y571718D01*
X-75628277Y571714D01*
X-75628276Y571713D01*
X-75502838Y475462D01*
X-75356766Y414957D01*
X-75350494Y413277D01*
X-75351214Y410589D01*
X-75306515Y389251D01*
X-75277337Y335471D01*
X-75285343Y274811D01*
X-75314416Y238920D01*
X-75328282Y228282D01*
X-75424536Y102841D01*
X-75485044Y-43238D01*
X-75505682Y-200000D01*
X-75485044Y-356762D01*
X-75424536Y-502841D01*
X-75328282Y-628282D01*
X-75202841Y-724536D01*
X-75056762Y-785044D01*
X-74931352Y-801554D01*
X-74900001Y-805682D01*
X-74900000Y-805682D01*
X-74899999Y-805682D01*
X-74860809Y-800522D01*
X-74743238Y-785044D01*
X-74597161Y-724537D01*
X-74597160Y-724537D01*
X-74471723Y-628286D01*
X-74471722Y-628285D01*
X-74471718Y-628282D01*
X-74454376Y-605682D01*
X-74375462Y-502839D01*
X-74375462Y-502838D01*
X-74314957Y-356766D01*
X-74314955Y-356758D01*
X-74294318Y-200000D01*
X-74294318Y-199999D01*
X-74314955Y-43241D01*
X-74314957Y-43233D01*
X-74336433Y8614D01*
X-61914297Y8614D01*
X-61913188Y190D01*
X-61893659Y-148147D01*
X-61833151Y-294226D01*
X-61736897Y-419667D01*
X-61611456Y-515921D01*
X-61465377Y-576429D01*
X-61339967Y-592939D01*
X-61308616Y-597067D01*
X-61308615Y-597067D01*
X-61308614Y-597067D01*
X-61269424Y-591907D01*
X-61151853Y-576429D01*
X-61086300Y-549276D01*
X-61005776Y-515922D01*
X-61005775Y-515922D01*
X-60880338Y-419671D01*
X-60880337Y-419670D01*
X-60880333Y-419667D01*
X-60862139Y-395957D01*
X-60836154Y-362092D01*
X-60785730Y-327436D01*
X-60724565Y-329037D01*
X-60679072Y-362090D01*
X-60628282Y-428282D01*
X-60502841Y-524536D01*
X-60356762Y-585044D01*
X-60231352Y-601554D01*
X-60200001Y-605682D01*
X-60200000Y-605682D01*
X-60199999Y-605682D01*
X-60160809Y-600522D01*
X-60043238Y-585044D01*
X-60043233Y-585042D01*
X-59897161Y-524537D01*
X-59897160Y-524537D01*
X-59771723Y-428286D01*
X-59771722Y-428285D01*
X-59771718Y-428282D01*
X-59771713Y-428276D01*
X-59675462Y-302839D01*
X-59675462Y-302838D01*
X-59614957Y-156766D01*
X-59614955Y-156758D01*
X-59594318Y1D01*
X-59614955Y156758D01*
X-59614957Y156766D01*
X-59675462Y302838D01*
X-59675462Y302839D01*
X-59771713Y428276D01*
X-59771714Y428277D01*
X-59771718Y428282D01*
X-59782951Y436901D01*
X-59818879Y464470D01*
X-59897159Y524536D01*
X-59898603Y525134D01*
X-60043233Y585042D01*
X-60043238Y585044D01*
X-60160809Y600522D01*
X-60199999Y605682D01*
X-60200001Y605682D01*
X-60231352Y601554D01*
X-60356762Y585044D01*
X-60502841Y524536D01*
X-60628282Y428282D01*
X-60672462Y370704D01*
X-60722883Y336051D01*
X-60784048Y337652D01*
X-60829544Y370707D01*
X-60840544Y385042D01*
X-60873722Y428282D01*
X-60880329Y436892D01*
X-60880333Y436897D01*
X-61005774Y533151D01*
X-61098871Y571713D01*
X-61151848Y593657D01*
X-61151853Y593659D01*
X-61269424Y609137D01*
X-61308614Y614297D01*
X-61308616Y614297D01*
X-61339967Y610169D01*
X-61465377Y593659D01*
X-61611456Y533151D01*
X-61736897Y436897D01*
X-61833151Y311456D01*
X-61893659Y165377D01*
X-61901892Y102841D01*
X-61914297Y8615D01*
X-61914297Y8614D01*
X-74336433Y8614D01*
X-74375462Y102838D01*
X-74375462Y102839D01*
X-74471713Y228276D01*
X-74471714Y228277D01*
X-74471718Y228282D01*
X-74485577Y238916D01*
X-74568883Y302839D01*
X-74597159Y324536D01*
X-74624959Y336051D01*
X-74743233Y385042D01*
X-74743238Y385044D01*
X-74743242Y385044D01*
X-74749506Y386723D01*
X-74748783Y389420D01*
X-74793442Y410707D01*
X-74822651Y464470D01*
X-74814681Y525134D01*
X-74785582Y561079D01*
X-74771724Y571712D01*
X-74771713Y571723D01*
X-74675462Y697160D01*
X-74675462Y697161D01*
X-74614957Y843233D01*
X-74614955Y843241D01*
X-74594318Y999999D01*
X-74594318Y1000000D01*
X-74614955Y1156758D01*
X-74614957Y1156766D01*
X-74675462Y1302838D01*
X-74675462Y1302839D01*
X-74771713Y1428276D01*
X-74771714Y1428277D01*
X-74771718Y1428282D01*
X-74897159Y1524536D01*
X-75043238Y1585044D01*
X-75160809Y1600522D01*
X-75199999Y1605682D01*
X-75200001Y1605682D01*
X-75231352Y1601554D01*
X-75356762Y1585044D01*
X-75502841Y1524536D01*
X-75628282Y1428282D01*
X-75724536Y1302841D01*
X-75785044Y1156762D01*
X-75805682Y1000000D01*
X-85299500Y1000000D01*
X-85299500Y2500000D01*
X-68205682Y2500000D01*
X-68185044Y2343238D01*
X-68185042Y2343233D01*
X-68124537Y2197161D01*
X-68124537Y2197160D01*
X-68028379Y2071844D01*
X-68028282Y2071718D01*
X-68028277Y2071714D01*
X-68028276Y2071713D01*
X-67902838Y1975462D01*
X-67756766Y1914957D01*
X-67756758Y1914955D01*
X-67600001Y1894318D01*
X-67600000Y1894318D01*
X-67599999Y1894318D01*
X-67443241Y1914955D01*
X-67443233Y1914957D01*
X-67297161Y1975462D01*
X-67297160Y1975462D01*
X-67171723Y2071713D01*
X-67171713Y2071723D01*
X-67075462Y2197160D01*
X-67075462Y2197161D01*
X-67014957Y2343233D01*
X-67014955Y2343241D01*
X-66994318Y2499999D01*
X-66994318Y2500000D01*
X-67014955Y2656758D01*
X-67014957Y2656766D01*
X-67075462Y2802838D01*
X-67075462Y2802839D01*
X-67171713Y2928276D01*
X-67171714Y2928277D01*
X-67171718Y2928282D01*
X-67297159Y3024536D01*
X-67399628Y3066980D01*
X-67443233Y3085042D01*
X-67443238Y3085044D01*
X-67582689Y3103403D01*
X-67599999Y3105682D01*
X-67600001Y3105682D01*
X-67617311Y3103403D01*
X-67756762Y3085044D01*
X-67902841Y3024536D01*
X-68028282Y2928282D01*
X-68124536Y2802841D01*
X-68185044Y2656762D01*
X-68205682Y2500000D01*
X-85299500Y2500000D01*
X-85299500Y2997569D01*
X-85299261Y3002424D01*
X-85287014Y3126762D01*
X-85283228Y3145795D01*
X-85249084Y3258356D01*
X-85241657Y3276288D01*
X-85232019Y3294318D01*
X-85186210Y3380021D01*
X-85175428Y3396157D01*
X-85100806Y3487083D01*
X-85087083Y3500806D01*
X-84996157Y3575428D01*
X-84980021Y3586210D01*
X-84928154Y3613933D01*
X-84876285Y3641658D01*
X-84858356Y3649084D01*
X-84745795Y3683228D01*
X-84726763Y3687014D01*
X-84602425Y3699261D01*
X-84597570Y3699500D01*
X-82497646Y3699500D01*
X-82295468Y3731522D01*
X-82100784Y3794777D01*
X-81918390Y3887712D01*
X-81918386Y3887714D01*
X-81752786Y4008029D01*
X-81608029Y4152786D01*
X-81501072Y4300000D01*
X-71105682Y4300000D01*
X-71085044Y4143238D01*
X-71085042Y4143233D01*
X-71024537Y3997161D01*
X-71024537Y3997160D01*
X-70940555Y3887712D01*
X-70928282Y3871718D01*
X-70928277Y3871714D01*
X-70928276Y3871713D01*
X-70895506Y3846568D01*
X-70838516Y3802838D01*
X-70802838Y3775462D01*
X-70656766Y3714957D01*
X-70656758Y3714955D01*
X-70500001Y3694318D01*
X-70500000Y3694318D01*
X-70499999Y3694318D01*
X-70343241Y3714955D01*
X-70343232Y3714957D01*
X-70220468Y3765808D01*
X-70159471Y3770609D01*
X-70107302Y3738639D01*
X-70083888Y3682111D01*
X-70084430Y3661422D01*
X-70085043Y3656763D01*
X-70085044Y3656762D01*
X-70102183Y3526577D01*
X-70105682Y3500000D01*
X-70105682Y3499999D01*
X-70102391Y3475000D01*
X-70085044Y3343238D01*
X-70085042Y3343233D01*
X-70024537Y3197161D01*
X-70024537Y3197160D01*
X-69938506Y3085042D01*
X-69928282Y3071718D01*
X-69928277Y3071714D01*
X-69928276Y3071713D01*
X-69866794Y3024537D01*
X-69807941Y2979377D01*
X-69802838Y2975462D01*
X-69656766Y2914957D01*
X-69656758Y2914955D01*
X-69500001Y2894318D01*
X-69500000Y2894318D01*
X-69499999Y2894318D01*
X-69343241Y2914955D01*
X-69343233Y2914957D01*
X-69197161Y2975462D01*
X-69197160Y2975462D01*
X-69071723Y3071713D01*
X-69071713Y3071723D01*
X-68975462Y3197160D01*
X-68975462Y3197161D01*
X-68914957Y3343233D01*
X-68914955Y3343241D01*
X-68894318Y3499999D01*
X-68894318Y3500000D01*
X-68914955Y3656758D01*
X-68914957Y3656766D01*
X-68975462Y3802838D01*
X-68975462Y3802839D01*
X-69050016Y3900000D01*
X-61505682Y3900000D01*
X-61485044Y3743238D01*
X-61485042Y3743233D01*
X-61424537Y3597161D01*
X-61424537Y3597160D01*
X-61330800Y3474999D01*
X-61328282Y3471718D01*
X-61328277Y3471714D01*
X-61328276Y3471713D01*
X-61257104Y3417101D01*
X-61208780Y3380021D01*
X-61202838Y3375462D01*
X-61056766Y3314957D01*
X-61056758Y3314955D01*
X-60900001Y3294318D01*
X-60900000Y3294318D01*
X-60899999Y3294318D01*
X-60743241Y3314955D01*
X-60743233Y3314957D01*
X-60610784Y3369819D01*
X-58758011Y3369819D01*
X-58737373Y3213057D01*
X-58737371Y3213052D01*
X-58676866Y3066980D01*
X-58676866Y3066979D01*
X-58602303Y2969806D01*
X-58580611Y2941537D01*
X-58580606Y2941533D01*
X-58580605Y2941532D01*
X-58455167Y2845281D01*
X-58309095Y2784776D01*
X-58309087Y2784774D01*
X-58152330Y2764137D01*
X-58152329Y2764137D01*
X-58152328Y2764137D01*
X-57995570Y2784774D01*
X-57995562Y2784776D01*
X-57849490Y2845281D01*
X-57849489Y2845281D01*
X-57724052Y2941532D01*
X-57724042Y2941542D01*
X-57627791Y3066979D01*
X-57627791Y3066980D01*
X-57567286Y3213052D01*
X-57567284Y3213060D01*
X-57546647Y3369818D01*
X-57546647Y3369819D01*
X-57567284Y3526577D01*
X-57567286Y3526585D01*
X-57627791Y3672657D01*
X-57627791Y3672658D01*
X-57724042Y3798095D01*
X-57724043Y3798096D01*
X-57724047Y3798101D01*
X-57849488Y3894355D01*
X-57863114Y3899999D01*
X-57995562Y3954861D01*
X-57995567Y3954863D01*
X-58113138Y3970341D01*
X-58152328Y3975501D01*
X-58152330Y3975501D01*
X-58183681Y3971373D01*
X-58309091Y3954863D01*
X-58455170Y3894355D01*
X-58580611Y3798101D01*
X-58676865Y3672660D01*
X-58737373Y3526581D01*
X-58758011Y3369819D01*
X-60610784Y3369819D01*
X-60597161Y3375462D01*
X-60597160Y3375462D01*
X-60471723Y3471713D01*
X-60471713Y3471723D01*
X-60375462Y3597160D01*
X-60375462Y3597161D01*
X-60314957Y3743233D01*
X-60314955Y3743241D01*
X-60294318Y3899999D01*
X-60294318Y3900000D01*
X-60314955Y4056758D01*
X-60314957Y4056766D01*
X-60375462Y4202838D01*
X-60375462Y4202839D01*
X-60471713Y4328276D01*
X-60471714Y4328277D01*
X-60471718Y4328282D01*
X-60597159Y4424536D01*
X-60674950Y4456758D01*
X-60743233Y4485042D01*
X-60743238Y4485044D01*
X-60897698Y4505379D01*
X-60899999Y4505682D01*
X-60900001Y4505682D01*
X-60902302Y4505379D01*
X-61056762Y4485044D01*
X-61202841Y4424536D01*
X-61328282Y4328282D01*
X-61424536Y4202841D01*
X-61485044Y4056762D01*
X-61505682Y3900000D01*
X-69050016Y3900000D01*
X-69071713Y3928276D01*
X-69071714Y3928277D01*
X-69071718Y3928282D01*
X-69197159Y4024536D01*
X-69208878Y4029390D01*
X-69343233Y4085042D01*
X-69343238Y4085044D01*
X-69460809Y4100522D01*
X-69499999Y4105682D01*
X-69500001Y4105682D01*
X-69531352Y4101554D01*
X-69656762Y4085044D01*
X-69779532Y4034190D01*
X-69840527Y4029390D01*
X-69892696Y4061359D01*
X-69916111Y4117887D01*
X-69915569Y4138577D01*
X-69894318Y4299999D01*
X-69894318Y4300000D01*
X-69914955Y4456758D01*
X-69914957Y4456766D01*
X-69975462Y4602838D01*
X-69975462Y4602839D01*
X-70071713Y4728276D01*
X-70071714Y4728277D01*
X-70071718Y4728282D01*
X-70197159Y4824536D01*
X-70343238Y4885044D01*
X-70460809Y4900522D01*
X-70499999Y4905682D01*
X-70500001Y4905682D01*
X-70531352Y4901554D01*
X-70656762Y4885044D01*
X-70802841Y4824536D01*
X-70928282Y4728282D01*
X-71024536Y4602841D01*
X-71085044Y4456762D01*
X-71105682Y4300000D01*
X-81501072Y4300000D01*
X-81487714Y4318386D01*
X-81487712Y4318390D01*
X-81394777Y4500784D01*
X-81331522Y4695468D01*
X-81299500Y4897645D01*
X-81299500Y4944272D01*
X-81295722Y4971361D01*
X-81295599Y4971790D01*
X-81295599Y4971795D01*
X-81298292Y5000862D01*
X-81298533Y5015971D01*
X-81283644Y5262128D01*
X-81282923Y5268068D01*
X-81236127Y5523426D01*
X-81234695Y5529235D01*
X-81157460Y5777089D01*
X-81155339Y5782683D01*
X-81048790Y6019426D01*
X-81046010Y6024724D01*
X-80911702Y6246895D01*
X-80908303Y6251818D01*
X-80748201Y6456173D01*
X-80744234Y6460651D01*
X-80560651Y6644234D01*
X-80556173Y6648201D01*
X-80351818Y6808303D01*
X-80346895Y6811702D01*
X-80124724Y6946010D01*
X-80119426Y6948790D01*
X-79882683Y7055339D01*
X-79877089Y7057460D01*
X-79629235Y7134695D01*
X-79623426Y7136127D01*
X-79449118Y7168070D01*
X-79368064Y7182923D01*
X-79362130Y7183643D01*
X-79101476Y7199410D01*
X-79098509Y7199500D01*
X-24497646Y7199500D01*
X-24295468Y7231522D01*
X-24100784Y7294777D01*
X-23918390Y7387712D01*
X-23918386Y7387714D01*
X-23752786Y7508029D01*
X-23608029Y7652786D01*
X-23487714Y7818386D01*
X-23487712Y7818390D01*
X-23394777Y8000784D01*
X-23331522Y8195468D01*
X-23299500Y8397645D01*
X-23299500Y9234229D01*
X-23299317Y9238479D01*
X-23289928Y9347484D01*
X-23287022Y9364226D01*
X-23260764Y9463824D01*
X-23255038Y9479823D01*
X-23209467Y9579285D01*
X-23207531Y9583072D01*
X-19952584Y15327098D01*
X-17654206Y15327098D01*
X-17644327Y15019022D01*
X-17595133Y14714739D01*
X-17507431Y14419244D01*
X-17382663Y14137391D01*
X-17222877Y13873807D01*
X-17222875Y13873804D01*
X-17222872Y13873800D01*
X-17030705Y13632829D01*
X-17030702Y13632826D01*
X-17030696Y13632819D01*
X-16809276Y13418386D01*
X-16809273Y13418384D01*
X-16598647Y13261189D01*
X-16562253Y13234028D01*
X-16293682Y13082772D01*
X-16007975Y12967101D01*
X-16007971Y12967100D01*
X-16007969Y12967099D01*
X-15866979Y12930127D01*
X-15709821Y12888916D01*
X-15709816Y12888915D01*
X-15709815Y12888915D01*
X-15404117Y12849500D01*
X-15173031Y12849500D01*
X-15173026Y12849500D01*
X-15068195Y12856230D01*
X-14942393Y12864307D01*
X-14639861Y12923224D01*
X-14639843Y12923229D01*
X-14347321Y13020354D01*
X-14069614Y13154088D01*
X-14069610Y13154090D01*
X-13811283Y13322243D01*
X-13811282Y13322244D01*
X-13576573Y13522054D01*
X-13369354Y13750224D01*
X-13369347Y13750234D01*
X-13193004Y14003035D01*
X-13050436Y14276310D01*
X-13050428Y14276327D01*
X-12943985Y14565568D01*
X-12943980Y14565583D01*
X-12875390Y14866095D01*
X-12860638Y15019026D01*
X-12845794Y15172902D01*
X-12855673Y15480978D01*
X-12855673Y15480981D01*
X-12855674Y15480988D01*
X-12904867Y15785262D01*
X-12904868Y15785264D01*
X-12992567Y16080752D01*
X-13117337Y16362609D01*
X-13277124Y16626195D01*
X-13277127Y16626199D01*
X-13469294Y16867170D01*
X-13469297Y16867173D01*
X-13469299Y16867175D01*
X-13469304Y16867181D01*
X-13690724Y17081614D01*
X-13937747Y17265972D01*
X-14206318Y17417228D01*
X-14492025Y17532899D01*
X-14790179Y17611084D01*
X-15095883Y17650500D01*
X-15326974Y17650500D01*
X-15557601Y17635693D01*
X-15557606Y17635692D01*
X-15860138Y17576775D01*
X-15860143Y17576773D01*
X-15860151Y17576772D01*
X-16152683Y17479644D01*
X-16430393Y17345907D01*
X-16688720Y17177754D01*
X-16923424Y16977948D01*
X-17130650Y16749769D01*
X-17306996Y16496963D01*
X-17449567Y16223683D01*
X-17556020Y15934415D01*
X-17624609Y15633908D01*
X-17654206Y15327098D01*
X-19952584Y15327098D01*
X-19410708Y16283350D01*
X-19410689Y16283383D01*
X-19388323Y16322853D01*
X-19387103Y16324890D01*
X-19199497Y16621801D01*
X-19196771Y16625689D01*
X-18982330Y16902311D01*
X-18979243Y16905921D01*
X-18739290Y17160731D01*
X-18735872Y17164028D01*
X-18472619Y17394680D01*
X-18468900Y17397635D01*
X-18184761Y17602015D01*
X-18180777Y17604600D01*
X-17878362Y17780826D01*
X-17874148Y17783018D01*
X-17556255Y17929462D01*
X-17551850Y17931240D01*
X-17221382Y18046565D01*
X-17216828Y18047913D01*
X-17035546Y18092243D01*
X-16876843Y18131051D01*
X-16872188Y18131955D01*
X-16525787Y18182148D01*
X-16521059Y18182603D01*
X-16368934Y18189905D01*
X-16170244Y18199443D01*
X-16167881Y18199500D01*
X-11301171Y18199500D01*
X-10905221Y18236190D01*
X-10905212Y18236191D01*
X-10514349Y18309256D01*
X-10131880Y18418078D01*
X-9761069Y18561731D01*
X-9405122Y18738971D01*
X-9067038Y18948305D01*
X-8749696Y19187951D01*
X-8455846Y19455832D01*
X-8455832Y19455846D01*
X-8187951Y19749696D01*
X-7948305Y20067038D01*
X-7738971Y20405122D01*
X-7561731Y20761069D01*
X-7418078Y21131880D01*
X-7309256Y21514349D01*
X-7236191Y21905212D01*
X-7236190Y21905221D01*
X-7199500Y22301171D01*
X-7199500Y22564441D01*
X-7180593Y22622632D01*
X-7131093Y22658596D01*
X-7069907Y22658596D01*
X-7020407Y22622632D01*
X-7002719Y22579928D01*
X-6952191Y22260905D01*
X-6952190Y22260903D01*
X-6855884Y21901486D01*
X-6855882Y21901479D01*
X-6722538Y21554105D01*
X-6553611Y21222568D01*
X-6553604Y21222557D01*
X-6350956Y20910505D01*
X-6350949Y20910495D01*
X-6315449Y20866657D01*
X-5416434Y21765671D01*
X-5303628Y21596844D01*
X-5104835Y21370165D01*
X-4878156Y21171372D01*
X-4709325Y21058564D01*
X-5608341Y20159549D01*
X-5564503Y20124050D01*
X-5252442Y19921394D01*
X-5252431Y19921388D01*
X-4920894Y19752461D01*
X-4573520Y19619117D01*
X-4573513Y19619115D01*
X-4214096Y19522809D01*
X-4214094Y19522808D01*
X-3846596Y19464603D01*
X-3846568Y19464600D01*
X-3475006Y19445128D01*
X-3474994Y19445128D01*
X-3103431Y19464600D01*
X-3103403Y19464603D01*
X-2735905Y19522808D01*
X-2735903Y19522809D01*
X-2376486Y19619115D01*
X-2376479Y19619117D01*
X-2029105Y19752461D01*
X-1697569Y19921388D01*
X-1385497Y20124049D01*
X-1341657Y20159549D01*
X-2240672Y21058564D01*
X-2071844Y21171372D01*
X-1845165Y21370165D01*
X-1646372Y21596844D01*
X-1533564Y21765672D01*
X-634549Y20866657D01*
X-599049Y20910497D01*
X-396388Y21222569D01*
X-227461Y21554105D01*
X-93187Y21903904D01*
X-92265Y21903550D01*
X-58395Y21950096D01*
X-190Y21968961D01*
X57987Y21950011D01*
X91817Y21903406D01*
X92710Y21903749D01*
X227003Y21553902D01*
X395954Y21222317D01*
X395960Y21222306D01*
X598645Y20910201D01*
X832839Y20620995D01*
X1095995Y20357839D01*
X1385201Y20123645D01*
X1697306Y19920960D01*
X1697317Y19920954D01*
X1949012Y19792710D01*
X1992277Y19749445D01*
X2001848Y19689013D01*
X1974071Y19634496D01*
X1919554Y19606719D01*
X1904067Y19605500D01*
X813511Y19605500D01*
X806008Y19605316D01*
X792437Y19604648D01*
X784966Y19604097D01*
X593871Y19585276D01*
X586453Y19584175D01*
X579033Y19583075D01*
X579035Y19583075D01*
X569398Y19581158D01*
X540484Y19575407D01*
X535614Y19574187D01*
X525939Y19571765D01*
X525941Y19571765D01*
X525933Y19571763D01*
X347354Y19517592D01*
X333228Y19512537D01*
X333226Y19512536D01*
X333225Y19512536D01*
X296913Y19497494D01*
X283359Y19491083D01*
X283360Y19491084D01*
X118795Y19403123D01*
X118798Y19403124D01*
X118789Y19403119D01*
X105924Y19395408D01*
X105911Y19395399D01*
X105909Y19395399D01*
X73236Y19373567D01*
X61189Y19364632D01*
X14280Y19326134D01*
X-87242Y19242817D01*
X-92913Y19237926D01*
X-92916Y19237923D01*
X-102971Y19228811D01*
X-108407Y19223635D01*
X-1097546Y18234496D01*
X-1152063Y18206719D01*
X-1167550Y18205500D01*
X-1289029Y18205500D01*
X-1392121Y18187580D01*
X-1401558Y18184197D01*
X-1446600Y18163800D01*
X-1533114Y18092245D01*
X-1533116Y18092243D01*
X-1533117Y18092241D01*
X-1573811Y18043431D01*
X-1625595Y18010842D01*
X-1678590Y18012088D01*
X-1718669Y18024247D01*
X-1718670Y18024247D01*
X-1718674Y18024248D01*
X-1904996Y18042599D01*
X-1905004Y18042599D01*
X-2091325Y18024248D01*
X-2091326Y18024247D01*
X-2091331Y18024247D01*
X-2270501Y17969896D01*
X-2435625Y17881636D01*
X-2580357Y17762857D01*
X-2699136Y17618125D01*
X-2744073Y17534051D01*
X-2788178Y17491646D01*
X-2834546Y17481772D01*
X-2890271Y17483553D01*
X-2912005Y17484249D01*
X-2912005Y17484248D01*
X-2912008Y17484249D01*
X-2981064Y17473612D01*
X-3040584Y17458183D01*
X-3136923Y17400534D01*
X-3189265Y17354251D01*
X-3245544Y17287968D01*
X-4211911Y15750567D01*
X-4240034Y15693314D01*
X-4240037Y15693305D01*
X-4257790Y15644970D01*
X-4257790Y15644971D01*
X-4264099Y15623775D01*
X-4268696Y15608339D01*
X-4272623Y15514865D01*
X-4293957Y15457519D01*
X-4320702Y15434069D01*
X-4400214Y15386489D01*
X-4404509Y15383919D01*
X-4456851Y15337636D01*
X-4513130Y15271354D01*
X-4575009Y15172910D01*
X-4625553Y15092500D01*
X-4839699Y14751815D01*
X-4886674Y14712610D01*
X-4923516Y14705500D01*
X-9686489Y14705500D01*
X-9693992Y14705316D01*
X-9707563Y14704648D01*
X-9715034Y14704097D01*
X-9906128Y14685276D01*
X-9913545Y14684175D01*
X-9920966Y14683075D01*
X-9920964Y14683075D01*
X-9930601Y14681158D01*
X-9959515Y14675407D01*
X-9964384Y14674187D01*
X-9974060Y14671765D01*
X-9974058Y14671765D01*
X-9974066Y14671763D01*
X-10152645Y14617592D01*
X-10166771Y14612537D01*
X-10166773Y14612536D01*
X-10166774Y14612536D01*
X-10203086Y14597494D01*
X-10216640Y14591083D01*
X-10216639Y14591084D01*
X-10381204Y14503123D01*
X-10381201Y14503124D01*
X-10381210Y14503119D01*
X-10394075Y14495408D01*
X-10394088Y14495399D01*
X-10394090Y14495399D01*
X-10426763Y14473567D01*
X-10438810Y14464632D01*
X-10587242Y14342816D01*
X-10592912Y14337925D01*
X-10602977Y14328804D01*
X-10608417Y14323626D01*
X-14216020Y10716021D01*
X-14432041Y10500000D01*
X-16797546Y8134496D01*
X-16852063Y8106719D01*
X-16867550Y8105500D01*
X-17686489Y8105500D01*
X-17693992Y8105316D01*
X-17707563Y8104648D01*
X-17715034Y8104097D01*
X-17906128Y8085276D01*
X-17913545Y8084175D01*
X-17920966Y8083075D01*
X-17920964Y8083075D01*
X-17930601Y8081158D01*
X-17959515Y8075407D01*
X-17964384Y8074187D01*
X-17974060Y8071765D01*
X-17974058Y8071765D01*
X-17974066Y8071763D01*
X-18152645Y8017592D01*
X-18166771Y8012537D01*
X-18166773Y8012536D01*
X-18166774Y8012536D01*
X-18184051Y8005379D01*
X-18203086Y7997494D01*
X-18216640Y7991083D01*
X-18216639Y7991084D01*
X-18381204Y7903123D01*
X-18381201Y7903124D01*
X-18381210Y7903119D01*
X-18394075Y7895408D01*
X-18394088Y7895399D01*
X-18394090Y7895399D01*
X-18426763Y7873567D01*
X-18438810Y7864632D01*
X-18587243Y7742815D01*
X-18592913Y7737925D01*
X-18602981Y7728802D01*
X-18608419Y7723624D01*
X-18877115Y7454926D01*
X-18932689Y7399352D01*
X-18942431Y7388890D01*
X-18996743Y7307612D01*
X-19025768Y7244056D01*
X-19045552Y7185839D01*
X-19046298Y7168068D01*
X-19067629Y7110723D01*
X-19118594Y7076867D01*
X-19133794Y7073883D01*
X-19144991Y7072585D01*
X-19145603Y7072314D01*
X-19146213Y7072252D01*
X-19152177Y7070630D01*
X-19152445Y7071616D01*
X-19206469Y7066101D01*
X-19221590Y7070652D01*
X-19286084Y7095832D01*
X-19308852Y7100150D01*
X-19365776Y7105500D01*
X-19509345Y7105500D01*
X-19509348Y7105500D01*
X-19528832Y7104253D01*
X-19545182Y7102152D01*
X-19651997Y7085234D01*
X-19651999Y7085233D01*
X-19652002Y7085233D01*
X-19698612Y7074043D01*
X-19735502Y7062057D01*
X-19735503Y7062057D01*
X-19779798Y7043710D01*
X-19779797Y7043710D01*
X-19856306Y7004727D01*
X-19856298Y7004731D01*
X-19856301Y7004728D01*
X-19856309Y7004725D01*
X-19861888Y7001305D01*
X-19921376Y6987014D01*
X-19977908Y7010419D01*
X-19983629Y7015706D01*
X-20089707Y7121784D01*
X-20089711Y7121788D01*
X-20220821Y7209393D01*
X-20366503Y7269737D01*
X-20521157Y7300500D01*
X-20543827Y7300500D01*
X-20752406Y7300500D01*
X-20800001Y7300500D01*
X-20878843Y7300500D01*
X-21033497Y7269737D01*
X-21179179Y7209393D01*
X-21310289Y7121788D01*
X-21421788Y7010289D01*
X-21509393Y6879179D01*
X-21569737Y6733497D01*
X-21600500Y6578843D01*
X-21600500Y6578841D01*
X-21600500Y-6102354D01*
X-21591979Y-6156151D01*
X-21568477Y-6304534D01*
X-21505221Y-6499218D01*
X-21412288Y-6681610D01*
X-21291966Y-6847218D01*
X-21147219Y-6991965D01*
X-20981611Y-7112287D01*
X-20799219Y-7205220D01*
X-20604535Y-7268477D01*
X-20503444Y-7284488D01*
X-20402356Y-7300500D01*
X-20402353Y-7300500D01*
X-11560633Y-7300500D01*
X-11560625Y-7300499D01*
X-11497648Y-7300499D01*
X-11493241Y-7300152D01*
X-11489358Y-7300000D01*
X-3978867Y-7300000D01*
X-3930346Y-7312705D01*
X-3820997Y-7374190D01*
X-3308857Y-7617754D01*
X-3182068Y-7667753D01*
X-2781294Y-7825798D01*
X-2240758Y-7997356D01*
X-2240754Y-7997356D01*
X-2240754Y-7997357D01*
X-1689772Y-8131628D01*
X-1450260Y-8172924D01*
X-1130915Y-8227986D01*
X-1130915Y-8227985D01*
X-1130911Y-8227986D01*
X-848844Y-8256983D01*
X-566772Y-8285981D01*
X-1Y-8305342D01*
X0Y-8305342D01*
X1Y-8305342D01*
X566772Y-8285981D01*
X848844Y-8256983D01*
X1130911Y-8227986D01*
X1130915Y-8227985D01*
X1130915Y-8227986D01*
X1450260Y-8172924D01*
X1689772Y-8131628D01*
X2240754Y-7997357D01*
X2240754Y-7997356D01*
X2240758Y-7997356D01*
X2781294Y-7825798D01*
X3182068Y-7667753D01*
X3308857Y-7617754D01*
X3820997Y-7374190D01*
X4315322Y-7096245D01*
X4534203Y-6952681D01*
X4789523Y-6785217D01*
X4789523Y-6785216D01*
X4789527Y-6785214D01*
X5241401Y-6442548D01*
X5461885Y-6250296D01*
X5668835Y-6069845D01*
X6069845Y-5668835D01*
X6442541Y-5241409D01*
X6442540Y-5241409D01*
X6442548Y-5241401D01*
X6785214Y-4789527D01*
X6926639Y-4573908D01*
X7031538Y-4413976D01*
X7096245Y-4315322D01*
X7374190Y-3820997D01*
X7538737Y-3475006D01*
X19344627Y-3475006D01*
X19364102Y-3846621D01*
X19364105Y-3846649D01*
X19422318Y-4214199D01*
X19422319Y-4214201D01*
X19518638Y-4573668D01*
X19518640Y-4573675D01*
X19652003Y-4921097D01*
X19820954Y-5252682D01*
X19820960Y-5252693D01*
X19934688Y-5427818D01*
X20023643Y-5564796D01*
X20257843Y-5854009D01*
X20520991Y-6117157D01*
X20810204Y-6351357D01*
X21015670Y-6484788D01*
X21122306Y-6554039D01*
X21122311Y-6554041D01*
X21122313Y-6554043D01*
X21419211Y-6705320D01*
X21453902Y-6722996D01*
X21615993Y-6785217D01*
X21801329Y-6856361D01*
X22160796Y-6952680D01*
X22160798Y-6952680D01*
X22160800Y-6952681D01*
X22408835Y-6991965D01*
X22528362Y-7010896D01*
X22528375Y-7010896D01*
X22528378Y-7010897D01*
X22899994Y-7030373D01*
X22900000Y-7030373D01*
X22900006Y-7030373D01*
X23271621Y-7010897D01*
X23271622Y-7010896D01*
X23271638Y-7010896D01*
X23481308Y-6977688D01*
X23639199Y-6952681D01*
X23639199Y-6952680D01*
X23639204Y-6952680D01*
X23998671Y-6856361D01*
X24346100Y-6722995D01*
X24677687Y-6554043D01*
X24989796Y-6351357D01*
X25279009Y-6117157D01*
X25542157Y-5854009D01*
X25776357Y-5564796D01*
X25979043Y-5252687D01*
X26147995Y-4921100D01*
X26281361Y-4573671D01*
X26377680Y-4214204D01*
X26385423Y-4165320D01*
X26429390Y-3887713D01*
X26435896Y-3846638D01*
X26442116Y-3727952D01*
X26455373Y-3475006D01*
X26455373Y-3474993D01*
X26435897Y-3103378D01*
X26435896Y-3103375D01*
X26435896Y-3103362D01*
X26384886Y-2781294D01*
X26377681Y-2735800D01*
X26377680Y-2735798D01*
X26377680Y-2735796D01*
X26281361Y-2376329D01*
X26219416Y-2214957D01*
X26147996Y-2028902D01*
X26031364Y-1800000D01*
X25979043Y-1697314D01*
X25776357Y-1385204D01*
X25542157Y-1095991D01*
X25279009Y-832843D01*
X24989796Y-598643D01*
X24842269Y-502838D01*
X24677693Y-395960D01*
X24677682Y-395954D01*
X24346097Y-227003D01*
X23996251Y-92710D01*
X23996595Y-91813D01*
X23949959Y-57947D01*
X23931038Y240D01*
X23949932Y58435D01*
X23996451Y92261D01*
X23996096Y93187D01*
X24345894Y227461D01*
X24677431Y396388D01*
X24677442Y396394D01*
X24989503Y599050D01*
X25033341Y634549D01*
X24134325Y1533564D01*
X24303156Y1646372D01*
X24529835Y1845165D01*
X24728628Y2071844D01*
X24841434Y2240671D01*
X25740449Y1341657D01*
X25775949Y1385495D01*
X25775956Y1385505D01*
X25978604Y1697557D01*
X25978611Y1697568D01*
X26147538Y2029105D01*
X26280882Y2376479D01*
X26280884Y2376486D01*
X26377190Y2735903D01*
X26377191Y2735905D01*
X26435396Y3103403D01*
X26435399Y3103431D01*
X26454872Y3474993D01*
X26454872Y3475006D01*
X26435399Y3846568D01*
X26435396Y3846596D01*
X26377191Y4214094D01*
X26377190Y4214096D01*
X26280884Y4573513D01*
X26280882Y4573520D01*
X26147538Y4920894D01*
X25978611Y5252431D01*
X25978604Y5252442D01*
X25775957Y5564493D01*
X25775949Y5564504D01*
X25740449Y5608341D01*
X24841435Y4709327D01*
X24728628Y4878156D01*
X24529835Y5104835D01*
X24303156Y5303628D01*
X24134327Y5416435D01*
X25033341Y6315449D01*
X24989504Y6350949D01*
X24989493Y6350957D01*
X24677442Y6553604D01*
X24677431Y6553611D01*
X24345894Y6722538D01*
X23998520Y6855882D01*
X23998513Y6855884D01*
X23639096Y6952190D01*
X23639094Y6952191D01*
X23271596Y7010396D01*
X23271568Y7010399D01*
X22900006Y7029872D01*
X22899994Y7029872D01*
X22528431Y7010399D01*
X22528403Y7010396D01*
X22160905Y6952191D01*
X22160903Y6952190D01*
X21801486Y6855884D01*
X21801479Y6855882D01*
X21454105Y6722538D01*
X21122568Y6553611D01*
X21122557Y6553604D01*
X20810505Y6350956D01*
X20810495Y6350949D01*
X20766657Y6315449D01*
X21665671Y5416434D01*
X21496844Y5303628D01*
X21270165Y5104835D01*
X21071372Y4878156D01*
X20958563Y4709326D01*
X20059549Y5608341D01*
X20024050Y5564503D01*
X19821394Y5252442D01*
X19821388Y5252431D01*
X19652461Y4920894D01*
X19519117Y4573520D01*
X19519115Y4573513D01*
X19422809Y4214096D01*
X19422808Y4214094D01*
X19364603Y3846596D01*
X19364600Y3846568D01*
X19345128Y3475006D01*
X19345128Y3474993D01*
X19364600Y3103431D01*
X19364603Y3103403D01*
X19422808Y2735905D01*
X19422809Y2735903D01*
X19519115Y2376486D01*
X19519117Y2376479D01*
X19652461Y2029105D01*
X19821388Y1697569D01*
X20024049Y1385497D01*
X20059549Y1341657D01*
X20958564Y2240672D01*
X21071372Y2071844D01*
X21270165Y1845165D01*
X21496844Y1646372D01*
X21665672Y1533564D01*
X20766657Y634549D01*
X20810497Y599049D01*
X21122569Y396388D01*
X21454105Y227461D01*
X21803904Y93187D01*
X21803550Y92265D01*
X21850096Y58395D01*
X21868961Y190D01*
X21850011Y-57987D01*
X21803406Y-91817D01*
X21803749Y-92710D01*
X21453902Y-227003D01*
X21122319Y-395954D01*
X21122315Y-395956D01*
X21122314Y-395957D01*
X20844414Y-576427D01*
X20810201Y-598645D01*
X20520995Y-832839D01*
X20257839Y-1095995D01*
X20023645Y-1385201D01*
X20023643Y-1385204D01*
X19856073Y-1643241D01*
X19820954Y-1697319D01*
X19652003Y-2028902D01*
X19518640Y-2376324D01*
X19518638Y-2376331D01*
X19422319Y-2735798D01*
X19422318Y-2735800D01*
X19364105Y-3103350D01*
X19364102Y-3103378D01*
X19344627Y-3474993D01*
X19344627Y-3475006D01*
X7538737Y-3475006D01*
X7617754Y-3308857D01*
X7750375Y-2972553D01*
X7825798Y-2781294D01*
X7997356Y-2240758D01*
X8014794Y-2169200D01*
X8131628Y-1689772D01*
X8186466Y-1371723D01*
X8227986Y-1130915D01*
X8227985Y-1130916D01*
X8227986Y-1130911D01*
X8279657Y-628286D01*
X8285981Y-566772D01*
X8305342Y-1D01*
X8305342Y1D01*
X8285981Y566772D01*
X8227985Y1130916D01*
X8227986Y1130915D01*
X8160118Y1524536D01*
X8131628Y1689772D01*
X7997357Y2240754D01*
X7885579Y2592940D01*
X7825798Y2781294D01*
X7661278Y3198488D01*
X7617754Y3308857D01*
X7374190Y3820997D01*
X7096245Y4315322D01*
X6926893Y4573520D01*
X6785217Y4789523D01*
X6785214Y4789527D01*
X6442548Y5241401D01*
X6265569Y5444369D01*
X6069845Y5668835D01*
X5891742Y5846938D01*
X5683573Y6055106D01*
X5655797Y6109621D01*
X5665368Y6170053D01*
X5681546Y6193023D01*
X5701362Y6214041D01*
X5722553Y6236515D01*
X5773439Y6336591D01*
X5793124Y6403630D01*
X5805500Y6489702D01*
X5805500Y9322512D01*
X5824407Y9380703D01*
X5873907Y9416667D01*
X5935093Y9416667D01*
X5961283Y9403609D01*
X6072175Y9325962D01*
X6072181Y9325959D01*
X6286333Y9226098D01*
X6286332Y9226098D01*
X6514599Y9164935D01*
X6691028Y9149500D01*
X6691034Y9149500D01*
X6808972Y9149500D01*
X6985400Y9164935D01*
X6985407Y9164936D01*
X6985408Y9164937D01*
X7213663Y9226097D01*
X7213667Y9226098D01*
X7427818Y9325959D01*
X7427826Y9325963D01*
X7621396Y9461501D01*
X7621397Y9461502D01*
X7621401Y9461505D01*
X7788495Y9628599D01*
X7924035Y9822170D01*
X8023903Y10036337D01*
X8085063Y10264592D01*
X8105659Y10500000D01*
X8085063Y10735408D01*
X8023903Y10963663D01*
X7924035Y11177829D01*
X7788495Y11371401D01*
X7621401Y11538495D01*
X7427829Y11674035D01*
X7213663Y11773903D01*
X6985408Y11835063D01*
X6985401Y11835063D01*
X6985400Y11835064D01*
X6808972Y11850500D01*
X6808966Y11850500D01*
X6691034Y11850500D01*
X6691029Y11850500D01*
X6645835Y11846545D01*
X6623931Y11844629D01*
X6564314Y11858392D01*
X6524173Y11904568D01*
X6518839Y11965521D01*
X6545298Y12013256D01*
X7623635Y13091593D01*
X7628811Y13097029D01*
X7637923Y13107084D01*
X7637925Y13107086D01*
X7642817Y13112758D01*
X7764634Y13261192D01*
X7773567Y13273236D01*
X7795399Y13305909D01*
X7795399Y13305911D01*
X7795408Y13305924D01*
X7803119Y13318789D01*
X7803124Y13318798D01*
X7803123Y13318795D01*
X7891084Y13483360D01*
X7891083Y13483359D01*
X7897494Y13496913D01*
X7912536Y13533225D01*
X7912536Y13533226D01*
X7917593Y13547357D01*
X7971765Y13725939D01*
X7971766Y13725941D01*
X7975407Y13740485D01*
X7979241Y13759760D01*
X7983075Y13779033D01*
X7985276Y13793874D01*
X7985276Y13793876D01*
X7993149Y13873804D01*
X8004097Y13984965D01*
X8004648Y13992436D01*
X8005316Y14006007D01*
X8005500Y14013510D01*
X8005500Y15327089D01*
X12845794Y15327089D01*
X12855673Y15019026D01*
X12855674Y15019011D01*
X12904867Y14714737D01*
X12904868Y14714735D01*
X12992567Y14419247D01*
X13117337Y14137390D01*
X13277124Y13873804D01*
X13277127Y13873800D01*
X13469294Y13632829D01*
X13469297Y13632826D01*
X13690726Y13418384D01*
X13937743Y13234030D01*
X13937747Y13234028D01*
X14206318Y13082772D01*
X14492025Y12967101D01*
X14492030Y12967099D01*
X14659347Y12923224D01*
X14790179Y12888916D01*
X14790181Y12888915D01*
X14790184Y12888915D01*
X15095883Y12849500D01*
X15326969Y12849500D01*
X15326974Y12849500D01*
X15442287Y12856903D01*
X15557606Y12864307D01*
X15860138Y12923224D01*
X15860156Y12923229D01*
X16152678Y13020354D01*
X16152680Y13020355D01*
X16152683Y13020356D01*
X16225502Y13055423D01*
X16430385Y13154088D01*
X16430389Y13154090D01*
X16688716Y13322243D01*
X16688717Y13322244D01*
X16688720Y13322246D01*
X16923424Y13522052D01*
X16946403Y13547354D01*
X17130645Y13750224D01*
X17130652Y13750234D01*
X17306995Y14003035D01*
X17449563Y14276310D01*
X17449567Y14276317D01*
X17468883Y14328803D01*
X17556014Y14565568D01*
X17556019Y14565583D01*
X17556020Y14565585D01*
X17624609Y14866092D01*
X17654206Y15172902D01*
X17644327Y15480978D01*
X17595133Y15785261D01*
X17507431Y16080756D01*
X17382663Y16362609D01*
X17222877Y16626193D01*
X17030696Y16867181D01*
X16809276Y17081614D01*
X16562253Y17265972D01*
X16293682Y17417228D01*
X16007975Y17532899D01*
X15709821Y17611084D01*
X15404117Y17650500D01*
X15173026Y17650500D01*
X14942399Y17635693D01*
X14942394Y17635692D01*
X14942393Y17635692D01*
X14639861Y17576775D01*
X14639853Y17576772D01*
X14639849Y17576772D01*
X14347317Y17479644D01*
X14217708Y17417228D01*
X14069614Y17345911D01*
X14069610Y17345909D01*
X13980598Y17287968D01*
X13811280Y17177754D01*
X13576576Y16977948D01*
X13576574Y16977946D01*
X13576573Y16977945D01*
X13369354Y16749775D01*
X13369347Y16749765D01*
X13193004Y16496964D01*
X13050436Y16223689D01*
X13050428Y16223672D01*
X12943985Y15934431D01*
X12943980Y15934416D01*
X12875390Y15633904D01*
X12863907Y15514865D01*
X12845794Y15327098D01*
X12845794Y15327091D01*
X12845794Y15327089D01*
X8005500Y15327089D01*
X8005500Y15386489D01*
X8005316Y15393992D01*
X8004648Y15407563D01*
X8004097Y15415034D01*
X7985276Y15606128D01*
X7983075Y15620963D01*
X7975407Y15659515D01*
X7974187Y15664384D01*
X7971765Y15674060D01*
X7971765Y15674058D01*
X7971763Y15674066D01*
X7917592Y15852645D01*
X7912537Y15866771D01*
X7897494Y15903086D01*
X7891083Y15916640D01*
X7891084Y15916639D01*
X7803123Y16081204D01*
X7803124Y16081201D01*
X7803119Y16081210D01*
X7795408Y16094075D01*
X7795399Y16094088D01*
X7795399Y16094090D01*
X7773567Y16126763D01*
X7764632Y16138810D01*
X7642816Y16287242D01*
X7637925Y16292912D01*
X7628804Y16302977D01*
X7623626Y16308417D01*
X4708417Y19223626D01*
X4702977Y19228804D01*
X4692912Y19237925D01*
X4687242Y19242816D01*
X4538810Y19364632D01*
X4526763Y19373567D01*
X4494090Y19395399D01*
X4494088Y19395399D01*
X4494075Y19395408D01*
X4481210Y19403119D01*
X4481205Y19403122D01*
X4464456Y19412074D01*
X4422047Y19456178D01*
X4413662Y19516786D01*
X4442503Y19570748D01*
X4485498Y19595013D01*
X4573668Y19618638D01*
X4573675Y19618640D01*
X4921097Y19752003D01*
X5252682Y19920954D01*
X5252693Y19920960D01*
X5477632Y20067038D01*
X5564796Y20123643D01*
X5854009Y20357843D01*
X6117157Y20620991D01*
X6351357Y20910204D01*
X6520962Y21171372D01*
X6554039Y21222306D01*
X6554045Y21222317D01*
X6722996Y21553902D01*
X6856359Y21901324D01*
X6856361Y21901329D01*
X6952680Y22260796D01*
X6952697Y22260903D01*
X7002719Y22576731D01*
X7030496Y22631247D01*
X7085013Y22659025D01*
X7145445Y22649454D01*
G37*
G04 #@! TD.AperFunction*
G04 #@! TA.AperFunction,Conductor*
G36*
X35145445Y2969806D02*
G01*
X35188710Y2926541D01*
X35199500Y2881596D01*
X35199500Y-2878398D01*
X35180593Y-2936589D01*
X35131093Y-2972553D01*
X35069907Y-2972553D01*
X35020407Y-2936589D01*
X35002719Y-2893885D01*
X34977681Y-2735800D01*
X34977680Y-2735798D01*
X34977680Y-2735796D01*
X34881361Y-2376329D01*
X34819416Y-2214957D01*
X34747996Y-2028902D01*
X34631364Y-1800000D01*
X34579043Y-1697314D01*
X34376357Y-1385204D01*
X34142157Y-1095991D01*
X33879009Y-832843D01*
X33589796Y-598643D01*
X33442269Y-502838D01*
X33277693Y-395960D01*
X33277682Y-395954D01*
X32946097Y-227003D01*
X32596251Y-92710D01*
X32596595Y-91813D01*
X32549959Y-57947D01*
X32531038Y240D01*
X32549932Y58435D01*
X32596451Y92261D01*
X32596096Y93187D01*
X32945894Y227461D01*
X33277431Y396388D01*
X33277442Y396394D01*
X33589503Y599050D01*
X33633341Y634549D01*
X32734325Y1533564D01*
X32903156Y1646372D01*
X33129835Y1845165D01*
X33328628Y2071844D01*
X33441434Y2240671D01*
X34340449Y1341657D01*
X34375949Y1385495D01*
X34375956Y1385505D01*
X34578604Y1697557D01*
X34578611Y1697568D01*
X34747538Y2029105D01*
X34880882Y2376479D01*
X34880884Y2376486D01*
X34977190Y2735903D01*
X34977191Y2735905D01*
X35002719Y2897083D01*
X35030496Y2951599D01*
X35085013Y2979377D01*
X35145445Y2969806D01*
G37*
G04 #@! TD.AperFunction*
G04 #@! TA.AperFunction,Conductor*
G36*
X2936589Y26680593D02*
G01*
X2972553Y26631093D01*
X2972553Y26569907D01*
X2936589Y26520407D01*
X2893885Y26502719D01*
X2735800Y26477681D01*
X2735798Y26477680D01*
X2735796Y26477680D01*
X2376329Y26381361D01*
X2375081Y26380882D01*
X2028902Y26247996D01*
X2028900Y26247995D01*
X1697314Y26079043D01*
X1385204Y25876357D01*
X1095991Y25642157D01*
X832843Y25379009D01*
X598643Y25089796D01*
X395957Y24777686D01*
X395954Y24777680D01*
X227003Y24446097D01*
X92710Y24096251D01*
X91813Y24096595D01*
X57947Y24049959D01*
X-240Y24031038D01*
X-58435Y24049932D01*
X-92261Y24096451D01*
X-93187Y24096096D01*
X-227461Y24445894D01*
X-396388Y24777431D01*
X-396394Y24777442D01*
X-599050Y25089503D01*
X-634549Y25133341D01*
X-1533564Y24234325D01*
X-1646372Y24403156D01*
X-1845165Y24629835D01*
X-2071844Y24828628D01*
X-2240671Y24941434D01*
X-1341657Y25840449D01*
X-1385495Y25875949D01*
X-1385505Y25875956D01*
X-1697557Y26078604D01*
X-1697568Y26078611D01*
X-2029105Y26247538D01*
X-2376479Y26380882D01*
X-2376486Y26380884D01*
X-2735903Y26477190D01*
X-2735905Y26477191D01*
X-2897083Y26502719D01*
X-2951599Y26530496D01*
X-2979377Y26585013D01*
X-2969806Y26645445D01*
X-2926541Y26688710D01*
X-2881596Y26699500D01*
X2878398Y26699500D01*
X2936589Y26680593D01*
G37*
G04 #@! TD.AperFunction*
M02*
