G04 #@! TF.GenerationSoftware,KiCad,Pcbnew,7.0.9*
G04 #@! TF.CreationDate,2024-09-28T03:36:10+08:00*
G04 #@! TF.ProjectId,thingy,7468696e-6779-42e6-9b69-6361645f7063,rev?*
G04 #@! TF.SameCoordinates,Original*
G04 #@! TF.FileFunction,Soldermask,Top*
G04 #@! TF.FilePolarity,Negative*
%FSLAX46Y46*%
G04 Gerber Fmt 4.6, Leading zero omitted, Abs format (unit mm)*
G04 Created by KiCad (PCBNEW 7.0.9) date 2024-09-28 03:36:10*
%MOMM*%
%LPD*%
G01*
G04 APERTURE LIST*
G04 Aperture macros list*
%AMRotRect*
0 Rectangle, with rotation*
0 The origin of the aperture is its center*
0 $1 length*
0 $2 width*
0 $3 Rotation angle, in degrees counterclockwise*
0 Add horizontal line*
21,1,$1,$2,0,0,$3*%
G04 Aperture macros list end*
%ADD10C,6.500000*%
%ADD11C,4.300000*%
%ADD12C,2.200000*%
%ADD13RotRect,1.600000X1.600000X225.000000*%
%ADD14C,1.600000*%
%ADD15R,1.700000X1.700000*%
%ADD16O,1.700000X1.700000*%
%ADD17R,1.350000X1.350000*%
%ADD18O,1.350000X1.350000*%
%ADD19C,1.300000*%
%ADD20R,1.300000X1.300000*%
%ADD21C,1.700000*%
G04 APERTURE END LIST*
D10*
X22900000Y3475000D03*
X22900000Y-3475000D03*
D11*
X15250000Y15250000D03*
D10*
X31500000Y3475000D03*
X31500000Y-3475000D03*
D11*
X-15250000Y15250000D03*
D12*
X-6750000Y10500000D03*
D13*
X25297727Y-10332233D03*
D14*
X21762193Y-13867767D03*
D15*
X-48600000Y5640000D03*
D16*
X-51140000Y5640000D03*
X-53680000Y5640000D03*
X-56220000Y5640000D03*
X-58760000Y5640000D03*
X-61300000Y5640000D03*
X-63840000Y5640000D03*
D17*
X-19200000Y6100000D03*
D18*
X-17200000Y6100000D03*
X-15200000Y6100000D03*
X-13200000Y6100000D03*
D10*
X-3475000Y23000000D03*
X3475000Y23000000D03*
D12*
X6750000Y-10500000D03*
X-6750000Y-10500000D03*
D11*
X-15250000Y-15250000D03*
D12*
X6750000Y10500000D03*
D11*
X15250000Y-15250000D03*
D10*
X3475000Y-23000000D03*
X-3475000Y-23000000D03*
D19*
X3175000Y17087500D03*
X1905000Y14547500D03*
X635000Y17087500D03*
X-635000Y14547500D03*
X-1905000Y17087500D03*
D20*
X-3175000Y14547500D03*
D21*
X-48600000Y-9600000D03*
D16*
X-51140000Y-9600000D03*
X-53680000Y-9600000D03*
X-56220000Y-9600000D03*
X-58760000Y-9600000D03*
X-61300000Y-9600000D03*
X-63840000Y-9600000D03*
D21*
X-32050000Y-7190000D03*
D16*
X-32050000Y-4650000D03*
X-34590000Y-7190000D03*
X-34590000Y-4650000D03*
X-37130000Y-7190000D03*
X-37130000Y-4650000D03*
X-39670000Y-7190000D03*
X-39670000Y-4650000D03*
X-42210000Y-7190000D03*
X-42210000Y-4650000D03*
X-44750000Y-7190000D03*
X-44750000Y-4650000D03*
X-47290000Y-7190000D03*
X-47290000Y-4650000D03*
X-49830000Y-7190000D03*
X-49830000Y-4650000D03*
X-52370000Y-7190000D03*
X-52370000Y-4650000D03*
X-54910000Y-7190000D03*
X-54910000Y-4650000D03*
X-57450000Y-7190000D03*
X-57450000Y-4650000D03*
X-59990000Y-7190000D03*
X-59990000Y-4650000D03*
X-62530000Y-7190000D03*
X-62530000Y-4650000D03*
X-65070000Y-7190000D03*
X-65070000Y-4650000D03*
X-67610000Y-7190000D03*
X-67610000Y-4650000D03*
X-70150000Y-7190000D03*
X-70150000Y-4650000D03*
X-72690000Y-7190000D03*
X-72690000Y-4650000D03*
X-75230000Y-7190000D03*
X-75230000Y-4650000D03*
X-77770000Y-7190000D03*
X-77770000Y-4650000D03*
X-80310000Y-7190000D03*
X-80310000Y-4650000D03*
M02*
