%TF.GenerationSoftware,KiCad,Pcbnew,7.0.9*%
%TF.CreationDate,2024-09-28T03:36:16+08:00*%
%TF.ProjectId,thingy,7468696e-6779-42e6-9b69-6361645f7063,rev?*%
%TF.SameCoordinates,Original*%
%TF.FileFunction,Drillmap*%
%TF.FilePolarity,Positive*%
%FSLAX45Y45*%
G04 Gerber Fmt 4.5, Leading zero omitted, Abs format (unit mm)*
G04 Created by KiCad (PCBNEW 7.0.9) date 2024-09-28 03:36:16*
%MOMM*%
%LPD*%
G01*
G04 APERTURE LIST*
%ADD10C,0.100000*%
%ADD11C,0.200000*%
%ADD12C,0.460000*%
G04 APERTURE END LIST*
D10*
X-2080000Y700000D02*
G75*
G03*
X-2130000Y650000I0J-50000D01*
G01*
X-2010000Y650000D02*
G75*
G03*
X-2060000Y700000I-50000J0D01*
G01*
X-1060000Y460000D02*
G75*
G03*
X-1110000Y510000I-50000J0D01*
G01*
X-2010000Y560000D02*
G75*
G03*
X-1960000Y510000I50000J0D01*
G01*
X-7910000Y750000D02*
X-2460000Y750000D01*
X750000Y-2250000D02*
X750000Y-2300000D01*
X-1160000Y-700000D02*
X-2030000Y-700000D01*
X-1160000Y-700000D02*
G75*
G03*
X-1060000Y-600000I0J100000D01*
G01*
X-750000Y-2250000D02*
G75*
G03*
X-1150000Y-1850000I-400000J0D01*
G01*
X-350000Y2700000D02*
G75*
G03*
X-750000Y2300000I0J-400000D01*
G01*
X-1960000Y510000D02*
X-1110000Y510000D01*
X-750000Y2300000D02*
X-750000Y2250000D01*
X3115685Y-749997D02*
G75*
G03*
X2832843Y-867157I5J-400003D01*
G01*
X3150000Y750000D02*
X3115685Y750000D01*
X2832843Y867157D02*
X1967157Y1732843D01*
X1967157Y-1732843D02*
X2832843Y-867157D01*
X3150000Y-750000D02*
G75*
G03*
X3550000Y-350000I0J400000D01*
G01*
X1150000Y-1850000D02*
G75*
G03*
X750000Y-2250000I0J-400000D01*
G01*
X-750000Y-2300000D02*
X-750000Y-2250000D01*
X350000Y-2700000D02*
G75*
G03*
X750000Y-2300000I0J400000D01*
G01*
X1684315Y1850000D02*
X1150000Y1850000D01*
X750000Y2250000D02*
X750000Y2300000D01*
X350000Y2700000D02*
X-350000Y2700000D01*
X-1150000Y-1850000D02*
X-1616908Y-1850000D01*
X750000Y2250000D02*
G75*
G03*
X1150000Y1850000I400000J0D01*
G01*
X750000Y2300000D02*
G75*
G03*
X350000Y2700000I-400000J0D01*
G01*
X3115685Y-750000D02*
X3150000Y-750000D01*
X3550000Y350000D02*
G75*
G03*
X3150000Y750000I-400000J0D01*
G01*
X800000Y0D02*
G75*
G03*
X800000Y0I-800000J0D01*
G01*
X350000Y-2700000D02*
X-350000Y-2700000D01*
X-2130000Y-600000D02*
G75*
G03*
X-2030000Y-700000I100000J0D01*
G01*
X-2010000Y650000D02*
X-2010000Y560000D01*
X-1150000Y1850000D02*
G75*
G03*
X-750000Y2250000I0J400000D01*
G01*
X-2130000Y-600000D02*
X-2130000Y650000D01*
X2832845Y867160D02*
G75*
G03*
X3115685Y750000I282845J282840D01*
G01*
X1684315Y-1850000D02*
X1150000Y-1850000D01*
X-1150000Y1850000D02*
X-1616908Y1850000D01*
X3550000Y-350000D02*
X3550000Y350000D01*
X1967157Y1732843D02*
G75*
G03*
X1684315Y1850000I-282843J-282843D01*
G01*
X1684315Y-1850000D02*
G75*
G03*
X1967157Y-1732843I-1J400001D01*
G01*
X-750000Y-2300000D02*
G75*
G03*
X-350000Y-2700000I400000J0D01*
G01*
X-4618579Y-950000D02*
G75*
G03*
X-4689289Y-979289I0J-100000D01*
G01*
X-2347002Y972937D02*
G75*
G03*
X-2360000Y923636I87002J-49301D01*
G01*
X-4841421Y-1090000D02*
G75*
G03*
X-4770711Y-1060711I0J100000D01*
G01*
X-2080000Y700000D02*
X-2060000Y700000D01*
X-6550711Y-979289D02*
G75*
G03*
X-6621421Y-950000I-70710J-70710D01*
G01*
X-6469289Y-1060711D02*
G75*
G03*
X-6398579Y-1090000I70710J70710D01*
G01*
X-2460000Y750000D02*
G75*
G03*
X-2360000Y850000I0J100000D01*
G01*
X-1060000Y460000D02*
X-1060000Y-600000D01*
X-1964917Y-1647205D02*
G75*
G03*
X-1616908Y-1850000I348009J197205D01*
G01*
X-8560000Y300000D02*
X-8560000Y-300000D01*
X-8460000Y-400000D02*
X-8260000Y-400000D01*
X-8260000Y400000D02*
X-8460000Y400000D01*
X-8160000Y500000D02*
X-8160000Y500000D01*
X-1616908Y1850000D02*
G75*
G03*
X-1964917Y1647205I0J-400000D01*
G01*
X-8160000Y-500000D02*
X-8160000Y-700000D01*
X-2347002Y972937D02*
X-1964917Y1647205D01*
X-2072707Y-1456987D02*
X-1964917Y-1647205D01*
X-8160000Y-500000D02*
G75*
G03*
X-8260000Y-400000I-100000J0D01*
G01*
X-4618579Y-950000D02*
X-2942729Y-950000D01*
X-6469289Y-1060711D02*
X-6550711Y-979289D01*
X-7910000Y750000D02*
G75*
G03*
X-8160000Y500000I0J-250000D01*
G01*
X-6398579Y-1090000D02*
X-4841421Y-1090000D01*
X-8160000Y-700000D02*
G75*
G03*
X-7910000Y-950000I250000J0D01*
G01*
X-8560000Y-300000D02*
G75*
G03*
X-8460000Y-400000I100000J0D01*
G01*
X-2072707Y-1456987D02*
G75*
G03*
X-2942729Y-950000I-870022J-493013D01*
G01*
X-4770711Y-1060711D02*
X-4689289Y-979289D01*
X-6621421Y-950000D02*
X-7910000Y-950000D01*
X-8460000Y400000D02*
G75*
G03*
X-8560000Y300000I0J-100000D01*
G01*
X-8260000Y400000D02*
G75*
G03*
X-8160000Y500000I0J100000D01*
G01*
X-2360000Y850000D02*
X-2360000Y923636D01*
D11*
D10*
X-3735000Y-95000D02*
X-3705000Y-125000D01*
X-3705000Y-95000D02*
X-3735000Y-125000D01*
X-3665000Y-205000D02*
X-3635000Y-235000D01*
X-3635000Y-205000D02*
X-3665000Y-235000D01*
X-3465000Y615000D02*
X-3435000Y585000D01*
X-3435000Y615000D02*
X-3465000Y585000D01*
X-3465000Y215000D02*
X-3435000Y185000D01*
X-3435000Y215000D02*
X-3465000Y185000D01*
X-3065000Y615000D02*
X-3035000Y585000D01*
X-3035000Y615000D02*
X-3065000Y585000D01*
X-2945000Y-865000D02*
X-2915000Y-895000D01*
X-2915000Y-865000D02*
X-2945000Y-895000D01*
X-2815000Y-355000D02*
X-2785000Y-385000D01*
X-2785000Y-355000D02*
X-2815000Y-385000D01*
X-2785000Y-615000D02*
X-2755000Y-645000D01*
X-2755000Y-615000D02*
X-2785000Y-645000D01*
X-2694581Y-812343D02*
X-2664581Y-842343D01*
X-2664581Y-812343D02*
X-2694581Y-842343D01*
X-2665000Y615000D02*
X-2635000Y585000D01*
X-2635000Y615000D02*
X-2665000Y585000D01*
X-2665000Y215000D02*
X-2635000Y185000D01*
X-2635000Y215000D02*
X-2665000Y185000D01*
X-2615000Y-355000D02*
X-2585000Y-385000D01*
X-2585000Y-355000D02*
X-2615000Y-385000D01*
X-2565000Y-655000D02*
X-2535000Y-685000D01*
X-2535000Y-655000D02*
X-2565000Y-685000D01*
X-2515000Y-935000D02*
X-2485000Y-965000D01*
X-2485000Y-935000D02*
X-2515000Y-965000D01*
X-2495000Y-725000D02*
X-2465000Y-755000D01*
X-2465000Y-725000D02*
X-2495000Y-755000D01*
X-2475000Y-425000D02*
X-2445000Y-455000D01*
X-2445000Y-425000D02*
X-2475000Y-455000D01*
X-2465000Y415000D02*
X-2435000Y385000D01*
X-2435000Y415000D02*
X-2465000Y385000D01*
X-2265000Y1015000D02*
X-2235000Y985000D01*
X-2235000Y1015000D02*
X-2265000Y985000D01*
X-2265000Y615000D02*
X-2235000Y585000D01*
X-2235000Y615000D02*
X-2265000Y585000D01*
X-2265000Y215000D02*
X-2235000Y185000D01*
X-2235000Y215000D02*
X-2265000Y185000D01*
X-2265000Y-385000D02*
X-2235000Y-415000D01*
X-2235000Y-385000D02*
X-2265000Y-415000D01*
X-2265000Y-585000D02*
X-2235000Y-615000D01*
X-2235000Y-585000D02*
X-2265000Y-615000D01*
X-2265000Y-985000D02*
X-2235000Y-1015000D01*
X-2235000Y-985000D02*
X-2265000Y-1015000D01*
X-2065000Y1215000D02*
X-2035000Y1185000D01*
X-2035000Y1215000D02*
X-2065000Y1185000D01*
X-2065000Y815000D02*
X-2035000Y785000D01*
X-2035000Y815000D02*
X-2065000Y785000D01*
X-2065000Y-1185000D02*
X-2035000Y-1215000D01*
X-2035000Y-1185000D02*
X-2065000Y-1215000D01*
X-1865000Y1615000D02*
X-1835000Y1585000D01*
X-1835000Y1615000D02*
X-1865000Y1585000D01*
X-1865000Y1415000D02*
X-1835000Y1385000D01*
X-1835000Y1415000D02*
X-1865000Y1385000D01*
X-1865000Y1015000D02*
X-1835000Y985000D01*
X-1835000Y1015000D02*
X-1865000Y985000D01*
X-1865000Y-1385000D02*
X-1835000Y-1415000D01*
X-1835000Y-1385000D02*
X-1865000Y-1415000D01*
X-1865000Y-1585000D02*
X-1835000Y-1615000D01*
X-1835000Y-1585000D02*
X-1865000Y-1615000D01*
X-1665000Y1215000D02*
X-1635000Y1185000D01*
X-1635000Y1215000D02*
X-1665000Y1185000D01*
X-1665000Y-1185000D02*
X-1635000Y-1215000D01*
X-1635000Y-1185000D02*
X-1665000Y-1215000D01*
X-1265000Y1415000D02*
X-1235000Y1385000D01*
X-1235000Y1415000D02*
X-1265000Y1385000D01*
X-1265000Y-1185000D02*
X-1235000Y-1215000D01*
X-1235000Y-1185000D02*
X-1265000Y-1215000D01*
X-1265000Y-1585000D02*
X-1235000Y-1615000D01*
X-1235000Y-1585000D02*
X-1265000Y-1615000D01*
X-1215000Y815000D02*
X-1185000Y785000D01*
X-1185000Y815000D02*
X-1215000Y785000D01*
X-1065000Y1615000D02*
X-1035000Y1585000D01*
X-1035000Y1615000D02*
X-1065000Y1585000D01*
X-1065000Y-1385000D02*
X-1035000Y-1415000D01*
X-1035000Y-1385000D02*
X-1065000Y-1415000D01*
X-1065000Y-1785000D02*
X-1035000Y-1815000D01*
X-1035000Y-1785000D02*
X-1065000Y-1815000D01*
X-1015000Y1015000D02*
X-985000Y985000D01*
X-985000Y1015000D02*
X-1015000Y985000D01*
X-865000Y1815000D02*
X-835000Y1785000D01*
X-835000Y1815000D02*
X-865000Y1785000D01*
X-865000Y-1185000D02*
X-835000Y-1215000D01*
X-835000Y-1185000D02*
X-865000Y-1215000D01*
X-865000Y-1585000D02*
X-835000Y-1615000D01*
X-835000Y-1585000D02*
X-865000Y-1615000D01*
X-865000Y-1785000D02*
X-835000Y-1815000D01*
X-835000Y-1785000D02*
X-865000Y-1815000D01*
X-815000Y815000D02*
X-785000Y785000D01*
X-785000Y815000D02*
X-815000Y785000D01*
X-665000Y2015000D02*
X-635000Y1985000D01*
X-635000Y2015000D02*
X-665000Y1985000D01*
X-665000Y1615000D02*
X-635000Y1585000D01*
X-635000Y1615000D02*
X-665000Y1585000D01*
X-665000Y-1385000D02*
X-635000Y-1415000D01*
X-635000Y-1385000D02*
X-665000Y-1415000D01*
X-665000Y-1585000D02*
X-635000Y-1615000D01*
X-635000Y-1585000D02*
X-665000Y-1615000D01*
X-645000Y2315000D02*
X-615000Y2285000D01*
X-615000Y2315000D02*
X-645000Y2285000D01*
X-645000Y-2285000D02*
X-615000Y-2315000D01*
X-615000Y-2285000D02*
X-645000Y-2315000D01*
X-607487Y2455000D02*
X-577487Y2425000D01*
X-577487Y2455000D02*
X-607487Y2425000D01*
X-607487Y2175000D02*
X-577487Y2145000D01*
X-577487Y2175000D02*
X-607487Y2145000D01*
X-607487Y-2145000D02*
X-577487Y-2175000D01*
X-577487Y-2145000D02*
X-607487Y-2175000D01*
X-607487Y-2425000D02*
X-577487Y-2455000D01*
X-577487Y-2425000D02*
X-607487Y-2455000D01*
X-505000Y2557487D02*
X-475000Y2527487D01*
X-475000Y2557487D02*
X-505000Y2527487D01*
X-505000Y2072513D02*
X-475000Y2042513D01*
X-475000Y2072513D02*
X-505000Y2042513D01*
X-505000Y-2042513D02*
X-475000Y-2072513D01*
X-475000Y-2042513D02*
X-505000Y-2072513D01*
X-505000Y-2527487D02*
X-475000Y-2557487D01*
X-475000Y-2527487D02*
X-505000Y-2557487D01*
X-465000Y1815000D02*
X-435000Y1785000D01*
X-435000Y1815000D02*
X-465000Y1785000D01*
X-465000Y-1185000D02*
X-435000Y-1215000D01*
X-435000Y-1185000D02*
X-465000Y-1215000D01*
X-465000Y-1385000D02*
X-435000Y-1415000D01*
X-435000Y-1385000D02*
X-465000Y-1415000D01*
X-415000Y815000D02*
X-385000Y785000D01*
X-385000Y815000D02*
X-415000Y785000D01*
X-365000Y2595000D02*
X-335000Y2565000D01*
X-335000Y2595000D02*
X-365000Y2565000D01*
X-365000Y2035000D02*
X-335000Y2005000D01*
X-335000Y2035000D02*
X-365000Y2005000D01*
X-365000Y-2005000D02*
X-335000Y-2035000D01*
X-335000Y-2005000D02*
X-365000Y-2035000D01*
X-365000Y-2565000D02*
X-335000Y-2595000D01*
X-335000Y-2565000D02*
X-365000Y-2595000D01*
X-265000Y1115000D02*
X-235000Y1085000D01*
X-235000Y1115000D02*
X-265000Y1085000D01*
X-265000Y-1185000D02*
X-235000Y-1215000D01*
X-235000Y-1185000D02*
X-265000Y-1215000D01*
X-225000Y2557487D02*
X-195000Y2527487D01*
X-195000Y2557487D02*
X-225000Y2527487D01*
X-225000Y2072513D02*
X-195000Y2042513D01*
X-195000Y2072513D02*
X-225000Y2042513D01*
X-225000Y-2042513D02*
X-195000Y-2072513D01*
X-195000Y-2042513D02*
X-225000Y-2072513D01*
X-225000Y-2527487D02*
X-195000Y-2557487D01*
X-195000Y-2527487D02*
X-225000Y-2557487D01*
X-122513Y2455000D02*
X-92513Y2425000D01*
X-92513Y2455000D02*
X-122513Y2425000D01*
X-122513Y2175000D02*
X-92513Y2145000D01*
X-92513Y2175000D02*
X-122513Y2145000D01*
X-122513Y-2145000D02*
X-92513Y-2175000D01*
X-92513Y-2145000D02*
X-122513Y-2175000D01*
X-122513Y-2425000D02*
X-92513Y-2455000D01*
X-92513Y-2425000D02*
X-122513Y-2455000D01*
X-85000Y2315000D02*
X-55000Y2285000D01*
X-55000Y2315000D02*
X-85000Y2285000D01*
X-85000Y-2285000D02*
X-55000Y-2315000D01*
X-55000Y-2285000D02*
X-85000Y-2315000D01*
X55000Y2315000D02*
X85000Y2285000D01*
X85000Y2315000D02*
X55000Y2285000D01*
X55000Y-2285000D02*
X85000Y-2315000D01*
X85000Y-2285000D02*
X55000Y-2315000D01*
X92513Y2455000D02*
X122513Y2425000D01*
X122513Y2455000D02*
X92513Y2425000D01*
X92513Y2175000D02*
X122513Y2145000D01*
X122513Y2175000D02*
X92513Y2145000D01*
X92513Y-2145000D02*
X122513Y-2175000D01*
X122513Y-2145000D02*
X92513Y-2175000D01*
X92513Y-2425000D02*
X122513Y-2455000D01*
X122513Y-2425000D02*
X92513Y-2455000D01*
X195000Y2557487D02*
X225000Y2527487D01*
X225000Y2557487D02*
X195000Y2527487D01*
X195000Y2072513D02*
X225000Y2042513D01*
X225000Y2072513D02*
X195000Y2042513D01*
X195000Y-2042513D02*
X225000Y-2072513D01*
X225000Y-2042513D02*
X195000Y-2072513D01*
X195000Y-2527487D02*
X225000Y-2557487D01*
X225000Y-2527487D02*
X195000Y-2557487D01*
X215000Y1015000D02*
X245000Y985000D01*
X245000Y1015000D02*
X215000Y985000D01*
X335000Y2595000D02*
X365000Y2565000D01*
X365000Y2595000D02*
X335000Y2565000D01*
X335000Y2035000D02*
X365000Y2005000D01*
X365000Y2035000D02*
X335000Y2005000D01*
X335000Y-2005000D02*
X365000Y-2035000D01*
X365000Y-2005000D02*
X335000Y-2035000D01*
X335000Y-2565000D02*
X365000Y-2595000D01*
X365000Y-2565000D02*
X335000Y-2595000D01*
X475000Y2557487D02*
X505000Y2527487D01*
X505000Y2557487D02*
X475000Y2527487D01*
X475000Y2072513D02*
X505000Y2042513D01*
X505000Y2072513D02*
X475000Y2042513D01*
X475000Y-2042513D02*
X505000Y-2072513D01*
X505000Y-2042513D02*
X475000Y-2072513D01*
X475000Y-2527487D02*
X505000Y-2557487D01*
X505000Y-2527487D02*
X475000Y-2557487D01*
X495000Y1485000D02*
X525000Y1455000D01*
X525000Y1485000D02*
X495000Y1455000D01*
X575000Y1485000D02*
X605000Y1455000D01*
X605000Y1485000D02*
X575000Y1455000D01*
X577487Y2455000D02*
X607487Y2425000D01*
X607487Y2455000D02*
X577487Y2425000D01*
X577487Y2175000D02*
X607487Y2145000D01*
X607487Y2175000D02*
X577487Y2145000D01*
X577487Y-2145000D02*
X607487Y-2175000D01*
X607487Y-2145000D02*
X577487Y-2175000D01*
X577487Y-2425000D02*
X607487Y-2455000D01*
X607487Y-2425000D02*
X577487Y-2455000D01*
X615000Y2315000D02*
X645000Y2285000D01*
X645000Y2315000D02*
X615000Y2285000D01*
X615000Y-2285000D02*
X645000Y-2315000D01*
X645000Y-2285000D02*
X615000Y-2315000D01*
X2005000Y365000D02*
X2035000Y335000D01*
X2035000Y365000D02*
X2005000Y335000D01*
X2005000Y-335000D02*
X2035000Y-365000D01*
X2035000Y-335000D02*
X2005000Y-365000D01*
X2042513Y505000D02*
X2072513Y475000D01*
X2072513Y505000D02*
X2042513Y475000D01*
X2042513Y225000D02*
X2072513Y195000D01*
X2072513Y225000D02*
X2042513Y195000D01*
X2042513Y-195000D02*
X2072513Y-225000D01*
X2072513Y-195000D02*
X2042513Y-225000D01*
X2042513Y-475000D02*
X2072513Y-505000D01*
X2072513Y-475000D02*
X2042513Y-505000D01*
X2145000Y607487D02*
X2175000Y577487D01*
X2175000Y607487D02*
X2145000Y577487D01*
X2145000Y122513D02*
X2175000Y92513D01*
X2175000Y122513D02*
X2145000Y92513D01*
X2145000Y-92513D02*
X2175000Y-122513D01*
X2175000Y-92513D02*
X2145000Y-122513D01*
X2145000Y-577487D02*
X2175000Y-607487D01*
X2175000Y-577487D02*
X2145000Y-607487D01*
X2285000Y645000D02*
X2315000Y615000D01*
X2315000Y645000D02*
X2285000Y615000D01*
X2285000Y85000D02*
X2315000Y55000D01*
X2315000Y85000D02*
X2285000Y55000D01*
X2285000Y-55000D02*
X2315000Y-85000D01*
X2315000Y-55000D02*
X2285000Y-85000D01*
X2285000Y-615000D02*
X2315000Y-645000D01*
X2315000Y-615000D02*
X2285000Y-645000D01*
X2425000Y607487D02*
X2455000Y577487D01*
X2455000Y607487D02*
X2425000Y577487D01*
X2425000Y122513D02*
X2455000Y92513D01*
X2455000Y122513D02*
X2425000Y92513D01*
X2425000Y-92513D02*
X2455000Y-122513D01*
X2455000Y-92513D02*
X2425000Y-122513D01*
X2425000Y-577487D02*
X2455000Y-607487D01*
X2455000Y-577487D02*
X2425000Y-607487D01*
X2527487Y505000D02*
X2557487Y475000D01*
X2557487Y505000D02*
X2527487Y475000D01*
X2527487Y225000D02*
X2557487Y195000D01*
X2557487Y225000D02*
X2527487Y195000D01*
X2527487Y-195000D02*
X2557487Y-225000D01*
X2557487Y-195000D02*
X2527487Y-225000D01*
X2527487Y-475000D02*
X2557487Y-505000D01*
X2557487Y-475000D02*
X2527487Y-505000D01*
X2565000Y365000D02*
X2595000Y335000D01*
X2595000Y365000D02*
X2565000Y335000D01*
X2565000Y-335000D02*
X2595000Y-365000D01*
X2595000Y-335000D02*
X2565000Y-365000D01*
X2865000Y365000D02*
X2895000Y335000D01*
X2895000Y365000D02*
X2865000Y335000D01*
X2865000Y-335000D02*
X2895000Y-365000D01*
X2895000Y-335000D02*
X2865000Y-365000D01*
X2902513Y505000D02*
X2932513Y475000D01*
X2932513Y505000D02*
X2902513Y475000D01*
X2902513Y225000D02*
X2932513Y195000D01*
X2932513Y225000D02*
X2902513Y195000D01*
X2902513Y-195000D02*
X2932513Y-225000D01*
X2932513Y-195000D02*
X2902513Y-225000D01*
X2902513Y-475000D02*
X2932513Y-505000D01*
X2932513Y-475000D02*
X2902513Y-505000D01*
X3005000Y607487D02*
X3035000Y577487D01*
X3035000Y607487D02*
X3005000Y577487D01*
X3005000Y122513D02*
X3035000Y92513D01*
X3035000Y122513D02*
X3005000Y92513D01*
X3005000Y-92513D02*
X3035000Y-122513D01*
X3035000Y-92513D02*
X3005000Y-122513D01*
X3005000Y-577487D02*
X3035000Y-607487D01*
X3035000Y-577487D02*
X3005000Y-607487D01*
X3145000Y645000D02*
X3175000Y615000D01*
X3175000Y645000D02*
X3145000Y615000D01*
X3145000Y85000D02*
X3175000Y55000D01*
X3175000Y85000D02*
X3145000Y55000D01*
X3145000Y-55000D02*
X3175000Y-85000D01*
X3175000Y-55000D02*
X3145000Y-85000D01*
X3145000Y-615000D02*
X3175000Y-645000D01*
X3175000Y-615000D02*
X3145000Y-645000D01*
X3285000Y607487D02*
X3315000Y577487D01*
X3315000Y607487D02*
X3285000Y577487D01*
X3285000Y122513D02*
X3315000Y92513D01*
X3315000Y122513D02*
X3285000Y92513D01*
X3285000Y-92513D02*
X3315000Y-122513D01*
X3315000Y-92513D02*
X3285000Y-122513D01*
X3285000Y-577487D02*
X3315000Y-607487D01*
X3315000Y-577487D02*
X3285000Y-607487D01*
X3387487Y505000D02*
X3417487Y475000D01*
X3417487Y505000D02*
X3387487Y475000D01*
X3387487Y225000D02*
X3417487Y195000D01*
X3417487Y225000D02*
X3387487Y195000D01*
X3387487Y-195000D02*
X3417487Y-225000D01*
X3417487Y-195000D02*
X3387487Y-225000D01*
X3387487Y-475000D02*
X3417487Y-505000D01*
X3417487Y-475000D02*
X3387487Y-505000D01*
X3425000Y365000D02*
X3455000Y335000D01*
X3455000Y365000D02*
X3425000Y335000D01*
X3425000Y-335000D02*
X3455000Y-365000D01*
X3455000Y-335000D02*
X3425000Y-365000D01*
X-1880000Y610000D02*
G75*
G03*
X-1880000Y610000I-40000J0D01*
G01*
X-1680000Y610000D02*
G75*
G03*
X-1680000Y610000I-40000J0D01*
G01*
X-1480000Y610000D02*
G75*
G03*
X-1480000Y610000I-40000J0D01*
G01*
X-1280000Y610000D02*
G75*
G03*
X-1280000Y610000I-40000J0D01*
G01*
X-277500Y1454750D02*
G75*
G03*
X-277500Y1454750I-40000J0D01*
G01*
X-150500Y1708750D02*
G75*
G03*
X-150500Y1708750I-40000J0D01*
G01*
X-23500Y1454750D02*
G75*
G03*
X-23500Y1454750I-40000J0D01*
G01*
X103500Y1708750D02*
G75*
G03*
X103500Y1708750I-40000J0D01*
G01*
X230500Y1454750D02*
G75*
G03*
X230500Y1454750I-40000J0D01*
G01*
X357500Y1708750D02*
G75*
G03*
X357500Y1708750I-40000J0D01*
G01*
X2216219Y-1386777D02*
G75*
G03*
X2216219Y-1386777I-40000J0D01*
G01*
X2569773Y-1033223D02*
G75*
G03*
X2569773Y-1033223I-40000J0D01*
G01*
X-8031000Y-415000D02*
X-8031000Y-515000D01*
X-8081000Y-465000D02*
X-7981000Y-465000D01*
X-8031000Y-669000D02*
X-8031000Y-769000D01*
X-8081000Y-719000D02*
X-7981000Y-719000D01*
X-7777000Y-415000D02*
X-7777000Y-515000D01*
X-7827000Y-465000D02*
X-7727000Y-465000D01*
X-7777000Y-669000D02*
X-7777000Y-769000D01*
X-7827000Y-719000D02*
X-7727000Y-719000D01*
X-7523000Y-415000D02*
X-7523000Y-515000D01*
X-7573000Y-465000D02*
X-7473000Y-465000D01*
X-7523000Y-669000D02*
X-7523000Y-769000D01*
X-7573000Y-719000D02*
X-7473000Y-719000D01*
X-7269000Y-415000D02*
X-7269000Y-515000D01*
X-7319000Y-465000D02*
X-7219000Y-465000D01*
X-7269000Y-669000D02*
X-7269000Y-769000D01*
X-7319000Y-719000D02*
X-7219000Y-719000D01*
X-7015000Y-415000D02*
X-7015000Y-515000D01*
X-7065000Y-465000D02*
X-6965000Y-465000D01*
X-7015000Y-669000D02*
X-7015000Y-769000D01*
X-7065000Y-719000D02*
X-6965000Y-719000D01*
X-6761000Y-415000D02*
X-6761000Y-515000D01*
X-6811000Y-465000D02*
X-6711000Y-465000D01*
X-6761000Y-669000D02*
X-6761000Y-769000D01*
X-6811000Y-719000D02*
X-6711000Y-719000D01*
X-6507000Y-415000D02*
X-6507000Y-515000D01*
X-6557000Y-465000D02*
X-6457000Y-465000D01*
X-6507000Y-669000D02*
X-6507000Y-769000D01*
X-6557000Y-719000D02*
X-6457000Y-719000D01*
X-6384000Y614000D02*
X-6384000Y514000D01*
X-6434000Y564000D02*
X-6334000Y564000D01*
X-6384000Y-910000D02*
X-6384000Y-1010000D01*
X-6434000Y-960000D02*
X-6334000Y-960000D01*
X-6253000Y-415000D02*
X-6253000Y-515000D01*
X-6303000Y-465000D02*
X-6203000Y-465000D01*
X-6253000Y-669000D02*
X-6253000Y-769000D01*
X-6303000Y-719000D02*
X-6203000Y-719000D01*
X-6130000Y614000D02*
X-6130000Y514000D01*
X-6180000Y564000D02*
X-6080000Y564000D01*
X-6130000Y-910000D02*
X-6130000Y-1010000D01*
X-6180000Y-960000D02*
X-6080000Y-960000D01*
X-5999000Y-415000D02*
X-5999000Y-515000D01*
X-6049000Y-465000D02*
X-5949000Y-465000D01*
X-5999000Y-669000D02*
X-5999000Y-769000D01*
X-6049000Y-719000D02*
X-5949000Y-719000D01*
X-5876000Y614000D02*
X-5876000Y514000D01*
X-5926000Y564000D02*
X-5826000Y564000D01*
X-5876000Y-910000D02*
X-5876000Y-1010000D01*
X-5926000Y-960000D02*
X-5826000Y-960000D01*
X-5745000Y-415000D02*
X-5745000Y-515000D01*
X-5795000Y-465000D02*
X-5695000Y-465000D01*
X-5745000Y-669000D02*
X-5745000Y-769000D01*
X-5795000Y-719000D02*
X-5695000Y-719000D01*
X-5622000Y614000D02*
X-5622000Y514000D01*
X-5672000Y564000D02*
X-5572000Y564000D01*
X-5622000Y-910000D02*
X-5622000Y-1010000D01*
X-5672000Y-960000D02*
X-5572000Y-960000D01*
X-5491000Y-415000D02*
X-5491000Y-515000D01*
X-5541000Y-465000D02*
X-5441000Y-465000D01*
X-5491000Y-669000D02*
X-5491000Y-769000D01*
X-5541000Y-719000D02*
X-5441000Y-719000D01*
X-5368000Y614000D02*
X-5368000Y514000D01*
X-5418000Y564000D02*
X-5318000Y564000D01*
X-5368000Y-910000D02*
X-5368000Y-1010000D01*
X-5418000Y-960000D02*
X-5318000Y-960000D01*
X-5237000Y-415000D02*
X-5237000Y-515000D01*
X-5287000Y-465000D02*
X-5187000Y-465000D01*
X-5237000Y-669000D02*
X-5237000Y-769000D01*
X-5287000Y-719000D02*
X-5187000Y-719000D01*
X-5114000Y614000D02*
X-5114000Y514000D01*
X-5164000Y564000D02*
X-5064000Y564000D01*
X-5114000Y-910000D02*
X-5114000Y-1010000D01*
X-5164000Y-960000D02*
X-5064000Y-960000D01*
X-4983000Y-415000D02*
X-4983000Y-515000D01*
X-5033000Y-465000D02*
X-4933000Y-465000D01*
X-4983000Y-669000D02*
X-4983000Y-769000D01*
X-5033000Y-719000D02*
X-4933000Y-719000D01*
X-4860000Y614000D02*
X-4860000Y514000D01*
X-4910000Y564000D02*
X-4810000Y564000D01*
X-4860000Y-910000D02*
X-4860000Y-1010000D01*
X-4910000Y-960000D02*
X-4810000Y-960000D01*
X-4729000Y-415000D02*
X-4729000Y-515000D01*
X-4779000Y-465000D02*
X-4679000Y-465000D01*
X-4729000Y-669000D02*
X-4729000Y-769000D01*
X-4779000Y-719000D02*
X-4679000Y-719000D01*
X-4475000Y-415000D02*
X-4475000Y-515000D01*
X-4525000Y-465000D02*
X-4425000Y-465000D01*
X-4475000Y-669000D02*
X-4475000Y-769000D01*
X-4525000Y-719000D02*
X-4425000Y-719000D01*
X-4221000Y-415000D02*
X-4221000Y-515000D01*
X-4271000Y-465000D02*
X-4171000Y-465000D01*
X-4221000Y-669000D02*
X-4221000Y-769000D01*
X-4271000Y-719000D02*
X-4171000Y-719000D01*
X-3967000Y-415000D02*
X-3967000Y-515000D01*
X-4017000Y-465000D02*
X-3917000Y-465000D01*
X-3967000Y-669000D02*
X-3967000Y-769000D01*
X-4017000Y-719000D02*
X-3917000Y-719000D01*
X-3713000Y-415000D02*
X-3713000Y-515000D01*
X-3763000Y-465000D02*
X-3663000Y-465000D01*
X-3713000Y-669000D02*
X-3713000Y-769000D01*
X-3763000Y-719000D02*
X-3663000Y-719000D01*
X-3459000Y-415000D02*
X-3459000Y-515000D01*
X-3509000Y-465000D02*
X-3409000Y-465000D01*
X-3459000Y-669000D02*
X-3459000Y-769000D01*
X-3509000Y-719000D02*
X-3409000Y-719000D01*
X-3205000Y-415000D02*
X-3205000Y-515000D01*
X-3255000Y-465000D02*
X-3155000Y-465000D01*
X-3205000Y-669000D02*
X-3205000Y-769000D01*
X-3255000Y-719000D02*
X-3155000Y-719000D01*
D12*
X-184864Y2137364D02*
X-184864Y2462636D01*
X-510136Y2462636D01*
X-510136Y2137364D01*
X-184864Y2137364D01*
X-184864Y-2462636D02*
X-184864Y-2137364D01*
X-510136Y-2137364D01*
X-510136Y-2462636D01*
X-184864Y-2462636D01*
X510136Y2137364D02*
X510136Y2462636D01*
X184864Y2462636D01*
X184864Y2137364D01*
X510136Y2137364D01*
X510136Y-2462636D02*
X510136Y-2137364D01*
X184864Y-2137364D01*
X184864Y-2462636D01*
X510136Y-2462636D01*
X2452636Y184864D02*
X2452636Y510136D01*
X2127364Y510136D01*
X2127364Y184864D01*
X2452636Y184864D01*
X2452636Y-510136D02*
X2452636Y-184864D01*
X2127364Y-184864D01*
X2127364Y-510136D01*
X2452636Y-510136D01*
X3312636Y184864D02*
X3312636Y510136D01*
X2987364Y510136D01*
X2987364Y184864D01*
X3312636Y184864D01*
X3312636Y-510136D02*
X3312636Y-184864D01*
X2987364Y-184864D01*
X2987364Y-510136D01*
X3312636Y-510136D01*
D11*
X-8304223Y-3016484D02*
X-8304223Y-2816484D01*
X-8304223Y-2816484D02*
X-8256604Y-2816484D01*
X-8256604Y-2816484D02*
X-8228033Y-2826008D01*
X-8228033Y-2826008D02*
X-8208985Y-2845055D01*
X-8208985Y-2845055D02*
X-8199461Y-2864103D01*
X-8199461Y-2864103D02*
X-8189937Y-2902198D01*
X-8189937Y-2902198D02*
X-8189937Y-2930769D01*
X-8189937Y-2930769D02*
X-8199461Y-2968865D01*
X-8199461Y-2968865D02*
X-8208985Y-2987912D01*
X-8208985Y-2987912D02*
X-8228033Y-3006960D01*
X-8228033Y-3006960D02*
X-8256604Y-3016484D01*
X-8256604Y-3016484D02*
X-8304223Y-3016484D01*
X-8104223Y-3016484D02*
X-8104223Y-2883150D01*
X-8104223Y-2921246D02*
X-8094699Y-2902198D01*
X-8094699Y-2902198D02*
X-8085175Y-2892674D01*
X-8085175Y-2892674D02*
X-8066128Y-2883150D01*
X-8066128Y-2883150D02*
X-8047080Y-2883150D01*
X-7980414Y-3016484D02*
X-7980414Y-2883150D01*
X-7980414Y-2816484D02*
X-7989937Y-2826008D01*
X-7989937Y-2826008D02*
X-7980414Y-2835531D01*
X-7980414Y-2835531D02*
X-7970890Y-2826008D01*
X-7970890Y-2826008D02*
X-7980414Y-2816484D01*
X-7980414Y-2816484D02*
X-7980414Y-2835531D01*
X-7856604Y-3016484D02*
X-7875652Y-3006960D01*
X-7875652Y-3006960D02*
X-7885175Y-2987912D01*
X-7885175Y-2987912D02*
X-7885175Y-2816484D01*
X-7751842Y-3016484D02*
X-7770890Y-3006960D01*
X-7770890Y-3006960D02*
X-7780414Y-2987912D01*
X-7780414Y-2987912D02*
X-7780414Y-2816484D01*
X-7523271Y-3016484D02*
X-7523271Y-2816484D01*
X-7523271Y-2816484D02*
X-7456604Y-2959341D01*
X-7456604Y-2959341D02*
X-7389937Y-2816484D01*
X-7389937Y-2816484D02*
X-7389937Y-3016484D01*
X-7208985Y-3016484D02*
X-7208985Y-2911722D01*
X-7208985Y-2911722D02*
X-7218509Y-2892674D01*
X-7218509Y-2892674D02*
X-7237556Y-2883150D01*
X-7237556Y-2883150D02*
X-7275652Y-2883150D01*
X-7275652Y-2883150D02*
X-7294699Y-2892674D01*
X-7208985Y-3006960D02*
X-7228033Y-3016484D01*
X-7228033Y-3016484D02*
X-7275652Y-3016484D01*
X-7275652Y-3016484D02*
X-7294699Y-3006960D01*
X-7294699Y-3006960D02*
X-7304223Y-2987912D01*
X-7304223Y-2987912D02*
X-7304223Y-2968865D01*
X-7304223Y-2968865D02*
X-7294699Y-2949817D01*
X-7294699Y-2949817D02*
X-7275652Y-2940293D01*
X-7275652Y-2940293D02*
X-7228033Y-2940293D01*
X-7228033Y-2940293D02*
X-7208985Y-2930769D01*
X-7113747Y-2883150D02*
X-7113747Y-3083150D01*
X-7113747Y-2892674D02*
X-7094699Y-2883150D01*
X-7094699Y-2883150D02*
X-7056604Y-2883150D01*
X-7056604Y-2883150D02*
X-7037556Y-2892674D01*
X-7037556Y-2892674D02*
X-7028033Y-2902198D01*
X-7028033Y-2902198D02*
X-7018509Y-2921246D01*
X-7018509Y-2921246D02*
X-7018509Y-2978388D01*
X-7018509Y-2978388D02*
X-7028033Y-2997436D01*
X-7028033Y-2997436D02*
X-7037556Y-3006960D01*
X-7037556Y-3006960D02*
X-7056604Y-3016484D01*
X-7056604Y-3016484D02*
X-7094699Y-3016484D01*
X-7094699Y-3016484D02*
X-7113747Y-3006960D01*
X-6932794Y-2997436D02*
X-6923271Y-3006960D01*
X-6923271Y-3006960D02*
X-6932794Y-3016484D01*
X-6932794Y-3016484D02*
X-6942318Y-3006960D01*
X-6942318Y-3006960D02*
X-6932794Y-2997436D01*
X-6932794Y-2997436D02*
X-6932794Y-3016484D01*
X-6932794Y-2892674D02*
X-6923271Y-2902198D01*
X-6923271Y-2902198D02*
X-6932794Y-2911722D01*
X-6932794Y-2911722D02*
X-6942318Y-2902198D01*
X-6942318Y-2902198D02*
X-6932794Y-2892674D01*
X-6932794Y-2892674D02*
X-6932794Y-2911722D01*
D10*
X-8595000Y-3330000D02*
X-8565000Y-3360000D01*
X-8565000Y-3330000D02*
X-8595000Y-3360000D01*
D11*
X-8266128Y-3236484D02*
X-8247080Y-3236484D01*
X-8247080Y-3236484D02*
X-8228033Y-3246008D01*
X-8228033Y-3246008D02*
X-8218509Y-3255531D01*
X-8218509Y-3255531D02*
X-8208985Y-3274579D01*
X-8208985Y-3274579D02*
X-8199461Y-3312674D01*
X-8199461Y-3312674D02*
X-8199461Y-3360293D01*
X-8199461Y-3360293D02*
X-8208985Y-3398388D01*
X-8208985Y-3398388D02*
X-8218509Y-3417436D01*
X-8218509Y-3417436D02*
X-8228033Y-3426960D01*
X-8228033Y-3426960D02*
X-8247080Y-3436484D01*
X-8247080Y-3436484D02*
X-8266128Y-3436484D01*
X-8266128Y-3436484D02*
X-8285175Y-3426960D01*
X-8285175Y-3426960D02*
X-8294699Y-3417436D01*
X-8294699Y-3417436D02*
X-8304223Y-3398388D01*
X-8304223Y-3398388D02*
X-8313747Y-3360293D01*
X-8313747Y-3360293D02*
X-8313747Y-3312674D01*
X-8313747Y-3312674D02*
X-8304223Y-3274579D01*
X-8304223Y-3274579D02*
X-8294699Y-3255531D01*
X-8294699Y-3255531D02*
X-8285175Y-3246008D01*
X-8285175Y-3246008D02*
X-8266128Y-3236484D01*
X-8113747Y-3417436D02*
X-8104223Y-3426960D01*
X-8104223Y-3426960D02*
X-8113747Y-3436484D01*
X-8113747Y-3436484D02*
X-8123271Y-3426960D01*
X-8123271Y-3426960D02*
X-8113747Y-3417436D01*
X-8113747Y-3417436D02*
X-8113747Y-3436484D01*
X-8037556Y-3236484D02*
X-7913747Y-3236484D01*
X-7913747Y-3236484D02*
X-7980414Y-3312674D01*
X-7980414Y-3312674D02*
X-7951842Y-3312674D01*
X-7951842Y-3312674D02*
X-7932794Y-3322198D01*
X-7932794Y-3322198D02*
X-7923271Y-3331722D01*
X-7923271Y-3331722D02*
X-7913747Y-3350769D01*
X-7913747Y-3350769D02*
X-7913747Y-3398388D01*
X-7913747Y-3398388D02*
X-7923271Y-3417436D01*
X-7923271Y-3417436D02*
X-7932794Y-3426960D01*
X-7932794Y-3426960D02*
X-7951842Y-3436484D01*
X-7951842Y-3436484D02*
X-8008985Y-3436484D01*
X-8008985Y-3436484D02*
X-8028033Y-3426960D01*
X-8028033Y-3426960D02*
X-8037556Y-3417436D01*
X-7789937Y-3236484D02*
X-7770890Y-3236484D01*
X-7770890Y-3236484D02*
X-7751842Y-3246008D01*
X-7751842Y-3246008D02*
X-7742318Y-3255531D01*
X-7742318Y-3255531D02*
X-7732794Y-3274579D01*
X-7732794Y-3274579D02*
X-7723271Y-3312674D01*
X-7723271Y-3312674D02*
X-7723271Y-3360293D01*
X-7723271Y-3360293D02*
X-7732794Y-3398388D01*
X-7732794Y-3398388D02*
X-7742318Y-3417436D01*
X-7742318Y-3417436D02*
X-7751842Y-3426960D01*
X-7751842Y-3426960D02*
X-7770890Y-3436484D01*
X-7770890Y-3436484D02*
X-7789937Y-3436484D01*
X-7789937Y-3436484D02*
X-7808985Y-3426960D01*
X-7808985Y-3426960D02*
X-7818509Y-3417436D01*
X-7818509Y-3417436D02*
X-7828033Y-3398388D01*
X-7828033Y-3398388D02*
X-7837556Y-3360293D01*
X-7837556Y-3360293D02*
X-7837556Y-3312674D01*
X-7837556Y-3312674D02*
X-7828033Y-3274579D01*
X-7828033Y-3274579D02*
X-7818509Y-3255531D01*
X-7818509Y-3255531D02*
X-7808985Y-3246008D01*
X-7808985Y-3246008D02*
X-7789937Y-3236484D01*
X-7599461Y-3236484D02*
X-7580413Y-3236484D01*
X-7580413Y-3236484D02*
X-7561366Y-3246008D01*
X-7561366Y-3246008D02*
X-7551842Y-3255531D01*
X-7551842Y-3255531D02*
X-7542318Y-3274579D01*
X-7542318Y-3274579D02*
X-7532794Y-3312674D01*
X-7532794Y-3312674D02*
X-7532794Y-3360293D01*
X-7532794Y-3360293D02*
X-7542318Y-3398388D01*
X-7542318Y-3398388D02*
X-7551842Y-3417436D01*
X-7551842Y-3417436D02*
X-7561366Y-3426960D01*
X-7561366Y-3426960D02*
X-7580413Y-3436484D01*
X-7580413Y-3436484D02*
X-7599461Y-3436484D01*
X-7599461Y-3436484D02*
X-7618509Y-3426960D01*
X-7618509Y-3426960D02*
X-7628033Y-3417436D01*
X-7628033Y-3417436D02*
X-7637556Y-3398388D01*
X-7637556Y-3398388D02*
X-7647080Y-3360293D01*
X-7647080Y-3360293D02*
X-7647080Y-3312674D01*
X-7647080Y-3312674D02*
X-7637556Y-3274579D01*
X-7637556Y-3274579D02*
X-7628033Y-3255531D01*
X-7628033Y-3255531D02*
X-7618509Y-3246008D01*
X-7618509Y-3246008D02*
X-7599461Y-3236484D01*
X-7447080Y-3436484D02*
X-7447080Y-3303150D01*
X-7447080Y-3322198D02*
X-7437556Y-3312674D01*
X-7437556Y-3312674D02*
X-7418509Y-3303150D01*
X-7418509Y-3303150D02*
X-7389937Y-3303150D01*
X-7389937Y-3303150D02*
X-7370890Y-3312674D01*
X-7370890Y-3312674D02*
X-7361366Y-3331722D01*
X-7361366Y-3331722D02*
X-7361366Y-3436484D01*
X-7361366Y-3331722D02*
X-7351842Y-3312674D01*
X-7351842Y-3312674D02*
X-7332794Y-3303150D01*
X-7332794Y-3303150D02*
X-7304223Y-3303150D01*
X-7304223Y-3303150D02*
X-7285175Y-3312674D01*
X-7285175Y-3312674D02*
X-7275652Y-3331722D01*
X-7275652Y-3331722D02*
X-7275652Y-3436484D01*
X-7180413Y-3436484D02*
X-7180413Y-3303150D01*
X-7180413Y-3322198D02*
X-7170890Y-3312674D01*
X-7170890Y-3312674D02*
X-7151842Y-3303150D01*
X-7151842Y-3303150D02*
X-7123271Y-3303150D01*
X-7123271Y-3303150D02*
X-7104223Y-3312674D01*
X-7104223Y-3312674D02*
X-7094699Y-3331722D01*
X-7094699Y-3331722D02*
X-7094699Y-3436484D01*
X-7094699Y-3331722D02*
X-7085175Y-3312674D01*
X-7085175Y-3312674D02*
X-7066128Y-3303150D01*
X-7066128Y-3303150D02*
X-7037556Y-3303150D01*
X-7037556Y-3303150D02*
X-7018509Y-3312674D01*
X-7018509Y-3312674D02*
X-7008985Y-3331722D01*
X-7008985Y-3331722D02*
X-7008985Y-3436484D01*
X-6618509Y-3226960D02*
X-6789937Y-3484103D01*
X-6361366Y-3236484D02*
X-6342318Y-3236484D01*
X-6342318Y-3236484D02*
X-6323270Y-3246008D01*
X-6323270Y-3246008D02*
X-6313747Y-3255531D01*
X-6313747Y-3255531D02*
X-6304223Y-3274579D01*
X-6304223Y-3274579D02*
X-6294699Y-3312674D01*
X-6294699Y-3312674D02*
X-6294699Y-3360293D01*
X-6294699Y-3360293D02*
X-6304223Y-3398388D01*
X-6304223Y-3398388D02*
X-6313747Y-3417436D01*
X-6313747Y-3417436D02*
X-6323270Y-3426960D01*
X-6323270Y-3426960D02*
X-6342318Y-3436484D01*
X-6342318Y-3436484D02*
X-6361366Y-3436484D01*
X-6361366Y-3436484D02*
X-6380413Y-3426960D01*
X-6380413Y-3426960D02*
X-6389937Y-3417436D01*
X-6389937Y-3417436D02*
X-6399461Y-3398388D01*
X-6399461Y-3398388D02*
X-6408985Y-3360293D01*
X-6408985Y-3360293D02*
X-6408985Y-3312674D01*
X-6408985Y-3312674D02*
X-6399461Y-3274579D01*
X-6399461Y-3274579D02*
X-6389937Y-3255531D01*
X-6389937Y-3255531D02*
X-6380413Y-3246008D01*
X-6380413Y-3246008D02*
X-6361366Y-3236484D01*
X-6208985Y-3417436D02*
X-6199461Y-3426960D01*
X-6199461Y-3426960D02*
X-6208985Y-3436484D01*
X-6208985Y-3436484D02*
X-6218509Y-3426960D01*
X-6218509Y-3426960D02*
X-6208985Y-3417436D01*
X-6208985Y-3417436D02*
X-6208985Y-3436484D01*
X-6075651Y-3236484D02*
X-6056604Y-3236484D01*
X-6056604Y-3236484D02*
X-6037556Y-3246008D01*
X-6037556Y-3246008D02*
X-6028032Y-3255531D01*
X-6028032Y-3255531D02*
X-6018509Y-3274579D01*
X-6018509Y-3274579D02*
X-6008985Y-3312674D01*
X-6008985Y-3312674D02*
X-6008985Y-3360293D01*
X-6008985Y-3360293D02*
X-6018509Y-3398388D01*
X-6018509Y-3398388D02*
X-6028032Y-3417436D01*
X-6028032Y-3417436D02*
X-6037556Y-3426960D01*
X-6037556Y-3426960D02*
X-6056604Y-3436484D01*
X-6056604Y-3436484D02*
X-6075651Y-3436484D01*
X-6075651Y-3436484D02*
X-6094699Y-3426960D01*
X-6094699Y-3426960D02*
X-6104223Y-3417436D01*
X-6104223Y-3417436D02*
X-6113747Y-3398388D01*
X-6113747Y-3398388D02*
X-6123270Y-3360293D01*
X-6123270Y-3360293D02*
X-6123270Y-3312674D01*
X-6123270Y-3312674D02*
X-6113747Y-3274579D01*
X-6113747Y-3274579D02*
X-6104223Y-3255531D01*
X-6104223Y-3255531D02*
X-6094699Y-3246008D01*
X-6094699Y-3246008D02*
X-6075651Y-3236484D01*
X-5818509Y-3436484D02*
X-5932794Y-3436484D01*
X-5875651Y-3436484D02*
X-5875651Y-3236484D01*
X-5875651Y-3236484D02*
X-5894699Y-3265055D01*
X-5894699Y-3265055D02*
X-5913747Y-3284103D01*
X-5913747Y-3284103D02*
X-5932794Y-3293627D01*
X-5628032Y-3436484D02*
X-5742318Y-3436484D01*
X-5685175Y-3436484D02*
X-5685175Y-3236484D01*
X-5685175Y-3236484D02*
X-5704223Y-3265055D01*
X-5704223Y-3265055D02*
X-5723270Y-3284103D01*
X-5723270Y-3284103D02*
X-5742318Y-3293627D01*
X-5513747Y-3322198D02*
X-5532794Y-3312674D01*
X-5532794Y-3312674D02*
X-5542318Y-3303150D01*
X-5542318Y-3303150D02*
X-5551842Y-3284103D01*
X-5551842Y-3284103D02*
X-5551842Y-3274579D01*
X-5551842Y-3274579D02*
X-5542318Y-3255531D01*
X-5542318Y-3255531D02*
X-5532794Y-3246008D01*
X-5532794Y-3246008D02*
X-5513747Y-3236484D01*
X-5513747Y-3236484D02*
X-5475651Y-3236484D01*
X-5475651Y-3236484D02*
X-5456604Y-3246008D01*
X-5456604Y-3246008D02*
X-5447080Y-3255531D01*
X-5447080Y-3255531D02*
X-5437556Y-3274579D01*
X-5437556Y-3274579D02*
X-5437556Y-3284103D01*
X-5437556Y-3284103D02*
X-5447080Y-3303150D01*
X-5447080Y-3303150D02*
X-5456604Y-3312674D01*
X-5456604Y-3312674D02*
X-5475651Y-3322198D01*
X-5475651Y-3322198D02*
X-5513747Y-3322198D01*
X-5513747Y-3322198D02*
X-5532794Y-3331722D01*
X-5532794Y-3331722D02*
X-5542318Y-3341246D01*
X-5542318Y-3341246D02*
X-5551842Y-3360293D01*
X-5551842Y-3360293D02*
X-5551842Y-3398388D01*
X-5551842Y-3398388D02*
X-5542318Y-3417436D01*
X-5542318Y-3417436D02*
X-5532794Y-3426960D01*
X-5532794Y-3426960D02*
X-5513747Y-3436484D01*
X-5513747Y-3436484D02*
X-5475651Y-3436484D01*
X-5475651Y-3436484D02*
X-5456604Y-3426960D01*
X-5456604Y-3426960D02*
X-5447080Y-3417436D01*
X-5447080Y-3417436D02*
X-5437556Y-3398388D01*
X-5437556Y-3398388D02*
X-5437556Y-3360293D01*
X-5437556Y-3360293D02*
X-5447080Y-3341246D01*
X-5447080Y-3341246D02*
X-5456604Y-3331722D01*
X-5456604Y-3331722D02*
X-5475651Y-3322198D01*
X-5361366Y-3236484D02*
X-5361366Y-3274579D01*
X-5285175Y-3236484D02*
X-5285175Y-3274579D01*
X-4989937Y-3512674D02*
X-4999461Y-3503150D01*
X-4999461Y-3503150D02*
X-5018509Y-3474579D01*
X-5018509Y-3474579D02*
X-5028032Y-3455531D01*
X-5028032Y-3455531D02*
X-5037556Y-3426960D01*
X-5037556Y-3426960D02*
X-5047080Y-3379341D01*
X-5047080Y-3379341D02*
X-5047080Y-3341246D01*
X-5047080Y-3341246D02*
X-5037556Y-3293627D01*
X-5037556Y-3293627D02*
X-5028032Y-3265055D01*
X-5028032Y-3265055D02*
X-5018509Y-3246008D01*
X-5018509Y-3246008D02*
X-4999461Y-3217436D01*
X-4999461Y-3217436D02*
X-4989937Y-3207912D01*
X-4808985Y-3436484D02*
X-4923270Y-3436484D01*
X-4866128Y-3436484D02*
X-4866128Y-3236484D01*
X-4866128Y-3236484D02*
X-4885175Y-3265055D01*
X-4885175Y-3265055D02*
X-4904223Y-3284103D01*
X-4904223Y-3284103D02*
X-4923270Y-3293627D01*
X-4628032Y-3236484D02*
X-4723270Y-3236484D01*
X-4723270Y-3236484D02*
X-4732794Y-3331722D01*
X-4732794Y-3331722D02*
X-4723270Y-3322198D01*
X-4723270Y-3322198D02*
X-4704223Y-3312674D01*
X-4704223Y-3312674D02*
X-4656604Y-3312674D01*
X-4656604Y-3312674D02*
X-4637556Y-3322198D01*
X-4637556Y-3322198D02*
X-4628032Y-3331722D01*
X-4628032Y-3331722D02*
X-4618509Y-3350769D01*
X-4618509Y-3350769D02*
X-4618509Y-3398388D01*
X-4618509Y-3398388D02*
X-4628032Y-3417436D01*
X-4628032Y-3417436D02*
X-4637556Y-3426960D01*
X-4637556Y-3426960D02*
X-4656604Y-3436484D01*
X-4656604Y-3436484D02*
X-4704223Y-3436484D01*
X-4704223Y-3436484D02*
X-4723270Y-3426960D01*
X-4723270Y-3426960D02*
X-4732794Y-3417436D01*
X-4437556Y-3236484D02*
X-4532794Y-3236484D01*
X-4532794Y-3236484D02*
X-4542318Y-3331722D01*
X-4542318Y-3331722D02*
X-4532794Y-3322198D01*
X-4532794Y-3322198D02*
X-4513747Y-3312674D01*
X-4513747Y-3312674D02*
X-4466128Y-3312674D01*
X-4466128Y-3312674D02*
X-4447080Y-3322198D01*
X-4447080Y-3322198D02*
X-4437556Y-3331722D01*
X-4437556Y-3331722D02*
X-4428032Y-3350769D01*
X-4428032Y-3350769D02*
X-4428032Y-3398388D01*
X-4428032Y-3398388D02*
X-4437556Y-3417436D01*
X-4437556Y-3417436D02*
X-4447080Y-3426960D01*
X-4447080Y-3426960D02*
X-4466128Y-3436484D01*
X-4466128Y-3436484D02*
X-4513747Y-3436484D01*
X-4513747Y-3436484D02*
X-4532794Y-3426960D01*
X-4532794Y-3426960D02*
X-4542318Y-3417436D01*
X-4189937Y-3436484D02*
X-4189937Y-3236484D01*
X-4104223Y-3436484D02*
X-4104223Y-3331722D01*
X-4104223Y-3331722D02*
X-4113746Y-3312674D01*
X-4113746Y-3312674D02*
X-4132794Y-3303150D01*
X-4132794Y-3303150D02*
X-4161366Y-3303150D01*
X-4161366Y-3303150D02*
X-4180413Y-3312674D01*
X-4180413Y-3312674D02*
X-4189937Y-3322198D01*
X-3980413Y-3436484D02*
X-3999461Y-3426960D01*
X-3999461Y-3426960D02*
X-4008985Y-3417436D01*
X-4008985Y-3417436D02*
X-4018508Y-3398388D01*
X-4018508Y-3398388D02*
X-4018508Y-3341246D01*
X-4018508Y-3341246D02*
X-4008985Y-3322198D01*
X-4008985Y-3322198D02*
X-3999461Y-3312674D01*
X-3999461Y-3312674D02*
X-3980413Y-3303150D01*
X-3980413Y-3303150D02*
X-3951842Y-3303150D01*
X-3951842Y-3303150D02*
X-3932794Y-3312674D01*
X-3932794Y-3312674D02*
X-3923270Y-3322198D01*
X-3923270Y-3322198D02*
X-3913746Y-3341246D01*
X-3913746Y-3341246D02*
X-3913746Y-3398388D01*
X-3913746Y-3398388D02*
X-3923270Y-3417436D01*
X-3923270Y-3417436D02*
X-3932794Y-3426960D01*
X-3932794Y-3426960D02*
X-3951842Y-3436484D01*
X-3951842Y-3436484D02*
X-3980413Y-3436484D01*
X-3799461Y-3436484D02*
X-3818508Y-3426960D01*
X-3818508Y-3426960D02*
X-3828032Y-3407912D01*
X-3828032Y-3407912D02*
X-3828032Y-3236484D01*
X-3647080Y-3426960D02*
X-3666127Y-3436484D01*
X-3666127Y-3436484D02*
X-3704223Y-3436484D01*
X-3704223Y-3436484D02*
X-3723270Y-3426960D01*
X-3723270Y-3426960D02*
X-3732794Y-3407912D01*
X-3732794Y-3407912D02*
X-3732794Y-3331722D01*
X-3732794Y-3331722D02*
X-3723270Y-3312674D01*
X-3723270Y-3312674D02*
X-3704223Y-3303150D01*
X-3704223Y-3303150D02*
X-3666127Y-3303150D01*
X-3666127Y-3303150D02*
X-3647080Y-3312674D01*
X-3647080Y-3312674D02*
X-3637556Y-3331722D01*
X-3637556Y-3331722D02*
X-3637556Y-3350769D01*
X-3637556Y-3350769D02*
X-3732794Y-3369817D01*
X-3561365Y-3426960D02*
X-3542318Y-3436484D01*
X-3542318Y-3436484D02*
X-3504223Y-3436484D01*
X-3504223Y-3436484D02*
X-3485175Y-3426960D01*
X-3485175Y-3426960D02*
X-3475651Y-3407912D01*
X-3475651Y-3407912D02*
X-3475651Y-3398388D01*
X-3475651Y-3398388D02*
X-3485175Y-3379341D01*
X-3485175Y-3379341D02*
X-3504223Y-3369817D01*
X-3504223Y-3369817D02*
X-3532794Y-3369817D01*
X-3532794Y-3369817D02*
X-3551842Y-3360293D01*
X-3551842Y-3360293D02*
X-3561365Y-3341246D01*
X-3561365Y-3341246D02*
X-3561365Y-3331722D01*
X-3561365Y-3331722D02*
X-3551842Y-3312674D01*
X-3551842Y-3312674D02*
X-3532794Y-3303150D01*
X-3532794Y-3303150D02*
X-3504223Y-3303150D01*
X-3504223Y-3303150D02*
X-3485175Y-3312674D01*
X-3408984Y-3512674D02*
X-3399461Y-3503150D01*
X-3399461Y-3503150D02*
X-3380413Y-3474579D01*
X-3380413Y-3474579D02*
X-3370889Y-3455531D01*
X-3370889Y-3455531D02*
X-3361365Y-3426960D01*
X-3361365Y-3426960D02*
X-3351842Y-3379341D01*
X-3351842Y-3379341D02*
X-3351842Y-3341246D01*
X-3351842Y-3341246D02*
X-3361365Y-3293627D01*
X-3361365Y-3293627D02*
X-3370889Y-3265055D01*
X-3370889Y-3265055D02*
X-3380413Y-3246008D01*
X-3380413Y-3246008D02*
X-3399461Y-3217436D01*
X-3399461Y-3217436D02*
X-3408984Y-3207912D01*
D10*
X-8565000Y-3609000D02*
G75*
G03*
X-8565000Y-3609000I-40000J0D01*
G01*
D11*
X-8266128Y-3500484D02*
X-8247080Y-3500484D01*
X-8247080Y-3500484D02*
X-8228033Y-3510008D01*
X-8228033Y-3510008D02*
X-8218509Y-3519531D01*
X-8218509Y-3519531D02*
X-8208985Y-3538579D01*
X-8208985Y-3538579D02*
X-8199461Y-3576674D01*
X-8199461Y-3576674D02*
X-8199461Y-3624293D01*
X-8199461Y-3624293D02*
X-8208985Y-3662388D01*
X-8208985Y-3662388D02*
X-8218509Y-3681436D01*
X-8218509Y-3681436D02*
X-8228033Y-3690960D01*
X-8228033Y-3690960D02*
X-8247080Y-3700484D01*
X-8247080Y-3700484D02*
X-8266128Y-3700484D01*
X-8266128Y-3700484D02*
X-8285175Y-3690960D01*
X-8285175Y-3690960D02*
X-8294699Y-3681436D01*
X-8294699Y-3681436D02*
X-8304223Y-3662388D01*
X-8304223Y-3662388D02*
X-8313747Y-3624293D01*
X-8313747Y-3624293D02*
X-8313747Y-3576674D01*
X-8313747Y-3576674D02*
X-8304223Y-3538579D01*
X-8304223Y-3538579D02*
X-8294699Y-3519531D01*
X-8294699Y-3519531D02*
X-8285175Y-3510008D01*
X-8285175Y-3510008D02*
X-8266128Y-3500484D01*
X-8113747Y-3681436D02*
X-8104223Y-3690960D01*
X-8104223Y-3690960D02*
X-8113747Y-3700484D01*
X-8113747Y-3700484D02*
X-8123271Y-3690960D01*
X-8123271Y-3690960D02*
X-8113747Y-3681436D01*
X-8113747Y-3681436D02*
X-8113747Y-3700484D01*
X-7989937Y-3586198D02*
X-8008985Y-3576674D01*
X-8008985Y-3576674D02*
X-8018509Y-3567150D01*
X-8018509Y-3567150D02*
X-8028033Y-3548103D01*
X-8028033Y-3548103D02*
X-8028033Y-3538579D01*
X-8028033Y-3538579D02*
X-8018509Y-3519531D01*
X-8018509Y-3519531D02*
X-8008985Y-3510008D01*
X-8008985Y-3510008D02*
X-7989937Y-3500484D01*
X-7989937Y-3500484D02*
X-7951842Y-3500484D01*
X-7951842Y-3500484D02*
X-7932794Y-3510008D01*
X-7932794Y-3510008D02*
X-7923271Y-3519531D01*
X-7923271Y-3519531D02*
X-7913747Y-3538579D01*
X-7913747Y-3538579D02*
X-7913747Y-3548103D01*
X-7913747Y-3548103D02*
X-7923271Y-3567150D01*
X-7923271Y-3567150D02*
X-7932794Y-3576674D01*
X-7932794Y-3576674D02*
X-7951842Y-3586198D01*
X-7951842Y-3586198D02*
X-7989937Y-3586198D01*
X-7989937Y-3586198D02*
X-8008985Y-3595722D01*
X-8008985Y-3595722D02*
X-8018509Y-3605246D01*
X-8018509Y-3605246D02*
X-8028033Y-3624293D01*
X-8028033Y-3624293D02*
X-8028033Y-3662388D01*
X-8028033Y-3662388D02*
X-8018509Y-3681436D01*
X-8018509Y-3681436D02*
X-8008985Y-3690960D01*
X-8008985Y-3690960D02*
X-7989937Y-3700484D01*
X-7989937Y-3700484D02*
X-7951842Y-3700484D01*
X-7951842Y-3700484D02*
X-7932794Y-3690960D01*
X-7932794Y-3690960D02*
X-7923271Y-3681436D01*
X-7923271Y-3681436D02*
X-7913747Y-3662388D01*
X-7913747Y-3662388D02*
X-7913747Y-3624293D01*
X-7913747Y-3624293D02*
X-7923271Y-3605246D01*
X-7923271Y-3605246D02*
X-7932794Y-3595722D01*
X-7932794Y-3595722D02*
X-7951842Y-3586198D01*
X-7789937Y-3500484D02*
X-7770890Y-3500484D01*
X-7770890Y-3500484D02*
X-7751842Y-3510008D01*
X-7751842Y-3510008D02*
X-7742318Y-3519531D01*
X-7742318Y-3519531D02*
X-7732794Y-3538579D01*
X-7732794Y-3538579D02*
X-7723271Y-3576674D01*
X-7723271Y-3576674D02*
X-7723271Y-3624293D01*
X-7723271Y-3624293D02*
X-7732794Y-3662388D01*
X-7732794Y-3662388D02*
X-7742318Y-3681436D01*
X-7742318Y-3681436D02*
X-7751842Y-3690960D01*
X-7751842Y-3690960D02*
X-7770890Y-3700484D01*
X-7770890Y-3700484D02*
X-7789937Y-3700484D01*
X-7789937Y-3700484D02*
X-7808985Y-3690960D01*
X-7808985Y-3690960D02*
X-7818509Y-3681436D01*
X-7818509Y-3681436D02*
X-7828033Y-3662388D01*
X-7828033Y-3662388D02*
X-7837556Y-3624293D01*
X-7837556Y-3624293D02*
X-7837556Y-3576674D01*
X-7837556Y-3576674D02*
X-7828033Y-3538579D01*
X-7828033Y-3538579D02*
X-7818509Y-3519531D01*
X-7818509Y-3519531D02*
X-7808985Y-3510008D01*
X-7808985Y-3510008D02*
X-7789937Y-3500484D01*
X-7599461Y-3500484D02*
X-7580413Y-3500484D01*
X-7580413Y-3500484D02*
X-7561366Y-3510008D01*
X-7561366Y-3510008D02*
X-7551842Y-3519531D01*
X-7551842Y-3519531D02*
X-7542318Y-3538579D01*
X-7542318Y-3538579D02*
X-7532794Y-3576674D01*
X-7532794Y-3576674D02*
X-7532794Y-3624293D01*
X-7532794Y-3624293D02*
X-7542318Y-3662388D01*
X-7542318Y-3662388D02*
X-7551842Y-3681436D01*
X-7551842Y-3681436D02*
X-7561366Y-3690960D01*
X-7561366Y-3690960D02*
X-7580413Y-3700484D01*
X-7580413Y-3700484D02*
X-7599461Y-3700484D01*
X-7599461Y-3700484D02*
X-7618509Y-3690960D01*
X-7618509Y-3690960D02*
X-7628033Y-3681436D01*
X-7628033Y-3681436D02*
X-7637556Y-3662388D01*
X-7637556Y-3662388D02*
X-7647080Y-3624293D01*
X-7647080Y-3624293D02*
X-7647080Y-3576674D01*
X-7647080Y-3576674D02*
X-7637556Y-3538579D01*
X-7637556Y-3538579D02*
X-7628033Y-3519531D01*
X-7628033Y-3519531D02*
X-7618509Y-3510008D01*
X-7618509Y-3510008D02*
X-7599461Y-3500484D01*
X-7447080Y-3700484D02*
X-7447080Y-3567150D01*
X-7447080Y-3586198D02*
X-7437556Y-3576674D01*
X-7437556Y-3576674D02*
X-7418509Y-3567150D01*
X-7418509Y-3567150D02*
X-7389937Y-3567150D01*
X-7389937Y-3567150D02*
X-7370890Y-3576674D01*
X-7370890Y-3576674D02*
X-7361366Y-3595722D01*
X-7361366Y-3595722D02*
X-7361366Y-3700484D01*
X-7361366Y-3595722D02*
X-7351842Y-3576674D01*
X-7351842Y-3576674D02*
X-7332794Y-3567150D01*
X-7332794Y-3567150D02*
X-7304223Y-3567150D01*
X-7304223Y-3567150D02*
X-7285175Y-3576674D01*
X-7285175Y-3576674D02*
X-7275652Y-3595722D01*
X-7275652Y-3595722D02*
X-7275652Y-3700484D01*
X-7180413Y-3700484D02*
X-7180413Y-3567150D01*
X-7180413Y-3586198D02*
X-7170890Y-3576674D01*
X-7170890Y-3576674D02*
X-7151842Y-3567150D01*
X-7151842Y-3567150D02*
X-7123271Y-3567150D01*
X-7123271Y-3567150D02*
X-7104223Y-3576674D01*
X-7104223Y-3576674D02*
X-7094699Y-3595722D01*
X-7094699Y-3595722D02*
X-7094699Y-3700484D01*
X-7094699Y-3595722D02*
X-7085175Y-3576674D01*
X-7085175Y-3576674D02*
X-7066128Y-3567150D01*
X-7066128Y-3567150D02*
X-7037556Y-3567150D01*
X-7037556Y-3567150D02*
X-7018509Y-3576674D01*
X-7018509Y-3576674D02*
X-7008985Y-3595722D01*
X-7008985Y-3595722D02*
X-7008985Y-3700484D01*
X-6618509Y-3490960D02*
X-6789937Y-3748103D01*
X-6361366Y-3500484D02*
X-6342318Y-3500484D01*
X-6342318Y-3500484D02*
X-6323270Y-3510008D01*
X-6323270Y-3510008D02*
X-6313747Y-3519531D01*
X-6313747Y-3519531D02*
X-6304223Y-3538579D01*
X-6304223Y-3538579D02*
X-6294699Y-3576674D01*
X-6294699Y-3576674D02*
X-6294699Y-3624293D01*
X-6294699Y-3624293D02*
X-6304223Y-3662388D01*
X-6304223Y-3662388D02*
X-6313747Y-3681436D01*
X-6313747Y-3681436D02*
X-6323270Y-3690960D01*
X-6323270Y-3690960D02*
X-6342318Y-3700484D01*
X-6342318Y-3700484D02*
X-6361366Y-3700484D01*
X-6361366Y-3700484D02*
X-6380413Y-3690960D01*
X-6380413Y-3690960D02*
X-6389937Y-3681436D01*
X-6389937Y-3681436D02*
X-6399461Y-3662388D01*
X-6399461Y-3662388D02*
X-6408985Y-3624293D01*
X-6408985Y-3624293D02*
X-6408985Y-3576674D01*
X-6408985Y-3576674D02*
X-6399461Y-3538579D01*
X-6399461Y-3538579D02*
X-6389937Y-3519531D01*
X-6389937Y-3519531D02*
X-6380413Y-3510008D01*
X-6380413Y-3510008D02*
X-6361366Y-3500484D01*
X-6208985Y-3681436D02*
X-6199461Y-3690960D01*
X-6199461Y-3690960D02*
X-6208985Y-3700484D01*
X-6208985Y-3700484D02*
X-6218509Y-3690960D01*
X-6218509Y-3690960D02*
X-6208985Y-3681436D01*
X-6208985Y-3681436D02*
X-6208985Y-3700484D01*
X-6075651Y-3500484D02*
X-6056604Y-3500484D01*
X-6056604Y-3500484D02*
X-6037556Y-3510008D01*
X-6037556Y-3510008D02*
X-6028032Y-3519531D01*
X-6028032Y-3519531D02*
X-6018509Y-3538579D01*
X-6018509Y-3538579D02*
X-6008985Y-3576674D01*
X-6008985Y-3576674D02*
X-6008985Y-3624293D01*
X-6008985Y-3624293D02*
X-6018509Y-3662388D01*
X-6018509Y-3662388D02*
X-6028032Y-3681436D01*
X-6028032Y-3681436D02*
X-6037556Y-3690960D01*
X-6037556Y-3690960D02*
X-6056604Y-3700484D01*
X-6056604Y-3700484D02*
X-6075651Y-3700484D01*
X-6075651Y-3700484D02*
X-6094699Y-3690960D01*
X-6094699Y-3690960D02*
X-6104223Y-3681436D01*
X-6104223Y-3681436D02*
X-6113747Y-3662388D01*
X-6113747Y-3662388D02*
X-6123270Y-3624293D01*
X-6123270Y-3624293D02*
X-6123270Y-3576674D01*
X-6123270Y-3576674D02*
X-6113747Y-3538579D01*
X-6113747Y-3538579D02*
X-6104223Y-3519531D01*
X-6104223Y-3519531D02*
X-6094699Y-3510008D01*
X-6094699Y-3510008D02*
X-6075651Y-3500484D01*
X-5942318Y-3500484D02*
X-5818509Y-3500484D01*
X-5818509Y-3500484D02*
X-5885175Y-3576674D01*
X-5885175Y-3576674D02*
X-5856604Y-3576674D01*
X-5856604Y-3576674D02*
X-5837556Y-3586198D01*
X-5837556Y-3586198D02*
X-5828032Y-3595722D01*
X-5828032Y-3595722D02*
X-5818509Y-3614769D01*
X-5818509Y-3614769D02*
X-5818509Y-3662388D01*
X-5818509Y-3662388D02*
X-5828032Y-3681436D01*
X-5828032Y-3681436D02*
X-5837556Y-3690960D01*
X-5837556Y-3690960D02*
X-5856604Y-3700484D01*
X-5856604Y-3700484D02*
X-5913747Y-3700484D01*
X-5913747Y-3700484D02*
X-5932794Y-3690960D01*
X-5932794Y-3690960D02*
X-5942318Y-3681436D01*
X-5628032Y-3700484D02*
X-5742318Y-3700484D01*
X-5685175Y-3700484D02*
X-5685175Y-3500484D01*
X-5685175Y-3500484D02*
X-5704223Y-3529055D01*
X-5704223Y-3529055D02*
X-5723270Y-3548103D01*
X-5723270Y-3548103D02*
X-5742318Y-3557627D01*
X-5447080Y-3500484D02*
X-5542318Y-3500484D01*
X-5542318Y-3500484D02*
X-5551842Y-3595722D01*
X-5551842Y-3595722D02*
X-5542318Y-3586198D01*
X-5542318Y-3586198D02*
X-5523271Y-3576674D01*
X-5523271Y-3576674D02*
X-5475651Y-3576674D01*
X-5475651Y-3576674D02*
X-5456604Y-3586198D01*
X-5456604Y-3586198D02*
X-5447080Y-3595722D01*
X-5447080Y-3595722D02*
X-5437556Y-3614769D01*
X-5437556Y-3614769D02*
X-5437556Y-3662388D01*
X-5437556Y-3662388D02*
X-5447080Y-3681436D01*
X-5447080Y-3681436D02*
X-5456604Y-3690960D01*
X-5456604Y-3690960D02*
X-5475651Y-3700484D01*
X-5475651Y-3700484D02*
X-5523271Y-3700484D01*
X-5523271Y-3700484D02*
X-5542318Y-3690960D01*
X-5542318Y-3690960D02*
X-5551842Y-3681436D01*
X-5361366Y-3500484D02*
X-5361366Y-3538579D01*
X-5285175Y-3500484D02*
X-5285175Y-3538579D01*
X-4989937Y-3776674D02*
X-4999461Y-3767150D01*
X-4999461Y-3767150D02*
X-5018509Y-3738579D01*
X-5018509Y-3738579D02*
X-5028032Y-3719531D01*
X-5028032Y-3719531D02*
X-5037556Y-3690960D01*
X-5037556Y-3690960D02*
X-5047080Y-3643341D01*
X-5047080Y-3643341D02*
X-5047080Y-3605246D01*
X-5047080Y-3605246D02*
X-5037556Y-3557627D01*
X-5037556Y-3557627D02*
X-5028032Y-3529055D01*
X-5028032Y-3529055D02*
X-5018509Y-3510008D01*
X-5018509Y-3510008D02*
X-4999461Y-3481436D01*
X-4999461Y-3481436D02*
X-4989937Y-3471912D01*
X-4808985Y-3700484D02*
X-4923270Y-3700484D01*
X-4866128Y-3700484D02*
X-4866128Y-3500484D01*
X-4866128Y-3500484D02*
X-4885175Y-3529055D01*
X-4885175Y-3529055D02*
X-4904223Y-3548103D01*
X-4904223Y-3548103D02*
X-4923270Y-3557627D01*
X-4732794Y-3519531D02*
X-4723270Y-3510008D01*
X-4723270Y-3510008D02*
X-4704223Y-3500484D01*
X-4704223Y-3500484D02*
X-4656604Y-3500484D01*
X-4656604Y-3500484D02*
X-4637556Y-3510008D01*
X-4637556Y-3510008D02*
X-4628032Y-3519531D01*
X-4628032Y-3519531D02*
X-4618509Y-3538579D01*
X-4618509Y-3538579D02*
X-4618509Y-3557627D01*
X-4618509Y-3557627D02*
X-4628032Y-3586198D01*
X-4628032Y-3586198D02*
X-4742318Y-3700484D01*
X-4742318Y-3700484D02*
X-4618509Y-3700484D01*
X-4380413Y-3700484D02*
X-4380413Y-3500484D01*
X-4294699Y-3700484D02*
X-4294699Y-3595722D01*
X-4294699Y-3595722D02*
X-4304223Y-3576674D01*
X-4304223Y-3576674D02*
X-4323270Y-3567150D01*
X-4323270Y-3567150D02*
X-4351842Y-3567150D01*
X-4351842Y-3567150D02*
X-4370889Y-3576674D01*
X-4370889Y-3576674D02*
X-4380413Y-3586198D01*
X-4170889Y-3700484D02*
X-4189937Y-3690960D01*
X-4189937Y-3690960D02*
X-4199461Y-3681436D01*
X-4199461Y-3681436D02*
X-4208985Y-3662388D01*
X-4208985Y-3662388D02*
X-4208985Y-3605246D01*
X-4208985Y-3605246D02*
X-4199461Y-3586198D01*
X-4199461Y-3586198D02*
X-4189937Y-3576674D01*
X-4189937Y-3576674D02*
X-4170889Y-3567150D01*
X-4170889Y-3567150D02*
X-4142318Y-3567150D01*
X-4142318Y-3567150D02*
X-4123270Y-3576674D01*
X-4123270Y-3576674D02*
X-4113746Y-3586198D01*
X-4113746Y-3586198D02*
X-4104223Y-3605246D01*
X-4104223Y-3605246D02*
X-4104223Y-3662388D01*
X-4104223Y-3662388D02*
X-4113746Y-3681436D01*
X-4113746Y-3681436D02*
X-4123270Y-3690960D01*
X-4123270Y-3690960D02*
X-4142318Y-3700484D01*
X-4142318Y-3700484D02*
X-4170889Y-3700484D01*
X-3989937Y-3700484D02*
X-4008985Y-3690960D01*
X-4008985Y-3690960D02*
X-4018508Y-3671912D01*
X-4018508Y-3671912D02*
X-4018508Y-3500484D01*
X-3837556Y-3690960D02*
X-3856604Y-3700484D01*
X-3856604Y-3700484D02*
X-3894699Y-3700484D01*
X-3894699Y-3700484D02*
X-3913746Y-3690960D01*
X-3913746Y-3690960D02*
X-3923270Y-3671912D01*
X-3923270Y-3671912D02*
X-3923270Y-3595722D01*
X-3923270Y-3595722D02*
X-3913746Y-3576674D01*
X-3913746Y-3576674D02*
X-3894699Y-3567150D01*
X-3894699Y-3567150D02*
X-3856604Y-3567150D01*
X-3856604Y-3567150D02*
X-3837556Y-3576674D01*
X-3837556Y-3576674D02*
X-3828032Y-3595722D01*
X-3828032Y-3595722D02*
X-3828032Y-3614769D01*
X-3828032Y-3614769D02*
X-3923270Y-3633817D01*
X-3751842Y-3690960D02*
X-3732794Y-3700484D01*
X-3732794Y-3700484D02*
X-3694699Y-3700484D01*
X-3694699Y-3700484D02*
X-3675651Y-3690960D01*
X-3675651Y-3690960D02*
X-3666127Y-3671912D01*
X-3666127Y-3671912D02*
X-3666127Y-3662388D01*
X-3666127Y-3662388D02*
X-3675651Y-3643341D01*
X-3675651Y-3643341D02*
X-3694699Y-3633817D01*
X-3694699Y-3633817D02*
X-3723270Y-3633817D01*
X-3723270Y-3633817D02*
X-3742318Y-3624293D01*
X-3742318Y-3624293D02*
X-3751842Y-3605246D01*
X-3751842Y-3605246D02*
X-3751842Y-3595722D01*
X-3751842Y-3595722D02*
X-3742318Y-3576674D01*
X-3742318Y-3576674D02*
X-3723270Y-3567150D01*
X-3723270Y-3567150D02*
X-3694699Y-3567150D01*
X-3694699Y-3567150D02*
X-3675651Y-3576674D01*
X-3599461Y-3776674D02*
X-3589937Y-3767150D01*
X-3589937Y-3767150D02*
X-3570889Y-3738579D01*
X-3570889Y-3738579D02*
X-3561365Y-3719531D01*
X-3561365Y-3719531D02*
X-3551842Y-3690960D01*
X-3551842Y-3690960D02*
X-3542318Y-3643341D01*
X-3542318Y-3643341D02*
X-3542318Y-3605246D01*
X-3542318Y-3605246D02*
X-3551842Y-3557627D01*
X-3551842Y-3557627D02*
X-3561365Y-3529055D01*
X-3561365Y-3529055D02*
X-3570889Y-3510008D01*
X-3570889Y-3510008D02*
X-3589937Y-3481436D01*
X-3589937Y-3481436D02*
X-3599461Y-3471912D01*
D10*
X-8615000Y-3823000D02*
X-8615000Y-3923000D01*
X-8665000Y-3873000D02*
X-8565000Y-3873000D01*
D11*
X-8199461Y-3964484D02*
X-8313747Y-3964484D01*
X-8256604Y-3964484D02*
X-8256604Y-3764484D01*
X-8256604Y-3764484D02*
X-8275652Y-3793055D01*
X-8275652Y-3793055D02*
X-8294699Y-3812103D01*
X-8294699Y-3812103D02*
X-8313747Y-3821627D01*
X-8113747Y-3945436D02*
X-8104223Y-3954960D01*
X-8104223Y-3954960D02*
X-8113747Y-3964484D01*
X-8113747Y-3964484D02*
X-8123271Y-3954960D01*
X-8123271Y-3954960D02*
X-8113747Y-3945436D01*
X-8113747Y-3945436D02*
X-8113747Y-3964484D01*
X-7980414Y-3764484D02*
X-7961366Y-3764484D01*
X-7961366Y-3764484D02*
X-7942318Y-3774008D01*
X-7942318Y-3774008D02*
X-7932794Y-3783531D01*
X-7932794Y-3783531D02*
X-7923271Y-3802579D01*
X-7923271Y-3802579D02*
X-7913747Y-3840674D01*
X-7913747Y-3840674D02*
X-7913747Y-3888293D01*
X-7913747Y-3888293D02*
X-7923271Y-3926388D01*
X-7923271Y-3926388D02*
X-7932794Y-3945436D01*
X-7932794Y-3945436D02*
X-7942318Y-3954960D01*
X-7942318Y-3954960D02*
X-7961366Y-3964484D01*
X-7961366Y-3964484D02*
X-7980414Y-3964484D01*
X-7980414Y-3964484D02*
X-7999461Y-3954960D01*
X-7999461Y-3954960D02*
X-8008985Y-3945436D01*
X-8008985Y-3945436D02*
X-8018509Y-3926388D01*
X-8018509Y-3926388D02*
X-8028033Y-3888293D01*
X-8028033Y-3888293D02*
X-8028033Y-3840674D01*
X-8028033Y-3840674D02*
X-8018509Y-3802579D01*
X-8018509Y-3802579D02*
X-8008985Y-3783531D01*
X-8008985Y-3783531D02*
X-7999461Y-3774008D01*
X-7999461Y-3774008D02*
X-7980414Y-3764484D01*
X-7789937Y-3764484D02*
X-7770890Y-3764484D01*
X-7770890Y-3764484D02*
X-7751842Y-3774008D01*
X-7751842Y-3774008D02*
X-7742318Y-3783531D01*
X-7742318Y-3783531D02*
X-7732794Y-3802579D01*
X-7732794Y-3802579D02*
X-7723271Y-3840674D01*
X-7723271Y-3840674D02*
X-7723271Y-3888293D01*
X-7723271Y-3888293D02*
X-7732794Y-3926388D01*
X-7732794Y-3926388D02*
X-7742318Y-3945436D01*
X-7742318Y-3945436D02*
X-7751842Y-3954960D01*
X-7751842Y-3954960D02*
X-7770890Y-3964484D01*
X-7770890Y-3964484D02*
X-7789937Y-3964484D01*
X-7789937Y-3964484D02*
X-7808985Y-3954960D01*
X-7808985Y-3954960D02*
X-7818509Y-3945436D01*
X-7818509Y-3945436D02*
X-7828033Y-3926388D01*
X-7828033Y-3926388D02*
X-7837556Y-3888293D01*
X-7837556Y-3888293D02*
X-7837556Y-3840674D01*
X-7837556Y-3840674D02*
X-7828033Y-3802579D01*
X-7828033Y-3802579D02*
X-7818509Y-3783531D01*
X-7818509Y-3783531D02*
X-7808985Y-3774008D01*
X-7808985Y-3774008D02*
X-7789937Y-3764484D01*
X-7599461Y-3764484D02*
X-7580413Y-3764484D01*
X-7580413Y-3764484D02*
X-7561366Y-3774008D01*
X-7561366Y-3774008D02*
X-7551842Y-3783531D01*
X-7551842Y-3783531D02*
X-7542318Y-3802579D01*
X-7542318Y-3802579D02*
X-7532794Y-3840674D01*
X-7532794Y-3840674D02*
X-7532794Y-3888293D01*
X-7532794Y-3888293D02*
X-7542318Y-3926388D01*
X-7542318Y-3926388D02*
X-7551842Y-3945436D01*
X-7551842Y-3945436D02*
X-7561366Y-3954960D01*
X-7561366Y-3954960D02*
X-7580413Y-3964484D01*
X-7580413Y-3964484D02*
X-7599461Y-3964484D01*
X-7599461Y-3964484D02*
X-7618509Y-3954960D01*
X-7618509Y-3954960D02*
X-7628033Y-3945436D01*
X-7628033Y-3945436D02*
X-7637556Y-3926388D01*
X-7637556Y-3926388D02*
X-7647080Y-3888293D01*
X-7647080Y-3888293D02*
X-7647080Y-3840674D01*
X-7647080Y-3840674D02*
X-7637556Y-3802579D01*
X-7637556Y-3802579D02*
X-7628033Y-3783531D01*
X-7628033Y-3783531D02*
X-7618509Y-3774008D01*
X-7618509Y-3774008D02*
X-7599461Y-3764484D01*
X-7447080Y-3964484D02*
X-7447080Y-3831150D01*
X-7447080Y-3850198D02*
X-7437556Y-3840674D01*
X-7437556Y-3840674D02*
X-7418509Y-3831150D01*
X-7418509Y-3831150D02*
X-7389937Y-3831150D01*
X-7389937Y-3831150D02*
X-7370890Y-3840674D01*
X-7370890Y-3840674D02*
X-7361366Y-3859722D01*
X-7361366Y-3859722D02*
X-7361366Y-3964484D01*
X-7361366Y-3859722D02*
X-7351842Y-3840674D01*
X-7351842Y-3840674D02*
X-7332794Y-3831150D01*
X-7332794Y-3831150D02*
X-7304223Y-3831150D01*
X-7304223Y-3831150D02*
X-7285175Y-3840674D01*
X-7285175Y-3840674D02*
X-7275652Y-3859722D01*
X-7275652Y-3859722D02*
X-7275652Y-3964484D01*
X-7180413Y-3964484D02*
X-7180413Y-3831150D01*
X-7180413Y-3850198D02*
X-7170890Y-3840674D01*
X-7170890Y-3840674D02*
X-7151842Y-3831150D01*
X-7151842Y-3831150D02*
X-7123271Y-3831150D01*
X-7123271Y-3831150D02*
X-7104223Y-3840674D01*
X-7104223Y-3840674D02*
X-7094699Y-3859722D01*
X-7094699Y-3859722D02*
X-7094699Y-3964484D01*
X-7094699Y-3859722D02*
X-7085175Y-3840674D01*
X-7085175Y-3840674D02*
X-7066128Y-3831150D01*
X-7066128Y-3831150D02*
X-7037556Y-3831150D01*
X-7037556Y-3831150D02*
X-7018509Y-3840674D01*
X-7018509Y-3840674D02*
X-7008985Y-3859722D01*
X-7008985Y-3859722D02*
X-7008985Y-3964484D01*
X-6618509Y-3754960D02*
X-6789937Y-4012103D01*
X-6361366Y-3764484D02*
X-6342318Y-3764484D01*
X-6342318Y-3764484D02*
X-6323270Y-3774008D01*
X-6323270Y-3774008D02*
X-6313747Y-3783531D01*
X-6313747Y-3783531D02*
X-6304223Y-3802579D01*
X-6304223Y-3802579D02*
X-6294699Y-3840674D01*
X-6294699Y-3840674D02*
X-6294699Y-3888293D01*
X-6294699Y-3888293D02*
X-6304223Y-3926388D01*
X-6304223Y-3926388D02*
X-6313747Y-3945436D01*
X-6313747Y-3945436D02*
X-6323270Y-3954960D01*
X-6323270Y-3954960D02*
X-6342318Y-3964484D01*
X-6342318Y-3964484D02*
X-6361366Y-3964484D01*
X-6361366Y-3964484D02*
X-6380413Y-3954960D01*
X-6380413Y-3954960D02*
X-6389937Y-3945436D01*
X-6389937Y-3945436D02*
X-6399461Y-3926388D01*
X-6399461Y-3926388D02*
X-6408985Y-3888293D01*
X-6408985Y-3888293D02*
X-6408985Y-3840674D01*
X-6408985Y-3840674D02*
X-6399461Y-3802579D01*
X-6399461Y-3802579D02*
X-6389937Y-3783531D01*
X-6389937Y-3783531D02*
X-6380413Y-3774008D01*
X-6380413Y-3774008D02*
X-6361366Y-3764484D01*
X-6208985Y-3945436D02*
X-6199461Y-3954960D01*
X-6199461Y-3954960D02*
X-6208985Y-3964484D01*
X-6208985Y-3964484D02*
X-6218509Y-3954960D01*
X-6218509Y-3954960D02*
X-6208985Y-3945436D01*
X-6208985Y-3945436D02*
X-6208985Y-3964484D01*
X-6075651Y-3764484D02*
X-6056604Y-3764484D01*
X-6056604Y-3764484D02*
X-6037556Y-3774008D01*
X-6037556Y-3774008D02*
X-6028032Y-3783531D01*
X-6028032Y-3783531D02*
X-6018509Y-3802579D01*
X-6018509Y-3802579D02*
X-6008985Y-3840674D01*
X-6008985Y-3840674D02*
X-6008985Y-3888293D01*
X-6008985Y-3888293D02*
X-6018509Y-3926388D01*
X-6018509Y-3926388D02*
X-6028032Y-3945436D01*
X-6028032Y-3945436D02*
X-6037556Y-3954960D01*
X-6037556Y-3954960D02*
X-6056604Y-3964484D01*
X-6056604Y-3964484D02*
X-6075651Y-3964484D01*
X-6075651Y-3964484D02*
X-6094699Y-3954960D01*
X-6094699Y-3954960D02*
X-6104223Y-3945436D01*
X-6104223Y-3945436D02*
X-6113747Y-3926388D01*
X-6113747Y-3926388D02*
X-6123270Y-3888293D01*
X-6123270Y-3888293D02*
X-6123270Y-3840674D01*
X-6123270Y-3840674D02*
X-6113747Y-3802579D01*
X-6113747Y-3802579D02*
X-6104223Y-3783531D01*
X-6104223Y-3783531D02*
X-6094699Y-3774008D01*
X-6094699Y-3774008D02*
X-6075651Y-3764484D01*
X-5942318Y-3764484D02*
X-5818509Y-3764484D01*
X-5818509Y-3764484D02*
X-5885175Y-3840674D01*
X-5885175Y-3840674D02*
X-5856604Y-3840674D01*
X-5856604Y-3840674D02*
X-5837556Y-3850198D01*
X-5837556Y-3850198D02*
X-5828032Y-3859722D01*
X-5828032Y-3859722D02*
X-5818509Y-3878769D01*
X-5818509Y-3878769D02*
X-5818509Y-3926388D01*
X-5818509Y-3926388D02*
X-5828032Y-3945436D01*
X-5828032Y-3945436D02*
X-5837556Y-3954960D01*
X-5837556Y-3954960D02*
X-5856604Y-3964484D01*
X-5856604Y-3964484D02*
X-5913747Y-3964484D01*
X-5913747Y-3964484D02*
X-5932794Y-3954960D01*
X-5932794Y-3954960D02*
X-5942318Y-3945436D01*
X-5723270Y-3964484D02*
X-5685175Y-3964484D01*
X-5685175Y-3964484D02*
X-5666128Y-3954960D01*
X-5666128Y-3954960D02*
X-5656604Y-3945436D01*
X-5656604Y-3945436D02*
X-5637556Y-3916865D01*
X-5637556Y-3916865D02*
X-5628032Y-3878769D01*
X-5628032Y-3878769D02*
X-5628032Y-3802579D01*
X-5628032Y-3802579D02*
X-5637556Y-3783531D01*
X-5637556Y-3783531D02*
X-5647080Y-3774008D01*
X-5647080Y-3774008D02*
X-5666128Y-3764484D01*
X-5666128Y-3764484D02*
X-5704223Y-3764484D01*
X-5704223Y-3764484D02*
X-5723270Y-3774008D01*
X-5723270Y-3774008D02*
X-5732794Y-3783531D01*
X-5732794Y-3783531D02*
X-5742318Y-3802579D01*
X-5742318Y-3802579D02*
X-5742318Y-3850198D01*
X-5742318Y-3850198D02*
X-5732794Y-3869246D01*
X-5732794Y-3869246D02*
X-5723270Y-3878769D01*
X-5723270Y-3878769D02*
X-5704223Y-3888293D01*
X-5704223Y-3888293D02*
X-5666128Y-3888293D01*
X-5666128Y-3888293D02*
X-5647080Y-3878769D01*
X-5647080Y-3878769D02*
X-5637556Y-3869246D01*
X-5637556Y-3869246D02*
X-5628032Y-3850198D01*
X-5456604Y-3831150D02*
X-5456604Y-3964484D01*
X-5504223Y-3754960D02*
X-5551842Y-3897817D01*
X-5551842Y-3897817D02*
X-5428032Y-3897817D01*
X-5361366Y-3764484D02*
X-5361366Y-3802579D01*
X-5285175Y-3764484D02*
X-5285175Y-3802579D01*
X-4989937Y-4040674D02*
X-4999461Y-4031150D01*
X-4999461Y-4031150D02*
X-5018509Y-4002579D01*
X-5018509Y-4002579D02*
X-5028032Y-3983531D01*
X-5028032Y-3983531D02*
X-5037556Y-3954960D01*
X-5037556Y-3954960D02*
X-5047080Y-3907341D01*
X-5047080Y-3907341D02*
X-5047080Y-3869246D01*
X-5047080Y-3869246D02*
X-5037556Y-3821627D01*
X-5037556Y-3821627D02*
X-5028032Y-3793055D01*
X-5028032Y-3793055D02*
X-5018509Y-3774008D01*
X-5018509Y-3774008D02*
X-4999461Y-3745436D01*
X-4999461Y-3745436D02*
X-4989937Y-3735912D01*
X-4818509Y-3764484D02*
X-4913747Y-3764484D01*
X-4913747Y-3764484D02*
X-4923270Y-3859722D01*
X-4923270Y-3859722D02*
X-4913747Y-3850198D01*
X-4913747Y-3850198D02*
X-4894699Y-3840674D01*
X-4894699Y-3840674D02*
X-4847080Y-3840674D01*
X-4847080Y-3840674D02*
X-4828032Y-3850198D01*
X-4828032Y-3850198D02*
X-4818509Y-3859722D01*
X-4818509Y-3859722D02*
X-4808985Y-3878769D01*
X-4808985Y-3878769D02*
X-4808985Y-3926388D01*
X-4808985Y-3926388D02*
X-4818509Y-3945436D01*
X-4818509Y-3945436D02*
X-4828032Y-3954960D01*
X-4828032Y-3954960D02*
X-4847080Y-3964484D01*
X-4847080Y-3964484D02*
X-4894699Y-3964484D01*
X-4894699Y-3964484D02*
X-4913747Y-3954960D01*
X-4913747Y-3954960D02*
X-4923270Y-3945436D01*
X-4637556Y-3831150D02*
X-4637556Y-3964484D01*
X-4685175Y-3754960D02*
X-4732794Y-3897817D01*
X-4732794Y-3897817D02*
X-4608985Y-3897817D01*
X-4380413Y-3964484D02*
X-4380413Y-3764484D01*
X-4294699Y-3964484D02*
X-4294699Y-3859722D01*
X-4294699Y-3859722D02*
X-4304223Y-3840674D01*
X-4304223Y-3840674D02*
X-4323270Y-3831150D01*
X-4323270Y-3831150D02*
X-4351842Y-3831150D01*
X-4351842Y-3831150D02*
X-4370889Y-3840674D01*
X-4370889Y-3840674D02*
X-4380413Y-3850198D01*
X-4170889Y-3964484D02*
X-4189937Y-3954960D01*
X-4189937Y-3954960D02*
X-4199461Y-3945436D01*
X-4199461Y-3945436D02*
X-4208985Y-3926388D01*
X-4208985Y-3926388D02*
X-4208985Y-3869246D01*
X-4208985Y-3869246D02*
X-4199461Y-3850198D01*
X-4199461Y-3850198D02*
X-4189937Y-3840674D01*
X-4189937Y-3840674D02*
X-4170889Y-3831150D01*
X-4170889Y-3831150D02*
X-4142318Y-3831150D01*
X-4142318Y-3831150D02*
X-4123270Y-3840674D01*
X-4123270Y-3840674D02*
X-4113746Y-3850198D01*
X-4113746Y-3850198D02*
X-4104223Y-3869246D01*
X-4104223Y-3869246D02*
X-4104223Y-3926388D01*
X-4104223Y-3926388D02*
X-4113746Y-3945436D01*
X-4113746Y-3945436D02*
X-4123270Y-3954960D01*
X-4123270Y-3954960D02*
X-4142318Y-3964484D01*
X-4142318Y-3964484D02*
X-4170889Y-3964484D01*
X-3989937Y-3964484D02*
X-4008985Y-3954960D01*
X-4008985Y-3954960D02*
X-4018508Y-3935912D01*
X-4018508Y-3935912D02*
X-4018508Y-3764484D01*
X-3837556Y-3954960D02*
X-3856604Y-3964484D01*
X-3856604Y-3964484D02*
X-3894699Y-3964484D01*
X-3894699Y-3964484D02*
X-3913746Y-3954960D01*
X-3913746Y-3954960D02*
X-3923270Y-3935912D01*
X-3923270Y-3935912D02*
X-3923270Y-3859722D01*
X-3923270Y-3859722D02*
X-3913746Y-3840674D01*
X-3913746Y-3840674D02*
X-3894699Y-3831150D01*
X-3894699Y-3831150D02*
X-3856604Y-3831150D01*
X-3856604Y-3831150D02*
X-3837556Y-3840674D01*
X-3837556Y-3840674D02*
X-3828032Y-3859722D01*
X-3828032Y-3859722D02*
X-3828032Y-3878769D01*
X-3828032Y-3878769D02*
X-3923270Y-3897817D01*
X-3751842Y-3954960D02*
X-3732794Y-3964484D01*
X-3732794Y-3964484D02*
X-3694699Y-3964484D01*
X-3694699Y-3964484D02*
X-3675651Y-3954960D01*
X-3675651Y-3954960D02*
X-3666127Y-3935912D01*
X-3666127Y-3935912D02*
X-3666127Y-3926388D01*
X-3666127Y-3926388D02*
X-3675651Y-3907341D01*
X-3675651Y-3907341D02*
X-3694699Y-3897817D01*
X-3694699Y-3897817D02*
X-3723270Y-3897817D01*
X-3723270Y-3897817D02*
X-3742318Y-3888293D01*
X-3742318Y-3888293D02*
X-3751842Y-3869246D01*
X-3751842Y-3869246D02*
X-3751842Y-3859722D01*
X-3751842Y-3859722D02*
X-3742318Y-3840674D01*
X-3742318Y-3840674D02*
X-3723270Y-3831150D01*
X-3723270Y-3831150D02*
X-3694699Y-3831150D01*
X-3694699Y-3831150D02*
X-3675651Y-3840674D01*
X-3599461Y-4040674D02*
X-3589937Y-4031150D01*
X-3589937Y-4031150D02*
X-3570889Y-4002579D01*
X-3570889Y-4002579D02*
X-3561365Y-3983531D01*
X-3561365Y-3983531D02*
X-3551842Y-3954960D01*
X-3551842Y-3954960D02*
X-3542318Y-3907341D01*
X-3542318Y-3907341D02*
X-3542318Y-3869246D01*
X-3542318Y-3869246D02*
X-3551842Y-3821627D01*
X-3551842Y-3821627D02*
X-3561365Y-3793055D01*
X-3561365Y-3793055D02*
X-3570889Y-3774008D01*
X-3570889Y-3774008D02*
X-3589937Y-3745436D01*
X-3589937Y-3745436D02*
X-3599461Y-3735912D01*
X-8594289Y-4207711D02*
X-8594289Y-4066289D01*
X-8735711Y-4066289D01*
X-8735711Y-4207711D01*
X-8594289Y-4207711D01*
X-8218509Y-4095150D02*
X-8218509Y-4228484D01*
X-8266128Y-4018960D02*
X-8313747Y-4161817D01*
X-8313747Y-4161817D02*
X-8189937Y-4161817D01*
X-8113747Y-4209436D02*
X-8104223Y-4218960D01*
X-8104223Y-4218960D02*
X-8113747Y-4228484D01*
X-8113747Y-4228484D02*
X-8123271Y-4218960D01*
X-8123271Y-4218960D02*
X-8113747Y-4209436D01*
X-8113747Y-4209436D02*
X-8113747Y-4228484D01*
X-7932794Y-4028484D02*
X-7970890Y-4028484D01*
X-7970890Y-4028484D02*
X-7989937Y-4038008D01*
X-7989937Y-4038008D02*
X-7999461Y-4047531D01*
X-7999461Y-4047531D02*
X-8018509Y-4076103D01*
X-8018509Y-4076103D02*
X-8028033Y-4114198D01*
X-8028033Y-4114198D02*
X-8028033Y-4190388D01*
X-8028033Y-4190388D02*
X-8018509Y-4209436D01*
X-8018509Y-4209436D02*
X-8008985Y-4218960D01*
X-8008985Y-4218960D02*
X-7989937Y-4228484D01*
X-7989937Y-4228484D02*
X-7951842Y-4228484D01*
X-7951842Y-4228484D02*
X-7932794Y-4218960D01*
X-7932794Y-4218960D02*
X-7923271Y-4209436D01*
X-7923271Y-4209436D02*
X-7913747Y-4190388D01*
X-7913747Y-4190388D02*
X-7913747Y-4142769D01*
X-7913747Y-4142769D02*
X-7923271Y-4123722D01*
X-7923271Y-4123722D02*
X-7932794Y-4114198D01*
X-7932794Y-4114198D02*
X-7951842Y-4104674D01*
X-7951842Y-4104674D02*
X-7989937Y-4104674D01*
X-7989937Y-4104674D02*
X-8008985Y-4114198D01*
X-8008985Y-4114198D02*
X-8018509Y-4123722D01*
X-8018509Y-4123722D02*
X-8028033Y-4142769D01*
X-7789937Y-4028484D02*
X-7770890Y-4028484D01*
X-7770890Y-4028484D02*
X-7751842Y-4038008D01*
X-7751842Y-4038008D02*
X-7742318Y-4047531D01*
X-7742318Y-4047531D02*
X-7732794Y-4066579D01*
X-7732794Y-4066579D02*
X-7723271Y-4104674D01*
X-7723271Y-4104674D02*
X-7723271Y-4152293D01*
X-7723271Y-4152293D02*
X-7732794Y-4190388D01*
X-7732794Y-4190388D02*
X-7742318Y-4209436D01*
X-7742318Y-4209436D02*
X-7751842Y-4218960D01*
X-7751842Y-4218960D02*
X-7770890Y-4228484D01*
X-7770890Y-4228484D02*
X-7789937Y-4228484D01*
X-7789937Y-4228484D02*
X-7808985Y-4218960D01*
X-7808985Y-4218960D02*
X-7818509Y-4209436D01*
X-7818509Y-4209436D02*
X-7828033Y-4190388D01*
X-7828033Y-4190388D02*
X-7837556Y-4152293D01*
X-7837556Y-4152293D02*
X-7837556Y-4104674D01*
X-7837556Y-4104674D02*
X-7828033Y-4066579D01*
X-7828033Y-4066579D02*
X-7818509Y-4047531D01*
X-7818509Y-4047531D02*
X-7808985Y-4038008D01*
X-7808985Y-4038008D02*
X-7789937Y-4028484D01*
X-7599461Y-4028484D02*
X-7580413Y-4028484D01*
X-7580413Y-4028484D02*
X-7561366Y-4038008D01*
X-7561366Y-4038008D02*
X-7551842Y-4047531D01*
X-7551842Y-4047531D02*
X-7542318Y-4066579D01*
X-7542318Y-4066579D02*
X-7532794Y-4104674D01*
X-7532794Y-4104674D02*
X-7532794Y-4152293D01*
X-7532794Y-4152293D02*
X-7542318Y-4190388D01*
X-7542318Y-4190388D02*
X-7551842Y-4209436D01*
X-7551842Y-4209436D02*
X-7561366Y-4218960D01*
X-7561366Y-4218960D02*
X-7580413Y-4228484D01*
X-7580413Y-4228484D02*
X-7599461Y-4228484D01*
X-7599461Y-4228484D02*
X-7618509Y-4218960D01*
X-7618509Y-4218960D02*
X-7628033Y-4209436D01*
X-7628033Y-4209436D02*
X-7637556Y-4190388D01*
X-7637556Y-4190388D02*
X-7647080Y-4152293D01*
X-7647080Y-4152293D02*
X-7647080Y-4104674D01*
X-7647080Y-4104674D02*
X-7637556Y-4066579D01*
X-7637556Y-4066579D02*
X-7628033Y-4047531D01*
X-7628033Y-4047531D02*
X-7618509Y-4038008D01*
X-7618509Y-4038008D02*
X-7599461Y-4028484D01*
X-7447080Y-4228484D02*
X-7447080Y-4095150D01*
X-7447080Y-4114198D02*
X-7437556Y-4104674D01*
X-7437556Y-4104674D02*
X-7418509Y-4095150D01*
X-7418509Y-4095150D02*
X-7389937Y-4095150D01*
X-7389937Y-4095150D02*
X-7370890Y-4104674D01*
X-7370890Y-4104674D02*
X-7361366Y-4123722D01*
X-7361366Y-4123722D02*
X-7361366Y-4228484D01*
X-7361366Y-4123722D02*
X-7351842Y-4104674D01*
X-7351842Y-4104674D02*
X-7332794Y-4095150D01*
X-7332794Y-4095150D02*
X-7304223Y-4095150D01*
X-7304223Y-4095150D02*
X-7285175Y-4104674D01*
X-7285175Y-4104674D02*
X-7275652Y-4123722D01*
X-7275652Y-4123722D02*
X-7275652Y-4228484D01*
X-7180413Y-4228484D02*
X-7180413Y-4095150D01*
X-7180413Y-4114198D02*
X-7170890Y-4104674D01*
X-7170890Y-4104674D02*
X-7151842Y-4095150D01*
X-7151842Y-4095150D02*
X-7123271Y-4095150D01*
X-7123271Y-4095150D02*
X-7104223Y-4104674D01*
X-7104223Y-4104674D02*
X-7094699Y-4123722D01*
X-7094699Y-4123722D02*
X-7094699Y-4228484D01*
X-7094699Y-4123722D02*
X-7085175Y-4104674D01*
X-7085175Y-4104674D02*
X-7066128Y-4095150D01*
X-7066128Y-4095150D02*
X-7037556Y-4095150D01*
X-7037556Y-4095150D02*
X-7018509Y-4104674D01*
X-7018509Y-4104674D02*
X-7008985Y-4123722D01*
X-7008985Y-4123722D02*
X-7008985Y-4228484D01*
X-6618509Y-4018960D02*
X-6789937Y-4276103D01*
X-6361366Y-4028484D02*
X-6342318Y-4028484D01*
X-6342318Y-4028484D02*
X-6323270Y-4038008D01*
X-6323270Y-4038008D02*
X-6313747Y-4047531D01*
X-6313747Y-4047531D02*
X-6304223Y-4066579D01*
X-6304223Y-4066579D02*
X-6294699Y-4104674D01*
X-6294699Y-4104674D02*
X-6294699Y-4152293D01*
X-6294699Y-4152293D02*
X-6304223Y-4190388D01*
X-6304223Y-4190388D02*
X-6313747Y-4209436D01*
X-6313747Y-4209436D02*
X-6323270Y-4218960D01*
X-6323270Y-4218960D02*
X-6342318Y-4228484D01*
X-6342318Y-4228484D02*
X-6361366Y-4228484D01*
X-6361366Y-4228484D02*
X-6380413Y-4218960D01*
X-6380413Y-4218960D02*
X-6389937Y-4209436D01*
X-6389937Y-4209436D02*
X-6399461Y-4190388D01*
X-6399461Y-4190388D02*
X-6408985Y-4152293D01*
X-6408985Y-4152293D02*
X-6408985Y-4104674D01*
X-6408985Y-4104674D02*
X-6399461Y-4066579D01*
X-6399461Y-4066579D02*
X-6389937Y-4047531D01*
X-6389937Y-4047531D02*
X-6380413Y-4038008D01*
X-6380413Y-4038008D02*
X-6361366Y-4028484D01*
X-6208985Y-4209436D02*
X-6199461Y-4218960D01*
X-6199461Y-4218960D02*
X-6208985Y-4228484D01*
X-6208985Y-4228484D02*
X-6218509Y-4218960D01*
X-6218509Y-4218960D02*
X-6208985Y-4209436D01*
X-6208985Y-4209436D02*
X-6208985Y-4228484D01*
X-6008985Y-4228484D02*
X-6123270Y-4228484D01*
X-6066128Y-4228484D02*
X-6066128Y-4028484D01*
X-6066128Y-4028484D02*
X-6085175Y-4057055D01*
X-6085175Y-4057055D02*
X-6104223Y-4076103D01*
X-6104223Y-4076103D02*
X-6123270Y-4085627D01*
X-5894699Y-4114198D02*
X-5913747Y-4104674D01*
X-5913747Y-4104674D02*
X-5923270Y-4095150D01*
X-5923270Y-4095150D02*
X-5932794Y-4076103D01*
X-5932794Y-4076103D02*
X-5932794Y-4066579D01*
X-5932794Y-4066579D02*
X-5923270Y-4047531D01*
X-5923270Y-4047531D02*
X-5913747Y-4038008D01*
X-5913747Y-4038008D02*
X-5894699Y-4028484D01*
X-5894699Y-4028484D02*
X-5856604Y-4028484D01*
X-5856604Y-4028484D02*
X-5837556Y-4038008D01*
X-5837556Y-4038008D02*
X-5828032Y-4047531D01*
X-5828032Y-4047531D02*
X-5818509Y-4066579D01*
X-5818509Y-4066579D02*
X-5818509Y-4076103D01*
X-5818509Y-4076103D02*
X-5828032Y-4095150D01*
X-5828032Y-4095150D02*
X-5837556Y-4104674D01*
X-5837556Y-4104674D02*
X-5856604Y-4114198D01*
X-5856604Y-4114198D02*
X-5894699Y-4114198D01*
X-5894699Y-4114198D02*
X-5913747Y-4123722D01*
X-5913747Y-4123722D02*
X-5923270Y-4133246D01*
X-5923270Y-4133246D02*
X-5932794Y-4152293D01*
X-5932794Y-4152293D02*
X-5932794Y-4190388D01*
X-5932794Y-4190388D02*
X-5923270Y-4209436D01*
X-5923270Y-4209436D02*
X-5913747Y-4218960D01*
X-5913747Y-4218960D02*
X-5894699Y-4228484D01*
X-5894699Y-4228484D02*
X-5856604Y-4228484D01*
X-5856604Y-4228484D02*
X-5837556Y-4218960D01*
X-5837556Y-4218960D02*
X-5828032Y-4209436D01*
X-5828032Y-4209436D02*
X-5818509Y-4190388D01*
X-5818509Y-4190388D02*
X-5818509Y-4152293D01*
X-5818509Y-4152293D02*
X-5828032Y-4133246D01*
X-5828032Y-4133246D02*
X-5837556Y-4123722D01*
X-5837556Y-4123722D02*
X-5856604Y-4114198D01*
X-5628032Y-4228484D02*
X-5742318Y-4228484D01*
X-5685175Y-4228484D02*
X-5685175Y-4028484D01*
X-5685175Y-4028484D02*
X-5704223Y-4057055D01*
X-5704223Y-4057055D02*
X-5723270Y-4076103D01*
X-5723270Y-4076103D02*
X-5742318Y-4085627D01*
X-5437556Y-4228484D02*
X-5551842Y-4228484D01*
X-5494699Y-4228484D02*
X-5494699Y-4028484D01*
X-5494699Y-4028484D02*
X-5513747Y-4057055D01*
X-5513747Y-4057055D02*
X-5532794Y-4076103D01*
X-5532794Y-4076103D02*
X-5551842Y-4085627D01*
X-5361366Y-4028484D02*
X-5361366Y-4066579D01*
X-5285175Y-4028484D02*
X-5285175Y-4066579D01*
X-4989937Y-4304674D02*
X-4999461Y-4295150D01*
X-4999461Y-4295150D02*
X-5018509Y-4266579D01*
X-5018509Y-4266579D02*
X-5028032Y-4247531D01*
X-5028032Y-4247531D02*
X-5037556Y-4218960D01*
X-5037556Y-4218960D02*
X-5047080Y-4171341D01*
X-5047080Y-4171341D02*
X-5047080Y-4133246D01*
X-5047080Y-4133246D02*
X-5037556Y-4085627D01*
X-5037556Y-4085627D02*
X-5028032Y-4057055D01*
X-5028032Y-4057055D02*
X-5018509Y-4038008D01*
X-5018509Y-4038008D02*
X-4999461Y-4009436D01*
X-4999461Y-4009436D02*
X-4989937Y-3999912D01*
X-4885175Y-4114198D02*
X-4904223Y-4104674D01*
X-4904223Y-4104674D02*
X-4913747Y-4095150D01*
X-4913747Y-4095150D02*
X-4923270Y-4076103D01*
X-4923270Y-4076103D02*
X-4923270Y-4066579D01*
X-4923270Y-4066579D02*
X-4913747Y-4047531D01*
X-4913747Y-4047531D02*
X-4904223Y-4038008D01*
X-4904223Y-4038008D02*
X-4885175Y-4028484D01*
X-4885175Y-4028484D02*
X-4847080Y-4028484D01*
X-4847080Y-4028484D02*
X-4828032Y-4038008D01*
X-4828032Y-4038008D02*
X-4818509Y-4047531D01*
X-4818509Y-4047531D02*
X-4808985Y-4066579D01*
X-4808985Y-4066579D02*
X-4808985Y-4076103D01*
X-4808985Y-4076103D02*
X-4818509Y-4095150D01*
X-4818509Y-4095150D02*
X-4828032Y-4104674D01*
X-4828032Y-4104674D02*
X-4847080Y-4114198D01*
X-4847080Y-4114198D02*
X-4885175Y-4114198D01*
X-4885175Y-4114198D02*
X-4904223Y-4123722D01*
X-4904223Y-4123722D02*
X-4913747Y-4133246D01*
X-4913747Y-4133246D02*
X-4923270Y-4152293D01*
X-4923270Y-4152293D02*
X-4923270Y-4190388D01*
X-4923270Y-4190388D02*
X-4913747Y-4209436D01*
X-4913747Y-4209436D02*
X-4904223Y-4218960D01*
X-4904223Y-4218960D02*
X-4885175Y-4228484D01*
X-4885175Y-4228484D02*
X-4847080Y-4228484D01*
X-4847080Y-4228484D02*
X-4828032Y-4218960D01*
X-4828032Y-4218960D02*
X-4818509Y-4209436D01*
X-4818509Y-4209436D02*
X-4808985Y-4190388D01*
X-4808985Y-4190388D02*
X-4808985Y-4152293D01*
X-4808985Y-4152293D02*
X-4818509Y-4133246D01*
X-4818509Y-4133246D02*
X-4828032Y-4123722D01*
X-4828032Y-4123722D02*
X-4847080Y-4114198D01*
X-4570889Y-4228484D02*
X-4570889Y-4028484D01*
X-4485175Y-4228484D02*
X-4485175Y-4123722D01*
X-4485175Y-4123722D02*
X-4494699Y-4104674D01*
X-4494699Y-4104674D02*
X-4513747Y-4095150D01*
X-4513747Y-4095150D02*
X-4542318Y-4095150D01*
X-4542318Y-4095150D02*
X-4561366Y-4104674D01*
X-4561366Y-4104674D02*
X-4570889Y-4114198D01*
X-4361366Y-4228484D02*
X-4380413Y-4218960D01*
X-4380413Y-4218960D02*
X-4389937Y-4209436D01*
X-4389937Y-4209436D02*
X-4399461Y-4190388D01*
X-4399461Y-4190388D02*
X-4399461Y-4133246D01*
X-4399461Y-4133246D02*
X-4389937Y-4114198D01*
X-4389937Y-4114198D02*
X-4380413Y-4104674D01*
X-4380413Y-4104674D02*
X-4361366Y-4095150D01*
X-4361366Y-4095150D02*
X-4332794Y-4095150D01*
X-4332794Y-4095150D02*
X-4313747Y-4104674D01*
X-4313747Y-4104674D02*
X-4304223Y-4114198D01*
X-4304223Y-4114198D02*
X-4294699Y-4133246D01*
X-4294699Y-4133246D02*
X-4294699Y-4190388D01*
X-4294699Y-4190388D02*
X-4304223Y-4209436D01*
X-4304223Y-4209436D02*
X-4313747Y-4218960D01*
X-4313747Y-4218960D02*
X-4332794Y-4228484D01*
X-4332794Y-4228484D02*
X-4361366Y-4228484D01*
X-4180413Y-4228484D02*
X-4199461Y-4218960D01*
X-4199461Y-4218960D02*
X-4208985Y-4199912D01*
X-4208985Y-4199912D02*
X-4208985Y-4028484D01*
X-4028032Y-4218960D02*
X-4047080Y-4228484D01*
X-4047080Y-4228484D02*
X-4085175Y-4228484D01*
X-4085175Y-4228484D02*
X-4104223Y-4218960D01*
X-4104223Y-4218960D02*
X-4113746Y-4199912D01*
X-4113746Y-4199912D02*
X-4113746Y-4123722D01*
X-4113746Y-4123722D02*
X-4104223Y-4104674D01*
X-4104223Y-4104674D02*
X-4085175Y-4095150D01*
X-4085175Y-4095150D02*
X-4047080Y-4095150D01*
X-4047080Y-4095150D02*
X-4028032Y-4104674D01*
X-4028032Y-4104674D02*
X-4018508Y-4123722D01*
X-4018508Y-4123722D02*
X-4018508Y-4142769D01*
X-4018508Y-4142769D02*
X-4113746Y-4161817D01*
X-3942318Y-4218960D02*
X-3923270Y-4228484D01*
X-3923270Y-4228484D02*
X-3885175Y-4228484D01*
X-3885175Y-4228484D02*
X-3866127Y-4218960D01*
X-3866127Y-4218960D02*
X-3856604Y-4199912D01*
X-3856604Y-4199912D02*
X-3856604Y-4190388D01*
X-3856604Y-4190388D02*
X-3866127Y-4171341D01*
X-3866127Y-4171341D02*
X-3885175Y-4161817D01*
X-3885175Y-4161817D02*
X-3913746Y-4161817D01*
X-3913746Y-4161817D02*
X-3932794Y-4152293D01*
X-3932794Y-4152293D02*
X-3942318Y-4133246D01*
X-3942318Y-4133246D02*
X-3942318Y-4123722D01*
X-3942318Y-4123722D02*
X-3932794Y-4104674D01*
X-3932794Y-4104674D02*
X-3913746Y-4095150D01*
X-3913746Y-4095150D02*
X-3885175Y-4095150D01*
X-3885175Y-4095150D02*
X-3866127Y-4104674D01*
X-3789937Y-4304674D02*
X-3780413Y-4295150D01*
X-3780413Y-4295150D02*
X-3761365Y-4266579D01*
X-3761365Y-4266579D02*
X-3751842Y-4247531D01*
X-3751842Y-4247531D02*
X-3742318Y-4218960D01*
X-3742318Y-4218960D02*
X-3732794Y-4171341D01*
X-3732794Y-4171341D02*
X-3732794Y-4133246D01*
X-3732794Y-4133246D02*
X-3742318Y-4085627D01*
X-3742318Y-4085627D02*
X-3751842Y-4057055D01*
X-3751842Y-4057055D02*
X-3761365Y-4038008D01*
X-3761365Y-4038008D02*
X-3780413Y-4009436D01*
X-3780413Y-4009436D02*
X-3789937Y-3999912D01*
M02*
